G04 EAGLE Gerber RS-274X export*
G75*
%MOMM*%
%FSLAX34Y34*%
%LPD*%
%INCopper Layer 15*%
%IPPOS*%
%AMOC8*
5,1,8,0,0,1.08239X$1,22.5*%
G01*
%ADD10C,1.981200*%
%ADD11C,1.530000*%
%ADD12C,0.756400*%
%ADD13C,0.406400*%

G36*
X-85704Y-191385D02*
X-85704Y-191385D01*
X-85683Y-191387D01*
X-85573Y-191365D01*
X-85462Y-191348D01*
X-85443Y-191339D01*
X-85423Y-191335D01*
X-85384Y-191311D01*
X-85223Y-191233D01*
X-85140Y-191156D01*
X-85097Y-191128D01*
X-5659Y-111691D01*
X-5653Y-111682D01*
X-5645Y-111676D01*
X-5575Y-111575D01*
X-5502Y-111477D01*
X-5498Y-111467D01*
X-5492Y-111458D01*
X-5455Y-111342D01*
X-5414Y-111226D01*
X-5414Y-111215D01*
X-5411Y-111205D01*
X-5409Y-111082D01*
X-5405Y-110960D01*
X-5408Y-110950D01*
X-5408Y-110939D01*
X-5443Y-110822D01*
X-5475Y-110703D01*
X-5481Y-110695D01*
X-5484Y-110684D01*
X-5552Y-110583D01*
X-5618Y-110479D01*
X-5626Y-110472D01*
X-5632Y-110463D01*
X-5657Y-110446D01*
X-5820Y-110307D01*
X-5882Y-110281D01*
X-11261Y-104902D01*
X-14161Y-97900D01*
X-14161Y-90321D01*
X-11261Y-83319D01*
X-5902Y-77960D01*
X-4423Y-77347D01*
X-4370Y-77315D01*
X-4312Y-77292D01*
X-4256Y-77247D01*
X-4195Y-77210D01*
X-4154Y-77164D01*
X-4106Y-77125D01*
X-4066Y-77065D01*
X-4018Y-77011D01*
X-3993Y-76955D01*
X-3958Y-76903D01*
X-3948Y-76856D01*
X-3908Y-76769D01*
X-3881Y-76557D01*
X-3874Y-76527D01*
X-3874Y-25825D01*
X-3880Y-25787D01*
X-3878Y-25749D01*
X-3893Y-25699D01*
X-3914Y-25562D01*
X-3978Y-25431D01*
X-3993Y-25381D01*
X-15070Y-6195D01*
X-15077Y-6186D01*
X-15079Y-6182D01*
X-15118Y-6134D01*
X-15134Y-6099D01*
X-15882Y-5124D01*
X-16020Y-4611D01*
X-16092Y-4444D01*
X-16097Y-4433D01*
X-16108Y-4396D01*
X-16374Y-3936D01*
X-16535Y-2718D01*
X-16556Y-2646D01*
X-16557Y-2604D01*
X-16875Y-1418D01*
X-16806Y-891D01*
X-16809Y-701D01*
X-16806Y-659D01*
X-16875Y-132D01*
X-16557Y1054D01*
X-16549Y1129D01*
X-16535Y1168D01*
X-16374Y2386D01*
X-16108Y2846D01*
X-16039Y3024D01*
X-16020Y3061D01*
X-15882Y3574D01*
X-15134Y4549D01*
X-15098Y4615D01*
X-15070Y4645D01*
X-3993Y23831D01*
X-3979Y23867D01*
X-3958Y23898D01*
X-3947Y23950D01*
X-3896Y24079D01*
X-3886Y24224D01*
X-3874Y24275D01*
X-3874Y76527D01*
X-3884Y76588D01*
X-3883Y76650D01*
X-3903Y76719D01*
X-3914Y76789D01*
X-3941Y76845D01*
X-3959Y76905D01*
X-3999Y76964D01*
X-4030Y77029D01*
X-4072Y77074D01*
X-4107Y77126D01*
X-4146Y77153D01*
X-4211Y77223D01*
X-4397Y77329D01*
X-4423Y77347D01*
X-5902Y77960D01*
X-11261Y83319D01*
X-14161Y90321D01*
X-14161Y97900D01*
X-11261Y104902D01*
X-9663Y106500D01*
X-9602Y106583D01*
X-9535Y106661D01*
X-9523Y106689D01*
X-9505Y106714D01*
X-9471Y106811D01*
X-9431Y106905D01*
X-9428Y106936D01*
X-9418Y106965D01*
X-9414Y107068D01*
X-9403Y107170D01*
X-9409Y107200D01*
X-9408Y107231D01*
X-9435Y107330D01*
X-9455Y107431D01*
X-9468Y107451D01*
X-9478Y107487D01*
X-9621Y107712D01*
X-9650Y107736D01*
X-9663Y107756D01*
X-89859Y187953D01*
X-89876Y187966D01*
X-89890Y187982D01*
X-89983Y188044D01*
X-90073Y188111D01*
X-90093Y188118D01*
X-90111Y188129D01*
X-90155Y188139D01*
X-90324Y188198D01*
X-90437Y188202D01*
X-90488Y188213D01*
X-167788Y188213D01*
X-167808Y188210D01*
X-167829Y188212D01*
X-167940Y188190D01*
X-168050Y188173D01*
X-168069Y188164D01*
X-168090Y188160D01*
X-168129Y188136D01*
X-168290Y188058D01*
X-168372Y187981D01*
X-168416Y187953D01*
X-172065Y184304D01*
X-176816Y182336D01*
X-181959Y182336D01*
X-186710Y184304D01*
X-190359Y187953D01*
X-190376Y187966D01*
X-190389Y187982D01*
X-190483Y188044D01*
X-190573Y188111D01*
X-190593Y188118D01*
X-190611Y188129D01*
X-190655Y188139D01*
X-190824Y188198D01*
X-190937Y188202D01*
X-190987Y188213D01*
X-216520Y188213D01*
X-216571Y188206D01*
X-216623Y188207D01*
X-216702Y188186D01*
X-216783Y188173D01*
X-216830Y188151D01*
X-216880Y188137D01*
X-216949Y188093D01*
X-217023Y188058D01*
X-217060Y188023D01*
X-217104Y187995D01*
X-217157Y187932D01*
X-217217Y187876D01*
X-217243Y187832D01*
X-217276Y187792D01*
X-217308Y187717D01*
X-217349Y187646D01*
X-217360Y187595D01*
X-217380Y187548D01*
X-217389Y187466D01*
X-217407Y187386D01*
X-217402Y187335D01*
X-217408Y187283D01*
X-217392Y187203D01*
X-217385Y187121D01*
X-217366Y187073D01*
X-217356Y187023D01*
X-217328Y186979D01*
X-217286Y186874D01*
X-217173Y186735D01*
X-217149Y186697D01*
X-214362Y183910D01*
X-211805Y177738D01*
X-211805Y171056D01*
X-214362Y164884D01*
X-219087Y160159D01*
X-224453Y157936D01*
X-224541Y157883D01*
X-224633Y157836D01*
X-224654Y157815D01*
X-224681Y157799D01*
X-224749Y157722D01*
X-224823Y157650D01*
X-224837Y157623D01*
X-224858Y157600D01*
X-224900Y157507D01*
X-224949Y157417D01*
X-224955Y157386D01*
X-224968Y157358D01*
X-224981Y157257D01*
X-225001Y157156D01*
X-224997Y157132D01*
X-225001Y157095D01*
X-224955Y156833D01*
X-224938Y156799D01*
X-224934Y156776D01*
X-224505Y155741D01*
X-224505Y149059D01*
X-227062Y142887D01*
X-231787Y138162D01*
X-237959Y135605D01*
X-244641Y135605D01*
X-250813Y138162D01*
X-255538Y142887D01*
X-256456Y145103D01*
X-256521Y145211D01*
X-256585Y145320D01*
X-256590Y145324D01*
X-256593Y145330D01*
X-256687Y145414D01*
X-256780Y145499D01*
X-256787Y145502D01*
X-256792Y145507D01*
X-256906Y145559D01*
X-257021Y145613D01*
X-257027Y145614D01*
X-257034Y145617D01*
X-257158Y145633D01*
X-257284Y145651D01*
X-257291Y145650D01*
X-257297Y145651D01*
X-257421Y145629D01*
X-257546Y145609D01*
X-257552Y145606D01*
X-257559Y145605D01*
X-257670Y145548D01*
X-257785Y145491D01*
X-257788Y145487D01*
X-257796Y145483D01*
X-257986Y145297D01*
X-258019Y145236D01*
X-258046Y145207D01*
X-258165Y145001D01*
X-258192Y144930D01*
X-258216Y144896D01*
X-258686Y143762D01*
X-259062Y143386D01*
X-259175Y143233D01*
X-259203Y143202D01*
X-259469Y142741D01*
X-260443Y141994D01*
X-260496Y141939D01*
X-260531Y141917D01*
X-261399Y141049D01*
X-261890Y140845D01*
X-262053Y140747D01*
X-262091Y140729D01*
X-262478Y140432D01*
X-262533Y140375D01*
X-262594Y140325D01*
X-262625Y140280D01*
X-262663Y140241D01*
X-262698Y140170D01*
X-262742Y140104D01*
X-262750Y140066D01*
X-262782Y140003D01*
X-262826Y139741D01*
X-262825Y139733D01*
X-262826Y139728D01*
X-262826Y83037D01*
X-262818Y82986D01*
X-262820Y82935D01*
X-262798Y82856D01*
X-262786Y82775D01*
X-262764Y82728D01*
X-262750Y82678D01*
X-262706Y82609D01*
X-262670Y82535D01*
X-262635Y82497D01*
X-262607Y82454D01*
X-262545Y82401D01*
X-262489Y82341D01*
X-262444Y82315D01*
X-262405Y82282D01*
X-262329Y82250D01*
X-262258Y82209D01*
X-262208Y82198D01*
X-262160Y82177D01*
X-262079Y82169D01*
X-261999Y82151D01*
X-261947Y82155D01*
X-261896Y82150D01*
X-261815Y82166D01*
X-261734Y82173D01*
X-261686Y82192D01*
X-261635Y82202D01*
X-261592Y82230D01*
X-261487Y82272D01*
X-261394Y82347D01*
X-261392Y82348D01*
X-261384Y82355D01*
X-261348Y82385D01*
X-261309Y82409D01*
X-259735Y83984D01*
X-254984Y85952D01*
X-249841Y85952D01*
X-245090Y83984D01*
X-241454Y80347D01*
X-239486Y75596D01*
X-239486Y70454D01*
X-241454Y65703D01*
X-245090Y62066D01*
X-249841Y60098D01*
X-254984Y60098D01*
X-255551Y60333D01*
X-255601Y60346D01*
X-255648Y60367D01*
X-255730Y60377D01*
X-255809Y60397D01*
X-255861Y60394D01*
X-255912Y60401D01*
X-255993Y60386D01*
X-256075Y60382D01*
X-256123Y60364D01*
X-256174Y60355D01*
X-256247Y60317D01*
X-256324Y60289D01*
X-256364Y60257D01*
X-256410Y60233D01*
X-256469Y60176D01*
X-256534Y60126D01*
X-256563Y60084D01*
X-256600Y60047D01*
X-256639Y59975D01*
X-256686Y59908D01*
X-256702Y59859D01*
X-256727Y59814D01*
X-256743Y59733D01*
X-256768Y59655D01*
X-256768Y59604D01*
X-256778Y59553D01*
X-256770Y59502D01*
X-256771Y59389D01*
X-256720Y59218D01*
X-256712Y59173D01*
X-255802Y56976D01*
X-255791Y56958D01*
X-255785Y56937D01*
X-255762Y56904D01*
X-255749Y56871D01*
X-255709Y56821D01*
X-255664Y56748D01*
X-255649Y56734D01*
X-255637Y56717D01*
X-255606Y56695D01*
X-255582Y56665D01*
X-255540Y56637D01*
X-255466Y56571D01*
X-255388Y56536D01*
X-255360Y56517D01*
X-255350Y56515D01*
X-255321Y56495D01*
X-254615Y56203D01*
X-250979Y52566D01*
X-249011Y47815D01*
X-249011Y42672D01*
X-250979Y37921D01*
X-254318Y34582D01*
X-254324Y34574D01*
X-254332Y34568D01*
X-254403Y34467D01*
X-254475Y34369D01*
X-254479Y34359D01*
X-254485Y34350D01*
X-254522Y34233D01*
X-254563Y34117D01*
X-254563Y34107D01*
X-254566Y34097D01*
X-254568Y33974D01*
X-254572Y33852D01*
X-254569Y33842D01*
X-254569Y33831D01*
X-254534Y33714D01*
X-254502Y33595D01*
X-254496Y33586D01*
X-254493Y33576D01*
X-254425Y33475D01*
X-254359Y33371D01*
X-254351Y33364D01*
X-254345Y33355D01*
X-254320Y33338D01*
X-254157Y33199D01*
X-254069Y33161D01*
X-254029Y33134D01*
X-252234Y32390D01*
X-248597Y28754D01*
X-246630Y24003D01*
X-246630Y18860D01*
X-248597Y14109D01*
X-249378Y13328D01*
X-249439Y13246D01*
X-249506Y13167D01*
X-249518Y13139D01*
X-249536Y13114D01*
X-249570Y13017D01*
X-249610Y12923D01*
X-249613Y12892D01*
X-249623Y12863D01*
X-249627Y12761D01*
X-249637Y12658D01*
X-249631Y12628D01*
X-249632Y12597D01*
X-249606Y12498D01*
X-249585Y12398D01*
X-249573Y12378D01*
X-249563Y12341D01*
X-249420Y12117D01*
X-249396Y12096D01*
X-247423Y7334D01*
X-247423Y2191D01*
X-249391Y-2560D01*
X-250678Y-3846D01*
X-250684Y-3855D01*
X-250692Y-3861D01*
X-250763Y-3961D01*
X-250835Y-4060D01*
X-250839Y-4070D01*
X-250845Y-4079D01*
X-250882Y-4196D01*
X-250923Y-4311D01*
X-250923Y-4322D01*
X-250926Y-4332D01*
X-250928Y-4454D01*
X-250932Y-4577D01*
X-250929Y-4587D01*
X-250929Y-4598D01*
X-250894Y-4715D01*
X-250862Y-4833D01*
X-250856Y-4842D01*
X-250853Y-4852D01*
X-250785Y-4954D01*
X-250719Y-5058D01*
X-250711Y-5065D01*
X-250705Y-5073D01*
X-250680Y-5091D01*
X-250517Y-5230D01*
X-250429Y-5267D01*
X-250389Y-5295D01*
X-247471Y-6504D01*
X-243835Y-10140D01*
X-241867Y-14891D01*
X-241867Y-20034D01*
X-243835Y-24785D01*
X-247471Y-28421D01*
X-252222Y-30389D01*
X-257365Y-30389D01*
X-258366Y-29974D01*
X-258426Y-29960D01*
X-258484Y-29935D01*
X-258555Y-29928D01*
X-258624Y-29911D01*
X-258686Y-29914D01*
X-258748Y-29908D01*
X-258818Y-29922D01*
X-258890Y-29926D01*
X-258948Y-29948D01*
X-259009Y-29960D01*
X-259049Y-29986D01*
X-259139Y-30019D01*
X-259308Y-30150D01*
X-259334Y-30167D01*
X-259378Y-30210D01*
X-262277Y-31411D01*
X-262330Y-31443D01*
X-262388Y-31466D01*
X-262444Y-31512D01*
X-262505Y-31549D01*
X-262546Y-31595D01*
X-262594Y-31634D01*
X-262634Y-31694D01*
X-262682Y-31747D01*
X-262707Y-31804D01*
X-262742Y-31855D01*
X-262752Y-31902D01*
X-262792Y-31989D01*
X-262819Y-32201D01*
X-262826Y-32232D01*
X-262826Y-118975D01*
X-262824Y-118985D01*
X-262826Y-118995D01*
X-262804Y-119116D01*
X-262786Y-119237D01*
X-262781Y-119247D01*
X-262780Y-119257D01*
X-262724Y-119366D01*
X-262670Y-119477D01*
X-262663Y-119484D01*
X-262658Y-119494D01*
X-262573Y-119581D01*
X-262489Y-119671D01*
X-262480Y-119676D01*
X-262472Y-119684D01*
X-262364Y-119742D01*
X-262258Y-119803D01*
X-262248Y-119805D01*
X-262239Y-119810D01*
X-262118Y-119834D01*
X-261999Y-119861D01*
X-261988Y-119860D01*
X-261978Y-119862D01*
X-261947Y-119857D01*
X-261734Y-119839D01*
X-261645Y-119804D01*
X-261598Y-119795D01*
X-257365Y-118042D01*
X-252222Y-118042D01*
X-247471Y-120010D01*
X-243835Y-123646D01*
X-241867Y-128397D01*
X-241867Y-133540D01*
X-242214Y-134377D01*
X-242216Y-134387D01*
X-242221Y-134396D01*
X-242248Y-134516D01*
X-242278Y-134635D01*
X-242277Y-134646D01*
X-242279Y-134656D01*
X-242269Y-134778D01*
X-242262Y-134901D01*
X-242258Y-134910D01*
X-242258Y-134921D01*
X-242212Y-135035D01*
X-242169Y-135149D01*
X-242163Y-135158D01*
X-242159Y-135168D01*
X-242081Y-135263D01*
X-242006Y-135360D01*
X-241998Y-135366D01*
X-241991Y-135374D01*
X-241889Y-135442D01*
X-241789Y-135512D01*
X-241779Y-135516D01*
X-241770Y-135521D01*
X-241739Y-135528D01*
X-241536Y-135594D01*
X-241440Y-135595D01*
X-241393Y-135605D01*
X-237959Y-135605D01*
X-234784Y-136920D01*
X-234724Y-136935D01*
X-234667Y-136960D01*
X-234596Y-136967D01*
X-234526Y-136984D01*
X-234464Y-136981D01*
X-234403Y-136987D01*
X-234332Y-136973D01*
X-234261Y-136969D01*
X-234203Y-136947D01*
X-234142Y-136935D01*
X-234101Y-136909D01*
X-234012Y-136876D01*
X-233843Y-136745D01*
X-233816Y-136728D01*
X-231160Y-134071D01*
X-226409Y-132104D01*
X-221266Y-132104D01*
X-216515Y-134071D01*
X-212879Y-137708D01*
X-210911Y-142459D01*
X-210911Y-147602D01*
X-212879Y-152353D01*
X-216515Y-155989D01*
X-220853Y-157786D01*
X-220898Y-157813D01*
X-220946Y-157831D01*
X-221011Y-157881D01*
X-221081Y-157923D01*
X-221115Y-157962D01*
X-221156Y-157993D01*
X-221203Y-158061D01*
X-221258Y-158122D01*
X-221279Y-158169D01*
X-221309Y-158211D01*
X-221334Y-158289D01*
X-221368Y-158364D01*
X-221374Y-158415D01*
X-221390Y-158464D01*
X-221391Y-158546D01*
X-221402Y-158627D01*
X-221393Y-158678D01*
X-221393Y-158730D01*
X-221370Y-158809D01*
X-221356Y-158889D01*
X-221332Y-158935D01*
X-221317Y-158985D01*
X-221272Y-159053D01*
X-221234Y-159126D01*
X-221198Y-159163D01*
X-221169Y-159206D01*
X-221127Y-159235D01*
X-221048Y-159316D01*
X-220891Y-159401D01*
X-220853Y-159427D01*
X-219087Y-160159D01*
X-214362Y-164884D01*
X-211805Y-171056D01*
X-211805Y-171923D01*
X-211790Y-172024D01*
X-211782Y-172126D01*
X-211770Y-172155D01*
X-211765Y-172185D01*
X-211721Y-172278D01*
X-211683Y-172373D01*
X-211663Y-172397D01*
X-211650Y-172425D01*
X-211580Y-172500D01*
X-211515Y-172579D01*
X-211489Y-172596D01*
X-211468Y-172619D01*
X-211379Y-172670D01*
X-211294Y-172727D01*
X-211270Y-172732D01*
X-211238Y-172751D01*
X-210978Y-172809D01*
X-210940Y-172806D01*
X-210917Y-172811D01*
X-206979Y-172811D01*
X-202228Y-174779D01*
X-198591Y-178415D01*
X-196623Y-183166D01*
X-196623Y-188309D01*
X-197390Y-190160D01*
X-197393Y-190170D01*
X-197398Y-190179D01*
X-197425Y-190299D01*
X-197454Y-190418D01*
X-197453Y-190429D01*
X-197456Y-190439D01*
X-197446Y-190561D01*
X-197439Y-190684D01*
X-197435Y-190693D01*
X-197434Y-190704D01*
X-197388Y-190818D01*
X-197345Y-190932D01*
X-197339Y-190941D01*
X-197335Y-190951D01*
X-197257Y-191046D01*
X-197183Y-191143D01*
X-197174Y-191149D01*
X-197167Y-191157D01*
X-197065Y-191225D01*
X-196965Y-191295D01*
X-196955Y-191299D01*
X-196946Y-191304D01*
X-196916Y-191311D01*
X-196712Y-191377D01*
X-196616Y-191378D01*
X-196569Y-191388D01*
X-85725Y-191388D01*
X-85704Y-191385D01*
G37*
%LPC*%
G36*
X-191484Y-66902D02*
X-191484Y-66902D01*
X-196235Y-64934D01*
X-199871Y-61297D01*
X-199953Y-61100D01*
X-199985Y-61047D01*
X-200008Y-60989D01*
X-200053Y-60934D01*
X-200090Y-60872D01*
X-200137Y-60831D01*
X-200176Y-60783D01*
X-200235Y-60743D01*
X-200289Y-60696D01*
X-200345Y-60670D01*
X-200397Y-60636D01*
X-200444Y-60625D01*
X-200531Y-60586D01*
X-200743Y-60559D01*
X-200774Y-60552D01*
X-205771Y-60552D01*
X-210522Y-58584D01*
X-214159Y-54947D01*
X-216127Y-50196D01*
X-216127Y-45054D01*
X-214154Y-40292D01*
X-214111Y-40233D01*
X-214044Y-40155D01*
X-214032Y-40126D01*
X-214014Y-40102D01*
X-213980Y-40005D01*
X-213940Y-39910D01*
X-213937Y-39880D01*
X-213927Y-39851D01*
X-213923Y-39748D01*
X-213913Y-39646D01*
X-213919Y-39616D01*
X-213918Y-39585D01*
X-213944Y-39486D01*
X-213965Y-39385D01*
X-213977Y-39365D01*
X-213987Y-39329D01*
X-214130Y-39104D01*
X-214154Y-39084D01*
X-216127Y-34321D01*
X-216127Y-34080D01*
X-216128Y-34069D01*
X-216127Y-34059D01*
X-216148Y-33938D01*
X-216167Y-33817D01*
X-216171Y-33808D01*
X-216173Y-33797D01*
X-216229Y-33688D01*
X-216282Y-33578D01*
X-216289Y-33570D01*
X-216294Y-33561D01*
X-216380Y-33473D01*
X-216464Y-33383D01*
X-216473Y-33378D01*
X-216480Y-33371D01*
X-216588Y-33312D01*
X-216694Y-33251D01*
X-216705Y-33249D01*
X-216714Y-33244D01*
X-216834Y-33220D01*
X-216954Y-33194D01*
X-216964Y-33195D01*
X-216975Y-33193D01*
X-217005Y-33198D01*
X-217219Y-33215D01*
X-217307Y-33251D01*
X-217355Y-33259D01*
X-218091Y-33564D01*
X-223234Y-33564D01*
X-227985Y-31596D01*
X-231621Y-27960D01*
X-233589Y-23209D01*
X-233589Y-18066D01*
X-231836Y-13834D01*
X-231831Y-13813D01*
X-231821Y-13795D01*
X-231799Y-13684D01*
X-231772Y-13576D01*
X-231773Y-13555D01*
X-231769Y-13534D01*
X-231777Y-13489D01*
X-231788Y-13310D01*
X-231827Y-13205D01*
X-231836Y-13154D01*
X-233589Y-8921D01*
X-233589Y-3779D01*
X-232165Y-340D01*
X-232160Y-320D01*
X-232150Y-301D01*
X-232128Y-191D01*
X-232101Y-82D01*
X-232102Y-61D01*
X-232098Y-40D01*
X-232106Y5D01*
X-232116Y184D01*
X-232156Y289D01*
X-232165Y340D01*
X-233589Y3779D01*
X-233589Y8921D01*
X-231836Y13154D01*
X-231831Y13174D01*
X-231821Y13193D01*
X-231799Y13303D01*
X-231772Y13412D01*
X-231773Y13433D01*
X-231769Y13453D01*
X-231777Y13498D01*
X-231788Y13677D01*
X-231827Y13783D01*
X-231836Y13834D01*
X-233589Y18066D01*
X-233589Y23209D01*
X-231621Y27960D01*
X-227985Y31596D01*
X-223234Y33564D01*
X-218091Y33564D01*
X-217355Y33259D01*
X-217345Y33257D01*
X-217336Y33251D01*
X-217216Y33225D01*
X-217097Y33195D01*
X-217086Y33196D01*
X-217076Y33194D01*
X-216954Y33204D01*
X-216832Y33211D01*
X-216822Y33214D01*
X-216811Y33215D01*
X-216697Y33261D01*
X-216583Y33304D01*
X-216574Y33310D01*
X-216564Y33314D01*
X-216468Y33392D01*
X-216372Y33467D01*
X-216366Y33475D01*
X-216358Y33482D01*
X-216290Y33584D01*
X-216220Y33684D01*
X-216216Y33694D01*
X-216211Y33703D01*
X-216204Y33733D01*
X-216138Y33937D01*
X-216137Y34033D01*
X-216127Y34080D01*
X-216127Y34321D01*
X-214154Y39083D01*
X-214111Y39142D01*
X-214044Y39220D01*
X-214032Y39249D01*
X-214014Y39273D01*
X-213980Y39370D01*
X-213940Y39465D01*
X-213937Y39495D01*
X-213927Y39524D01*
X-213923Y39627D01*
X-213913Y39729D01*
X-213919Y39759D01*
X-213918Y39790D01*
X-213944Y39889D01*
X-213965Y39990D01*
X-213977Y40010D01*
X-213987Y40046D01*
X-214130Y40271D01*
X-214154Y40291D01*
X-216127Y45054D01*
X-216127Y50196D01*
X-214159Y54947D01*
X-210522Y58584D01*
X-205771Y60552D01*
X-200774Y60552D01*
X-200712Y60561D01*
X-200650Y60560D01*
X-200582Y60581D01*
X-200511Y60592D01*
X-200455Y60618D01*
X-200396Y60636D01*
X-200336Y60676D01*
X-200271Y60707D01*
X-200226Y60750D01*
X-200175Y60784D01*
X-200147Y60823D01*
X-200077Y60889D01*
X-199971Y61075D01*
X-199953Y61100D01*
X-199871Y61297D01*
X-196235Y64934D01*
X-191484Y66902D01*
X-186341Y66902D01*
X-181590Y64934D01*
X-177954Y61297D01*
X-177872Y61100D01*
X-177840Y61047D01*
X-177817Y60989D01*
X-177772Y60934D01*
X-177735Y60872D01*
X-177688Y60831D01*
X-177649Y60783D01*
X-177590Y60743D01*
X-177536Y60696D01*
X-177480Y60670D01*
X-177428Y60636D01*
X-177381Y60625D01*
X-177294Y60586D01*
X-177082Y60559D01*
X-177051Y60552D01*
X-172199Y60552D01*
X-172137Y60561D01*
X-172075Y60560D01*
X-172007Y60581D01*
X-171936Y60592D01*
X-171880Y60618D01*
X-171821Y60636D01*
X-171761Y60676D01*
X-171696Y60707D01*
X-171651Y60750D01*
X-171600Y60784D01*
X-171572Y60823D01*
X-171502Y60889D01*
X-171396Y61075D01*
X-171378Y61100D01*
X-171296Y61297D01*
X-167660Y64934D01*
X-162909Y66902D01*
X-157766Y66902D01*
X-153015Y64934D01*
X-149379Y61297D01*
X-147411Y56546D01*
X-147411Y51404D01*
X-149164Y47171D01*
X-149169Y47151D01*
X-149179Y47132D01*
X-149201Y47022D01*
X-149228Y46913D01*
X-149227Y46892D01*
X-149231Y46872D01*
X-149223Y46827D01*
X-149212Y46648D01*
X-149173Y46542D01*
X-149164Y46491D01*
X-147411Y42259D01*
X-147411Y37116D01*
X-148444Y34621D01*
X-148457Y34571D01*
X-148478Y34524D01*
X-148488Y34443D01*
X-148508Y34363D01*
X-148505Y34312D01*
X-148512Y34260D01*
X-148497Y34180D01*
X-148493Y34098D01*
X-148475Y34049D01*
X-148466Y33999D01*
X-148428Y33926D01*
X-148399Y33849D01*
X-148368Y33808D01*
X-148344Y33762D01*
X-148287Y33704D01*
X-148237Y33639D01*
X-148194Y33609D01*
X-148158Y33572D01*
X-148086Y33533D01*
X-148019Y33486D01*
X-147970Y33470D01*
X-147925Y33446D01*
X-147844Y33430D01*
X-147766Y33405D01*
X-147714Y33404D01*
X-147664Y33394D01*
X-147613Y33403D01*
X-147500Y33402D01*
X-147329Y33453D01*
X-147284Y33461D01*
X-147034Y33564D01*
X-141891Y33564D01*
X-137140Y31596D01*
X-133504Y27960D01*
X-131536Y23209D01*
X-131536Y18066D01*
X-133289Y13834D01*
X-133294Y13813D01*
X-133304Y13795D01*
X-133326Y13684D01*
X-133353Y13576D01*
X-133352Y13555D01*
X-133356Y13534D01*
X-133348Y13489D01*
X-133337Y13310D01*
X-133298Y13205D01*
X-133289Y13154D01*
X-131536Y8921D01*
X-131536Y3779D01*
X-132960Y340D01*
X-132965Y320D01*
X-132975Y301D01*
X-132997Y191D01*
X-133024Y82D01*
X-133023Y61D01*
X-133027Y40D01*
X-133019Y-5D01*
X-133009Y-184D01*
X-132969Y-289D01*
X-132960Y-340D01*
X-131536Y-3779D01*
X-131536Y-8921D01*
X-133504Y-13672D01*
X-137140Y-17309D01*
X-141891Y-19277D01*
X-144935Y-19277D01*
X-145037Y-19292D01*
X-145139Y-19300D01*
X-145167Y-19312D01*
X-145198Y-19317D01*
X-145290Y-19361D01*
X-145386Y-19399D01*
X-145409Y-19419D01*
X-145437Y-19432D01*
X-145512Y-19502D01*
X-145592Y-19567D01*
X-145609Y-19593D01*
X-145631Y-19614D01*
X-145682Y-19703D01*
X-145739Y-19788D01*
X-145745Y-19812D01*
X-145763Y-19844D01*
X-145821Y-20104D01*
X-145818Y-20142D01*
X-145823Y-20165D01*
X-145823Y-21621D01*
X-147791Y-26372D01*
X-150953Y-29534D01*
X-151014Y-29617D01*
X-151081Y-29695D01*
X-151093Y-29724D01*
X-151111Y-29748D01*
X-151145Y-29845D01*
X-151185Y-29940D01*
X-151188Y-29970D01*
X-151198Y-29999D01*
X-151202Y-30102D01*
X-151212Y-30204D01*
X-151206Y-30234D01*
X-151207Y-30265D01*
X-151181Y-30364D01*
X-151160Y-30465D01*
X-151148Y-30485D01*
X-151138Y-30522D01*
X-150995Y-30746D01*
X-150966Y-30770D01*
X-150953Y-30791D01*
X-149379Y-32365D01*
X-147411Y-37116D01*
X-147411Y-42259D01*
X-149164Y-46491D01*
X-149169Y-46512D01*
X-149179Y-46530D01*
X-149201Y-46641D01*
X-149228Y-46749D01*
X-149227Y-46770D01*
X-149231Y-46791D01*
X-149223Y-46836D01*
X-149212Y-47015D01*
X-149173Y-47120D01*
X-149164Y-47171D01*
X-147411Y-51404D01*
X-147411Y-56546D01*
X-149379Y-61297D01*
X-153015Y-64934D01*
X-157766Y-66902D01*
X-162909Y-66902D01*
X-167660Y-64934D01*
X-171296Y-61297D01*
X-171378Y-61100D01*
X-171410Y-61047D01*
X-171433Y-60989D01*
X-171478Y-60934D01*
X-171515Y-60872D01*
X-171562Y-60831D01*
X-171601Y-60783D01*
X-171660Y-60743D01*
X-171714Y-60696D01*
X-171770Y-60670D01*
X-171822Y-60636D01*
X-171869Y-60625D01*
X-171956Y-60586D01*
X-172168Y-60559D01*
X-172199Y-60552D01*
X-177051Y-60552D01*
X-177113Y-60561D01*
X-177175Y-60560D01*
X-177243Y-60581D01*
X-177314Y-60592D01*
X-177370Y-60618D01*
X-177429Y-60636D01*
X-177489Y-60676D01*
X-177554Y-60707D01*
X-177599Y-60750D01*
X-177650Y-60784D01*
X-177678Y-60823D01*
X-177748Y-60889D01*
X-177854Y-61075D01*
X-177872Y-61100D01*
X-177954Y-61297D01*
X-181590Y-64934D01*
X-186341Y-66902D01*
X-191484Y-66902D01*
G37*
%LPD*%
%LPC*%
G36*
X-33158Y6095D02*
X-33158Y6095D01*
X-40160Y8996D01*
X-45519Y14355D01*
X-48419Y21357D01*
X-48419Y28935D01*
X-45519Y35937D01*
X-40160Y41296D01*
X-33158Y44197D01*
X-25579Y44197D01*
X-18577Y41296D01*
X-13218Y35937D01*
X-10318Y28935D01*
X-10318Y21357D01*
X-13218Y14355D01*
X-18577Y8996D01*
X-25579Y6095D01*
X-33158Y6095D01*
G37*
%LPD*%
%LPC*%
G36*
X-226409Y-129382D02*
X-226409Y-129382D01*
X-231160Y-127414D01*
X-234796Y-123778D01*
X-236764Y-119027D01*
X-236764Y-113884D01*
X-234796Y-109133D01*
X-231160Y-105496D01*
X-226409Y-103529D01*
X-221266Y-103529D01*
X-216515Y-105496D01*
X-212879Y-109133D01*
X-210911Y-113884D01*
X-210911Y-119027D01*
X-212879Y-123778D01*
X-216515Y-127414D01*
X-221266Y-129382D01*
X-226409Y-129382D01*
G37*
%LPD*%
D10*
X-29369Y-25146D03*
X-29369Y25146D03*
X30035Y-137665D03*
X4890Y-94110D03*
X4889Y94110D03*
X30036Y137665D03*
D11*
X-241300Y-152400D03*
X-228600Y-174397D03*
X-241300Y152400D03*
X-228600Y174397D03*
D12*
X-422275Y46038D03*
X-498475Y30163D03*
X-374650Y20638D03*
X-384774Y90135D03*
X-336550Y-58738D03*
X-430213Y75406D03*
X-334963Y22225D03*
X-490538Y-15813D03*
X-445488Y-87017D03*
X-379413Y-104775D03*
X-354806Y100362D03*
X-336753Y-92573D03*
X-449707Y86519D03*
X-419100Y87313D03*
X-369073Y-121423D03*
X-450056Y-76200D03*
X-385763Y70644D03*
X-457377Y53798D03*
X-466725Y44450D03*
X-147638Y63500D03*
X-134938Y57150D03*
X-147638Y50800D03*
X-134938Y44450D03*
X-215900Y63500D03*
X-230188Y57150D03*
X-215900Y50800D03*
X-230188Y44450D03*
X-147638Y-63500D03*
X-134938Y-57150D03*
X-147638Y-50800D03*
X-134938Y-44450D03*
X-215900Y-63500D03*
X-228600Y-57150D03*
X-215900Y-50800D03*
X-228600Y-44450D03*
X-138113Y-22225D03*
X-127000Y196850D03*
D13*
X-127000Y166688D01*
X-128588Y165100D01*
D12*
X-157163Y-204788D03*
D13*
X-157163Y-180975D01*
X-155575Y-179388D01*
D12*
X-84138Y7938D03*
X-160338Y-53975D03*
X-174625Y-47625D03*
X-160338Y-39688D03*
X-174625Y-31750D03*
X-188913Y-53975D03*
X-203200Y-47625D03*
X-188913Y-39688D03*
X-203200Y-31750D03*
X-174625Y31750D03*
X-160338Y39688D03*
X-174625Y47625D03*
X-160338Y53975D03*
X-203200Y31750D03*
X-188913Y39688D03*
X-203200Y47625D03*
X-188913Y53975D03*
X-277626Y4763D03*
X-269081Y37306D03*
X-252413Y73025D03*
X-220663Y20638D03*
X-144463Y20638D03*
X-158750Y19050D03*
X-174625Y19050D03*
X-188913Y19050D03*
X-204788Y19050D03*
X-204788Y6350D03*
X-188913Y6350D03*
X-174625Y6350D03*
X-158750Y6350D03*
X-204788Y-19050D03*
X-188913Y-19050D03*
X-174625Y-19050D03*
X-158750Y-19050D03*
X-158750Y-6350D03*
X-174625Y-6350D03*
X-188913Y-6350D03*
X-204788Y-6350D03*
X-144463Y6350D03*
X-144463Y-6350D03*
X-220663Y6350D03*
X-220663Y-6350D03*
X-220663Y-20638D03*
X-223838Y-116455D03*
X-133350Y-290513D03*
X-228600Y-195263D03*
X-133350Y-265113D03*
X-133350Y-239713D03*
X-133350Y-214313D03*
X-209550Y-185738D03*
X-171450Y-204788D03*
X-200025Y-204788D03*
X-142875Y-204788D03*
X-223838Y-145030D03*
X-104775Y-280988D03*
X-19050Y-290513D03*
X-104775Y-255588D03*
X-104775Y-230188D03*
X-104775Y-204788D03*
X-19050Y-261938D03*
X-47625Y-280988D03*
X-28575Y-214313D03*
X-47625Y-255588D03*
X-47625Y-204788D03*
X-76200Y-290513D03*
X-76200Y-265113D03*
X-123825Y214313D03*
X-123825Y239713D03*
X-123825Y265113D03*
X-123825Y288925D03*
X-95250Y204788D03*
X-95250Y255588D03*
X-95250Y280988D03*
X-66675Y265113D03*
X-66675Y288925D03*
X-38100Y204788D03*
X-38100Y230188D03*
X-38100Y255588D03*
X-38100Y280988D03*
X-76200Y-204788D03*
X-66675Y204788D03*
X-9525Y265113D03*
X-28575Y217488D03*
X-269081Y-10164D03*
X-254794Y-130969D03*
X-266700Y-19252D03*
X-268988Y548D03*
X-276225Y-130969D03*
X-259556Y21431D03*
X-212505Y216031D03*
X-260350Y4763D03*
X-135905Y239065D03*
X-276788Y-69850D03*
X-354013Y73025D03*
X-357188Y57150D03*
X-364331Y50800D03*
X-364331Y68263D03*
X-453444Y-61699D03*
X-486569Y-39688D03*
X-477137Y-31419D03*
X-458680Y-53289D03*
X-254794Y-17463D03*
X-268288Y53340D03*
X-153201Y267382D03*
X-261938Y45244D03*
X-179388Y195263D03*
X-430213Y-123825D03*
X-488950Y1588D03*
X-404813Y-123825D03*
X-444475Y76225D03*
X-417513Y-123825D03*
X-449365Y68263D03*
M02*
