G04 EAGLE Gerber RS-274X export*
G75*
%MOMM*%
%FSLAX34Y34*%
%LPD*%
%INCopper Layer 2*%
%IPPOS*%
%AMOC8*
5,1,8,0,0,1.08239X$1,22.5*%
G01*
%ADD10C,1.981200*%
%ADD11C,1.530000*%
%ADD12C,0.756400*%
%ADD13C,0.406400*%

G36*
X-11380Y-294178D02*
X-11380Y-294178D01*
X-11377Y-294178D01*
X-11249Y-294158D01*
X-11121Y-294138D01*
X-11118Y-294137D01*
X-11114Y-294136D01*
X-10998Y-294079D01*
X-10882Y-294023D01*
X-10879Y-294020D01*
X-10876Y-294019D01*
X-10866Y-294008D01*
X-10688Y-293841D01*
X-10645Y-293767D01*
X-10615Y-293734D01*
X71664Y-151219D01*
X71665Y-151216D01*
X71668Y-151213D01*
X71713Y-151093D01*
X71761Y-150972D01*
X71761Y-150968D01*
X71762Y-150964D01*
X71771Y-150836D01*
X71780Y-150707D01*
X71779Y-150703D01*
X71780Y-150699D01*
X71775Y-150686D01*
X71720Y-150448D01*
X71677Y-150374D01*
X71664Y-150331D01*
X-12530Y-4498D01*
X-12577Y-4439D01*
X-12595Y-4402D01*
X-13095Y-3750D01*
X-13179Y-3434D01*
X-13256Y-3260D01*
X-13268Y-3220D01*
X-13432Y-2937D01*
X-13539Y-2122D01*
X-13560Y-2050D01*
X-13561Y-2008D01*
X-13774Y-1215D01*
X-13731Y-891D01*
X-13735Y-701D01*
X-13731Y-659D01*
X-13774Y-335D01*
X-13561Y458D01*
X-13553Y533D01*
X-13539Y572D01*
X-13432Y1387D01*
X-13268Y1670D01*
X-13199Y1847D01*
X-13179Y1884D01*
X-13095Y2200D01*
X-12595Y2852D01*
X-12558Y2918D01*
X-12530Y2948D01*
X71664Y148781D01*
X71665Y148784D01*
X71668Y148787D01*
X71713Y148907D01*
X71761Y149028D01*
X71761Y149032D01*
X71762Y149036D01*
X71771Y149164D01*
X71780Y149293D01*
X71779Y149297D01*
X71780Y149301D01*
X71775Y149314D01*
X71720Y149552D01*
X71677Y149626D01*
X71664Y149669D01*
X-10615Y292184D01*
X-10617Y292187D01*
X-10618Y292191D01*
X-10700Y292291D01*
X-10781Y292392D01*
X-10784Y292394D01*
X-10786Y292397D01*
X-10895Y292470D01*
X-11001Y292541D01*
X-11004Y292542D01*
X-11007Y292544D01*
X-11021Y292547D01*
X-11255Y292619D01*
X-11340Y292618D01*
X-11384Y292628D01*
X-123031Y292628D01*
X-123133Y292613D01*
X-123235Y292605D01*
X-123264Y292593D01*
X-123294Y292588D01*
X-123386Y292544D01*
X-123482Y292506D01*
X-123506Y292486D01*
X-123533Y292473D01*
X-123608Y292403D01*
X-123688Y292338D01*
X-123705Y292312D01*
X-123728Y292291D01*
X-123779Y292202D01*
X-123836Y292117D01*
X-123841Y292093D01*
X-123860Y292061D01*
X-123917Y291801D01*
X-123914Y291763D01*
X-123920Y291740D01*
X-123920Y206860D01*
X-123910Y206799D01*
X-123911Y206737D01*
X-123890Y206668D01*
X-123880Y206597D01*
X-123853Y206542D01*
X-123835Y206482D01*
X-123795Y206423D01*
X-123764Y206358D01*
X-123722Y206313D01*
X-123687Y206261D01*
X-123648Y206234D01*
X-123583Y206164D01*
X-123397Y206057D01*
X-123371Y206040D01*
X-121404Y205225D01*
X-118625Y202446D01*
X-117121Y198815D01*
X-117121Y194885D01*
X-118625Y191254D01*
X-121404Y188475D01*
X-125035Y186971D01*
X-128965Y186971D01*
X-132596Y188475D01*
X-134753Y190632D01*
X-134836Y190693D01*
X-134914Y190760D01*
X-134942Y190772D01*
X-134967Y190790D01*
X-135064Y190824D01*
X-135158Y190864D01*
X-135189Y190867D01*
X-135218Y190878D01*
X-135321Y190881D01*
X-135423Y190892D01*
X-135453Y190886D01*
X-135484Y190887D01*
X-135583Y190860D01*
X-135684Y190840D01*
X-135704Y190827D01*
X-135740Y190817D01*
X-135965Y190674D01*
X-135989Y190645D01*
X-136009Y190632D01*
X-234499Y92143D01*
X-234511Y92126D01*
X-234527Y92113D01*
X-234590Y92019D01*
X-234656Y91929D01*
X-234663Y91909D01*
X-234675Y91892D01*
X-234685Y91847D01*
X-234744Y91678D01*
X-234748Y91565D01*
X-234759Y91515D01*
X-234759Y67279D01*
X-234757Y67268D01*
X-234759Y67258D01*
X-234737Y67137D01*
X-234719Y67016D01*
X-234714Y67006D01*
X-234713Y66996D01*
X-234657Y66887D01*
X-234603Y66776D01*
X-234596Y66769D01*
X-234591Y66759D01*
X-234506Y66672D01*
X-234422Y66582D01*
X-234413Y66577D01*
X-234405Y66569D01*
X-234297Y66511D01*
X-234191Y66450D01*
X-234181Y66448D01*
X-234172Y66443D01*
X-234051Y66419D01*
X-233932Y66392D01*
X-233921Y66393D01*
X-233911Y66391D01*
X-233880Y66397D01*
X-233667Y66414D01*
X-233578Y66450D01*
X-233531Y66458D01*
X-232153Y67029D01*
X-228222Y67029D01*
X-226404Y66276D01*
X-226305Y66251D01*
X-226207Y66220D01*
X-226176Y66219D01*
X-226146Y66212D01*
X-226044Y66218D01*
X-225941Y66217D01*
X-225912Y66225D01*
X-225881Y66227D01*
X-225785Y66263D01*
X-225686Y66292D01*
X-225661Y66310D01*
X-225632Y66320D01*
X-225551Y66383D01*
X-225466Y66440D01*
X-225452Y66460D01*
X-225422Y66483D01*
X-225269Y66701D01*
X-225258Y66737D01*
X-225244Y66756D01*
X-224275Y69096D01*
X-221496Y71875D01*
X-217865Y73379D01*
X-213935Y73379D01*
X-210304Y71875D01*
X-207525Y69096D01*
X-206021Y65465D01*
X-206021Y61535D01*
X-207394Y58222D01*
X-207406Y58172D01*
X-207427Y58125D01*
X-207438Y58043D01*
X-207457Y57964D01*
X-207454Y57912D01*
X-207461Y57861D01*
X-207447Y57780D01*
X-207442Y57698D01*
X-207424Y57650D01*
X-207415Y57599D01*
X-207378Y57526D01*
X-207349Y57449D01*
X-207317Y57409D01*
X-207294Y57363D01*
X-207236Y57304D01*
X-207186Y57239D01*
X-207144Y57210D01*
X-207108Y57173D01*
X-207036Y57134D01*
X-206969Y57087D01*
X-206919Y57071D01*
X-206874Y57046D01*
X-206794Y57030D01*
X-206716Y57005D01*
X-206664Y57005D01*
X-206613Y56995D01*
X-206562Y57003D01*
X-206450Y57002D01*
X-206278Y57053D01*
X-206233Y57061D01*
X-205165Y57504D01*
X-201235Y57504D01*
X-199417Y56751D01*
X-199317Y56726D01*
X-199219Y56695D01*
X-199189Y56694D01*
X-199159Y56687D01*
X-199056Y56693D01*
X-198954Y56692D01*
X-198924Y56700D01*
X-198893Y56702D01*
X-198797Y56738D01*
X-198699Y56767D01*
X-198673Y56785D01*
X-198645Y56795D01*
X-198563Y56858D01*
X-198478Y56915D01*
X-198464Y56935D01*
X-198434Y56958D01*
X-198282Y57176D01*
X-198270Y57212D01*
X-198256Y57231D01*
X-197287Y59571D01*
X-194508Y62350D01*
X-190878Y63854D01*
X-186947Y63854D01*
X-183317Y62350D01*
X-180538Y59571D01*
X-179569Y57231D01*
X-179516Y57144D01*
X-179469Y57052D01*
X-179447Y57030D01*
X-179431Y57004D01*
X-179355Y56936D01*
X-179283Y56862D01*
X-179256Y56847D01*
X-179233Y56827D01*
X-179140Y56785D01*
X-179049Y56736D01*
X-179019Y56730D01*
X-178991Y56717D01*
X-178889Y56704D01*
X-178788Y56684D01*
X-178765Y56688D01*
X-178727Y56683D01*
X-178465Y56729D01*
X-178432Y56747D01*
X-178408Y56751D01*
X-176590Y57504D01*
X-172660Y57504D01*
X-170842Y56751D01*
X-170742Y56726D01*
X-170644Y56695D01*
X-170614Y56694D01*
X-170584Y56687D01*
X-170481Y56693D01*
X-170379Y56692D01*
X-170349Y56700D01*
X-170318Y56702D01*
X-170222Y56738D01*
X-170124Y56767D01*
X-170098Y56785D01*
X-170070Y56795D01*
X-169988Y56858D01*
X-169903Y56915D01*
X-169889Y56935D01*
X-169859Y56958D01*
X-169707Y57176D01*
X-169695Y57212D01*
X-169681Y57231D01*
X-168712Y59571D01*
X-165933Y62350D01*
X-162303Y63854D01*
X-158404Y63854D01*
X-158303Y63869D01*
X-158201Y63877D01*
X-158172Y63889D01*
X-158142Y63894D01*
X-158049Y63938D01*
X-157954Y63976D01*
X-157930Y63996D01*
X-157902Y64009D01*
X-157827Y64079D01*
X-157748Y64144D01*
X-157731Y64170D01*
X-157708Y64191D01*
X-157657Y64280D01*
X-157600Y64365D01*
X-157595Y64389D01*
X-157576Y64421D01*
X-157518Y64681D01*
X-157521Y64719D01*
X-157516Y64742D01*
X-157516Y65465D01*
X-156012Y69096D01*
X-153233Y71875D01*
X-149603Y73379D01*
X-145672Y73379D01*
X-142042Y71875D01*
X-139263Y69096D01*
X-138526Y67318D01*
X-138473Y67230D01*
X-138426Y67138D01*
X-138405Y67116D01*
X-138389Y67090D01*
X-138312Y67022D01*
X-138240Y66948D01*
X-138213Y66934D01*
X-138190Y66913D01*
X-138097Y66871D01*
X-138007Y66822D01*
X-137976Y66816D01*
X-137948Y66803D01*
X-137847Y66790D01*
X-137746Y66770D01*
X-137722Y66774D01*
X-137685Y66770D01*
X-137423Y66815D01*
X-137389Y66833D01*
X-137366Y66837D01*
X-136902Y67029D01*
X-132972Y67029D01*
X-129342Y65525D01*
X-126563Y62746D01*
X-125059Y59115D01*
X-125059Y55185D01*
X-126563Y51554D01*
X-126689Y51428D01*
X-126750Y51346D01*
X-126816Y51267D01*
X-126828Y51239D01*
X-126846Y51214D01*
X-126880Y51117D01*
X-126921Y51023D01*
X-126924Y50992D01*
X-126934Y50963D01*
X-126937Y50861D01*
X-126948Y50758D01*
X-126942Y50728D01*
X-126943Y50697D01*
X-126916Y50598D01*
X-126896Y50498D01*
X-126883Y50478D01*
X-126873Y50441D01*
X-126731Y50217D01*
X-126702Y50192D01*
X-126689Y50172D01*
X-126563Y50046D01*
X-125059Y46415D01*
X-125059Y42485D01*
X-126563Y38854D01*
X-129342Y36075D01*
X-132972Y34571D01*
X-136903Y34571D01*
X-140533Y36075D01*
X-143312Y38854D01*
X-144049Y40632D01*
X-144102Y40720D01*
X-144149Y40812D01*
X-144170Y40834D01*
X-144186Y40860D01*
X-144263Y40928D01*
X-144335Y41002D01*
X-144362Y41016D01*
X-144385Y41037D01*
X-144478Y41079D01*
X-144568Y41128D01*
X-144599Y41134D01*
X-144627Y41147D01*
X-144728Y41160D01*
X-144829Y41180D01*
X-144853Y41176D01*
X-144890Y41180D01*
X-145152Y41135D01*
X-145186Y41117D01*
X-145209Y41113D01*
X-145673Y40921D01*
X-149571Y40921D01*
X-149672Y40906D01*
X-149774Y40898D01*
X-149803Y40886D01*
X-149833Y40881D01*
X-149926Y40837D01*
X-150021Y40799D01*
X-150045Y40779D01*
X-150073Y40766D01*
X-150148Y40696D01*
X-150227Y40631D01*
X-150244Y40605D01*
X-150267Y40584D01*
X-150318Y40495D01*
X-150375Y40410D01*
X-150380Y40386D01*
X-150399Y40354D01*
X-150457Y40094D01*
X-150454Y40056D01*
X-150459Y40033D01*
X-150459Y37722D01*
X-151963Y34092D01*
X-154742Y31313D01*
X-158372Y29809D01*
X-162303Y29809D01*
X-163559Y30329D01*
X-163659Y30354D01*
X-163757Y30385D01*
X-163788Y30386D01*
X-163817Y30393D01*
X-163920Y30387D01*
X-164023Y30388D01*
X-164052Y30380D01*
X-164083Y30378D01*
X-164179Y30342D01*
X-164277Y30313D01*
X-164303Y30295D01*
X-164332Y30285D01*
X-164413Y30222D01*
X-164498Y30165D01*
X-164512Y30145D01*
X-164542Y30122D01*
X-164695Y29904D01*
X-164706Y29868D01*
X-164720Y29849D01*
X-166250Y26154D01*
X-169029Y23375D01*
X-172660Y21871D01*
X-176590Y21871D01*
X-180221Y23375D01*
X-183000Y26154D01*
X-184530Y29849D01*
X-184583Y29937D01*
X-184630Y30028D01*
X-184651Y30050D01*
X-184667Y30076D01*
X-184744Y30145D01*
X-184816Y30218D01*
X-184843Y30233D01*
X-184866Y30253D01*
X-184959Y30295D01*
X-185050Y30344D01*
X-185080Y30350D01*
X-185108Y30363D01*
X-185210Y30376D01*
X-185310Y30396D01*
X-185334Y30392D01*
X-185372Y30397D01*
X-185633Y30351D01*
X-185667Y30333D01*
X-185691Y30329D01*
X-186947Y29809D01*
X-190878Y29809D01*
X-192134Y30329D01*
X-192234Y30354D01*
X-192332Y30385D01*
X-192363Y30386D01*
X-192392Y30393D01*
X-192495Y30387D01*
X-192598Y30388D01*
X-192627Y30380D01*
X-192658Y30378D01*
X-192754Y30342D01*
X-192852Y30313D01*
X-192878Y30295D01*
X-192907Y30285D01*
X-192988Y30222D01*
X-193073Y30165D01*
X-193087Y30145D01*
X-193117Y30122D01*
X-193270Y29904D01*
X-193281Y29868D01*
X-193295Y29849D01*
X-194825Y26154D01*
X-197604Y23375D01*
X-201235Y21871D01*
X-205165Y21871D01*
X-208796Y23375D01*
X-211575Y26154D01*
X-213079Y29785D01*
X-213079Y33715D01*
X-211575Y37346D01*
X-209861Y39059D01*
X-209800Y39142D01*
X-209734Y39220D01*
X-209722Y39249D01*
X-209703Y39273D01*
X-209670Y39370D01*
X-209629Y39465D01*
X-209626Y39495D01*
X-209616Y39524D01*
X-209613Y39627D01*
X-209602Y39729D01*
X-209608Y39759D01*
X-209607Y39790D01*
X-209634Y39889D01*
X-209654Y39990D01*
X-209667Y40010D01*
X-209677Y40047D01*
X-209819Y40271D01*
X-209848Y40295D01*
X-209861Y40316D01*
X-211063Y41517D01*
X-211113Y41554D01*
X-211156Y41598D01*
X-211219Y41633D01*
X-211277Y41675D01*
X-211336Y41695D01*
X-211390Y41725D01*
X-211460Y41739D01*
X-211528Y41762D01*
X-211590Y41765D01*
X-211651Y41777D01*
X-211698Y41768D01*
X-211794Y41772D01*
X-212000Y41715D01*
X-212031Y41710D01*
X-213935Y40921D01*
X-217865Y40921D01*
X-219683Y41674D01*
X-219783Y41699D01*
X-219881Y41730D01*
X-219911Y41731D01*
X-219941Y41738D01*
X-220044Y41732D01*
X-220146Y41733D01*
X-220176Y41725D01*
X-220207Y41723D01*
X-220303Y41687D01*
X-220401Y41658D01*
X-220427Y41640D01*
X-220455Y41630D01*
X-220537Y41567D01*
X-220622Y41510D01*
X-220636Y41490D01*
X-220666Y41467D01*
X-220818Y41249D01*
X-220830Y41213D01*
X-220844Y41194D01*
X-221813Y38854D01*
X-224592Y36075D01*
X-228222Y34571D01*
X-232153Y34571D01*
X-233531Y35142D01*
X-233541Y35145D01*
X-233550Y35150D01*
X-233669Y35176D01*
X-233789Y35206D01*
X-233799Y35205D01*
X-233809Y35208D01*
X-233932Y35198D01*
X-234054Y35191D01*
X-234064Y35187D01*
X-234074Y35186D01*
X-234188Y35140D01*
X-234303Y35097D01*
X-234311Y35091D01*
X-234321Y35087D01*
X-234417Y35009D01*
X-234513Y34935D01*
X-234519Y34926D01*
X-234527Y34919D01*
X-234596Y34817D01*
X-234666Y34717D01*
X-234669Y34707D01*
X-234675Y34698D01*
X-234682Y34668D01*
X-234747Y34464D01*
X-234748Y34368D01*
X-234759Y34321D01*
X-234759Y20608D01*
X-235996Y17620D01*
X-238408Y15209D01*
X-244309Y9307D01*
X-244322Y9291D01*
X-244338Y9277D01*
X-244401Y9184D01*
X-244467Y9093D01*
X-244474Y9074D01*
X-244486Y9056D01*
X-244496Y9012D01*
X-244554Y8842D01*
X-244558Y8730D01*
X-244570Y8679D01*
X-244570Y-137765D01*
X-244554Y-137867D01*
X-244546Y-137969D01*
X-244534Y-137997D01*
X-244530Y-138028D01*
X-244485Y-138120D01*
X-244447Y-138216D01*
X-244427Y-138239D01*
X-244414Y-138267D01*
X-244344Y-138342D01*
X-244279Y-138422D01*
X-244254Y-138439D01*
X-244233Y-138461D01*
X-244144Y-138512D01*
X-244058Y-138569D01*
X-244035Y-138575D01*
X-244002Y-138593D01*
X-243742Y-138651D01*
X-243705Y-138648D01*
X-243681Y-138653D01*
X-238566Y-138653D01*
X-233513Y-140746D01*
X-229646Y-144613D01*
X-227553Y-149666D01*
X-227553Y-155134D01*
X-229646Y-160187D01*
X-233513Y-164054D01*
X-238566Y-166147D01*
X-243681Y-166147D01*
X-243783Y-166162D01*
X-243885Y-166170D01*
X-243914Y-166182D01*
X-243944Y-166187D01*
X-244036Y-166231D01*
X-244132Y-166269D01*
X-244156Y-166289D01*
X-244183Y-166302D01*
X-244258Y-166372D01*
X-244338Y-166437D01*
X-244355Y-166463D01*
X-244378Y-166484D01*
X-244429Y-166573D01*
X-244486Y-166658D01*
X-244491Y-166682D01*
X-244510Y-166714D01*
X-244567Y-166974D01*
X-244564Y-167012D01*
X-244570Y-167035D01*
X-244570Y-175957D01*
X-244564Y-175995D01*
X-244566Y-176033D01*
X-244550Y-176083D01*
X-244530Y-176220D01*
X-244466Y-176351D01*
X-244451Y-176401D01*
X-176710Y-293734D01*
X-176708Y-293737D01*
X-176707Y-293741D01*
X-176624Y-293842D01*
X-176544Y-293942D01*
X-176541Y-293944D01*
X-176539Y-293947D01*
X-176430Y-294020D01*
X-176324Y-294091D01*
X-176321Y-294092D01*
X-176318Y-294094D01*
X-176304Y-294097D01*
X-176070Y-294169D01*
X-175985Y-294168D01*
X-175941Y-294178D01*
X-11384Y-294178D01*
X-11380Y-294178D01*
G37*
%LPC*%
G36*
X-217865Y-73379D02*
X-217865Y-73379D01*
X-221496Y-71875D01*
X-224275Y-69096D01*
X-225011Y-67318D01*
X-225043Y-67266D01*
X-225059Y-67224D01*
X-225081Y-67198D01*
X-225111Y-67138D01*
X-225133Y-67116D01*
X-225149Y-67090D01*
X-225219Y-67027D01*
X-225227Y-67018D01*
X-225234Y-67013D01*
X-225297Y-66948D01*
X-225324Y-66934D01*
X-225347Y-66913D01*
X-225440Y-66871D01*
X-225531Y-66822D01*
X-225561Y-66816D01*
X-225589Y-66803D01*
X-225691Y-66790D01*
X-225792Y-66770D01*
X-225815Y-66774D01*
X-225853Y-66770D01*
X-226115Y-66815D01*
X-226135Y-66826D01*
X-226136Y-66826D01*
X-226150Y-66833D01*
X-226172Y-66837D01*
X-226635Y-67029D01*
X-230565Y-67029D01*
X-234196Y-65525D01*
X-236975Y-62746D01*
X-238479Y-59115D01*
X-238479Y-55185D01*
X-236975Y-51554D01*
X-236849Y-51428D01*
X-236808Y-51373D01*
X-236783Y-51349D01*
X-236766Y-51319D01*
X-236721Y-51267D01*
X-236709Y-51239D01*
X-236691Y-51214D01*
X-236669Y-51150D01*
X-236651Y-51118D01*
X-236643Y-51084D01*
X-236617Y-51023D01*
X-236614Y-50992D01*
X-236604Y-50963D01*
X-236601Y-50897D01*
X-236593Y-50859D01*
X-236596Y-50821D01*
X-236590Y-50758D01*
X-236596Y-50728D01*
X-236594Y-50697D01*
X-236611Y-50637D01*
X-236615Y-50594D01*
X-236630Y-50555D01*
X-236642Y-50498D01*
X-236654Y-50478D01*
X-236664Y-50441D01*
X-236696Y-50392D01*
X-236714Y-50347D01*
X-236762Y-50288D01*
X-236807Y-50217D01*
X-236836Y-50192D01*
X-236849Y-50172D01*
X-236975Y-50046D01*
X-238479Y-46415D01*
X-238479Y-42485D01*
X-236975Y-38854D01*
X-234196Y-36075D01*
X-230565Y-34571D01*
X-226635Y-34571D01*
X-223004Y-36075D01*
X-220225Y-38854D01*
X-219489Y-40632D01*
X-219436Y-40720D01*
X-219389Y-40812D01*
X-219367Y-40834D01*
X-219351Y-40860D01*
X-219275Y-40928D01*
X-219203Y-41002D01*
X-219176Y-41016D01*
X-219153Y-41037D01*
X-219060Y-41079D01*
X-218969Y-41128D01*
X-218939Y-41134D01*
X-218911Y-41147D01*
X-218809Y-41160D01*
X-218708Y-41180D01*
X-218685Y-41176D01*
X-218647Y-41180D01*
X-218385Y-41135D01*
X-218352Y-41117D01*
X-218328Y-41113D01*
X-217865Y-40921D01*
X-213935Y-40921D01*
X-212031Y-41710D01*
X-211971Y-41725D01*
X-211914Y-41749D01*
X-211842Y-41757D01*
X-211773Y-41774D01*
X-211711Y-41770D01*
X-211649Y-41777D01*
X-211579Y-41763D01*
X-211508Y-41758D01*
X-211450Y-41737D01*
X-211389Y-41725D01*
X-211348Y-41699D01*
X-211259Y-41665D01*
X-211089Y-41534D01*
X-211063Y-41517D01*
X-209861Y-40316D01*
X-209800Y-40233D01*
X-209734Y-40155D01*
X-209722Y-40126D01*
X-209703Y-40102D01*
X-209670Y-40005D01*
X-209629Y-39910D01*
X-209626Y-39880D01*
X-209616Y-39851D01*
X-209613Y-39748D01*
X-209602Y-39646D01*
X-209608Y-39616D01*
X-209607Y-39585D01*
X-209634Y-39486D01*
X-209654Y-39385D01*
X-209667Y-39365D01*
X-209677Y-39328D01*
X-209819Y-39104D01*
X-209848Y-39080D01*
X-209861Y-39059D01*
X-211575Y-37346D01*
X-213079Y-33715D01*
X-213079Y-29785D01*
X-211575Y-26154D01*
X-208796Y-23375D01*
X-205165Y-21871D01*
X-201235Y-21871D01*
X-197604Y-23375D01*
X-194825Y-26154D01*
X-193295Y-29849D01*
X-193264Y-29900D01*
X-193252Y-29930D01*
X-193234Y-29953D01*
X-193195Y-30028D01*
X-193174Y-30050D01*
X-193158Y-30076D01*
X-193081Y-30145D01*
X-193009Y-30218D01*
X-192982Y-30233D01*
X-192959Y-30253D01*
X-192866Y-30295D01*
X-192775Y-30344D01*
X-192745Y-30350D01*
X-192717Y-30363D01*
X-192615Y-30376D01*
X-192515Y-30396D01*
X-192491Y-30392D01*
X-192453Y-30397D01*
X-192192Y-30351D01*
X-192158Y-30333D01*
X-192134Y-30329D01*
X-190878Y-29809D01*
X-186947Y-29809D01*
X-185691Y-30329D01*
X-185591Y-30354D01*
X-185493Y-30385D01*
X-185462Y-30386D01*
X-185433Y-30393D01*
X-185330Y-30387D01*
X-185227Y-30388D01*
X-185198Y-30380D01*
X-185167Y-30378D01*
X-185071Y-30342D01*
X-184973Y-30313D01*
X-184947Y-30295D01*
X-184918Y-30285D01*
X-184837Y-30222D01*
X-184752Y-30165D01*
X-184738Y-30145D01*
X-184708Y-30122D01*
X-184648Y-30037D01*
X-184642Y-30031D01*
X-184633Y-30015D01*
X-184555Y-29904D01*
X-184544Y-29868D01*
X-184530Y-29849D01*
X-183000Y-26154D01*
X-180221Y-23375D01*
X-176590Y-21871D01*
X-172660Y-21871D01*
X-169029Y-23375D01*
X-166250Y-26154D01*
X-164720Y-29849D01*
X-164689Y-29900D01*
X-164677Y-29930D01*
X-164659Y-29953D01*
X-164620Y-30028D01*
X-164599Y-30050D01*
X-164583Y-30076D01*
X-164506Y-30145D01*
X-164434Y-30218D01*
X-164407Y-30233D01*
X-164384Y-30253D01*
X-164291Y-30295D01*
X-164200Y-30344D01*
X-164170Y-30350D01*
X-164142Y-30363D01*
X-164040Y-30376D01*
X-163940Y-30396D01*
X-163916Y-30392D01*
X-163878Y-30397D01*
X-163617Y-30351D01*
X-163583Y-30333D01*
X-163559Y-30329D01*
X-162303Y-29809D01*
X-158372Y-29809D01*
X-154742Y-31313D01*
X-151963Y-34092D01*
X-150459Y-37722D01*
X-150459Y-40033D01*
X-150443Y-40135D01*
X-150435Y-40237D01*
X-150424Y-40265D01*
X-150419Y-40296D01*
X-150374Y-40388D01*
X-150336Y-40484D01*
X-150317Y-40507D01*
X-150303Y-40535D01*
X-150233Y-40610D01*
X-150168Y-40690D01*
X-150143Y-40707D01*
X-150122Y-40729D01*
X-150033Y-40780D01*
X-149947Y-40837D01*
X-149924Y-40843D01*
X-149891Y-40861D01*
X-149632Y-40919D01*
X-149594Y-40916D01*
X-149571Y-40921D01*
X-145672Y-40921D01*
X-145209Y-41113D01*
X-145110Y-41138D01*
X-145012Y-41169D01*
X-144981Y-41170D01*
X-144951Y-41177D01*
X-144849Y-41171D01*
X-144746Y-41172D01*
X-144717Y-41163D01*
X-144686Y-41162D01*
X-144590Y-41126D01*
X-144491Y-41096D01*
X-144466Y-41079D01*
X-144437Y-41068D01*
X-144356Y-41005D01*
X-144271Y-40948D01*
X-144257Y-40929D01*
X-144227Y-40906D01*
X-144074Y-40688D01*
X-144063Y-40652D01*
X-144049Y-40632D01*
X-143312Y-38854D01*
X-140533Y-36075D01*
X-136903Y-34571D01*
X-132972Y-34571D01*
X-129342Y-36075D01*
X-126563Y-38854D01*
X-125059Y-42485D01*
X-125059Y-46415D01*
X-126563Y-50046D01*
X-126689Y-50172D01*
X-126719Y-50213D01*
X-126755Y-50246D01*
X-126780Y-50290D01*
X-126816Y-50333D01*
X-126828Y-50361D01*
X-126847Y-50386D01*
X-126865Y-50439D01*
X-126887Y-50477D01*
X-126897Y-50521D01*
X-126921Y-50577D01*
X-126924Y-50608D01*
X-126934Y-50637D01*
X-126936Y-50698D01*
X-126945Y-50737D01*
X-126941Y-50777D01*
X-126948Y-50842D01*
X-126942Y-50872D01*
X-126943Y-50903D01*
X-126926Y-50965D01*
X-126923Y-51002D01*
X-126909Y-51036D01*
X-126896Y-51102D01*
X-126883Y-51123D01*
X-126873Y-51159D01*
X-126837Y-51216D01*
X-126824Y-51248D01*
X-126789Y-51291D01*
X-126731Y-51383D01*
X-126702Y-51408D01*
X-126689Y-51428D01*
X-126563Y-51554D01*
X-125059Y-55185D01*
X-125059Y-59115D01*
X-126563Y-62746D01*
X-129342Y-65525D01*
X-132972Y-67029D01*
X-136903Y-67029D01*
X-137366Y-66837D01*
X-137465Y-66812D01*
X-137563Y-66781D01*
X-137594Y-66780D01*
X-137624Y-66773D01*
X-137726Y-66779D01*
X-137829Y-66778D01*
X-137858Y-66787D01*
X-137889Y-66788D01*
X-137985Y-66824D01*
X-138084Y-66854D01*
X-138109Y-66871D01*
X-138138Y-66882D01*
X-138219Y-66945D01*
X-138304Y-67002D01*
X-138318Y-67021D01*
X-138348Y-67044D01*
X-138393Y-67108D01*
X-138409Y-67123D01*
X-138433Y-67166D01*
X-138501Y-67262D01*
X-138512Y-67298D01*
X-138526Y-67318D01*
X-139263Y-69096D01*
X-142042Y-71875D01*
X-145672Y-73379D01*
X-149603Y-73379D01*
X-153233Y-71875D01*
X-156012Y-69096D01*
X-157516Y-65465D01*
X-157516Y-64742D01*
X-157532Y-64640D01*
X-157540Y-64538D01*
X-157551Y-64510D01*
X-157556Y-64479D01*
X-157601Y-64387D01*
X-157639Y-64291D01*
X-157658Y-64268D01*
X-157672Y-64240D01*
X-157742Y-64165D01*
X-157807Y-64085D01*
X-157832Y-64068D01*
X-157853Y-64046D01*
X-157942Y-63995D01*
X-158028Y-63938D01*
X-158051Y-63932D01*
X-158084Y-63914D01*
X-158343Y-63856D01*
X-158381Y-63859D01*
X-158404Y-63854D01*
X-162303Y-63854D01*
X-165933Y-62350D01*
X-168712Y-59571D01*
X-169681Y-57231D01*
X-169734Y-57144D01*
X-169781Y-57052D01*
X-169803Y-57030D01*
X-169819Y-57004D01*
X-169895Y-56936D01*
X-169967Y-56862D01*
X-169994Y-56847D01*
X-170017Y-56827D01*
X-170110Y-56785D01*
X-170201Y-56736D01*
X-170231Y-56730D01*
X-170259Y-56717D01*
X-170361Y-56704D01*
X-170462Y-56684D01*
X-170485Y-56688D01*
X-170523Y-56683D01*
X-170785Y-56729D01*
X-170818Y-56747D01*
X-170842Y-56751D01*
X-172660Y-57504D01*
X-176590Y-57504D01*
X-178408Y-56751D01*
X-178508Y-56726D01*
X-178606Y-56695D01*
X-178636Y-56694D01*
X-178666Y-56687D01*
X-178769Y-56693D01*
X-178871Y-56692D01*
X-178901Y-56700D01*
X-178932Y-56702D01*
X-179028Y-56738D01*
X-179126Y-56767D01*
X-179152Y-56785D01*
X-179180Y-56795D01*
X-179262Y-56858D01*
X-179347Y-56915D01*
X-179361Y-56935D01*
X-179391Y-56958D01*
X-179543Y-57176D01*
X-179555Y-57212D01*
X-179569Y-57231D01*
X-180538Y-59571D01*
X-183317Y-62350D01*
X-186947Y-63854D01*
X-190878Y-63854D01*
X-194508Y-62350D01*
X-197287Y-59571D01*
X-198256Y-57231D01*
X-198309Y-57144D01*
X-198356Y-57052D01*
X-198378Y-57030D01*
X-198394Y-57004D01*
X-198470Y-56936D01*
X-198542Y-56862D01*
X-198569Y-56847D01*
X-198592Y-56827D01*
X-198685Y-56785D01*
X-198776Y-56736D01*
X-198806Y-56730D01*
X-198834Y-56717D01*
X-198936Y-56704D01*
X-199037Y-56684D01*
X-199060Y-56688D01*
X-199098Y-56683D01*
X-199360Y-56729D01*
X-199393Y-56747D01*
X-199417Y-56751D01*
X-201235Y-57504D01*
X-205165Y-57504D01*
X-206233Y-57061D01*
X-206283Y-57049D01*
X-206330Y-57028D01*
X-206411Y-57017D01*
X-206491Y-56997D01*
X-206543Y-57000D01*
X-206594Y-56994D01*
X-206675Y-57008D01*
X-206756Y-57013D01*
X-206805Y-57031D01*
X-206856Y-57040D01*
X-206929Y-57077D01*
X-207005Y-57106D01*
X-207046Y-57138D01*
X-207092Y-57161D01*
X-207151Y-57218D01*
X-207216Y-57269D01*
X-207245Y-57311D01*
X-207282Y-57347D01*
X-207321Y-57419D01*
X-207368Y-57486D01*
X-207384Y-57536D01*
X-207409Y-57581D01*
X-207425Y-57661D01*
X-207450Y-57739D01*
X-207450Y-57791D01*
X-207460Y-57842D01*
X-207451Y-57893D01*
X-207453Y-58005D01*
X-207431Y-58078D01*
X-207428Y-58108D01*
X-207404Y-58169D01*
X-207401Y-58177D01*
X-207394Y-58222D01*
X-206021Y-61535D01*
X-206021Y-65465D01*
X-207525Y-69096D01*
X-210304Y-71875D01*
X-213935Y-73379D01*
X-217865Y-73379D01*
G37*
%LPD*%
%LPC*%
G36*
X26852Y121662D02*
X26852Y121662D01*
X20971Y124098D01*
X16469Y128600D01*
X14033Y134481D01*
X14033Y140848D01*
X16469Y146729D01*
X20971Y151231D01*
X26852Y153667D01*
X33219Y153667D01*
X39100Y151231D01*
X43602Y146729D01*
X46038Y140848D01*
X46038Y134481D01*
X43602Y128600D01*
X39100Y124098D01*
X33219Y121662D01*
X26852Y121662D01*
G37*
%LPD*%
%LPC*%
G36*
X-32552Y-41149D02*
X-32552Y-41149D01*
X-38434Y-38712D01*
X-42935Y-34211D01*
X-45371Y-28329D01*
X-45371Y-21963D01*
X-42935Y-16081D01*
X-38434Y-11580D01*
X-32552Y-9143D01*
X-26186Y-9143D01*
X-20304Y-11580D01*
X-15802Y-16081D01*
X-13366Y-21963D01*
X-13366Y-28329D01*
X-15802Y-34211D01*
X-20304Y-38712D01*
X-26186Y-41149D01*
X-32552Y-41149D01*
G37*
%LPD*%
%LPC*%
G36*
X26852Y-153667D02*
X26852Y-153667D01*
X20971Y-151231D01*
X16469Y-146729D01*
X14033Y-140848D01*
X14033Y-134481D01*
X16469Y-128600D01*
X20971Y-124098D01*
X26852Y-121662D01*
X33219Y-121662D01*
X39100Y-124098D01*
X43602Y-128600D01*
X46038Y-134481D01*
X46038Y-140848D01*
X43602Y-146729D01*
X39100Y-151231D01*
X33219Y-153667D01*
X26852Y-153667D01*
G37*
%LPD*%
%LPC*%
G36*
X1706Y78108D02*
X1706Y78108D01*
X-4175Y80544D01*
X-8677Y85046D01*
X-11113Y90927D01*
X-11113Y97294D01*
X-8677Y103175D01*
X-4175Y107677D01*
X1706Y110113D01*
X8073Y110113D01*
X13954Y107677D01*
X18456Y103175D01*
X20892Y97294D01*
X20892Y90927D01*
X18456Y85046D01*
X13954Y80544D01*
X8073Y78108D01*
X1706Y78108D01*
G37*
%LPD*%
%LPC*%
G36*
X1706Y-110113D02*
X1706Y-110113D01*
X-4175Y-107677D01*
X-8677Y-103175D01*
X-11113Y-97294D01*
X-11113Y-90927D01*
X-8677Y-85046D01*
X-4175Y-80544D01*
X1706Y-78108D01*
X8073Y-78108D01*
X13954Y-80544D01*
X18456Y-85046D01*
X20892Y-90927D01*
X20892Y-97294D01*
X18456Y-103175D01*
X13954Y-107677D01*
X8073Y-110113D01*
X1706Y-110113D01*
G37*
%LPD*%
%LPC*%
G36*
X-140078Y-32104D02*
X-140078Y-32104D01*
X-143708Y-30600D01*
X-146487Y-27821D01*
X-147991Y-24190D01*
X-147991Y-20260D01*
X-146487Y-16629D01*
X-143708Y-13850D01*
X-140078Y-12346D01*
X-136147Y-12346D01*
X-132517Y-13850D01*
X-129738Y-16629D01*
X-128234Y-20260D01*
X-128234Y-24190D01*
X-129738Y-27821D01*
X-132517Y-30600D01*
X-136147Y-32104D01*
X-140078Y-32104D01*
G37*
%LPD*%
%LPC*%
G36*
X-159128Y-214666D02*
X-159128Y-214666D01*
X-162758Y-213162D01*
X-165537Y-210383D01*
X-167041Y-206753D01*
X-167041Y-202822D01*
X-165537Y-199192D01*
X-162758Y-196413D01*
X-159128Y-194909D01*
X-155197Y-194909D01*
X-151567Y-196413D01*
X-148788Y-199192D01*
X-147284Y-202822D01*
X-147284Y-206753D01*
X-148788Y-210383D01*
X-151567Y-213162D01*
X-155197Y-214666D01*
X-159128Y-214666D01*
G37*
%LPD*%
%LPC*%
G36*
X-86103Y-1941D02*
X-86103Y-1941D01*
X-89733Y-437D01*
X-92512Y2342D01*
X-94016Y5972D01*
X-94016Y9903D01*
X-92512Y13533D01*
X-89733Y16312D01*
X-86103Y17816D01*
X-82172Y17816D01*
X-78542Y16312D01*
X-75763Y13533D01*
X-74259Y9903D01*
X-74259Y5972D01*
X-75763Y2342D01*
X-78542Y-437D01*
X-82172Y-1941D01*
X-86103Y-1941D01*
G37*
%LPD*%
D10*
X-29369Y-25146D03*
X-29369Y25146D03*
X30035Y-137665D03*
X4890Y-94110D03*
X4889Y94110D03*
X30036Y137665D03*
D11*
X-241300Y-152400D03*
X-228600Y-174397D03*
X-241300Y152400D03*
X-228600Y174397D03*
D12*
X-422275Y46038D03*
X-498475Y30163D03*
X-374650Y20638D03*
X-384774Y90135D03*
X-336550Y-58738D03*
X-430213Y75406D03*
X-334963Y22225D03*
X-490538Y-15813D03*
X-445488Y-87017D03*
X-379413Y-104775D03*
X-354806Y100362D03*
X-336753Y-92573D03*
X-449707Y86519D03*
X-419100Y87313D03*
X-369073Y-121423D03*
X-450056Y-76200D03*
X-385763Y70644D03*
X-457377Y53798D03*
X-466725Y44450D03*
X-147638Y63500D03*
X-134938Y57150D03*
X-147638Y50800D03*
X-134938Y44450D03*
X-215900Y63500D03*
X-230188Y57150D03*
X-215900Y50800D03*
X-230188Y44450D03*
X-147638Y-63500D03*
X-134938Y-57150D03*
X-147638Y-50800D03*
X-134938Y-44450D03*
X-215900Y-63500D03*
X-228600Y-57150D03*
X-215900Y-50800D03*
X-228600Y-44450D03*
X-138113Y-22225D03*
X-127000Y196850D03*
X-157163Y-204788D03*
X-84138Y7938D03*
X-160338Y-53975D03*
X-174625Y-47625D03*
X-160338Y-39688D03*
X-174625Y-31750D03*
X-188913Y-53975D03*
X-203200Y-47625D03*
X-188913Y-39688D03*
X-203200Y-31750D03*
X-174625Y31750D03*
X-160338Y39688D03*
X-174625Y47625D03*
X-160338Y53975D03*
X-203200Y31750D03*
X-188913Y39688D03*
X-203200Y47625D03*
X-188913Y53975D03*
X-277626Y4763D03*
X-269081Y37306D03*
X-252413Y73025D03*
X-220663Y20638D03*
X-144463Y20638D03*
X-158750Y19050D03*
X-174625Y19050D03*
X-188913Y19050D03*
X-204788Y19050D03*
X-204788Y6350D03*
X-188913Y6350D03*
X-174625Y6350D03*
X-158750Y6350D03*
X-204788Y-19050D03*
X-188913Y-19050D03*
X-174625Y-19050D03*
X-158750Y-19050D03*
X-158750Y-6350D03*
X-174625Y-6350D03*
X-188913Y-6350D03*
X-204788Y-6350D03*
X-144463Y6350D03*
X-144463Y-6350D03*
X-220663Y6350D03*
X-220663Y-6350D03*
X-220663Y-20638D03*
X-223838Y-116455D03*
X-133350Y-290513D03*
X-228600Y-195263D03*
X-133350Y-265113D03*
X-133350Y-239713D03*
X-133350Y-214313D03*
X-209550Y-185738D03*
X-171450Y-204788D03*
X-200025Y-204788D03*
X-142875Y-204788D03*
X-223838Y-145030D03*
X-104775Y-280988D03*
X-19050Y-290513D03*
X-104775Y-255588D03*
X-104775Y-230188D03*
X-104775Y-204788D03*
X-19050Y-261938D03*
X-47625Y-280988D03*
X-28575Y-214313D03*
X-47625Y-255588D03*
X-47625Y-204788D03*
X-76200Y-290513D03*
X-76200Y-265113D03*
X-123825Y214313D03*
X-123825Y239713D03*
X-123825Y265113D03*
X-123825Y288925D03*
X-95250Y204788D03*
X-95250Y255588D03*
X-95250Y280988D03*
X-66675Y265113D03*
X-66675Y288925D03*
X-38100Y204788D03*
X-38100Y230188D03*
X-38100Y255588D03*
X-38100Y280988D03*
X-76200Y-204788D03*
X-66675Y204788D03*
X-9525Y265113D03*
X-28575Y217488D03*
X-269081Y-10164D03*
X-254794Y-130969D03*
X-266700Y-19252D03*
X-268988Y548D03*
X-276225Y-130969D03*
X-259556Y21431D03*
D13*
X-280194Y89694D02*
X-212606Y157282D01*
X-259556Y21431D02*
X-265906Y21431D01*
X-280194Y35719D01*
X-280194Y89694D01*
D12*
X-212505Y216031D03*
D13*
X-212606Y215930D01*
X-212606Y157282D01*
D12*
X-260350Y4763D03*
D13*
X-242888Y22225D01*
X-242888Y95250D01*
D12*
X-135905Y239065D03*
D13*
X-135905Y202232D01*
X-242888Y95250D01*
D12*
X-276788Y-69850D03*
X-354013Y73025D03*
X-357188Y57150D03*
X-364331Y50800D03*
X-364331Y68263D03*
X-453444Y-61699D03*
X-486569Y-39688D03*
X-477137Y-31419D03*
X-458680Y-53289D03*
X-254794Y-17463D03*
X-268288Y53340D03*
X-153201Y267382D03*
D13*
X-268288Y90522D02*
X-268288Y53340D01*
X-163520Y267382D02*
X-153201Y267382D01*
X-163520Y267382D02*
X-193260Y237642D01*
X-193260Y165549D02*
X-268288Y90522D01*
X-193260Y165549D02*
X-193260Y237642D01*
D12*
X-261938Y45244D03*
D13*
X-261938Y49313D01*
X-260950Y50301D01*
X-260950Y87507D01*
X-179388Y169069D02*
X-179388Y195263D01*
D12*
X-179388Y195263D03*
D13*
X-179388Y169069D02*
X-260950Y87507D01*
D12*
X-430213Y-123825D03*
X-488950Y1588D03*
D13*
X-430213Y-57150D02*
X-430213Y-123825D01*
X-430213Y-57150D02*
X-488950Y1588D01*
D12*
X-404813Y-123825D03*
X-444475Y76225D03*
D13*
X-424622Y61937D02*
X-404813Y42128D01*
X-430188Y61937D02*
X-444475Y76225D01*
X-430188Y61937D02*
X-424622Y61937D01*
X-404813Y42128D02*
X-404813Y-123825D01*
D12*
X-417513Y-123825D03*
X-449365Y68263D03*
D13*
X-449365Y56400D02*
X-417513Y24548D01*
X-449365Y56400D02*
X-449365Y68263D01*
X-417513Y24548D02*
X-417513Y-123825D01*
M02*
