G04 EAGLE Gerber RS-274X export*
G75*
%MOMM*%
%FSLAX34Y34*%
%LPD*%
%INSolderpaste Bottom*%
%IPPOS*%
%AMOC8*
5,1,8,0,0,1.08239X$1,22.5*%
G01*
%ADD10R,1.100000X1.000000*%
%ADD11R,1.300000X1.500000*%
%ADD12R,1.399997X0.400000*%
%ADD13R,1.000000X1.100000*%
%ADD14C,0.300000*%


D10*
G36*
X-351432Y-99387D02*
X-343655Y-91610D01*
X-336584Y-98681D01*
X-344361Y-106458D01*
X-351432Y-99387D01*
G37*
G36*
X-363453Y-111408D02*
X-355676Y-103631D01*
X-348605Y-110702D01*
X-356382Y-118479D01*
X-363453Y-111408D01*
G37*
D11*
G36*
X-361244Y-97642D02*
X-370436Y-106834D01*
X-381042Y-96228D01*
X-371850Y-87036D01*
X-361244Y-97642D01*
G37*
G36*
X-347809Y-84207D02*
X-357001Y-93399D01*
X-367607Y-82793D01*
X-358415Y-73601D01*
X-347809Y-84207D01*
G37*
D12*
G36*
X-341686Y-33803D02*
X-331788Y-43701D01*
X-334616Y-46529D01*
X-344514Y-36631D01*
X-341686Y-33803D01*
G37*
G36*
X-350171Y-42288D02*
X-340273Y-52186D01*
X-343101Y-55014D01*
X-352999Y-45116D01*
X-350171Y-42288D01*
G37*
G36*
X-358657Y-50773D02*
X-348759Y-60671D01*
X-351587Y-63499D01*
X-361485Y-53601D01*
X-358657Y-50773D01*
G37*
D10*
X-336550Y64522D03*
X-336550Y81522D03*
D11*
G36*
X-451930Y-106677D02*
X-461122Y-97485D01*
X-450516Y-86879D01*
X-441324Y-96071D01*
X-451930Y-106677D01*
G37*
G36*
X-438495Y-120112D02*
X-447687Y-110920D01*
X-437081Y-100314D01*
X-427889Y-109506D01*
X-438495Y-120112D01*
G37*
D10*
G36*
X-375493Y-78306D02*
X-383270Y-86083D01*
X-390341Y-79012D01*
X-382564Y-71235D01*
X-375493Y-78306D01*
G37*
G36*
X-363472Y-66285D02*
X-371249Y-74062D01*
X-378320Y-66991D01*
X-370543Y-59214D01*
X-363472Y-66285D01*
G37*
G36*
X-435853Y-90613D02*
X-443630Y-82836D01*
X-436559Y-75765D01*
X-428782Y-83542D01*
X-435853Y-90613D01*
G37*
G36*
X-423832Y-102634D02*
X-431609Y-94857D01*
X-424538Y-87786D01*
X-416761Y-95563D01*
X-423832Y-102634D01*
G37*
G36*
X-503123Y-23946D02*
X-510900Y-16169D01*
X-503829Y-9098D01*
X-496052Y-16875D01*
X-503123Y-23946D01*
G37*
G36*
X-491102Y-35967D02*
X-498879Y-28190D01*
X-491808Y-21119D01*
X-484031Y-28896D01*
X-491102Y-35967D01*
G37*
D13*
X-336669Y34283D03*
X-336669Y51283D03*
D14*
X-341953Y16970D02*
X-349023Y9900D01*
X-352559Y13436D02*
X-345489Y20506D01*
X-349024Y24041D02*
X-356094Y16971D01*
X-359630Y20507D02*
X-352560Y27577D01*
X-356095Y31112D02*
X-363165Y24042D01*
X-366701Y27578D02*
X-359631Y34648D01*
X-363166Y38183D02*
X-370236Y31113D01*
X-373772Y34649D02*
X-366702Y41719D01*
X-370238Y45254D02*
X-377308Y38184D01*
X-380843Y41720D02*
X-373773Y48790D01*
X-377309Y52325D02*
X-384379Y45255D01*
X-387914Y48791D02*
X-380844Y55861D01*
X-384380Y59396D02*
X-391450Y52326D01*
X-394985Y55862D02*
X-387915Y62932D01*
X-391451Y66468D02*
X-398521Y59398D01*
X-402056Y62933D02*
X-394986Y70003D01*
X-421856Y62933D02*
X-428926Y70003D01*
X-432462Y66468D02*
X-425392Y59398D01*
X-428927Y55862D02*
X-435997Y62932D01*
X-439533Y59396D02*
X-432463Y52326D01*
X-435998Y48791D02*
X-443068Y55861D01*
X-446604Y52325D02*
X-439534Y45255D01*
X-443070Y41720D02*
X-450140Y48790D01*
X-453675Y45254D02*
X-446605Y38184D01*
X-450141Y34649D02*
X-457211Y41719D01*
X-460746Y38183D02*
X-453676Y31113D01*
X-457212Y27578D02*
X-464282Y34648D01*
X-467817Y31112D02*
X-460747Y24042D01*
X-464283Y20507D02*
X-471353Y27577D01*
X-474888Y24041D02*
X-467818Y16971D01*
X-471354Y13436D02*
X-478424Y20506D01*
X-481959Y16970D02*
X-474889Y9900D01*
X-474889Y-9900D02*
X-481959Y-16970D01*
X-478424Y-20506D02*
X-471354Y-13436D01*
X-467818Y-16971D02*
X-474888Y-24041D01*
X-471353Y-27577D02*
X-464283Y-20507D01*
X-460747Y-24042D02*
X-467817Y-31112D01*
X-464282Y-34648D02*
X-457212Y-27578D01*
X-453676Y-31113D02*
X-460746Y-38183D01*
X-457211Y-41719D02*
X-450141Y-34649D01*
X-446605Y-38184D02*
X-453675Y-45254D01*
X-450140Y-48790D02*
X-443070Y-41720D01*
X-439534Y-45255D02*
X-446604Y-52325D01*
X-443068Y-55861D02*
X-435998Y-48791D01*
X-432463Y-52326D02*
X-439533Y-59396D01*
X-435997Y-62932D02*
X-428927Y-55862D01*
X-425392Y-59398D02*
X-432462Y-66468D01*
X-428926Y-70003D02*
X-421856Y-62933D01*
X-402056Y-62933D02*
X-394986Y-70003D01*
X-391451Y-66468D02*
X-398521Y-59398D01*
X-394985Y-55862D02*
X-387915Y-62932D01*
X-384380Y-59396D02*
X-391450Y-52326D01*
X-387914Y-48791D02*
X-380844Y-55861D01*
X-377309Y-52325D02*
X-384379Y-45255D01*
X-380843Y-41720D02*
X-373773Y-48790D01*
X-370238Y-45254D02*
X-377308Y-38184D01*
X-373772Y-34649D02*
X-366702Y-41719D01*
X-363166Y-38183D02*
X-370236Y-31113D01*
X-366701Y-27578D02*
X-359631Y-34648D01*
X-356095Y-31112D02*
X-363165Y-24042D01*
X-359630Y-20507D02*
X-352560Y-27577D01*
X-349024Y-24041D02*
X-356094Y-16971D01*
X-352559Y-13436D02*
X-345489Y-20506D01*
X-341953Y-16970D02*
X-349023Y-9900D01*
D13*
X-259788Y-80169D03*
X-276788Y-80169D03*
X-259788Y-105569D03*
X-276788Y-105569D03*
X-258200Y-54769D03*
X-275200Y-54769D03*
G36*
X-162543Y279126D02*
X-153883Y274126D01*
X-159383Y264600D01*
X-168043Y269600D01*
X-162543Y279126D01*
G37*
G36*
X-177266Y287626D02*
X-168606Y282626D01*
X-174106Y273100D01*
X-182766Y278100D01*
X-177266Y287626D01*
G37*
G36*
X-171273Y201807D02*
X-179933Y206807D01*
X-174433Y216333D01*
X-165773Y211333D01*
X-171273Y201807D01*
G37*
G36*
X-156550Y193307D02*
X-165210Y198307D01*
X-159710Y207833D01*
X-151050Y202833D01*
X-156550Y193307D01*
G37*
G36*
X-177624Y253005D02*
X-168964Y248005D01*
X-174464Y238479D01*
X-183124Y243479D01*
X-177624Y253005D01*
G37*
G36*
X-192347Y261505D02*
X-183687Y256505D01*
X-189187Y246979D01*
X-197847Y251979D01*
X-192347Y261505D01*
G37*
G36*
X-192706Y226883D02*
X-184046Y221883D01*
X-189546Y212357D01*
X-198206Y217357D01*
X-192706Y226883D01*
G37*
G36*
X-207428Y235383D02*
X-198768Y230383D01*
X-204268Y220857D01*
X-212928Y225857D01*
X-207428Y235383D01*
G37*
G36*
X-141110Y254050D02*
X-149770Y259050D01*
X-144270Y268576D01*
X-135610Y263576D01*
X-141110Y254050D01*
G37*
G36*
X-126388Y245550D02*
X-135048Y250550D01*
X-129548Y260076D01*
X-120888Y255076D01*
X-126388Y245550D01*
G37*
G36*
X-156191Y227929D02*
X-164851Y232929D01*
X-159351Y242455D01*
X-150691Y237455D01*
X-156191Y227929D01*
G37*
G36*
X-141469Y219429D02*
X-150129Y224429D01*
X-144629Y233955D01*
X-135969Y228955D01*
X-141469Y219429D01*
G37*
M02*
