G04 EAGLE Gerber RS-274X export*
G75*
%MOMM*%
%FSLAX34Y34*%
%LPD*%
%INSoldermask Top*%
%IPPOS*%
%AMOC8*
5,1,8,0,0,1.08239X$1,22.5*%
G01*
%ADD10R,0.901600X0.901600*%
%ADD11R,1.201600X1.101600*%
%ADD12R,1.601600X1.401600*%
%ADD13R,1.101600X1.201600*%
%ADD14C,0.605878*%
%ADD15R,0.863600X0.355600*%
%ADD16R,0.355600X0.863600*%
%ADD17R,1.371600X0.228600*%
%ADD18R,2.489200X3.200400*%
%ADD19R,0.228600X0.228600*%
%ADD20R,5.689600X4.902200*%
%ADD21R,3.301600X1.901600*%
%ADD22R,1.401600X1.601600*%
%ADD23R,5.901600X2.601600*%
%ADD24C,2.082800*%
%ADD25R,0.711600X1.361600*%
%ADD26R,0.901600X0.901600*%
%ADD27R,0.742600X1.107600*%
%ADD28C,0.742600*%
%ADD29R,1.581600X0.445600*%
%ADD30C,0.445600*%
%ADD31R,1.631600X1.631600*%
%ADD32C,1.631600*%
%ADD33R,1.701600X0.511600*%
%ADD34C,1.101600*%

G36*
X-351318Y131772D02*
X-351318Y131772D01*
X-351284Y131779D01*
X-351236Y131779D01*
X-348470Y132243D01*
X-348438Y132255D01*
X-348390Y132263D01*
X-345738Y133175D01*
X-345708Y133193D01*
X-345663Y133208D01*
X-343197Y134545D01*
X-343171Y134567D01*
X-343128Y134590D01*
X-340916Y136314D01*
X-340894Y136340D01*
X-340856Y136370D01*
X-338957Y138434D01*
X-338939Y138464D01*
X-338907Y138500D01*
X-337375Y140848D01*
X-337362Y140881D01*
X-337335Y140921D01*
X-336210Y143490D01*
X-336203Y143524D01*
X-336184Y143568D01*
X-335497Y146287D01*
X-335495Y146322D01*
X-335484Y146368D01*
X-335254Y149164D01*
X-335257Y149192D01*
X-335252Y149221D01*
X-335269Y149290D01*
X-335277Y149361D01*
X-335292Y149386D01*
X-335299Y149415D01*
X-335341Y149472D01*
X-335376Y149534D01*
X-335399Y149551D01*
X-335417Y149575D01*
X-335478Y149611D01*
X-335534Y149654D01*
X-335563Y149661D01*
X-335588Y149676D01*
X-335686Y149693D01*
X-335727Y149703D01*
X-335738Y149701D01*
X-335752Y149704D01*
X-369713Y149681D01*
X-369741Y149675D01*
X-369771Y149678D01*
X-369838Y149656D01*
X-369908Y149642D01*
X-369932Y149625D01*
X-369959Y149616D01*
X-370013Y149569D01*
X-370072Y149529D01*
X-370087Y149504D01*
X-370109Y149485D01*
X-370140Y149421D01*
X-370178Y149361D01*
X-370183Y149333D01*
X-370196Y149306D01*
X-370204Y149207D01*
X-370211Y149165D01*
X-370209Y149154D01*
X-370210Y149140D01*
X-369977Y146346D01*
X-369967Y146312D01*
X-369963Y146264D01*
X-369273Y143546D01*
X-369258Y143515D01*
X-369246Y143468D01*
X-368118Y140901D01*
X-368098Y140872D01*
X-368078Y140828D01*
X-366543Y138481D01*
X-366518Y138457D01*
X-366492Y138416D01*
X-364591Y136354D01*
X-364563Y136334D01*
X-364531Y136298D01*
X-362316Y134577D01*
X-362285Y134562D01*
X-362247Y134532D01*
X-359780Y133199D01*
X-359747Y133189D01*
X-359704Y133166D01*
X-357051Y132257D01*
X-357017Y132253D01*
X-356971Y132237D01*
X-354205Y131777D01*
X-354170Y131778D01*
X-354123Y131770D01*
X-351318Y131772D01*
G37*
G36*
X-475056Y-90465D02*
X-475056Y-90465D01*
X-474985Y-90468D01*
X-474957Y-90458D01*
X-474928Y-90456D01*
X-474838Y-90414D01*
X-474798Y-90399D01*
X-474790Y-90391D01*
X-474778Y-90385D01*
X-472474Y-88786D01*
X-472450Y-88761D01*
X-472411Y-88733D01*
X-470402Y-86776D01*
X-470382Y-86747D01*
X-470348Y-86714D01*
X-468688Y-84453D01*
X-468674Y-84422D01*
X-468645Y-84383D01*
X-467380Y-81880D01*
X-467371Y-81846D01*
X-467349Y-81803D01*
X-466514Y-79126D01*
X-466510Y-79092D01*
X-466496Y-79046D01*
X-466113Y-76267D01*
X-466115Y-76233D01*
X-466108Y-76185D01*
X-466187Y-73382D01*
X-466195Y-73348D01*
X-466196Y-73300D01*
X-466736Y-70548D01*
X-466749Y-70516D01*
X-466758Y-70468D01*
X-467743Y-67843D01*
X-467759Y-67818D01*
X-467764Y-67798D01*
X-467771Y-67788D01*
X-467779Y-67768D01*
X-469182Y-65340D01*
X-469205Y-65314D01*
X-469229Y-65273D01*
X-471014Y-63109D01*
X-471041Y-63087D01*
X-471071Y-63050D01*
X-473187Y-61209D01*
X-473218Y-61192D01*
X-473254Y-61161D01*
X-475644Y-59693D01*
X-475677Y-59682D01*
X-475718Y-59656D01*
X-478317Y-58603D01*
X-478351Y-58596D01*
X-478395Y-58578D01*
X-481132Y-57967D01*
X-481167Y-57966D01*
X-481214Y-57955D01*
X-484014Y-57803D01*
X-484049Y-57808D01*
X-484097Y-57805D01*
X-486884Y-58115D01*
X-486917Y-58126D01*
X-486965Y-58131D01*
X-489663Y-58896D01*
X-489694Y-58912D01*
X-489740Y-58925D01*
X-492276Y-60124D01*
X-492299Y-60141D01*
X-492327Y-60151D01*
X-492378Y-60200D01*
X-492435Y-60243D01*
X-492450Y-60268D01*
X-492471Y-60288D01*
X-492499Y-60353D01*
X-492535Y-60415D01*
X-492539Y-60443D01*
X-492551Y-60470D01*
X-492551Y-60541D01*
X-492560Y-60612D01*
X-492553Y-60640D01*
X-492553Y-60669D01*
X-492518Y-60762D01*
X-492507Y-60803D01*
X-492500Y-60812D01*
X-492495Y-60825D01*
X-475495Y-90225D01*
X-475475Y-90247D01*
X-475463Y-90273D01*
X-475410Y-90321D01*
X-475363Y-90374D01*
X-475337Y-90386D01*
X-475315Y-90406D01*
X-475247Y-90429D01*
X-475183Y-90459D01*
X-475154Y-90461D01*
X-475127Y-90470D01*
X-475056Y-90465D01*
G37*
G36*
X-480814Y56905D02*
X-480814Y56905D01*
X-480781Y56914D01*
X-480732Y56917D01*
X-477995Y57528D01*
X-477964Y57542D01*
X-477917Y57553D01*
X-475318Y58606D01*
X-475289Y58625D01*
X-475244Y58643D01*
X-472854Y60111D01*
X-472828Y60134D01*
X-472787Y60159D01*
X-470671Y62000D01*
X-470650Y62027D01*
X-470614Y62059D01*
X-468829Y64223D01*
X-468813Y64253D01*
X-468782Y64290D01*
X-467379Y66718D01*
X-467368Y66751D01*
X-467343Y66793D01*
X-466358Y69418D01*
X-466353Y69453D01*
X-466336Y69498D01*
X-465796Y72250D01*
X-465797Y72285D01*
X-465787Y72332D01*
X-465708Y75135D01*
X-465714Y75169D01*
X-465713Y75217D01*
X-466096Y77996D01*
X-466107Y78028D01*
X-466114Y78076D01*
X-466949Y80753D01*
X-466966Y80784D01*
X-466980Y80830D01*
X-468245Y83333D01*
X-468266Y83360D01*
X-468288Y83403D01*
X-469948Y85664D01*
X-469973Y85687D01*
X-470002Y85726D01*
X-472011Y87683D01*
X-472040Y87702D01*
X-472074Y87736D01*
X-474378Y89335D01*
X-474405Y89347D01*
X-474427Y89365D01*
X-474495Y89386D01*
X-474560Y89414D01*
X-474590Y89414D01*
X-474618Y89422D01*
X-474688Y89414D01*
X-474759Y89415D01*
X-474786Y89404D01*
X-474815Y89400D01*
X-474877Y89366D01*
X-474943Y89338D01*
X-474963Y89317D01*
X-474989Y89303D01*
X-475052Y89227D01*
X-475082Y89196D01*
X-475086Y89186D01*
X-475095Y89175D01*
X-492095Y59775D01*
X-492104Y59747D01*
X-492121Y59723D01*
X-492135Y59654D01*
X-492158Y59586D01*
X-492156Y59557D01*
X-492162Y59529D01*
X-492148Y59459D01*
X-492143Y59388D01*
X-492129Y59362D01*
X-492124Y59334D01*
X-492084Y59275D01*
X-492051Y59212D01*
X-492029Y59193D01*
X-492012Y59169D01*
X-491931Y59112D01*
X-491898Y59085D01*
X-491887Y59082D01*
X-491876Y59074D01*
X-489340Y57875D01*
X-489307Y57867D01*
X-489263Y57846D01*
X-486565Y57081D01*
X-486531Y57079D01*
X-486484Y57065D01*
X-483697Y56755D01*
X-483662Y56758D01*
X-483614Y56753D01*
X-480814Y56905D01*
G37*
G36*
X-336428Y-150979D02*
X-336428Y-150979D01*
X-336400Y-150973D01*
X-336371Y-150975D01*
X-336303Y-150953D01*
X-336234Y-150939D01*
X-336209Y-150923D01*
X-336182Y-150914D01*
X-336128Y-150867D01*
X-336070Y-150827D01*
X-336054Y-150802D01*
X-336032Y-150783D01*
X-336001Y-150719D01*
X-335963Y-150659D01*
X-335958Y-150630D01*
X-335945Y-150604D01*
X-335937Y-150505D01*
X-335930Y-150463D01*
X-335932Y-150452D01*
X-335931Y-150438D01*
X-336165Y-147643D01*
X-336174Y-147610D01*
X-336178Y-147562D01*
X-336868Y-144844D01*
X-336884Y-144812D01*
X-336895Y-144766D01*
X-338024Y-142198D01*
X-338044Y-142170D01*
X-338063Y-142126D01*
X-339598Y-139779D01*
X-339623Y-139754D01*
X-339649Y-139714D01*
X-341550Y-137652D01*
X-341578Y-137632D01*
X-341611Y-137596D01*
X-343825Y-135875D01*
X-343856Y-135860D01*
X-343894Y-135830D01*
X-346361Y-134497D01*
X-346394Y-134487D01*
X-346437Y-134464D01*
X-349090Y-133555D01*
X-349101Y-133553D01*
X-349130Y-133549D01*
X-349170Y-133535D01*
X-351936Y-133075D01*
X-351971Y-133076D01*
X-352019Y-133068D01*
X-354823Y-133070D01*
X-354857Y-133077D01*
X-354905Y-133077D01*
X-357671Y-133540D01*
X-357703Y-133553D01*
X-357751Y-133561D01*
X-360403Y-134473D01*
X-360433Y-134491D01*
X-360478Y-134506D01*
X-362944Y-135843D01*
X-362971Y-135865D01*
X-363013Y-135888D01*
X-365225Y-137612D01*
X-365248Y-137638D01*
X-365286Y-137668D01*
X-367184Y-139732D01*
X-367202Y-139762D01*
X-367234Y-139797D01*
X-368767Y-142146D01*
X-368779Y-142178D01*
X-368806Y-142219D01*
X-369931Y-144788D01*
X-369938Y-144819D01*
X-369945Y-144831D01*
X-369947Y-144841D01*
X-369957Y-144866D01*
X-370644Y-147585D01*
X-370646Y-147619D01*
X-370658Y-147666D01*
X-370887Y-150461D01*
X-370884Y-150490D01*
X-370889Y-150519D01*
X-370872Y-150588D01*
X-370864Y-150659D01*
X-370849Y-150684D01*
X-370843Y-150712D01*
X-370800Y-150769D01*
X-370765Y-150831D01*
X-370742Y-150849D01*
X-370725Y-150872D01*
X-370664Y-150909D01*
X-370607Y-150952D01*
X-370579Y-150959D01*
X-370554Y-150974D01*
X-370456Y-150990D01*
X-370414Y-151001D01*
X-370403Y-150999D01*
X-370389Y-151001D01*
X-336428Y-150979D01*
G37*
G36*
X-437733Y129862D02*
X-437733Y129862D01*
X-437701Y129871D01*
X-437654Y129872D01*
X-434649Y130485D01*
X-434618Y130499D01*
X-434572Y130508D01*
X-431705Y131595D01*
X-431677Y131613D01*
X-431633Y131630D01*
X-428977Y133163D01*
X-428952Y133185D01*
X-428911Y133208D01*
X-426536Y135147D01*
X-426515Y135174D01*
X-426478Y135203D01*
X-424445Y137498D01*
X-424428Y137527D01*
X-424397Y137562D01*
X-422758Y140154D01*
X-422746Y140186D01*
X-422721Y140225D01*
X-421519Y143046D01*
X-421512Y143079D01*
X-421493Y143122D01*
X-420760Y146099D01*
X-420758Y146133D01*
X-420747Y146179D01*
X-420500Y149235D01*
X-420503Y149263D01*
X-420499Y149292D01*
X-420515Y149361D01*
X-420524Y149432D01*
X-420538Y149457D01*
X-420545Y149485D01*
X-420587Y149543D01*
X-420623Y149605D01*
X-420646Y149622D01*
X-420663Y149645D01*
X-420724Y149682D01*
X-420781Y149725D01*
X-420809Y149732D01*
X-420834Y149747D01*
X-420933Y149763D01*
X-420974Y149774D01*
X-420985Y149772D01*
X-420998Y149774D01*
X-440038Y149751D01*
X-440113Y149736D01*
X-440189Y149728D01*
X-440210Y149716D01*
X-440232Y149712D01*
X-440296Y149668D01*
X-440363Y149630D01*
X-440379Y149610D01*
X-440396Y149599D01*
X-440420Y149561D01*
X-440469Y149502D01*
X-450008Y133025D01*
X-450018Y132998D01*
X-450034Y132974D01*
X-450049Y132904D01*
X-450072Y132837D01*
X-450070Y132808D01*
X-450076Y132779D01*
X-450062Y132709D01*
X-450057Y132638D01*
X-450043Y132613D01*
X-450038Y132584D01*
X-449998Y132525D01*
X-449965Y132462D01*
X-449943Y132443D01*
X-449927Y132419D01*
X-449845Y132362D01*
X-449812Y132335D01*
X-449802Y132332D01*
X-449790Y132324D01*
X-447020Y131009D01*
X-446987Y131001D01*
X-446945Y130981D01*
X-444000Y130128D01*
X-443966Y130125D01*
X-443921Y130112D01*
X-440877Y129742D01*
X-440844Y129745D01*
X-440797Y129739D01*
X-437733Y129862D01*
G37*
G36*
X-421101Y-151180D02*
X-421101Y-151180D01*
X-421072Y-151183D01*
X-421005Y-151161D01*
X-420935Y-151146D01*
X-420911Y-151130D01*
X-420883Y-151121D01*
X-420830Y-151074D01*
X-420771Y-151034D01*
X-420755Y-151010D01*
X-420733Y-150991D01*
X-420702Y-150927D01*
X-420663Y-150867D01*
X-420659Y-150838D01*
X-420646Y-150812D01*
X-420637Y-150713D01*
X-420630Y-150671D01*
X-420633Y-150660D01*
X-420631Y-150646D01*
X-420878Y-147590D01*
X-420888Y-147558D01*
X-420891Y-147511D01*
X-421625Y-144534D01*
X-421639Y-144503D01*
X-421650Y-144458D01*
X-422852Y-141637D01*
X-422871Y-141609D01*
X-422889Y-141566D01*
X-424528Y-138974D01*
X-424552Y-138949D01*
X-424577Y-138910D01*
X-426610Y-136615D01*
X-426637Y-136594D01*
X-426668Y-136559D01*
X-429043Y-134620D01*
X-429073Y-134604D01*
X-429109Y-134574D01*
X-431764Y-133041D01*
X-431797Y-133030D01*
X-431837Y-133007D01*
X-434704Y-131919D01*
X-434737Y-131914D01*
X-434781Y-131897D01*
X-437785Y-131284D01*
X-437819Y-131284D01*
X-437865Y-131274D01*
X-440929Y-131151D01*
X-440962Y-131156D01*
X-441009Y-131154D01*
X-444053Y-131523D01*
X-444085Y-131534D01*
X-444132Y-131539D01*
X-447077Y-132393D01*
X-447107Y-132408D01*
X-447152Y-132421D01*
X-449922Y-133735D01*
X-449945Y-133753D01*
X-449972Y-133763D01*
X-450024Y-133812D01*
X-450081Y-133855D01*
X-450096Y-133880D01*
X-450117Y-133900D01*
X-450145Y-133965D01*
X-450181Y-134027D01*
X-450185Y-134056D01*
X-450196Y-134082D01*
X-450197Y-134153D01*
X-450206Y-134224D01*
X-450198Y-134252D01*
X-450198Y-134281D01*
X-450163Y-134375D01*
X-450152Y-134415D01*
X-450145Y-134424D01*
X-450140Y-134437D01*
X-440601Y-150914D01*
X-440549Y-150972D01*
X-440504Y-151033D01*
X-440484Y-151045D01*
X-440469Y-151063D01*
X-440399Y-151096D01*
X-440333Y-151135D01*
X-440308Y-151139D01*
X-440289Y-151148D01*
X-440245Y-151150D01*
X-440169Y-151163D01*
X-421130Y-151186D01*
X-421101Y-151180D01*
G37*
G36*
X-517157Y-17765D02*
X-517157Y-17765D01*
X-517086Y-17768D01*
X-517059Y-17758D01*
X-517030Y-17756D01*
X-516939Y-17714D01*
X-516899Y-17699D01*
X-516891Y-17692D01*
X-516879Y-17686D01*
X-514355Y-15944D01*
X-514332Y-15920D01*
X-514293Y-15893D01*
X-512082Y-13769D01*
X-512063Y-13741D01*
X-512029Y-13709D01*
X-510187Y-11258D01*
X-510172Y-11227D01*
X-510144Y-11190D01*
X-508719Y-8475D01*
X-508709Y-8442D01*
X-508687Y-8401D01*
X-507716Y-5493D01*
X-507712Y-5459D01*
X-507697Y-5415D01*
X-507205Y-2388D01*
X-507207Y-2354D01*
X-507199Y-2308D01*
X-507199Y758D01*
X-507206Y791D01*
X-507205Y838D01*
X-507697Y3865D01*
X-507709Y3896D01*
X-507716Y3943D01*
X-508687Y6851D01*
X-508701Y6874D01*
X-508707Y6899D01*
X-508713Y6908D01*
X-508719Y6925D01*
X-510144Y9640D01*
X-510165Y9666D01*
X-510187Y9708D01*
X-512029Y12159D01*
X-512054Y12182D01*
X-512082Y12219D01*
X-514293Y14343D01*
X-514322Y14361D01*
X-514355Y14394D01*
X-516879Y16136D01*
X-516906Y16147D01*
X-516928Y16166D01*
X-516996Y16186D01*
X-517062Y16214D01*
X-517091Y16214D01*
X-517118Y16222D01*
X-517190Y16214D01*
X-517261Y16215D01*
X-517287Y16203D01*
X-517316Y16200D01*
X-517378Y16165D01*
X-517444Y16137D01*
X-517464Y16117D01*
X-517489Y16102D01*
X-517553Y16025D01*
X-517583Y15995D01*
X-517587Y15985D01*
X-517595Y15974D01*
X-527095Y-526D01*
X-527119Y-599D01*
X-527150Y-669D01*
X-527151Y-693D01*
X-527158Y-715D01*
X-527152Y-791D01*
X-527153Y-868D01*
X-527144Y-892D01*
X-527142Y-913D01*
X-527122Y-952D01*
X-527102Y-1004D01*
X-527101Y-1010D01*
X-527100Y-1012D01*
X-527095Y-1024D01*
X-517595Y-17524D01*
X-517576Y-17546D01*
X-517564Y-17572D01*
X-517511Y-17620D01*
X-517464Y-17673D01*
X-517438Y-17686D01*
X-517416Y-17705D01*
X-517349Y-17728D01*
X-517284Y-17759D01*
X-517255Y-17761D01*
X-517228Y-17770D01*
X-517157Y-17765D01*
G37*
D10*
X-482600Y14725D03*
X-482600Y29725D03*
D11*
X-466725Y12138D03*
X-466725Y29138D03*
D12*
X-402431Y76969D03*
X-402431Y57969D03*
D13*
X-423069Y75175D03*
X-423069Y58175D03*
D14*
X-451546Y94883D02*
X-451546Y105841D01*
X-451546Y94883D02*
X-456504Y94883D01*
X-456504Y105841D01*
X-451546Y105841D01*
X-451546Y100639D02*
X-456504Y100639D01*
X-431104Y105841D02*
X-431104Y94883D01*
X-431104Y105841D02*
X-426146Y105841D01*
X-426146Y94883D01*
X-431104Y94883D01*
X-431104Y100639D02*
X-426146Y100639D01*
X-382860Y108842D02*
X-371902Y108842D01*
X-371902Y103884D01*
X-382860Y103884D01*
X-382860Y108842D01*
X-332687Y-75072D02*
X-332687Y-86030D01*
X-337645Y-86030D01*
X-337645Y-75072D01*
X-332687Y-75072D01*
X-332687Y-80274D02*
X-337645Y-80274D01*
D15*
X-236519Y63200D03*
X-236519Y59200D03*
X-236519Y55200D03*
X-236519Y51200D03*
X-236519Y47200D03*
X-236519Y43200D03*
X-236519Y32700D03*
X-236519Y26500D03*
X-236519Y22000D03*
X-236519Y18000D03*
X-236519Y14000D03*
X-236519Y10000D03*
X-236519Y6000D03*
X-236519Y2000D03*
X-236519Y-2000D03*
X-236519Y-6000D03*
X-236519Y-10000D03*
X-236519Y-14000D03*
X-236519Y-18000D03*
X-236519Y-22000D03*
X-236519Y-26500D03*
X-236519Y-32700D03*
X-236519Y-43200D03*
X-236519Y-47200D03*
X-236519Y-51200D03*
X-236519Y-55200D03*
X-236519Y-59200D03*
X-236519Y-63200D03*
D16*
X-231069Y-69750D03*
X-226369Y-69750D03*
X-222369Y-69750D03*
X-218369Y-69750D03*
X-206869Y-69750D03*
X-199969Y-69750D03*
X-195969Y-69750D03*
X-191869Y-69750D03*
X-184969Y-69750D03*
X-178569Y-69750D03*
X-171669Y-69750D03*
X-167569Y-69750D03*
X-163569Y-69750D03*
X-156669Y-69750D03*
X-145169Y-69750D03*
X-141169Y-69750D03*
X-137169Y-69750D03*
X-132469Y-69750D03*
D15*
X-127019Y-63200D03*
X-127019Y-59200D03*
X-127019Y-55200D03*
X-127019Y-51200D03*
X-127019Y-47200D03*
X-127019Y-43200D03*
X-127019Y-32700D03*
X-127019Y-26500D03*
X-127019Y-19300D03*
X-127019Y-15300D03*
X-127019Y-8000D03*
X-127019Y-4000D03*
X-127019Y0D03*
X-127019Y4000D03*
X-127019Y11300D03*
X-127019Y18500D03*
X-127019Y22500D03*
X-127019Y26500D03*
X-127019Y32700D03*
X-127019Y43200D03*
X-127019Y47200D03*
X-127019Y51200D03*
X-127019Y55200D03*
X-127019Y59200D03*
X-127019Y63200D03*
D16*
X-132469Y69750D03*
X-137169Y69750D03*
X-141169Y69750D03*
X-145169Y69750D03*
X-156669Y69750D03*
X-163569Y69750D03*
X-167569Y69750D03*
X-171669Y69750D03*
X-178569Y69750D03*
X-184969Y69750D03*
X-191869Y69750D03*
X-195969Y69750D03*
X-199969Y69750D03*
X-206869Y69750D03*
X-218369Y69750D03*
X-222369Y69750D03*
X-226369Y69750D03*
X-231069Y69750D03*
D17*
X-195969Y-62058D03*
D18*
X-167969Y42600D03*
D19*
X-140919Y52600D03*
X-222619Y-52600D03*
D18*
X-195569Y42600D03*
X-195569Y-42600D03*
D20*
X-181769Y0D03*
D17*
X-167569Y62058D03*
X-195969Y62058D03*
X-167569Y-62058D03*
D18*
X-167969Y-42600D03*
D19*
X-140919Y-52600D03*
X-222619Y52600D03*
D21*
X-181769Y-142300D03*
X-181769Y-86300D03*
X-181769Y142300D03*
X-181769Y86300D03*
D13*
X-98988Y112713D03*
X-81988Y112713D03*
X-287338Y111356D03*
X-287338Y128356D03*
D11*
X-265675Y-39688D03*
X-248675Y-39688D03*
D13*
X-65088Y110894D03*
X-65088Y93894D03*
D11*
X-85163Y-118269D03*
X-102163Y-118269D03*
D13*
X-61119Y-70875D03*
X-61119Y-87875D03*
D11*
X-270438Y107156D03*
X-253438Y107156D03*
D22*
X-103163Y-61119D03*
X-84163Y-61119D03*
X-80988Y135731D03*
X-99988Y135731D03*
D12*
X-224631Y-84163D03*
X-224631Y-103163D03*
X-139700Y-84163D03*
X-139700Y-103163D03*
X-138906Y84956D03*
X-138906Y103956D03*
X-224631Y84956D03*
X-224631Y103956D03*
D23*
X-71738Y226219D03*
X-172738Y226219D03*
X-71738Y-227806D03*
X-172738Y-227806D03*
D24*
X-39275Y-25146D02*
X-19463Y-25146D01*
X-19463Y25146D02*
X-39275Y25146D01*
X38614Y-132712D02*
X21457Y-142618D01*
X-3689Y-99063D02*
X13468Y-89157D01*
X13468Y89157D02*
X-3689Y99063D01*
X21457Y142618D02*
X38614Y132712D01*
D25*
X-103163Y-99644D03*
X-84163Y-99644D03*
X-93663Y-79744D03*
D10*
X-254794Y-102038D03*
X-254794Y-117038D03*
D22*
G36*
X6299Y-212644D02*
X-709Y-224782D01*
X-14579Y-216774D01*
X-7571Y-204636D01*
X6299Y-212644D01*
G37*
G36*
X15799Y-196189D02*
X8791Y-208327D01*
X-5079Y-200319D01*
X1929Y-188181D01*
X15799Y-196189D01*
G37*
D26*
G36*
X-10581Y-235591D02*
X-18389Y-231083D01*
X-13881Y-223275D01*
X-6073Y-227783D01*
X-10581Y-235591D01*
G37*
G36*
X-18081Y-248581D02*
X-25889Y-244073D01*
X-21381Y-236265D01*
X-13573Y-240773D01*
X-18081Y-248581D01*
G37*
D10*
X-63063Y63500D03*
X-48063Y63500D03*
D27*
X-83344Y-44825D03*
D28*
X-83344Y-14150D02*
X-83344Y-10500D01*
D27*
X-83344Y1213D03*
D28*
X-83344Y31888D02*
X-83344Y35538D01*
D10*
X-276225Y-102038D03*
X-276225Y-117038D03*
D13*
X-259788Y-81756D03*
X-276788Y-81756D03*
X-259788Y-60325D03*
X-276788Y-60325D03*
X-81988Y92075D03*
X-98988Y92075D03*
D11*
X-100806Y3406D03*
X-100806Y20406D03*
D22*
G36*
X27411Y-224947D02*
X20403Y-237085D01*
X6533Y-229077D01*
X13541Y-216939D01*
X27411Y-224947D01*
G37*
G36*
X36911Y-208492D02*
X29903Y-220630D01*
X16033Y-212622D01*
X23041Y-200484D01*
X36911Y-208492D01*
G37*
D26*
G36*
X9262Y-246916D02*
X1454Y-242408D01*
X5962Y-234600D01*
X13770Y-239108D01*
X9262Y-246916D01*
G37*
G36*
X1762Y-259906D02*
X-6046Y-255398D01*
X-1538Y-247590D01*
X6270Y-252098D01*
X1762Y-259906D01*
G37*
D22*
G36*
X-4212Y201354D02*
X-11220Y213492D01*
X2650Y221500D01*
X9658Y209362D01*
X-4212Y201354D01*
G37*
G36*
X5288Y184900D02*
X-1720Y197038D01*
X12150Y205046D01*
X19158Y192908D01*
X5288Y184900D01*
G37*
D26*
G36*
X-15661Y227036D02*
X-7853Y231544D01*
X-3345Y223736D01*
X-11153Y219228D01*
X-15661Y227036D01*
G37*
G36*
X-23161Y240027D02*
X-15353Y244535D01*
X-10845Y236727D01*
X-18653Y232219D01*
X-23161Y240027D01*
G37*
D22*
G36*
X14838Y212467D02*
X7830Y224605D01*
X21700Y232613D01*
X28708Y220475D01*
X14838Y212467D01*
G37*
G36*
X24338Y196012D02*
X17330Y208150D01*
X31200Y216158D01*
X38208Y204020D01*
X24338Y196012D01*
G37*
D26*
G36*
X2936Y237830D02*
X10744Y242338D01*
X15252Y234530D01*
X7444Y230022D01*
X2936Y237830D01*
G37*
G36*
X-4564Y250820D02*
X3244Y255328D01*
X7752Y247520D01*
X-56Y243012D01*
X-4564Y250820D01*
G37*
D29*
X-337024Y11108D03*
D30*
X-342704Y4758D02*
X-331344Y4758D01*
X-331344Y-1593D02*
X-342704Y-1593D01*
X-342704Y-7943D02*
X-331344Y-7943D01*
X-331344Y-14293D02*
X-342704Y-14293D01*
X-342704Y-20643D02*
X-331344Y-20643D01*
X-331344Y-26993D02*
X-342704Y-26993D01*
X-342704Y-33343D02*
X-331344Y-33343D01*
X-292544Y-33343D02*
X-281184Y-33343D01*
X-281184Y-26993D02*
X-292544Y-26993D01*
X-292544Y-20643D02*
X-281184Y-20643D01*
X-281184Y-14293D02*
X-292544Y-14293D01*
X-292544Y-7943D02*
X-281184Y-7943D01*
X-281184Y-1593D02*
X-292544Y-1593D01*
X-292544Y4758D02*
X-281184Y4758D01*
X-281184Y11108D02*
X-292544Y11108D01*
D11*
X-270438Y86519D03*
X-253438Y86519D03*
X-343131Y25400D03*
X-360131Y25400D03*
X-287900Y25400D03*
X-270900Y25400D03*
X-358213Y88106D03*
X-375213Y88106D03*
D31*
G36*
X-244286Y-163544D02*
X-252444Y-149414D01*
X-238314Y-141256D01*
X-230156Y-155386D01*
X-244286Y-163544D01*
G37*
D32*
X-228600Y-174397D03*
D31*
G36*
X-230156Y155386D02*
X-238314Y141256D01*
X-252444Y149414D01*
X-244286Y163544D01*
X-230156Y155386D01*
G37*
D32*
X-228600Y174397D03*
D11*
X-122469Y-124619D03*
X-139469Y-124619D03*
D22*
X-120675Y-145256D03*
X-139675Y-145256D03*
D13*
X-85163Y-138906D03*
X-102163Y-138906D03*
D11*
X-115888Y95813D03*
X-115888Y78813D03*
D12*
X-83344Y70619D03*
X-83344Y51619D03*
D33*
X-338944Y84133D03*
X-338944Y77783D03*
X-338944Y71433D03*
X-338944Y65093D03*
X-338944Y58733D03*
X-338944Y52393D03*
X-338944Y46043D03*
X-338944Y39693D03*
X-284944Y39693D03*
X-284944Y46043D03*
X-284944Y52393D03*
X-284944Y58733D03*
X-284944Y65093D03*
X-284944Y71433D03*
X-284944Y77783D03*
X-284944Y84133D03*
D34*
X-518663Y-775D03*
X-436037Y142324D03*
X-477563Y-71775D03*
X-477163Y70725D03*
X-352701Y142247D03*
X-436169Y-143736D03*
X-353440Y-143545D03*
D11*
X-425450Y-91513D03*
X-425450Y-108513D03*
D10*
X-386913Y-65088D03*
X-371913Y-65088D03*
D11*
X-425450Y-56588D03*
X-425450Y-73588D03*
D10*
X-386913Y-39688D03*
X-371913Y-39688D03*
D11*
X-404813Y-91513D03*
X-404813Y-108513D03*
D10*
X-386913Y-90488D03*
X-371913Y-90488D03*
D11*
X-423069Y27550D03*
X-423069Y10550D03*
X-402431Y27550D03*
X-402431Y10550D03*
D14*
X-217585Y-215977D02*
X-217585Y-226935D01*
X-217585Y-215977D02*
X-212627Y-215977D01*
X-212627Y-226935D01*
X-217585Y-226935D01*
X-217585Y-221179D02*
X-212627Y-221179D01*
X-134840Y123109D02*
X-134840Y134067D01*
X-134840Y123109D02*
X-139798Y123109D01*
X-139798Y134067D01*
X-134840Y134067D01*
X-134840Y128865D02*
X-139798Y128865D01*
X-327896Y93565D02*
X-338854Y93565D01*
X-338854Y98523D01*
X-327896Y98523D01*
X-327896Y93565D01*
X-292817Y93565D02*
X-281859Y93565D01*
X-292817Y93565D02*
X-292817Y98523D01*
X-281859Y98523D01*
X-281859Y93565D01*
M02*
