G04 EAGLE Gerber RS-274X export*
G75*
%MOMM*%
%FSLAX34Y34*%
%LPD*%
%INSolderpaste Top*%
%IPPOS*%
%AMOC8*
5,1,8,0,0,1.08239X$1,22.5*%
G01*
%ADD10R,0.800000X0.800000*%
%ADD11R,1.100000X1.000000*%
%ADD12R,1.500000X1.300000*%
%ADD13R,1.000000X1.100000*%
%ADD14R,0.762000X0.254000*%
%ADD15R,0.254000X0.762000*%
%ADD16R,1.270000X0.127000*%
%ADD17R,2.387600X3.098800*%
%ADD18R,0.127000X0.127000*%
%ADD19R,3.200000X1.800000*%
%ADD20R,1.300000X1.500000*%
%ADD21R,5.800000X2.500000*%
%ADD22R,0.610000X1.260000*%
%ADD23R,0.800000X0.800000*%
%ADD24R,0.641000X1.006000*%
%ADD25C,0.641000*%
%ADD26R,1.480000X0.344000*%
%ADD27C,0.344000*%
%ADD28R,1.600000X0.410000*%

G36*
X-154827Y8876D02*
X-154827Y8876D01*
X-154825Y8875D01*
X-154782Y8895D01*
X-154738Y8913D01*
X-154737Y8915D01*
X-154735Y8916D01*
X-154703Y9001D01*
X-154703Y23003D01*
X-154703Y23005D01*
X-154703Y23007D01*
X-154722Y23050D01*
X-154741Y23094D01*
X-154743Y23094D01*
X-154744Y23096D01*
X-154829Y23129D01*
X-166799Y23129D01*
X-166801Y23128D01*
X-166803Y23129D01*
X-166846Y23109D01*
X-166889Y23091D01*
X-166890Y23089D01*
X-166892Y23088D01*
X-166925Y23003D01*
X-166925Y9001D01*
X-166924Y8999D01*
X-166925Y8997D01*
X-166905Y8954D01*
X-166887Y8910D01*
X-166885Y8910D01*
X-166884Y8908D01*
X-166799Y8875D01*
X-154829Y8875D01*
X-154827Y8876D01*
G37*
G36*
X-168797Y8876D02*
X-168797Y8876D01*
X-168795Y8875D01*
X-168752Y8895D01*
X-168708Y8913D01*
X-168707Y8915D01*
X-168705Y8916D01*
X-168673Y9001D01*
X-168673Y23003D01*
X-168673Y23005D01*
X-168673Y23007D01*
X-168692Y23050D01*
X-168711Y23094D01*
X-168713Y23094D01*
X-168714Y23096D01*
X-168799Y23129D01*
X-180769Y23129D01*
X-180771Y23128D01*
X-180773Y23129D01*
X-180816Y23109D01*
X-180859Y23091D01*
X-180860Y23089D01*
X-180862Y23088D01*
X-180895Y23003D01*
X-180895Y9001D01*
X-180894Y8999D01*
X-180895Y8997D01*
X-180875Y8954D01*
X-180857Y8910D01*
X-180855Y8910D01*
X-180854Y8908D01*
X-180769Y8875D01*
X-168799Y8875D01*
X-168797Y8876D01*
G37*
G36*
X-196737Y8876D02*
X-196737Y8876D01*
X-196735Y8875D01*
X-196692Y8895D01*
X-196648Y8913D01*
X-196647Y8915D01*
X-196645Y8916D01*
X-196613Y9001D01*
X-196613Y23003D01*
X-196613Y23005D01*
X-196613Y23007D01*
X-196632Y23050D01*
X-196651Y23094D01*
X-196653Y23094D01*
X-196654Y23096D01*
X-196739Y23129D01*
X-208709Y23129D01*
X-208711Y23128D01*
X-208713Y23129D01*
X-208756Y23109D01*
X-208799Y23091D01*
X-208800Y23089D01*
X-208802Y23088D01*
X-208835Y23003D01*
X-208835Y9001D01*
X-208834Y8999D01*
X-208835Y8997D01*
X-208815Y8954D01*
X-208797Y8910D01*
X-208795Y8910D01*
X-208794Y8908D01*
X-208709Y8875D01*
X-196739Y8875D01*
X-196737Y8876D01*
G37*
G36*
X-182767Y8876D02*
X-182767Y8876D01*
X-182765Y8875D01*
X-182722Y8895D01*
X-182678Y8913D01*
X-182677Y8915D01*
X-182675Y8916D01*
X-182643Y9001D01*
X-182643Y23003D01*
X-182643Y23005D01*
X-182643Y23007D01*
X-182662Y23050D01*
X-182681Y23094D01*
X-182683Y23094D01*
X-182684Y23096D01*
X-182769Y23129D01*
X-194739Y23129D01*
X-194741Y23128D01*
X-194743Y23129D01*
X-194786Y23109D01*
X-194829Y23091D01*
X-194830Y23089D01*
X-194832Y23088D01*
X-194865Y23003D01*
X-194865Y9001D01*
X-194864Y8999D01*
X-194865Y8997D01*
X-194845Y8954D01*
X-194827Y8910D01*
X-194825Y8910D01*
X-194824Y8908D01*
X-194739Y8875D01*
X-182769Y8875D01*
X-182767Y8876D01*
G37*
G36*
X-168797Y-7126D02*
X-168797Y-7126D01*
X-168795Y-7127D01*
X-168752Y-7107D01*
X-168708Y-7089D01*
X-168707Y-7087D01*
X-168705Y-7086D01*
X-168673Y-7001D01*
X-168673Y7001D01*
X-168673Y7003D01*
X-168673Y7005D01*
X-168692Y7048D01*
X-168711Y7092D01*
X-168713Y7092D01*
X-168714Y7094D01*
X-168799Y7127D01*
X-180769Y7127D01*
X-180771Y7126D01*
X-180773Y7127D01*
X-180816Y7107D01*
X-180859Y7089D01*
X-180860Y7087D01*
X-180862Y7086D01*
X-180895Y7001D01*
X-180895Y-7001D01*
X-180894Y-7003D01*
X-180895Y-7005D01*
X-180875Y-7048D01*
X-180857Y-7092D01*
X-180855Y-7092D01*
X-180854Y-7094D01*
X-180769Y-7127D01*
X-168799Y-7127D01*
X-168797Y-7126D01*
G37*
G36*
X-154827Y-7126D02*
X-154827Y-7126D01*
X-154825Y-7127D01*
X-154782Y-7107D01*
X-154738Y-7089D01*
X-154737Y-7087D01*
X-154735Y-7086D01*
X-154703Y-7001D01*
X-154703Y7001D01*
X-154703Y7003D01*
X-154703Y7005D01*
X-154722Y7048D01*
X-154741Y7092D01*
X-154743Y7092D01*
X-154744Y7094D01*
X-154829Y7127D01*
X-166799Y7127D01*
X-166801Y7126D01*
X-166803Y7127D01*
X-166846Y7107D01*
X-166889Y7089D01*
X-166890Y7087D01*
X-166892Y7086D01*
X-166925Y7001D01*
X-166925Y-7001D01*
X-166924Y-7003D01*
X-166925Y-7005D01*
X-166905Y-7048D01*
X-166887Y-7092D01*
X-166885Y-7092D01*
X-166884Y-7094D01*
X-166799Y-7127D01*
X-154829Y-7127D01*
X-154827Y-7126D01*
G37*
G36*
X-182767Y-7126D02*
X-182767Y-7126D01*
X-182765Y-7127D01*
X-182722Y-7107D01*
X-182678Y-7089D01*
X-182677Y-7087D01*
X-182675Y-7086D01*
X-182643Y-7001D01*
X-182643Y7001D01*
X-182643Y7003D01*
X-182643Y7005D01*
X-182662Y7048D01*
X-182681Y7092D01*
X-182683Y7092D01*
X-182684Y7094D01*
X-182769Y7127D01*
X-194739Y7127D01*
X-194741Y7126D01*
X-194743Y7127D01*
X-194786Y7107D01*
X-194829Y7089D01*
X-194830Y7087D01*
X-194832Y7086D01*
X-194865Y7001D01*
X-194865Y-7001D01*
X-194864Y-7003D01*
X-194865Y-7005D01*
X-194845Y-7048D01*
X-194827Y-7092D01*
X-194825Y-7092D01*
X-194824Y-7094D01*
X-194739Y-7127D01*
X-182769Y-7127D01*
X-182767Y-7126D01*
G37*
G36*
X-196737Y-7126D02*
X-196737Y-7126D01*
X-196735Y-7127D01*
X-196692Y-7107D01*
X-196648Y-7089D01*
X-196647Y-7087D01*
X-196645Y-7086D01*
X-196613Y-7001D01*
X-196613Y7001D01*
X-196613Y7003D01*
X-196613Y7005D01*
X-196632Y7048D01*
X-196651Y7092D01*
X-196653Y7092D01*
X-196654Y7094D01*
X-196739Y7127D01*
X-208709Y7127D01*
X-208711Y7126D01*
X-208713Y7127D01*
X-208756Y7107D01*
X-208799Y7089D01*
X-208800Y7087D01*
X-208802Y7086D01*
X-208835Y7001D01*
X-208835Y-7001D01*
X-208834Y-7003D01*
X-208835Y-7005D01*
X-208815Y-7048D01*
X-208797Y-7092D01*
X-208795Y-7092D01*
X-208794Y-7094D01*
X-208709Y-7127D01*
X-196739Y-7127D01*
X-196737Y-7126D01*
G37*
G36*
X-154827Y-23128D02*
X-154827Y-23128D01*
X-154825Y-23129D01*
X-154782Y-23109D01*
X-154738Y-23091D01*
X-154737Y-23089D01*
X-154735Y-23088D01*
X-154703Y-23003D01*
X-154703Y-9001D01*
X-154703Y-8999D01*
X-154703Y-8997D01*
X-154722Y-8954D01*
X-154741Y-8910D01*
X-154743Y-8910D01*
X-154744Y-8908D01*
X-154829Y-8875D01*
X-166799Y-8875D01*
X-166801Y-8876D01*
X-166803Y-8875D01*
X-166846Y-8895D01*
X-166889Y-8913D01*
X-166890Y-8915D01*
X-166892Y-8916D01*
X-166925Y-9001D01*
X-166925Y-23003D01*
X-166924Y-23005D01*
X-166925Y-23007D01*
X-166905Y-23050D01*
X-166887Y-23094D01*
X-166885Y-23094D01*
X-166884Y-23096D01*
X-166799Y-23129D01*
X-154829Y-23129D01*
X-154827Y-23128D01*
G37*
G36*
X-168797Y-23128D02*
X-168797Y-23128D01*
X-168795Y-23129D01*
X-168752Y-23109D01*
X-168708Y-23091D01*
X-168707Y-23089D01*
X-168705Y-23088D01*
X-168673Y-23003D01*
X-168673Y-9001D01*
X-168673Y-8999D01*
X-168673Y-8997D01*
X-168692Y-8954D01*
X-168711Y-8910D01*
X-168713Y-8910D01*
X-168714Y-8908D01*
X-168799Y-8875D01*
X-180769Y-8875D01*
X-180771Y-8876D01*
X-180773Y-8875D01*
X-180816Y-8895D01*
X-180859Y-8913D01*
X-180860Y-8915D01*
X-180862Y-8916D01*
X-180895Y-9001D01*
X-180895Y-23003D01*
X-180894Y-23005D01*
X-180895Y-23007D01*
X-180875Y-23050D01*
X-180857Y-23094D01*
X-180855Y-23094D01*
X-180854Y-23096D01*
X-180769Y-23129D01*
X-168799Y-23129D01*
X-168797Y-23128D01*
G37*
G36*
X-182767Y-23128D02*
X-182767Y-23128D01*
X-182765Y-23129D01*
X-182722Y-23109D01*
X-182678Y-23091D01*
X-182677Y-23089D01*
X-182675Y-23088D01*
X-182643Y-23003D01*
X-182643Y-9001D01*
X-182643Y-8999D01*
X-182643Y-8997D01*
X-182662Y-8954D01*
X-182681Y-8910D01*
X-182683Y-8910D01*
X-182684Y-8908D01*
X-182769Y-8875D01*
X-194739Y-8875D01*
X-194741Y-8876D01*
X-194743Y-8875D01*
X-194786Y-8895D01*
X-194829Y-8913D01*
X-194830Y-8915D01*
X-194832Y-8916D01*
X-194865Y-9001D01*
X-194865Y-23003D01*
X-194864Y-23005D01*
X-194865Y-23007D01*
X-194845Y-23050D01*
X-194827Y-23094D01*
X-194825Y-23094D01*
X-194824Y-23096D01*
X-194739Y-23129D01*
X-182769Y-23129D01*
X-182767Y-23128D01*
G37*
G36*
X-196737Y-23128D02*
X-196737Y-23128D01*
X-196735Y-23129D01*
X-196692Y-23109D01*
X-196648Y-23091D01*
X-196647Y-23089D01*
X-196645Y-23088D01*
X-196613Y-23003D01*
X-196613Y-9001D01*
X-196613Y-8999D01*
X-196613Y-8997D01*
X-196632Y-8954D01*
X-196651Y-8910D01*
X-196653Y-8910D01*
X-196654Y-8908D01*
X-196739Y-8875D01*
X-208709Y-8875D01*
X-208711Y-8876D01*
X-208713Y-8875D01*
X-208756Y-8895D01*
X-208799Y-8913D01*
X-208800Y-8915D01*
X-208802Y-8916D01*
X-208835Y-9001D01*
X-208835Y-23003D01*
X-208834Y-23005D01*
X-208835Y-23007D01*
X-208815Y-23050D01*
X-208797Y-23094D01*
X-208795Y-23094D01*
X-208794Y-23096D01*
X-208709Y-23129D01*
X-196739Y-23129D01*
X-196737Y-23128D01*
G37*
D10*
X-482600Y14725D03*
X-482600Y29725D03*
D11*
X-466725Y12138D03*
X-466725Y29138D03*
D12*
X-402431Y76969D03*
X-402431Y57969D03*
D13*
X-423069Y75175D03*
X-423069Y58175D03*
D14*
X-236519Y63200D03*
X-236519Y59200D03*
X-236519Y55200D03*
X-236519Y51200D03*
X-236519Y47200D03*
X-236519Y43200D03*
X-236519Y32700D03*
X-236519Y26500D03*
X-236519Y22000D03*
X-236519Y18000D03*
X-236519Y14000D03*
X-236519Y10000D03*
X-236519Y6000D03*
X-236519Y2000D03*
X-236519Y-2000D03*
X-236519Y-6000D03*
X-236519Y-10000D03*
X-236519Y-14000D03*
X-236519Y-18000D03*
X-236519Y-22000D03*
X-236519Y-26500D03*
X-236519Y-32700D03*
X-236519Y-43200D03*
X-236519Y-47200D03*
X-236519Y-51200D03*
X-236519Y-55200D03*
X-236519Y-59200D03*
X-236519Y-63200D03*
D15*
X-231069Y-69750D03*
X-226369Y-69750D03*
X-222369Y-69750D03*
X-218369Y-69750D03*
X-206869Y-69750D03*
X-199969Y-69750D03*
X-195969Y-69750D03*
X-191869Y-69750D03*
X-184969Y-69750D03*
X-178569Y-69750D03*
X-171669Y-69750D03*
X-167569Y-69750D03*
X-163569Y-69750D03*
X-156669Y-69750D03*
X-145169Y-69750D03*
X-141169Y-69750D03*
X-137169Y-69750D03*
X-132469Y-69750D03*
D14*
X-127019Y-63200D03*
X-127019Y-59200D03*
X-127019Y-55200D03*
X-127019Y-51200D03*
X-127019Y-47200D03*
X-127019Y-43200D03*
X-127019Y-32700D03*
X-127019Y-26500D03*
X-127019Y-19300D03*
X-127019Y-15300D03*
X-127019Y-8000D03*
X-127019Y-4000D03*
X-127019Y0D03*
X-127019Y4000D03*
X-127019Y11300D03*
X-127019Y18500D03*
X-127019Y22500D03*
X-127019Y26500D03*
X-127019Y32700D03*
X-127019Y43200D03*
X-127019Y47200D03*
X-127019Y51200D03*
X-127019Y55200D03*
X-127019Y59200D03*
X-127019Y63200D03*
D15*
X-132469Y69750D03*
X-137169Y69750D03*
X-141169Y69750D03*
X-145169Y69750D03*
X-156669Y69750D03*
X-163569Y69750D03*
X-167569Y69750D03*
X-171669Y69750D03*
X-178569Y69750D03*
X-184969Y69750D03*
X-191869Y69750D03*
X-195969Y69750D03*
X-199969Y69750D03*
X-206869Y69750D03*
X-218369Y69750D03*
X-222369Y69750D03*
X-226369Y69750D03*
X-231069Y69750D03*
D16*
X-195969Y-62058D03*
D17*
X-167969Y42600D03*
D18*
X-140919Y52600D03*
X-222619Y-52600D03*
D17*
X-195569Y42600D03*
X-195569Y-42600D03*
D16*
X-167569Y62058D03*
X-195969Y62058D03*
X-167569Y-62058D03*
D17*
X-167969Y-42600D03*
D18*
X-140919Y-52600D03*
X-222619Y52600D03*
D19*
X-181769Y-142300D03*
X-181769Y-86300D03*
X-181769Y142300D03*
X-181769Y86300D03*
D13*
X-98988Y112713D03*
X-81988Y112713D03*
X-287338Y111356D03*
X-287338Y128356D03*
D11*
X-265675Y-39688D03*
X-248675Y-39688D03*
D13*
X-65088Y110894D03*
X-65088Y93894D03*
D11*
X-85163Y-118269D03*
X-102163Y-118269D03*
D13*
X-61119Y-70875D03*
X-61119Y-87875D03*
D11*
X-270438Y107156D03*
X-253438Y107156D03*
D20*
X-103163Y-61119D03*
X-84163Y-61119D03*
X-80988Y135731D03*
X-99988Y135731D03*
D12*
X-224631Y-84163D03*
X-224631Y-103163D03*
X-139700Y-84163D03*
X-139700Y-103163D03*
X-138906Y84956D03*
X-138906Y103956D03*
X-224631Y84956D03*
X-224631Y103956D03*
D21*
X-71738Y226219D03*
X-172738Y226219D03*
X-71738Y-227806D03*
X-172738Y-227806D03*
D22*
X-103163Y-99644D03*
X-84163Y-99644D03*
X-93663Y-79744D03*
D10*
X-254794Y-102038D03*
X-254794Y-117038D03*
D20*
G36*
X5605Y-212830D02*
X-895Y-224088D01*
X-13885Y-216588D01*
X-7385Y-205330D01*
X5605Y-212830D01*
G37*
G36*
X15105Y-196375D02*
X8605Y-207633D01*
X-4385Y-200133D01*
X2115Y-188875D01*
X15105Y-196375D01*
G37*
D23*
G36*
X-10767Y-234897D02*
X-17695Y-230897D01*
X-13695Y-223969D01*
X-6767Y-227969D01*
X-10767Y-234897D01*
G37*
G36*
X-18267Y-247887D02*
X-25195Y-243887D01*
X-21195Y-236959D01*
X-14267Y-240959D01*
X-18267Y-247887D01*
G37*
D10*
X-63063Y63500D03*
X-48063Y63500D03*
D24*
X-83344Y-44825D03*
D25*
X-83344Y-14150D02*
X-83344Y-10500D01*
D24*
X-83344Y1213D03*
D25*
X-83344Y31888D02*
X-83344Y35538D01*
D10*
X-276225Y-102038D03*
X-276225Y-117038D03*
D13*
X-259788Y-81756D03*
X-276788Y-81756D03*
X-259788Y-60325D03*
X-276788Y-60325D03*
X-81988Y92075D03*
X-98988Y92075D03*
D11*
X-100806Y3406D03*
X-100806Y20406D03*
D20*
G36*
X26717Y-225133D02*
X20217Y-236391D01*
X7227Y-228891D01*
X13727Y-217633D01*
X26717Y-225133D01*
G37*
G36*
X36217Y-208678D02*
X29717Y-219936D01*
X16727Y-212436D01*
X23227Y-201178D01*
X36217Y-208678D01*
G37*
D23*
G36*
X9076Y-246222D02*
X2148Y-242222D01*
X6148Y-235294D01*
X13076Y-239294D01*
X9076Y-246222D01*
G37*
G36*
X1576Y-259212D02*
X-5352Y-255212D01*
X-1352Y-248284D01*
X5576Y-252284D01*
X1576Y-259212D01*
G37*
D20*
G36*
X-4026Y202048D02*
X-10526Y213306D01*
X2464Y220806D01*
X8964Y209548D01*
X-4026Y202048D01*
G37*
G36*
X5474Y185594D02*
X-1026Y196852D01*
X11964Y204352D01*
X18464Y193094D01*
X5474Y185594D01*
G37*
D23*
G36*
X-14967Y226850D02*
X-8039Y230850D01*
X-4039Y223922D01*
X-10967Y219922D01*
X-14967Y226850D01*
G37*
G36*
X-22467Y239841D02*
X-15539Y243841D01*
X-11539Y236913D01*
X-18467Y232913D01*
X-22467Y239841D01*
G37*
D20*
G36*
X15024Y213161D02*
X8524Y224419D01*
X21514Y231919D01*
X28014Y220661D01*
X15024Y213161D01*
G37*
G36*
X24524Y196706D02*
X18024Y207964D01*
X31014Y215464D01*
X37514Y204206D01*
X24524Y196706D01*
G37*
D23*
G36*
X3630Y237644D02*
X10558Y241644D01*
X14558Y234716D01*
X7630Y230716D01*
X3630Y237644D01*
G37*
G36*
X-3870Y250634D02*
X3058Y254634D01*
X7058Y247706D01*
X130Y243706D01*
X-3870Y250634D01*
G37*
D26*
X-337024Y11108D03*
D27*
X-342704Y4758D02*
X-331344Y4758D01*
X-331344Y-1593D02*
X-342704Y-1593D01*
X-342704Y-7943D02*
X-331344Y-7943D01*
X-331344Y-14293D02*
X-342704Y-14293D01*
X-342704Y-20643D02*
X-331344Y-20643D01*
X-331344Y-26993D02*
X-342704Y-26993D01*
X-342704Y-33343D02*
X-331344Y-33343D01*
X-292544Y-33343D02*
X-281184Y-33343D01*
X-281184Y-26993D02*
X-292544Y-26993D01*
X-292544Y-20643D02*
X-281184Y-20643D01*
X-281184Y-14293D02*
X-292544Y-14293D01*
X-292544Y-7943D02*
X-281184Y-7943D01*
X-281184Y-1593D02*
X-292544Y-1593D01*
X-292544Y4758D02*
X-281184Y4758D01*
X-281184Y11108D02*
X-292544Y11108D01*
D11*
X-270438Y86519D03*
X-253438Y86519D03*
X-343131Y25400D03*
X-360131Y25400D03*
X-287900Y25400D03*
X-270900Y25400D03*
X-358213Y88106D03*
X-375213Y88106D03*
X-122469Y-124619D03*
X-139469Y-124619D03*
D20*
X-120675Y-145256D03*
X-139675Y-145256D03*
D13*
X-85163Y-138906D03*
X-102163Y-138906D03*
D11*
X-115888Y95813D03*
X-115888Y78813D03*
D12*
X-83344Y70619D03*
X-83344Y51619D03*
D28*
X-338944Y84133D03*
X-338944Y77783D03*
X-338944Y71433D03*
X-338944Y65093D03*
X-338944Y58733D03*
X-338944Y52393D03*
X-338944Y46043D03*
X-338944Y39693D03*
X-284944Y39693D03*
X-284944Y46043D03*
X-284944Y52393D03*
X-284944Y58733D03*
X-284944Y65093D03*
X-284944Y71433D03*
X-284944Y77783D03*
X-284944Y84133D03*
D11*
X-425450Y-91513D03*
X-425450Y-108513D03*
D10*
X-386913Y-65088D03*
X-371913Y-65088D03*
D11*
X-425450Y-56588D03*
X-425450Y-73588D03*
D10*
X-386913Y-39688D03*
X-371913Y-39688D03*
D11*
X-404813Y-91513D03*
X-404813Y-108513D03*
D10*
X-386913Y-90488D03*
X-371913Y-90488D03*
D11*
X-423069Y27550D03*
X-423069Y10550D03*
X-402431Y27550D03*
X-402431Y10550D03*
M02*
