G04 EAGLE Gerber RS-274X export*
G75*
%MOMM*%
%FSLAX34Y34*%
%LPD*%
%INSoldermask Bottom*%
%IPPOS*%
%AMOC8*
5,1,8,0,0,1.08239X$1,22.5*%
G01*
%ADD10R,1.201600X1.101600*%
%ADD11R,1.401600X1.601600*%
%ADD12R,1.501597X0.501600*%
%ADD13R,1.101600X1.201600*%
%ADD14C,0.605878*%
%ADD15C,0.401600*%
%ADD16C,2.082800*%
%ADD17R,1.631600X1.631600*%
%ADD18C,1.631600*%
%ADD19C,1.101600*%

G36*
X-351318Y131772D02*
X-351318Y131772D01*
X-351284Y131779D01*
X-351236Y131779D01*
X-348470Y132243D01*
X-348438Y132255D01*
X-348390Y132263D01*
X-345738Y133175D01*
X-345708Y133193D01*
X-345663Y133208D01*
X-343197Y134545D01*
X-343171Y134567D01*
X-343128Y134590D01*
X-340916Y136314D01*
X-340894Y136340D01*
X-340856Y136370D01*
X-338957Y138434D01*
X-338939Y138464D01*
X-338907Y138500D01*
X-337375Y140848D01*
X-337362Y140881D01*
X-337335Y140921D01*
X-336210Y143490D01*
X-336203Y143524D01*
X-336184Y143568D01*
X-335497Y146287D01*
X-335495Y146322D01*
X-335484Y146368D01*
X-335254Y149164D01*
X-335257Y149192D01*
X-335252Y149221D01*
X-335269Y149290D01*
X-335277Y149361D01*
X-335292Y149386D01*
X-335299Y149415D01*
X-335341Y149472D01*
X-335376Y149534D01*
X-335399Y149551D01*
X-335417Y149575D01*
X-335478Y149611D01*
X-335534Y149654D01*
X-335563Y149661D01*
X-335588Y149676D01*
X-335686Y149693D01*
X-335727Y149703D01*
X-335738Y149701D01*
X-335752Y149704D01*
X-369713Y149681D01*
X-369741Y149675D01*
X-369771Y149678D01*
X-369838Y149656D01*
X-369908Y149642D01*
X-369932Y149625D01*
X-369959Y149616D01*
X-370013Y149569D01*
X-370072Y149529D01*
X-370087Y149504D01*
X-370109Y149485D01*
X-370140Y149421D01*
X-370178Y149361D01*
X-370183Y149333D01*
X-370196Y149306D01*
X-370204Y149207D01*
X-370211Y149165D01*
X-370209Y149154D01*
X-370210Y149140D01*
X-369977Y146346D01*
X-369967Y146312D01*
X-369963Y146264D01*
X-369273Y143546D01*
X-369258Y143515D01*
X-369246Y143468D01*
X-368118Y140901D01*
X-368098Y140872D01*
X-368078Y140828D01*
X-366543Y138481D01*
X-366518Y138457D01*
X-366492Y138416D01*
X-364591Y136354D01*
X-364563Y136334D01*
X-364531Y136298D01*
X-362316Y134577D01*
X-362285Y134562D01*
X-362247Y134532D01*
X-359780Y133199D01*
X-359747Y133189D01*
X-359704Y133166D01*
X-357051Y132257D01*
X-357017Y132253D01*
X-356971Y132237D01*
X-354205Y131777D01*
X-354170Y131778D01*
X-354123Y131770D01*
X-351318Y131772D01*
G37*
G36*
X-475056Y-90465D02*
X-475056Y-90465D01*
X-474985Y-90468D01*
X-474957Y-90458D01*
X-474928Y-90456D01*
X-474838Y-90414D01*
X-474798Y-90399D01*
X-474790Y-90391D01*
X-474778Y-90385D01*
X-472474Y-88786D01*
X-472450Y-88761D01*
X-472411Y-88733D01*
X-470402Y-86776D01*
X-470382Y-86747D01*
X-470348Y-86714D01*
X-468688Y-84453D01*
X-468674Y-84422D01*
X-468645Y-84383D01*
X-467380Y-81880D01*
X-467371Y-81846D01*
X-467349Y-81803D01*
X-466514Y-79126D01*
X-466510Y-79092D01*
X-466496Y-79046D01*
X-466113Y-76267D01*
X-466115Y-76233D01*
X-466108Y-76185D01*
X-466187Y-73382D01*
X-466195Y-73348D01*
X-466196Y-73300D01*
X-466736Y-70548D01*
X-466749Y-70516D01*
X-466758Y-70468D01*
X-467743Y-67843D01*
X-467759Y-67818D01*
X-467764Y-67798D01*
X-467771Y-67788D01*
X-467779Y-67768D01*
X-469182Y-65340D01*
X-469205Y-65314D01*
X-469229Y-65273D01*
X-471014Y-63109D01*
X-471041Y-63087D01*
X-471071Y-63050D01*
X-473187Y-61209D01*
X-473218Y-61192D01*
X-473254Y-61161D01*
X-475644Y-59693D01*
X-475677Y-59682D01*
X-475718Y-59656D01*
X-478317Y-58603D01*
X-478351Y-58596D01*
X-478395Y-58578D01*
X-481132Y-57967D01*
X-481167Y-57966D01*
X-481214Y-57955D01*
X-484014Y-57803D01*
X-484049Y-57808D01*
X-484097Y-57805D01*
X-486884Y-58115D01*
X-486917Y-58126D01*
X-486965Y-58131D01*
X-489663Y-58896D01*
X-489694Y-58912D01*
X-489740Y-58925D01*
X-492276Y-60124D01*
X-492299Y-60141D01*
X-492327Y-60151D01*
X-492378Y-60200D01*
X-492435Y-60243D01*
X-492450Y-60268D01*
X-492471Y-60288D01*
X-492499Y-60353D01*
X-492535Y-60415D01*
X-492539Y-60443D01*
X-492551Y-60470D01*
X-492551Y-60541D01*
X-492560Y-60612D01*
X-492553Y-60640D01*
X-492553Y-60669D01*
X-492518Y-60762D01*
X-492507Y-60803D01*
X-492500Y-60812D01*
X-492495Y-60825D01*
X-475495Y-90225D01*
X-475475Y-90247D01*
X-475463Y-90273D01*
X-475410Y-90321D01*
X-475363Y-90374D01*
X-475337Y-90386D01*
X-475315Y-90406D01*
X-475247Y-90429D01*
X-475183Y-90459D01*
X-475154Y-90461D01*
X-475127Y-90470D01*
X-475056Y-90465D01*
G37*
G36*
X-480814Y56905D02*
X-480814Y56905D01*
X-480781Y56914D01*
X-480732Y56917D01*
X-477995Y57528D01*
X-477964Y57542D01*
X-477917Y57553D01*
X-475318Y58606D01*
X-475289Y58625D01*
X-475244Y58643D01*
X-472854Y60111D01*
X-472828Y60134D01*
X-472787Y60159D01*
X-470671Y62000D01*
X-470650Y62027D01*
X-470614Y62059D01*
X-468829Y64223D01*
X-468813Y64253D01*
X-468782Y64290D01*
X-467379Y66718D01*
X-467368Y66751D01*
X-467343Y66793D01*
X-466358Y69418D01*
X-466353Y69453D01*
X-466336Y69498D01*
X-465796Y72250D01*
X-465797Y72285D01*
X-465787Y72332D01*
X-465708Y75135D01*
X-465714Y75169D01*
X-465713Y75217D01*
X-466096Y77996D01*
X-466107Y78028D01*
X-466114Y78076D01*
X-466949Y80753D01*
X-466966Y80784D01*
X-466980Y80830D01*
X-468245Y83333D01*
X-468266Y83360D01*
X-468288Y83403D01*
X-469948Y85664D01*
X-469973Y85687D01*
X-470002Y85726D01*
X-472011Y87683D01*
X-472040Y87702D01*
X-472074Y87736D01*
X-474378Y89335D01*
X-474405Y89347D01*
X-474427Y89365D01*
X-474495Y89386D01*
X-474560Y89414D01*
X-474590Y89414D01*
X-474618Y89422D01*
X-474688Y89414D01*
X-474759Y89415D01*
X-474786Y89404D01*
X-474815Y89400D01*
X-474877Y89366D01*
X-474943Y89338D01*
X-474963Y89317D01*
X-474989Y89303D01*
X-475052Y89227D01*
X-475082Y89196D01*
X-475086Y89186D01*
X-475095Y89175D01*
X-492095Y59775D01*
X-492104Y59747D01*
X-492121Y59723D01*
X-492135Y59654D01*
X-492158Y59586D01*
X-492156Y59557D01*
X-492162Y59529D01*
X-492148Y59459D01*
X-492143Y59388D01*
X-492129Y59362D01*
X-492124Y59334D01*
X-492084Y59275D01*
X-492051Y59212D01*
X-492029Y59193D01*
X-492012Y59169D01*
X-491931Y59112D01*
X-491898Y59085D01*
X-491887Y59082D01*
X-491876Y59074D01*
X-489340Y57875D01*
X-489307Y57867D01*
X-489263Y57846D01*
X-486565Y57081D01*
X-486531Y57079D01*
X-486484Y57065D01*
X-483697Y56755D01*
X-483662Y56758D01*
X-483614Y56753D01*
X-480814Y56905D01*
G37*
G36*
X-336428Y-150979D02*
X-336428Y-150979D01*
X-336400Y-150973D01*
X-336371Y-150975D01*
X-336303Y-150953D01*
X-336234Y-150939D01*
X-336209Y-150923D01*
X-336182Y-150914D01*
X-336128Y-150867D01*
X-336070Y-150827D01*
X-336054Y-150802D01*
X-336032Y-150783D01*
X-336001Y-150719D01*
X-335963Y-150659D01*
X-335958Y-150630D01*
X-335945Y-150604D01*
X-335937Y-150505D01*
X-335930Y-150463D01*
X-335932Y-150452D01*
X-335931Y-150438D01*
X-336165Y-147643D01*
X-336174Y-147610D01*
X-336178Y-147562D01*
X-336868Y-144844D01*
X-336884Y-144812D01*
X-336895Y-144766D01*
X-338024Y-142198D01*
X-338044Y-142170D01*
X-338063Y-142126D01*
X-339598Y-139779D01*
X-339623Y-139754D01*
X-339649Y-139714D01*
X-341550Y-137652D01*
X-341578Y-137632D01*
X-341611Y-137596D01*
X-343825Y-135875D01*
X-343856Y-135860D01*
X-343894Y-135830D01*
X-346361Y-134497D01*
X-346394Y-134487D01*
X-346437Y-134464D01*
X-349090Y-133555D01*
X-349101Y-133553D01*
X-349130Y-133549D01*
X-349170Y-133535D01*
X-351936Y-133075D01*
X-351971Y-133076D01*
X-352019Y-133068D01*
X-354823Y-133070D01*
X-354857Y-133077D01*
X-354905Y-133077D01*
X-357671Y-133540D01*
X-357703Y-133553D01*
X-357751Y-133561D01*
X-360403Y-134473D01*
X-360433Y-134491D01*
X-360478Y-134506D01*
X-362944Y-135843D01*
X-362971Y-135865D01*
X-363013Y-135888D01*
X-365225Y-137612D01*
X-365248Y-137638D01*
X-365286Y-137668D01*
X-367184Y-139732D01*
X-367202Y-139762D01*
X-367234Y-139797D01*
X-368767Y-142146D01*
X-368779Y-142178D01*
X-368806Y-142219D01*
X-369931Y-144788D01*
X-369938Y-144819D01*
X-369945Y-144831D01*
X-369947Y-144841D01*
X-369957Y-144866D01*
X-370644Y-147585D01*
X-370646Y-147619D01*
X-370658Y-147666D01*
X-370887Y-150461D01*
X-370884Y-150490D01*
X-370889Y-150519D01*
X-370872Y-150588D01*
X-370864Y-150659D01*
X-370849Y-150684D01*
X-370843Y-150712D01*
X-370800Y-150769D01*
X-370765Y-150831D01*
X-370742Y-150849D01*
X-370725Y-150872D01*
X-370664Y-150909D01*
X-370607Y-150952D01*
X-370579Y-150959D01*
X-370554Y-150974D01*
X-370456Y-150990D01*
X-370414Y-151001D01*
X-370403Y-150999D01*
X-370389Y-151001D01*
X-336428Y-150979D01*
G37*
G36*
X-437733Y129862D02*
X-437733Y129862D01*
X-437701Y129871D01*
X-437654Y129872D01*
X-434649Y130485D01*
X-434618Y130499D01*
X-434572Y130508D01*
X-431705Y131595D01*
X-431677Y131613D01*
X-431633Y131630D01*
X-428977Y133163D01*
X-428952Y133185D01*
X-428911Y133208D01*
X-426536Y135147D01*
X-426515Y135174D01*
X-426478Y135203D01*
X-424445Y137498D01*
X-424428Y137527D01*
X-424397Y137562D01*
X-422758Y140154D01*
X-422746Y140186D01*
X-422721Y140225D01*
X-421519Y143046D01*
X-421512Y143079D01*
X-421493Y143122D01*
X-420760Y146099D01*
X-420758Y146133D01*
X-420747Y146179D01*
X-420500Y149235D01*
X-420503Y149263D01*
X-420499Y149292D01*
X-420515Y149361D01*
X-420524Y149432D01*
X-420538Y149457D01*
X-420545Y149485D01*
X-420587Y149543D01*
X-420623Y149605D01*
X-420646Y149622D01*
X-420663Y149645D01*
X-420724Y149682D01*
X-420781Y149725D01*
X-420809Y149732D01*
X-420834Y149747D01*
X-420933Y149763D01*
X-420974Y149774D01*
X-420985Y149772D01*
X-420998Y149774D01*
X-440038Y149751D01*
X-440113Y149736D01*
X-440189Y149728D01*
X-440210Y149716D01*
X-440232Y149712D01*
X-440296Y149668D01*
X-440363Y149630D01*
X-440379Y149610D01*
X-440396Y149599D01*
X-440420Y149561D01*
X-440469Y149502D01*
X-450008Y133025D01*
X-450018Y132998D01*
X-450034Y132974D01*
X-450049Y132904D01*
X-450072Y132837D01*
X-450070Y132808D01*
X-450076Y132779D01*
X-450062Y132709D01*
X-450057Y132638D01*
X-450043Y132613D01*
X-450038Y132584D01*
X-449998Y132525D01*
X-449965Y132462D01*
X-449943Y132443D01*
X-449927Y132419D01*
X-449845Y132362D01*
X-449812Y132335D01*
X-449802Y132332D01*
X-449790Y132324D01*
X-447020Y131009D01*
X-446987Y131001D01*
X-446945Y130981D01*
X-444000Y130128D01*
X-443966Y130125D01*
X-443921Y130112D01*
X-440877Y129742D01*
X-440844Y129745D01*
X-440797Y129739D01*
X-437733Y129862D01*
G37*
G36*
X-421101Y-151180D02*
X-421101Y-151180D01*
X-421072Y-151183D01*
X-421005Y-151161D01*
X-420935Y-151146D01*
X-420911Y-151130D01*
X-420883Y-151121D01*
X-420830Y-151074D01*
X-420771Y-151034D01*
X-420755Y-151010D01*
X-420733Y-150991D01*
X-420702Y-150927D01*
X-420663Y-150867D01*
X-420659Y-150838D01*
X-420646Y-150812D01*
X-420637Y-150713D01*
X-420630Y-150671D01*
X-420633Y-150660D01*
X-420631Y-150646D01*
X-420878Y-147590D01*
X-420888Y-147558D01*
X-420891Y-147511D01*
X-421625Y-144534D01*
X-421639Y-144503D01*
X-421650Y-144458D01*
X-422852Y-141637D01*
X-422871Y-141609D01*
X-422889Y-141566D01*
X-424528Y-138974D01*
X-424552Y-138949D01*
X-424577Y-138910D01*
X-426610Y-136615D01*
X-426637Y-136594D01*
X-426668Y-136559D01*
X-429043Y-134620D01*
X-429073Y-134604D01*
X-429109Y-134574D01*
X-431764Y-133041D01*
X-431797Y-133030D01*
X-431837Y-133007D01*
X-434704Y-131919D01*
X-434737Y-131914D01*
X-434781Y-131897D01*
X-437785Y-131284D01*
X-437819Y-131284D01*
X-437865Y-131274D01*
X-440929Y-131151D01*
X-440962Y-131156D01*
X-441009Y-131154D01*
X-444053Y-131523D01*
X-444085Y-131534D01*
X-444132Y-131539D01*
X-447077Y-132393D01*
X-447107Y-132408D01*
X-447152Y-132421D01*
X-449922Y-133735D01*
X-449945Y-133753D01*
X-449972Y-133763D01*
X-450024Y-133812D01*
X-450081Y-133855D01*
X-450096Y-133880D01*
X-450117Y-133900D01*
X-450145Y-133965D01*
X-450181Y-134027D01*
X-450185Y-134056D01*
X-450196Y-134082D01*
X-450197Y-134153D01*
X-450206Y-134224D01*
X-450198Y-134252D01*
X-450198Y-134281D01*
X-450163Y-134375D01*
X-450152Y-134415D01*
X-450145Y-134424D01*
X-450140Y-134437D01*
X-440601Y-150914D01*
X-440549Y-150972D01*
X-440504Y-151033D01*
X-440484Y-151045D01*
X-440469Y-151063D01*
X-440399Y-151096D01*
X-440333Y-151135D01*
X-440308Y-151139D01*
X-440289Y-151148D01*
X-440245Y-151150D01*
X-440169Y-151163D01*
X-421130Y-151186D01*
X-421101Y-151180D01*
G37*
G36*
X-517157Y-17765D02*
X-517157Y-17765D01*
X-517086Y-17768D01*
X-517059Y-17758D01*
X-517030Y-17756D01*
X-516939Y-17714D01*
X-516899Y-17699D01*
X-516891Y-17692D01*
X-516879Y-17686D01*
X-514355Y-15944D01*
X-514332Y-15920D01*
X-514293Y-15893D01*
X-512082Y-13769D01*
X-512063Y-13741D01*
X-512029Y-13709D01*
X-510187Y-11258D01*
X-510172Y-11227D01*
X-510144Y-11190D01*
X-508719Y-8475D01*
X-508709Y-8442D01*
X-508687Y-8401D01*
X-507716Y-5493D01*
X-507712Y-5459D01*
X-507697Y-5415D01*
X-507205Y-2388D01*
X-507207Y-2354D01*
X-507199Y-2308D01*
X-507199Y758D01*
X-507206Y791D01*
X-507205Y838D01*
X-507697Y3865D01*
X-507709Y3896D01*
X-507716Y3943D01*
X-508687Y6851D01*
X-508701Y6874D01*
X-508707Y6899D01*
X-508713Y6908D01*
X-508719Y6925D01*
X-510144Y9640D01*
X-510165Y9666D01*
X-510187Y9708D01*
X-512029Y12159D01*
X-512054Y12182D01*
X-512082Y12219D01*
X-514293Y14343D01*
X-514322Y14361D01*
X-514355Y14394D01*
X-516879Y16136D01*
X-516906Y16147D01*
X-516928Y16166D01*
X-516996Y16186D01*
X-517062Y16214D01*
X-517091Y16214D01*
X-517118Y16222D01*
X-517190Y16214D01*
X-517261Y16215D01*
X-517287Y16203D01*
X-517316Y16200D01*
X-517378Y16165D01*
X-517444Y16137D01*
X-517464Y16117D01*
X-517489Y16102D01*
X-517553Y16025D01*
X-517583Y15995D01*
X-517587Y15985D01*
X-517595Y15974D01*
X-527095Y-526D01*
X-527119Y-599D01*
X-527150Y-669D01*
X-527151Y-693D01*
X-527158Y-715D01*
X-527152Y-791D01*
X-527153Y-868D01*
X-527144Y-892D01*
X-527142Y-913D01*
X-527122Y-952D01*
X-527102Y-1004D01*
X-527101Y-1010D01*
X-527100Y-1012D01*
X-527095Y-1024D01*
X-517595Y-17524D01*
X-517576Y-17546D01*
X-517564Y-17572D01*
X-517511Y-17620D01*
X-517464Y-17673D01*
X-517438Y-17686D01*
X-517416Y-17705D01*
X-517349Y-17728D01*
X-517284Y-17759D01*
X-517255Y-17761D01*
X-517228Y-17770D01*
X-517157Y-17765D01*
G37*
D10*
G36*
X-352151Y-99387D02*
X-343655Y-90891D01*
X-335865Y-98681D01*
X-344361Y-107177D01*
X-352151Y-99387D01*
G37*
G36*
X-364172Y-111408D02*
X-355676Y-102912D01*
X-347886Y-110702D01*
X-356382Y-119198D01*
X-364172Y-111408D01*
G37*
D11*
G36*
X-360526Y-97642D02*
X-370436Y-107552D01*
X-381760Y-96228D01*
X-371850Y-86318D01*
X-360526Y-97642D01*
G37*
G36*
X-347091Y-84207D02*
X-357001Y-94117D01*
X-368325Y-82793D01*
X-358415Y-72883D01*
X-347091Y-84207D01*
G37*
D12*
G36*
X-341686Y-33084D02*
X-331069Y-43701D01*
X-334616Y-47248D01*
X-345233Y-36631D01*
X-341686Y-33084D01*
G37*
G36*
X-350171Y-41569D02*
X-339554Y-52186D01*
X-343101Y-55733D01*
X-353718Y-45116D01*
X-350171Y-41569D01*
G37*
G36*
X-358657Y-50054D02*
X-348040Y-60671D01*
X-351587Y-64218D01*
X-362204Y-53601D01*
X-358657Y-50054D01*
G37*
D10*
X-336550Y64522D03*
X-336550Y81522D03*
D11*
G36*
X-451930Y-107395D02*
X-461840Y-97485D01*
X-450516Y-86161D01*
X-440606Y-96071D01*
X-451930Y-107395D01*
G37*
G36*
X-438495Y-120830D02*
X-448405Y-110920D01*
X-437081Y-99596D01*
X-427171Y-109506D01*
X-438495Y-120830D01*
G37*
D10*
G36*
X-374774Y-78306D02*
X-383270Y-86802D01*
X-391060Y-79012D01*
X-382564Y-70516D01*
X-374774Y-78306D01*
G37*
G36*
X-362753Y-66285D02*
X-371249Y-74781D01*
X-379039Y-66991D01*
X-370543Y-58495D01*
X-362753Y-66285D01*
G37*
G36*
X-435853Y-91332D02*
X-444349Y-82836D01*
X-436559Y-75046D01*
X-428063Y-83542D01*
X-435853Y-91332D01*
G37*
G36*
X-423832Y-103353D02*
X-432328Y-94857D01*
X-424538Y-87067D01*
X-416042Y-95563D01*
X-423832Y-103353D01*
G37*
G36*
X-503123Y-24665D02*
X-511619Y-16169D01*
X-503829Y-8379D01*
X-495333Y-16875D01*
X-503123Y-24665D01*
G37*
G36*
X-491102Y-36686D02*
X-499598Y-28190D01*
X-491808Y-20400D01*
X-483312Y-28896D01*
X-491102Y-36686D01*
G37*
D13*
X-336669Y34283D03*
X-336669Y51283D03*
D14*
X-456504Y94883D02*
X-456504Y105841D01*
X-451546Y105841D01*
X-451546Y94883D01*
X-456504Y94883D01*
X-456504Y100639D02*
X-451546Y100639D01*
X-426146Y105841D02*
X-426146Y94883D01*
X-431104Y94883D01*
X-431104Y105841D01*
X-426146Y105841D01*
X-426146Y100639D02*
X-431104Y100639D01*
X-382860Y103884D02*
X-371902Y103884D01*
X-382860Y103884D02*
X-382860Y108842D01*
X-371902Y108842D01*
X-371902Y103884D01*
X-337645Y-75072D02*
X-337645Y-86030D01*
X-337645Y-75072D02*
X-332687Y-75072D01*
X-332687Y-86030D01*
X-337645Y-86030D01*
X-337645Y-80274D02*
X-332687Y-80274D01*
D15*
X-349023Y9900D02*
X-341953Y16970D01*
X-345489Y20506D02*
X-352559Y13436D01*
X-356094Y16971D02*
X-349024Y24041D01*
X-352560Y27577D02*
X-359630Y20507D01*
X-363165Y24042D02*
X-356095Y31112D01*
X-359631Y34648D02*
X-366701Y27578D01*
X-370236Y31113D02*
X-363166Y38183D01*
X-366702Y41719D02*
X-373772Y34649D01*
X-377308Y38184D02*
X-370238Y45254D01*
X-373773Y48790D02*
X-380843Y41720D01*
X-384379Y45255D02*
X-377309Y52325D01*
X-380844Y55861D02*
X-387914Y48791D01*
X-391450Y52326D02*
X-384380Y59396D01*
X-387915Y62932D02*
X-394985Y55862D01*
X-398521Y59398D02*
X-391451Y66468D01*
X-394986Y70003D02*
X-402056Y62933D01*
X-421856Y62933D02*
X-428926Y70003D01*
X-432462Y66468D02*
X-425392Y59398D01*
X-428927Y55862D02*
X-435997Y62932D01*
X-439533Y59396D02*
X-432463Y52326D01*
X-435998Y48791D02*
X-443068Y55861D01*
X-446604Y52325D02*
X-439534Y45255D01*
X-443070Y41720D02*
X-450140Y48790D01*
X-453675Y45254D02*
X-446605Y38184D01*
X-450141Y34649D02*
X-457211Y41719D01*
X-460746Y38183D02*
X-453676Y31113D01*
X-457212Y27578D02*
X-464282Y34648D01*
X-467817Y31112D02*
X-460747Y24042D01*
X-464283Y20507D02*
X-471353Y27577D01*
X-474888Y24041D02*
X-467818Y16971D01*
X-471354Y13436D02*
X-478424Y20506D01*
X-481959Y16970D02*
X-474889Y9900D01*
X-474889Y-9900D02*
X-481959Y-16970D01*
X-478424Y-20506D02*
X-471354Y-13436D01*
X-467818Y-16971D02*
X-474888Y-24041D01*
X-471353Y-27577D02*
X-464283Y-20507D01*
X-460747Y-24042D02*
X-467817Y-31112D01*
X-464282Y-34648D02*
X-457212Y-27578D01*
X-453676Y-31113D02*
X-460746Y-38183D01*
X-457211Y-41719D02*
X-450141Y-34649D01*
X-446605Y-38184D02*
X-453675Y-45254D01*
X-450140Y-48790D02*
X-443070Y-41720D01*
X-439534Y-45255D02*
X-446604Y-52325D01*
X-443068Y-55861D02*
X-435998Y-48791D01*
X-432463Y-52326D02*
X-439533Y-59396D01*
X-435997Y-62932D02*
X-428927Y-55862D01*
X-425392Y-59398D02*
X-432462Y-66468D01*
X-428926Y-70003D02*
X-421856Y-62933D01*
X-402056Y-62933D02*
X-394986Y-70003D01*
X-391451Y-66468D02*
X-398521Y-59398D01*
X-394985Y-55862D02*
X-387915Y-62932D01*
X-384380Y-59396D02*
X-391450Y-52326D01*
X-387914Y-48791D02*
X-380844Y-55861D01*
X-377309Y-52325D02*
X-384379Y-45255D01*
X-380843Y-41720D02*
X-373773Y-48790D01*
X-370238Y-45254D02*
X-377308Y-38184D01*
X-373772Y-34649D02*
X-366702Y-41719D01*
X-363166Y-38183D02*
X-370236Y-31113D01*
X-366701Y-27578D02*
X-359631Y-34648D01*
X-356095Y-31112D02*
X-363165Y-24042D01*
X-359630Y-20507D02*
X-352560Y-27577D01*
X-349024Y-24041D02*
X-356094Y-16971D01*
X-352559Y-13436D02*
X-345489Y-20506D01*
X-341953Y-16970D02*
X-349023Y-9900D01*
D16*
X-39275Y-25146D02*
X-19463Y-25146D01*
X-19463Y25146D02*
X-39275Y25146D01*
X38614Y-132712D02*
X21457Y-142618D01*
X-3689Y-99063D02*
X13468Y-89157D01*
X13468Y89157D02*
X-3689Y99063D01*
X21457Y142618D02*
X38614Y132712D01*
D13*
X-259788Y-80169D03*
X-276788Y-80169D03*
X-259788Y-105569D03*
X-276788Y-105569D03*
X-258200Y-54769D03*
X-275200Y-54769D03*
D17*
G36*
X-244286Y-163544D02*
X-252444Y-149414D01*
X-238314Y-141256D01*
X-230156Y-155386D01*
X-244286Y-163544D01*
G37*
D18*
X-228600Y-174397D03*
D13*
G36*
X-162729Y279820D02*
X-153189Y274312D01*
X-159197Y263906D01*
X-168737Y269414D01*
X-162729Y279820D01*
G37*
G36*
X-177452Y288320D02*
X-167912Y282812D01*
X-173920Y272406D01*
X-183460Y277914D01*
X-177452Y288320D01*
G37*
G36*
X-171087Y201113D02*
X-180627Y206621D01*
X-174619Y217027D01*
X-165079Y211519D01*
X-171087Y201113D01*
G37*
G36*
X-156364Y192613D02*
X-165904Y198121D01*
X-159896Y208527D01*
X-150356Y203019D01*
X-156364Y192613D01*
G37*
G36*
X-177810Y253699D02*
X-168270Y248191D01*
X-174278Y237785D01*
X-183818Y243293D01*
X-177810Y253699D01*
G37*
G36*
X-192533Y262199D02*
X-182993Y256691D01*
X-189001Y246285D01*
X-198541Y251793D01*
X-192533Y262199D01*
G37*
G36*
X-192892Y227577D02*
X-183352Y222069D01*
X-189360Y211663D01*
X-198900Y217171D01*
X-192892Y227577D01*
G37*
G36*
X-207614Y236077D02*
X-198074Y230569D01*
X-204082Y220163D01*
X-213622Y225671D01*
X-207614Y236077D01*
G37*
G36*
X-140924Y253356D02*
X-150464Y258864D01*
X-144456Y269270D01*
X-134916Y263762D01*
X-140924Y253356D01*
G37*
G36*
X-126202Y244856D02*
X-135742Y250364D01*
X-129734Y260770D01*
X-120194Y255262D01*
X-126202Y244856D01*
G37*
G36*
X-156005Y227235D02*
X-165545Y232743D01*
X-159537Y243149D01*
X-149997Y237641D01*
X-156005Y227235D01*
G37*
G36*
X-141283Y218735D02*
X-150823Y224243D01*
X-144815Y234649D01*
X-135275Y229141D01*
X-141283Y218735D01*
G37*
D17*
G36*
X-230156Y155386D02*
X-238314Y141256D01*
X-252444Y149414D01*
X-244286Y163544D01*
X-230156Y155386D01*
G37*
D18*
X-228600Y174397D03*
D19*
X-518663Y-775D03*
X-436037Y142324D03*
X-477563Y-71775D03*
X-477163Y70725D03*
X-352701Y142247D03*
X-436169Y-143736D03*
X-353440Y-143545D03*
D14*
X-332679Y-28498D02*
X-332679Y-17540D01*
X-327721Y-17540D01*
X-327721Y-28498D01*
X-332679Y-28498D01*
X-332679Y-22742D02*
X-327721Y-22742D01*
X-295373Y-3098D02*
X-295373Y7860D01*
X-290415Y7860D01*
X-290415Y-3098D01*
X-295373Y-3098D01*
X-295373Y2658D02*
X-290415Y2658D01*
M02*
