M48
;GenerationSoftware,Autodesk,EAGLE,9.6.1*%
;CreationDate,2022-11-29T13:41:38Z*%
FMAT,2
ICI,OFF
METRIC,TZ,000.000
T1C0.350
%
G90
M71
T1
X3492Y12144
X759Y26511
X341Y30401
X10396Y15796
X2041Y30321
X-9684Y9389
X-10793Y15637
X4445Y15161
X5874Y15161
X5794Y14049
X4524Y14049
X2937Y26194
X6509Y20241
X8176Y20241
X9604Y21114
X6826Y17463
X8731Y17463
X10557Y17463
X9208Y18971
X10716Y20003
X-4207Y26194
X-6906Y20082
X-10874Y20955
X-9049Y20876
X-10001Y19685
X-10795Y18177
X-8652Y18971
X-9684Y17383
X-6906Y17463
X-3720Y12530
X-5315Y25333
X3406Y24648
M30