M48
;GenerationSoftware,Autodesk,EAGLE,9.6.1*%
;CreationDate,2022-11-29T13:41:38Z*%
FMAT,2
ICI,OFF
METRIC,TZ,000.000
T4C0.350
T3C1.016
T2C1.020
T1C1.321
%
G90
M71
T1
X-10205Y-1759
X-2515Y3651
X2515Y3651
X10205Y-1600
X14560Y-4115
X-14560Y-4274
T2
X-13494Y30559
X-13494Y28019
T3
X7541Y33576
X7541Y36116
X7541Y38656
X-11112Y39291
T4
X-794Y39449
X10954Y33417
X6112Y40108
X9604Y40287
X-3979Y38011
X-1746Y21193
X-79Y21193
X952Y20479
X-238Y20003
X-1667Y20003
X-1826Y18733
X1191Y18891
X714Y17542
X-794Y17542
X-1984Y16510
X0Y16510
X1349Y16510
X-25162Y238
X25400Y-238
X15954Y24289
X18098Y22860
X20638Y21352
X23257Y19844
X25956Y18256
X28257Y16510
X28892Y13256
X27702Y11033
X24368Y11033
X21034Y11033
X17701Y11112
X15796Y21828
X17939Y20638
X18098Y17621
X20399Y18971
X18415Y15002
X19209Y12859
X26114Y12621
X26273Y15002
X20320Y15319
X-23336Y19923
X-26035Y18336
X-28337Y16589
X-28972Y13335
X-27781Y11112
X-24447Y11112
X-21114Y11112
X-17542Y11192
X-17145Y13335
X-17224Y16272
X-16748Y19129
X-15875Y21907
X-18018Y20717
X-18177Y17701
X-20479Y19050
X-18494Y15081
X-19288Y12938
X-26194Y12700
X-26352Y15081
X-20399Y15399
X-10874Y28892
X-16192Y23495
X-8731Y28972
X-7699Y29051
X-10001Y28099
X-5953Y28972
X14287Y29210
X12224Y29210
X12144Y27781
X14208Y27781
X10716Y29210
X8731Y29210
X9684Y27940
X7382Y29210
X5636Y29210
X-159Y18812
X2223Y11986
X1120Y35243
X-6429Y15319
X-4921Y15319
X-4842Y14208
X-6350Y14208
X18098Y2857
X20876Y2778
X21034Y5001
X17780Y5001
X19447Y7382
X17780Y9128
X25876Y5159
X27781Y3334
X29289Y1667
X29527Y5318
X21907Y9128
X29527Y9128
X27702Y7461
X25956Y9128
X-29131Y9287
X-29131Y5477
X-27305Y7620
X-25559Y9287
X-21511Y9287
X-19050Y7541
X-20638Y5159
X-17383Y9287
X-17383Y5159
X-17701Y3016
X-20955Y2937
X-27384Y3492
X-28892Y1826
X-25479Y5318
X5636Y35243
X307Y35787
X-1563Y34980
X-4645Y30994
X-8024Y31007
X-8052Y32306
X10874Y23733
X9684Y23733
X8493Y23733
X8493Y22384
X9684Y22384
X10874Y22384
X-1747Y36823
X-9922Y22225
X-8731Y22225
X-8731Y23495
X-9922Y23495
X-11192Y23495
X-3413Y18256
X-5477Y18256
X-4366Y17463
X-5556Y16748
X-3413Y16828
X-5605Y30919
X-6552Y32178
X4353Y31569
X-3413Y21034
X-5477Y20955
X-3413Y19606
X-5477Y19606
X-4366Y20320
X3016Y18256
X5159Y18256
X4048Y17621
X-11192Y22225
X5159Y16748
X5233Y12421
X2937Y21114
X5159Y21114
X4048Y20399
X2937Y19447
X5159Y19447
X-650Y35545
X3123Y46433
X-10373Y30559
X-11629Y35766
X-2778Y36989
X-4290Y46037
X9604Y41831
X-13573Y39053
X-10160Y44132
X-3334Y48657
X3413Y48657
X13573Y39053
X12144Y44132
X1746Y39370
X2937Y16748
M30