G04 EAGLE Gerber RS-274X export*
G75*
%MOMM*%
%FSLAX34Y34*%
%LPD*%
%INCopper Layer 2*%
%IPPOS*%
%AMOC8*
5,1,8,0,0,1.08239X$1,22.5*%
G01*
%ADD10C,1.530000*%
%ADD11C,1.524000*%
%ADD12C,1.981200*%
%ADD13C,0.756400*%
%ADD14C,0.406400*%
%ADD15C,0.304800*%
%ADD16C,0.254000*%
%ADD17C,0.190500*%

G36*
X-149882Y-85649D02*
X-149882Y-85649D01*
X-149826Y-85651D01*
X-149761Y-85632D01*
X-149693Y-85622D01*
X-149622Y-85591D01*
X-149590Y-85582D01*
X-149573Y-85569D01*
X-149540Y-85555D01*
X-41688Y-23289D01*
X-41636Y-23246D01*
X-41578Y-23211D01*
X-41541Y-23168D01*
X-41498Y-23133D01*
X-41462Y-23076D01*
X-41418Y-23024D01*
X-41397Y-22972D01*
X-41367Y-22924D01*
X-41351Y-22859D01*
X-41326Y-22796D01*
X-41317Y-22717D01*
X-41310Y-22685D01*
X-41311Y-22665D01*
X-41308Y-22629D01*
X-41308Y-1555D01*
X-4247Y-1555D01*
X-4134Y-1537D01*
X-4020Y-1520D01*
X-4011Y-1516D01*
X-4005Y-1515D01*
X-3985Y-1505D01*
X-3867Y-1453D01*
X-710Y369D01*
X-621Y442D01*
X-531Y513D01*
X-525Y521D01*
X-520Y525D01*
X-508Y544D01*
X-495Y563D01*
X-369Y596D01*
X-355Y603D01*
X-339Y605D01*
X-186Y672D01*
X-72Y738D01*
X12Y729D01*
X26Y729D01*
X32Y730D01*
X50Y728D01*
X60Y729D01*
X66Y728D01*
X88Y733D01*
X111Y737D01*
X223Y672D01*
X238Y667D01*
X251Y657D01*
X407Y596D01*
X541Y560D01*
X542Y559D01*
X613Y469D01*
X621Y463D01*
X625Y458D01*
X644Y446D01*
X748Y369D01*
X3904Y-1453D01*
X4012Y-1494D01*
X4118Y-1537D01*
X4128Y-1538D01*
X4134Y-1540D01*
X4157Y-1541D01*
X4285Y-1555D01*
X247540Y-1555D01*
X247655Y-1536D01*
X247771Y-1519D01*
X247776Y-1516D01*
X247783Y-1515D01*
X247885Y-1461D01*
X247990Y-1408D01*
X247994Y-1403D01*
X248000Y-1400D01*
X248080Y-1316D01*
X248162Y-1232D01*
X248166Y-1225D01*
X248169Y-1222D01*
X248177Y-1205D01*
X248243Y-1085D01*
X249071Y913D01*
X250706Y2548D01*
X252843Y3433D01*
X255157Y3433D01*
X257294Y2548D01*
X258929Y913D01*
X259757Y-1085D01*
X259818Y-1184D01*
X259878Y-1285D01*
X259883Y-1289D01*
X259887Y-1294D01*
X259977Y-1369D01*
X260065Y-1445D01*
X260071Y-1447D01*
X260076Y-1451D01*
X260184Y-1493D01*
X260294Y-1537D01*
X260301Y-1537D01*
X260306Y-1539D01*
X260324Y-1540D01*
X260460Y-1555D01*
X295753Y-1555D01*
X295866Y-1537D01*
X295980Y-1520D01*
X295989Y-1516D01*
X295995Y-1515D01*
X296015Y-1505D01*
X296133Y-1453D01*
X298883Y135D01*
X298936Y178D01*
X298994Y212D01*
X299030Y255D01*
X299074Y291D01*
X299110Y348D01*
X299154Y399D01*
X299175Y451D01*
X299204Y499D01*
X299220Y565D01*
X299246Y627D01*
X299254Y706D01*
X299262Y738D01*
X299260Y759D01*
X299264Y794D01*
X299264Y100013D01*
X299261Y100032D01*
X299263Y100052D01*
X299241Y100153D01*
X299224Y100255D01*
X299215Y100273D01*
X299211Y100292D01*
X299158Y100381D01*
X299109Y100473D01*
X299095Y100486D01*
X299085Y100503D01*
X299006Y100571D01*
X298931Y100642D01*
X298913Y100650D01*
X298898Y100663D01*
X298801Y100702D01*
X298708Y100746D01*
X298688Y100748D01*
X298669Y100755D01*
X298503Y100774D01*
X147605Y100774D01*
X147605Y153130D01*
X147602Y153150D01*
X147604Y153170D01*
X147582Y153271D01*
X147565Y153373D01*
X147556Y153391D01*
X147552Y153410D01*
X147499Y153499D01*
X147450Y153590D01*
X147436Y153604D01*
X147426Y153621D01*
X147347Y153689D01*
X147272Y153760D01*
X147254Y153768D01*
X147239Y153781D01*
X147142Y153820D01*
X147049Y153863D01*
X147029Y153866D01*
X147010Y153873D01*
X146844Y153892D01*
X108430Y153892D01*
X108340Y153877D01*
X108249Y153870D01*
X108219Y153857D01*
X108187Y153852D01*
X108107Y153809D01*
X108023Y153773D01*
X107991Y153748D01*
X107970Y153737D01*
X107948Y153713D01*
X107892Y153669D01*
X107250Y153027D01*
X105113Y152142D01*
X102800Y152142D01*
X100662Y153027D01*
X99163Y154526D01*
X99089Y154579D01*
X99020Y154638D01*
X98990Y154650D01*
X98964Y154669D01*
X98877Y154696D01*
X98792Y154730D01*
X98751Y154735D01*
X98729Y154742D01*
X98696Y154741D01*
X98625Y154749D01*
X86040Y154749D01*
X79913Y160876D01*
X79839Y160929D01*
X79770Y160988D01*
X79740Y161001D01*
X79714Y161019D01*
X79627Y161046D01*
X79542Y161080D01*
X79501Y161085D01*
X79478Y161092D01*
X79446Y161091D01*
X79375Y161099D01*
X41275Y161099D01*
X41255Y161096D01*
X41236Y161098D01*
X41134Y161076D01*
X41032Y161059D01*
X41015Y161050D01*
X40995Y161045D01*
X40906Y160992D01*
X40815Y160944D01*
X40801Y160930D01*
X40784Y160919D01*
X40717Y160841D01*
X40646Y160766D01*
X40637Y160748D01*
X40624Y160732D01*
X40585Y160636D01*
X40542Y160543D01*
X40540Y160523D01*
X40532Y160504D01*
X40514Y160338D01*
X40514Y123297D01*
X40519Y123264D01*
X40518Y123251D01*
X40524Y123220D01*
X40525Y123167D01*
X40548Y123087D01*
X40554Y123055D01*
X40563Y123037D01*
X40569Y123015D01*
X40570Y123010D01*
X40571Y123009D01*
X40572Y123006D01*
X40740Y122600D01*
X40740Y120287D01*
X40572Y119881D01*
X40557Y119818D01*
X40532Y119757D01*
X40523Y119674D01*
X40516Y119642D01*
X40517Y119623D01*
X40514Y119590D01*
X40514Y22193D01*
X-12733Y22193D01*
X-12733Y57150D01*
X-12736Y57170D01*
X-12734Y57189D01*
X-12756Y57291D01*
X-12772Y57393D01*
X-12782Y57410D01*
X-12786Y57430D01*
X-12839Y57519D01*
X-12887Y57610D01*
X-12902Y57624D01*
X-12912Y57641D01*
X-12991Y57708D01*
X-13066Y57780D01*
X-13084Y57788D01*
X-13099Y57801D01*
X-13195Y57840D01*
X-13289Y57883D01*
X-13309Y57885D01*
X-13327Y57893D01*
X-13494Y57911D01*
X-41308Y57911D01*
X-41308Y120875D01*
X-41322Y120965D01*
X-41329Y121056D01*
X-41342Y121086D01*
X-41347Y121118D01*
X-41390Y121199D01*
X-41426Y121282D01*
X-41451Y121315D01*
X-41462Y121335D01*
X-41486Y121357D01*
X-41530Y121413D01*
X-42127Y122010D01*
X-43013Y124148D01*
X-43013Y126461D01*
X-42127Y128598D01*
X-41530Y129195D01*
X-41477Y129269D01*
X-41418Y129338D01*
X-41406Y129368D01*
X-41387Y129395D01*
X-41360Y129482D01*
X-41326Y129566D01*
X-41321Y129607D01*
X-41315Y129630D01*
X-41315Y129662D01*
X-41308Y129733D01*
X-41308Y154781D01*
X-41322Y154871D01*
X-41329Y154962D01*
X-41342Y154992D01*
X-41347Y155024D01*
X-41390Y155105D01*
X-41426Y155189D01*
X-41451Y155221D01*
X-41462Y155241D01*
X-41486Y155264D01*
X-41530Y155320D01*
X-47880Y161670D01*
X-47954Y161723D01*
X-48024Y161782D01*
X-48054Y161794D01*
X-48080Y161813D01*
X-48167Y161840D01*
X-48252Y161874D01*
X-48293Y161879D01*
X-48315Y161885D01*
X-48347Y161885D01*
X-48419Y161893D01*
X-53709Y161893D01*
X-53774Y161882D01*
X-53839Y161881D01*
X-53919Y161858D01*
X-53952Y161853D01*
X-53969Y161844D01*
X-54000Y161835D01*
X-54406Y161667D01*
X-56719Y161667D01*
X-57125Y161835D01*
X-57188Y161849D01*
X-57249Y161874D01*
X-57332Y161883D01*
X-57364Y161891D01*
X-57384Y161889D01*
X-57416Y161893D01*
X-86519Y161893D01*
X-86538Y161889D01*
X-86558Y161891D01*
X-86659Y161869D01*
X-86762Y161853D01*
X-86779Y161843D01*
X-86799Y161839D01*
X-86888Y161786D01*
X-86979Y161738D01*
X-86993Y161723D01*
X-87010Y161713D01*
X-87077Y161634D01*
X-87148Y161559D01*
X-87157Y161541D01*
X-87170Y161526D01*
X-87208Y161430D01*
X-87252Y161336D01*
X-87254Y161317D01*
X-87262Y161298D01*
X-87280Y161131D01*
X-87280Y155543D01*
X-101465Y155543D01*
X-101579Y155524D01*
X-101696Y155507D01*
X-101701Y155504D01*
X-101708Y155503D01*
X-101810Y155449D01*
X-101915Y155395D01*
X-101919Y155391D01*
X-101925Y155388D01*
X-102005Y155303D01*
X-102087Y155220D01*
X-102091Y155213D01*
X-102094Y155209D01*
X-102102Y155192D01*
X-102168Y155073D01*
X-102996Y153075D01*
X-103637Y152433D01*
X-103690Y152359D01*
X-103750Y152290D01*
X-103762Y152260D01*
X-103781Y152233D01*
X-103808Y152146D01*
X-103842Y152062D01*
X-103846Y152021D01*
X-103853Y151998D01*
X-103852Y151966D01*
X-103860Y151895D01*
X-103860Y106980D01*
X-103846Y106890D01*
X-103838Y106799D01*
X-103826Y106769D01*
X-103821Y106737D01*
X-103778Y106657D01*
X-103742Y106573D01*
X-103716Y106541D01*
X-103705Y106520D01*
X-103682Y106498D01*
X-103637Y106442D01*
X-97127Y99931D01*
X-97053Y99878D01*
X-96983Y99819D01*
X-96953Y99807D01*
X-96927Y99788D01*
X-96840Y99761D01*
X-96755Y99727D01*
X-96714Y99722D01*
X-96692Y99716D01*
X-96660Y99716D01*
X-96589Y99708D01*
X-95681Y99708D01*
X-93544Y98823D01*
X-91908Y97188D01*
X-91023Y95050D01*
X-91023Y92737D01*
X-91908Y90600D01*
X-93544Y88964D01*
X-95681Y88079D01*
X-97994Y88079D01*
X-100131Y88964D01*
X-101767Y90600D01*
X-102652Y92737D01*
X-102652Y93645D01*
X-102667Y93735D01*
X-102674Y93826D01*
X-102687Y93856D01*
X-102692Y93888D01*
X-102735Y93968D01*
X-102770Y94052D01*
X-102796Y94084D01*
X-102807Y94105D01*
X-102830Y94127D01*
X-102875Y94183D01*
X-111990Y103298D01*
X-111990Y151895D01*
X-112004Y151985D01*
X-112012Y152076D01*
X-112024Y152106D01*
X-112029Y152138D01*
X-112072Y152218D01*
X-112108Y152302D01*
X-112134Y152334D01*
X-112145Y152355D01*
X-112168Y152377D01*
X-112213Y152433D01*
X-112854Y153075D01*
X-113682Y155073D01*
X-113744Y155172D01*
X-113803Y155272D01*
X-113808Y155276D01*
X-113811Y155282D01*
X-113901Y155356D01*
X-113990Y155432D01*
X-113996Y155434D01*
X-114001Y155438D01*
X-114109Y155480D01*
X-114218Y155524D01*
X-114226Y155525D01*
X-114231Y155527D01*
X-114249Y155527D01*
X-114385Y155543D01*
X-146844Y155543D01*
X-146863Y155539D01*
X-146883Y155541D01*
X-146984Y155519D01*
X-147087Y155503D01*
X-147104Y155493D01*
X-147124Y155489D01*
X-147213Y155436D01*
X-147304Y155388D01*
X-147318Y155373D01*
X-147335Y155363D01*
X-147402Y155284D01*
X-147473Y155209D01*
X-147482Y155191D01*
X-147495Y155176D01*
X-147533Y155080D01*
X-147577Y154986D01*
X-147579Y154967D01*
X-147587Y154948D01*
X-147605Y154781D01*
X-147605Y100774D01*
X-298465Y100774D01*
X-298485Y100771D01*
X-298505Y100773D01*
X-298606Y100751D01*
X-298708Y100734D01*
X-298726Y100725D01*
X-298745Y100720D01*
X-298834Y100667D01*
X-298925Y100619D01*
X-298939Y100604D01*
X-298956Y100594D01*
X-299024Y100516D01*
X-299095Y100441D01*
X-299103Y100423D01*
X-299116Y100407D01*
X-299155Y100311D01*
X-299198Y100217D01*
X-299201Y100198D01*
X-299208Y100179D01*
X-299227Y100012D01*
X-299227Y1229D01*
X-299216Y1163D01*
X-299215Y1096D01*
X-299196Y1042D01*
X-299187Y986D01*
X-299155Y927D01*
X-299133Y864D01*
X-299098Y819D01*
X-299072Y769D01*
X-299023Y723D01*
X-298982Y670D01*
X-298917Y622D01*
X-298893Y600D01*
X-298875Y591D01*
X-298847Y570D01*
X-150302Y-85554D01*
X-150238Y-85578D01*
X-150179Y-85612D01*
X-150124Y-85622D01*
X-150072Y-85641D01*
X-150004Y-85644D01*
X-149937Y-85657D01*
X-149882Y-85649D01*
G37*
G36*
X36631Y24939D02*
X36631Y24939D01*
X36749Y24947D01*
X36788Y24959D01*
X36828Y24964D01*
X36939Y25008D01*
X37052Y25045D01*
X37086Y25067D01*
X37124Y25081D01*
X37220Y25151D01*
X37321Y25215D01*
X37348Y25244D01*
X37381Y25268D01*
X37457Y25360D01*
X37539Y25447D01*
X37558Y25482D01*
X37584Y25513D01*
X37635Y25621D01*
X37692Y25725D01*
X37702Y25764D01*
X37719Y25801D01*
X37742Y25918D01*
X37772Y26033D01*
X37775Y26093D01*
X37779Y26113D01*
X37778Y26134D01*
X37782Y26194D01*
X37782Y114434D01*
X37776Y114483D01*
X37778Y114533D01*
X37756Y114640D01*
X37742Y114749D01*
X37724Y114795D01*
X37714Y114844D01*
X37665Y114943D01*
X37625Y115045D01*
X37596Y115085D01*
X37574Y115130D01*
X37503Y115213D01*
X37438Y115302D01*
X37400Y115334D01*
X37367Y115372D01*
X37278Y115435D01*
X37193Y115505D01*
X37148Y115526D01*
X37107Y115555D01*
X37005Y115594D01*
X36905Y115641D01*
X36857Y115650D01*
X36810Y115668D01*
X36701Y115680D01*
X36593Y115700D01*
X36543Y115697D01*
X36494Y115703D01*
X36385Y115687D01*
X36276Y115681D01*
X36228Y115665D01*
X36179Y115658D01*
X36093Y115629D01*
X33768Y115629D01*
X31631Y116514D01*
X29995Y118150D01*
X29110Y120287D01*
X29110Y122600D01*
X29995Y124738D01*
X30489Y125231D01*
X30549Y125309D01*
X30617Y125381D01*
X30646Y125434D01*
X30683Y125482D01*
X30723Y125573D01*
X30771Y125659D01*
X30786Y125718D01*
X30810Y125774D01*
X30825Y125872D01*
X30850Y125967D01*
X30856Y126067D01*
X30860Y126088D01*
X30858Y126100D01*
X30860Y126128D01*
X30860Y154301D01*
X30845Y154419D01*
X30838Y154538D01*
X30825Y154577D01*
X30820Y154617D01*
X30777Y154728D01*
X30740Y154841D01*
X30718Y154875D01*
X30703Y154912D01*
X30634Y155009D01*
X30570Y155109D01*
X30540Y155137D01*
X30517Y155170D01*
X30425Y155246D01*
X30338Y155327D01*
X30303Y155347D01*
X30272Y155373D01*
X30164Y155423D01*
X30060Y155481D01*
X30020Y155491D01*
X29984Y155508D01*
X29867Y155531D01*
X29752Y155560D01*
X29692Y155564D01*
X29672Y155568D01*
X29651Y155567D01*
X29591Y155571D01*
X19748Y155571D01*
X17367Y157952D01*
X17367Y259779D01*
X17352Y259897D01*
X17344Y260015D01*
X17332Y260054D01*
X17327Y260094D01*
X17283Y260205D01*
X17246Y260318D01*
X17225Y260352D01*
X17210Y260390D01*
X17140Y260486D01*
X17076Y260587D01*
X17047Y260614D01*
X17023Y260647D01*
X16931Y260723D01*
X16844Y260805D01*
X16809Y260824D01*
X16778Y260850D01*
X16670Y260901D01*
X16566Y260958D01*
X16527Y260968D01*
X16490Y260985D01*
X16373Y261008D01*
X16258Y261038D01*
X16198Y261041D01*
X16178Y261045D01*
X16157Y261044D01*
X16097Y261048D01*
X12272Y261048D01*
X12174Y261035D01*
X12075Y261032D01*
X12016Y261016D01*
X11956Y261008D01*
X11864Y260971D01*
X11769Y260944D01*
X11717Y260913D01*
X11661Y260891D01*
X11581Y260833D01*
X11495Y260782D01*
X11420Y260716D01*
X11403Y260704D01*
X11395Y260695D01*
X11374Y260676D01*
X10881Y260183D01*
X8744Y259298D01*
X6431Y259298D01*
X4294Y260183D01*
X2658Y261819D01*
X1773Y263956D01*
X1773Y266269D01*
X2658Y268406D01*
X4294Y270042D01*
X6431Y270927D01*
X8744Y270927D01*
X10881Y270042D01*
X11374Y269549D01*
X11453Y269488D01*
X11525Y269420D01*
X11578Y269391D01*
X11626Y269354D01*
X11717Y269315D01*
X11803Y269267D01*
X11862Y269252D01*
X11917Y269228D01*
X12015Y269212D01*
X12111Y269187D01*
X12211Y269181D01*
X12232Y269178D01*
X12244Y269179D01*
X12272Y269177D01*
X23115Y269177D01*
X25016Y267276D01*
X25039Y267258D01*
X25058Y267236D01*
X25164Y267161D01*
X25267Y267081D01*
X25294Y267070D01*
X25318Y267053D01*
X25440Y267007D01*
X25559Y266955D01*
X25588Y266950D01*
X25616Y266940D01*
X25745Y266926D01*
X25873Y266905D01*
X25902Y266908D01*
X25932Y266905D01*
X26060Y266923D01*
X26190Y266935D01*
X26217Y266945D01*
X26247Y266949D01*
X26399Y267001D01*
X28212Y267752D01*
X30525Y267752D01*
X32663Y266867D01*
X34298Y265231D01*
X35183Y263094D01*
X35183Y260934D01*
X35196Y260836D01*
X35199Y260737D01*
X35216Y260679D01*
X35223Y260619D01*
X35260Y260526D01*
X35287Y260431D01*
X35318Y260379D01*
X35340Y260323D01*
X35398Y260243D01*
X35449Y260157D01*
X35515Y260082D01*
X35527Y260065D01*
X35537Y260058D01*
X35555Y260037D01*
X44701Y250891D01*
X44701Y246063D01*
X44716Y245944D01*
X44723Y245826D01*
X44736Y245787D01*
X44741Y245747D01*
X44785Y245636D01*
X44821Y245523D01*
X44843Y245489D01*
X44858Y245451D01*
X44928Y245355D01*
X44991Y245254D01*
X45021Y245227D01*
X45045Y245194D01*
X45136Y245118D01*
X45223Y245036D01*
X45259Y245017D01*
X45290Y244991D01*
X45397Y244940D01*
X45502Y244883D01*
X45541Y244873D01*
X45577Y244856D01*
X45694Y244833D01*
X45810Y244803D01*
X45870Y244800D01*
X45890Y244796D01*
X45910Y244797D01*
X45970Y244793D01*
X117793Y244793D01*
X117793Y158750D01*
X117808Y158632D01*
X117816Y158513D01*
X117828Y158475D01*
X117833Y158434D01*
X117877Y158324D01*
X117914Y158211D01*
X117935Y158176D01*
X117950Y158139D01*
X118020Y158043D01*
X118084Y157942D01*
X118113Y157914D01*
X118137Y157881D01*
X118229Y157806D01*
X118315Y157724D01*
X118351Y157704D01*
X118382Y157679D01*
X118490Y157628D01*
X118594Y157570D01*
X118633Y157560D01*
X118670Y157543D01*
X118786Y157521D01*
X118902Y157491D01*
X118962Y157487D01*
X118982Y157483D01*
X119002Y157485D01*
X119063Y157481D01*
X150337Y157481D01*
X150337Y104775D01*
X150352Y104657D01*
X150359Y104538D01*
X150372Y104500D01*
X150377Y104459D01*
X150421Y104349D01*
X150457Y104236D01*
X150479Y104201D01*
X150494Y104164D01*
X150564Y104068D01*
X150628Y103967D01*
X150657Y103939D01*
X150681Y103906D01*
X150772Y103831D01*
X150859Y103749D01*
X150895Y103729D01*
X150926Y103704D01*
X151033Y103653D01*
X151138Y103595D01*
X151177Y103585D01*
X151213Y103568D01*
X151330Y103546D01*
X151446Y103516D01*
X151506Y103512D01*
X151526Y103508D01*
X151546Y103510D01*
X151606Y103506D01*
X297995Y103506D01*
X298113Y103521D01*
X298232Y103528D01*
X298270Y103541D01*
X298310Y103546D01*
X298421Y103589D01*
X298534Y103626D01*
X298568Y103648D01*
X298606Y103663D01*
X298702Y103733D01*
X298803Y103796D01*
X298831Y103826D01*
X298863Y103849D01*
X298939Y103941D01*
X299021Y104028D01*
X299040Y104063D01*
X299066Y104094D01*
X299117Y104202D01*
X299174Y104306D01*
X299184Y104346D01*
X299202Y104382D01*
X299224Y104499D01*
X299254Y104614D01*
X299258Y104675D01*
X299261Y104695D01*
X299260Y104715D01*
X299264Y104775D01*
X299264Y171950D01*
X299251Y172055D01*
X299246Y172161D01*
X299231Y172212D01*
X299224Y172266D01*
X299185Y172364D01*
X299155Y172465D01*
X299127Y172511D01*
X299107Y172561D01*
X299045Y172647D01*
X298990Y172737D01*
X298952Y172775D01*
X298920Y172819D01*
X298839Y172886D01*
X298763Y172960D01*
X298692Y173008D01*
X298675Y173022D01*
X298661Y173028D01*
X298629Y173049D01*
X150111Y258794D01*
X150026Y258830D01*
X149945Y258874D01*
X149880Y258891D01*
X149818Y258917D01*
X149742Y258928D01*
X149674Y258997D01*
X149606Y259049D01*
X149545Y259109D01*
X149431Y259185D01*
X149422Y259192D01*
X149418Y259193D01*
X149411Y259198D01*
X149330Y259245D01*
X149310Y259294D01*
X149264Y259356D01*
X149264Y259452D01*
X149253Y259537D01*
X149252Y259623D01*
X149226Y259757D01*
X149224Y259768D01*
X149223Y259772D01*
X149221Y259781D01*
X149197Y259871D01*
X149217Y259920D01*
X149231Y260011D01*
X149254Y260100D01*
X149261Y260217D01*
X149264Y260234D01*
X149263Y260243D01*
X149264Y260261D01*
X149264Y295275D01*
X149249Y295393D01*
X149242Y295512D01*
X149229Y295550D01*
X149224Y295591D01*
X149180Y295701D01*
X149144Y295814D01*
X149122Y295849D01*
X149107Y295886D01*
X149037Y295982D01*
X148974Y296083D01*
X148944Y296111D01*
X148920Y296144D01*
X148829Y296220D01*
X148742Y296301D01*
X148706Y296321D01*
X148675Y296346D01*
X148568Y296397D01*
X148463Y296455D01*
X148424Y296465D01*
X148388Y296482D01*
X148271Y296504D01*
X148155Y296534D01*
X148095Y296538D01*
X148075Y296542D01*
X148055Y296540D01*
X147995Y296544D01*
X-131230Y296544D01*
X-131239Y296543D01*
X-131249Y296544D01*
X-131398Y296523D01*
X-131546Y296504D01*
X-131554Y296501D01*
X-131564Y296500D01*
X-131716Y296448D01*
X-133012Y295911D01*
X-136863Y295911D01*
X-138159Y296448D01*
X-138168Y296450D01*
X-138175Y296454D01*
X-138176Y296454D01*
X-138176Y296455D01*
X-138321Y296492D01*
X-138466Y296532D01*
X-138475Y296532D01*
X-138484Y296534D01*
X-138645Y296544D01*
X-147949Y296544D01*
X-148067Y296529D01*
X-148186Y296522D01*
X-148225Y296509D01*
X-148265Y296504D01*
X-148376Y296461D01*
X-148489Y296424D01*
X-148523Y296402D01*
X-148560Y296387D01*
X-148657Y296318D01*
X-148757Y296254D01*
X-148785Y296224D01*
X-148818Y296201D01*
X-148894Y296109D01*
X-148975Y296022D01*
X-148995Y295987D01*
X-149021Y295956D01*
X-149071Y295848D01*
X-149129Y295744D01*
X-149139Y295704D01*
X-149156Y295668D01*
X-149179Y295551D01*
X-149208Y295436D01*
X-149212Y295376D01*
X-149216Y295356D01*
X-149215Y295335D01*
X-149219Y295275D01*
X-149219Y260247D01*
X-149207Y260156D01*
X-149205Y260063D01*
X-149187Y259998D01*
X-149179Y259932D01*
X-149157Y259878D01*
X-149175Y259811D01*
X-149187Y259726D01*
X-149208Y259643D01*
X-149217Y259506D01*
X-149218Y259496D01*
X-149218Y259491D01*
X-149219Y259482D01*
X-149219Y259361D01*
X-149222Y259355D01*
X-149263Y259302D01*
X-149286Y259249D01*
X-149346Y259214D01*
X-149415Y259162D01*
X-149488Y259118D01*
X-149591Y259028D01*
X-149600Y259022D01*
X-149602Y259018D01*
X-149609Y259012D01*
X-149695Y258926D01*
X-149702Y258925D01*
X-149768Y258916D01*
X-149854Y258882D01*
X-149943Y258857D01*
X-150048Y258805D01*
X-150064Y258799D01*
X-150071Y258794D01*
X-150087Y258786D01*
X-182028Y240346D01*
X-182029Y240345D01*
X-182032Y240343D01*
X-298596Y172502D01*
X-298678Y172439D01*
X-298765Y172384D01*
X-298804Y172343D01*
X-298848Y172309D01*
X-298912Y172227D01*
X-298983Y172152D01*
X-299010Y172103D01*
X-299045Y172059D01*
X-299087Y171964D01*
X-299137Y171874D01*
X-299151Y171819D01*
X-299174Y171768D01*
X-299190Y171666D01*
X-299216Y171566D01*
X-299222Y171475D01*
X-299226Y171454D01*
X-299224Y171440D01*
X-299227Y171405D01*
X-299227Y104775D01*
X-299212Y104657D01*
X-299204Y104538D01*
X-299192Y104500D01*
X-299187Y104459D01*
X-299143Y104349D01*
X-299106Y104236D01*
X-299085Y104201D01*
X-299070Y104164D01*
X-299000Y104068D01*
X-298936Y103967D01*
X-298907Y103939D01*
X-298883Y103906D01*
X-298791Y103831D01*
X-298704Y103749D01*
X-298669Y103729D01*
X-298638Y103704D01*
X-298530Y103653D01*
X-298426Y103595D01*
X-298387Y103585D01*
X-298350Y103568D01*
X-298233Y103546D01*
X-298118Y103516D01*
X-298058Y103512D01*
X-298038Y103508D01*
X-298017Y103510D01*
X-297957Y103506D01*
X-151606Y103506D01*
X-151488Y103521D01*
X-151369Y103528D01*
X-151331Y103541D01*
X-151291Y103546D01*
X-151180Y103589D01*
X-151067Y103626D01*
X-151033Y103648D01*
X-150995Y103663D01*
X-150899Y103733D01*
X-150798Y103796D01*
X-150770Y103826D01*
X-150738Y103849D01*
X-150662Y103941D01*
X-150580Y104028D01*
X-150561Y104063D01*
X-150535Y104094D01*
X-150484Y104202D01*
X-150427Y104306D01*
X-150417Y104346D01*
X-150399Y104382D01*
X-150377Y104499D01*
X-150347Y104614D01*
X-150343Y104675D01*
X-150340Y104695D01*
X-150341Y104715D01*
X-150337Y104775D01*
X-150337Y158275D01*
X-119063Y158275D01*
X-118944Y158289D01*
X-118826Y158297D01*
X-118787Y158309D01*
X-118747Y158314D01*
X-118636Y158358D01*
X-118523Y158395D01*
X-118489Y158417D01*
X-118451Y158431D01*
X-118355Y158501D01*
X-118254Y158565D01*
X-118227Y158594D01*
X-118194Y158618D01*
X-118118Y158710D01*
X-118036Y158797D01*
X-118017Y158832D01*
X-117991Y158863D01*
X-117940Y158971D01*
X-117883Y159075D01*
X-117873Y159114D01*
X-117856Y159151D01*
X-117833Y159268D01*
X-117803Y159383D01*
X-117800Y159443D01*
X-117796Y159463D01*
X-117797Y159484D01*
X-117793Y159544D01*
X-117793Y240774D01*
X-86998Y240818D01*
X-86901Y240831D01*
X-86803Y240834D01*
X-86744Y240851D01*
X-86683Y240858D01*
X-86591Y240895D01*
X-86497Y240922D01*
X-86444Y240953D01*
X-86387Y240976D01*
X-86308Y241034D01*
X-86223Y241083D01*
X-86146Y241151D01*
X-86130Y241163D01*
X-86123Y241172D01*
X-86103Y241190D01*
X-63071Y264222D01*
X-48264Y264222D01*
X-48235Y264225D01*
X-48206Y264223D01*
X-48078Y264245D01*
X-47949Y264262D01*
X-47921Y264272D01*
X-47892Y264278D01*
X-47774Y264331D01*
X-47653Y264379D01*
X-47629Y264396D01*
X-47602Y264408D01*
X-47501Y264489D01*
X-47396Y264565D01*
X-47377Y264588D01*
X-47354Y264607D01*
X-47276Y264711D01*
X-47193Y264810D01*
X-47181Y264837D01*
X-47163Y264861D01*
X-47092Y265005D01*
X-46998Y265231D01*
X-45363Y266867D01*
X-43225Y267752D01*
X-40912Y267752D01*
X-38775Y266867D01*
X-37139Y265231D01*
X-36254Y263094D01*
X-36254Y260781D01*
X-37139Y258644D01*
X-38775Y257008D01*
X-40912Y256123D01*
X-43225Y256123D01*
X-45371Y257012D01*
X-45380Y257014D01*
X-45388Y257019D01*
X-45534Y257056D01*
X-45678Y257096D01*
X-45687Y257096D01*
X-45696Y257098D01*
X-45857Y257108D01*
X-46527Y257108D01*
X-46576Y257102D01*
X-46626Y257104D01*
X-46733Y257082D01*
X-46842Y257068D01*
X-46888Y257050D01*
X-46937Y257040D01*
X-47036Y256992D01*
X-47138Y256951D01*
X-47178Y256922D01*
X-47223Y256900D01*
X-47306Y256829D01*
X-47395Y256765D01*
X-47427Y256726D01*
X-47465Y256694D01*
X-47528Y256604D01*
X-47598Y256520D01*
X-47619Y256475D01*
X-47648Y256434D01*
X-47687Y256331D01*
X-47733Y256232D01*
X-47743Y256183D01*
X-47760Y256137D01*
X-47773Y256027D01*
X-47793Y255920D01*
X-47790Y255870D01*
X-47796Y255821D01*
X-47780Y255712D01*
X-47774Y255602D01*
X-47758Y255555D01*
X-47751Y255506D01*
X-47699Y255353D01*
X-47339Y254484D01*
X-47339Y252260D01*
X-47327Y252162D01*
X-47324Y252063D01*
X-47307Y252004D01*
X-47299Y251944D01*
X-47263Y251852D01*
X-47235Y251757D01*
X-47204Y251705D01*
X-47182Y251649D01*
X-47124Y251569D01*
X-47074Y251483D01*
X-47007Y251408D01*
X-46995Y251391D01*
X-46986Y251383D01*
X-46967Y251362D01*
X-33994Y238389D01*
X-33994Y217428D01*
X-33989Y217386D01*
X-33990Y217369D01*
X-33979Y217304D01*
X-33972Y217191D01*
X-33959Y217152D01*
X-33954Y217112D01*
X-33939Y217073D01*
X-33936Y217056D01*
X-33908Y216994D01*
X-33874Y216888D01*
X-33852Y216854D01*
X-33837Y216817D01*
X-33813Y216783D01*
X-33805Y216766D01*
X-33762Y216711D01*
X-33704Y216620D01*
X-33674Y216592D01*
X-33650Y216559D01*
X-33620Y216534D01*
X-33606Y216517D01*
X-33548Y216473D01*
X-33472Y216402D01*
X-33436Y216382D01*
X-33405Y216356D01*
X-33372Y216340D01*
X-33352Y216326D01*
X-33208Y216255D01*
X-33200Y216252D01*
X-33193Y216248D01*
X-33187Y216247D01*
X-30837Y215273D01*
X-29202Y213638D01*
X-28317Y211500D01*
X-28317Y209187D01*
X-29202Y207050D01*
X-30837Y205414D01*
X-32975Y204529D01*
X-35288Y204529D01*
X-36087Y204860D01*
X-36135Y204873D01*
X-36179Y204894D01*
X-36287Y204915D01*
X-36393Y204944D01*
X-36443Y204945D01*
X-36492Y204954D01*
X-36601Y204947D01*
X-36711Y204949D01*
X-36760Y204937D01*
X-36809Y204934D01*
X-36914Y204900D01*
X-37021Y204875D01*
X-37064Y204851D01*
X-37112Y204836D01*
X-37205Y204777D01*
X-37302Y204726D01*
X-37338Y204693D01*
X-37380Y204666D01*
X-37456Y204586D01*
X-37537Y204512D01*
X-37564Y204470D01*
X-37598Y204434D01*
X-37651Y204338D01*
X-37712Y204246D01*
X-37728Y204199D01*
X-37752Y204156D01*
X-37779Y204050D01*
X-37815Y203946D01*
X-37819Y203896D01*
X-37831Y203848D01*
X-37842Y203687D01*
X-37842Y202713D01*
X-37835Y202663D01*
X-37838Y202614D01*
X-37815Y202506D01*
X-37802Y202397D01*
X-37783Y202351D01*
X-37773Y202302D01*
X-37725Y202204D01*
X-37685Y202102D01*
X-37655Y202061D01*
X-37634Y202017D01*
X-37562Y201933D01*
X-37498Y201844D01*
X-37460Y201813D01*
X-37427Y201775D01*
X-37337Y201711D01*
X-37253Y201641D01*
X-37208Y201620D01*
X-37167Y201592D01*
X-37064Y201553D01*
X-36965Y201506D01*
X-36916Y201497D01*
X-36870Y201479D01*
X-36760Y201467D01*
X-36653Y201446D01*
X-36603Y201449D01*
X-36554Y201444D01*
X-36445Y201459D01*
X-36335Y201466D01*
X-36288Y201481D01*
X-36239Y201488D01*
X-36087Y201540D01*
X-35288Y201871D01*
X-32975Y201871D01*
X-30837Y200986D01*
X-29202Y199350D01*
X-28317Y197213D01*
X-28317Y194900D01*
X-29202Y192762D01*
X-30837Y191127D01*
X-32394Y190482D01*
X-32515Y190413D01*
X-32638Y190348D01*
X-32653Y190335D01*
X-32670Y190324D01*
X-32770Y190228D01*
X-32873Y190134D01*
X-32884Y190117D01*
X-32899Y190103D01*
X-32971Y189985D01*
X-33048Y189869D01*
X-33054Y189849D01*
X-33065Y189832D01*
X-33106Y189699D01*
X-33151Y189568D01*
X-33153Y189548D01*
X-33159Y189528D01*
X-33165Y189389D01*
X-33176Y189251D01*
X-33173Y189231D01*
X-33174Y189210D01*
X-33146Y189074D01*
X-33122Y188937D01*
X-33114Y188919D01*
X-33109Y188899D01*
X-33048Y188774D01*
X-32991Y188647D01*
X-32979Y188632D01*
X-32970Y188613D01*
X-32880Y188508D01*
X-32793Y188399D01*
X-32776Y188387D01*
X-32763Y188371D01*
X-32650Y188291D01*
X-32539Y188208D01*
X-32513Y188195D01*
X-32503Y188188D01*
X-32484Y188181D01*
X-32394Y188137D01*
X-30837Y187492D01*
X-29202Y185856D01*
X-28317Y183719D01*
X-28317Y181406D01*
X-29202Y179269D01*
X-30837Y177633D01*
X-32975Y176748D01*
X-35288Y176748D01*
X-36087Y177079D01*
X-36135Y177092D01*
X-36179Y177113D01*
X-36287Y177133D01*
X-36393Y177163D01*
X-36443Y177163D01*
X-36492Y177173D01*
X-36601Y177166D01*
X-36711Y177168D01*
X-36760Y177156D01*
X-36809Y177153D01*
X-36914Y177119D01*
X-37021Y177093D01*
X-37064Y177070D01*
X-37112Y177055D01*
X-37205Y176996D01*
X-37302Y176945D01*
X-37338Y176911D01*
X-37380Y176885D01*
X-37456Y176805D01*
X-37537Y176731D01*
X-37564Y176689D01*
X-37598Y176653D01*
X-37651Y176557D01*
X-37712Y176465D01*
X-37728Y176418D01*
X-37752Y176375D01*
X-37779Y176268D01*
X-37815Y176164D01*
X-37819Y176115D01*
X-37831Y176067D01*
X-37842Y175906D01*
X-37842Y174932D01*
X-37835Y174882D01*
X-37838Y174833D01*
X-37815Y174725D01*
X-37802Y174616D01*
X-37783Y174570D01*
X-37773Y174521D01*
X-37725Y174422D01*
X-37685Y174320D01*
X-37656Y174280D01*
X-37634Y174235D01*
X-37562Y174152D01*
X-37498Y174063D01*
X-37459Y174031D01*
X-37427Y173993D01*
X-37338Y173930D01*
X-37253Y173860D01*
X-37208Y173839D01*
X-37167Y173810D01*
X-37064Y173771D01*
X-36965Y173725D01*
X-36916Y173715D01*
X-36870Y173698D01*
X-36760Y173685D01*
X-36653Y173665D01*
X-36603Y173668D01*
X-36554Y173662D01*
X-36445Y173678D01*
X-36335Y173685D01*
X-36288Y173700D01*
X-36239Y173707D01*
X-36087Y173759D01*
X-35288Y174090D01*
X-32975Y174090D01*
X-30837Y173205D01*
X-29202Y171569D01*
X-28317Y169432D01*
X-28317Y167118D01*
X-29202Y164981D01*
X-30837Y163345D01*
X-33112Y162404D01*
X-33137Y162389D01*
X-33165Y162380D01*
X-33275Y162310D01*
X-33388Y162246D01*
X-33409Y162225D01*
X-33434Y162210D01*
X-33523Y162115D01*
X-33616Y162025D01*
X-33632Y161999D01*
X-33652Y161978D01*
X-33715Y161864D01*
X-33783Y161754D01*
X-33791Y161725D01*
X-33805Y161700D01*
X-33838Y161574D01*
X-33876Y161450D01*
X-33878Y161420D01*
X-33885Y161392D01*
X-33895Y161231D01*
X-33895Y130750D01*
X-33883Y130652D01*
X-33880Y130553D01*
X-33863Y130495D01*
X-33855Y130435D01*
X-33819Y130343D01*
X-33791Y130248D01*
X-33761Y130196D01*
X-33738Y130139D01*
X-33680Y130059D01*
X-33630Y129974D01*
X-33563Y129898D01*
X-33551Y129882D01*
X-33542Y129874D01*
X-33523Y129853D01*
X-32268Y128598D01*
X-31383Y126461D01*
X-31383Y124147D01*
X-32268Y122010D01*
X-33904Y120375D01*
X-36041Y119489D01*
X-37306Y119489D01*
X-37424Y119474D01*
X-37543Y119467D01*
X-37582Y119455D01*
X-37622Y119450D01*
X-37733Y119406D01*
X-37846Y119369D01*
X-37880Y119347D01*
X-37917Y119333D01*
X-38014Y119263D01*
X-38114Y119199D01*
X-38142Y119169D01*
X-38175Y119146D01*
X-38251Y119054D01*
X-38332Y118967D01*
X-38352Y118932D01*
X-38378Y118901D01*
X-38428Y118793D01*
X-38486Y118689D01*
X-38496Y118650D01*
X-38513Y118613D01*
X-38536Y118496D01*
X-38565Y118381D01*
X-38569Y118321D01*
X-38573Y118301D01*
X-38572Y118280D01*
X-38576Y118220D01*
X-38576Y62127D01*
X-38561Y62009D01*
X-38553Y61890D01*
X-38541Y61852D01*
X-38536Y61812D01*
X-38492Y61701D01*
X-38455Y61588D01*
X-38434Y61554D01*
X-38419Y61516D01*
X-38349Y61420D01*
X-38285Y61319D01*
X-38256Y61291D01*
X-38232Y61259D01*
X-38140Y61183D01*
X-38053Y61101D01*
X-38018Y61082D01*
X-37987Y61056D01*
X-37879Y61005D01*
X-37775Y60948D01*
X-37736Y60937D01*
X-37699Y60920D01*
X-37582Y60898D01*
X-37467Y60868D01*
X-37407Y60864D01*
X-37387Y60860D01*
X-37366Y60862D01*
X-37306Y60858D01*
X-10001Y60858D01*
X-10001Y26194D01*
X-9986Y26076D01*
X-9978Y25957D01*
X-9966Y25918D01*
X-9961Y25878D01*
X-9917Y25767D01*
X-9880Y25654D01*
X-9859Y25620D01*
X-9844Y25583D01*
X-9774Y25486D01*
X-9710Y25386D01*
X-9681Y25358D01*
X-9657Y25325D01*
X-9565Y25249D01*
X-9478Y25168D01*
X-9443Y25148D01*
X-9412Y25122D01*
X-9304Y25072D01*
X-9200Y25014D01*
X-9161Y25004D01*
X-9124Y24987D01*
X-9007Y24965D01*
X-8892Y24935D01*
X-8832Y24931D01*
X-8812Y24927D01*
X-8791Y24928D01*
X-8731Y24925D01*
X36513Y24925D01*
X36631Y24939D01*
G37*
G36*
X114418Y163846D02*
X114418Y163846D01*
X114537Y163853D01*
X114575Y163866D01*
X114616Y163871D01*
X114726Y163914D01*
X114839Y163951D01*
X114874Y163973D01*
X114911Y163988D01*
X115007Y164058D01*
X115108Y164121D01*
X115136Y164151D01*
X115169Y164174D01*
X115245Y164266D01*
X115326Y164353D01*
X115346Y164388D01*
X115371Y164419D01*
X115422Y164527D01*
X115480Y164631D01*
X115490Y164671D01*
X115507Y164707D01*
X115529Y164824D01*
X115559Y164939D01*
X115563Y165000D01*
X115567Y165020D01*
X115565Y165040D01*
X115569Y165100D01*
X115569Y241300D01*
X115554Y241418D01*
X115547Y241537D01*
X115534Y241575D01*
X115529Y241616D01*
X115486Y241726D01*
X115449Y241839D01*
X115427Y241874D01*
X115412Y241911D01*
X115343Y242007D01*
X115279Y242108D01*
X115249Y242136D01*
X115226Y242169D01*
X115134Y242245D01*
X115047Y242326D01*
X115012Y242346D01*
X114981Y242371D01*
X114873Y242422D01*
X114769Y242480D01*
X114729Y242490D01*
X114693Y242507D01*
X114576Y242529D01*
X114461Y242559D01*
X114401Y242563D01*
X114381Y242567D01*
X114360Y242565D01*
X114300Y242569D01*
X82550Y242569D01*
X82432Y242554D01*
X82313Y242547D01*
X82275Y242534D01*
X82234Y242529D01*
X82124Y242486D01*
X82011Y242449D01*
X81976Y242427D01*
X81939Y242412D01*
X81843Y242343D01*
X81742Y242279D01*
X81714Y242249D01*
X81681Y242226D01*
X81606Y242134D01*
X81524Y242047D01*
X81504Y242012D01*
X81479Y241981D01*
X81428Y241873D01*
X81370Y241769D01*
X81360Y241729D01*
X81343Y241693D01*
X81321Y241576D01*
X81291Y241461D01*
X81287Y241401D01*
X81283Y241381D01*
X81285Y241360D01*
X81281Y241300D01*
X81281Y211613D01*
X58738Y211613D01*
X58619Y211598D01*
X58501Y211591D01*
X58462Y211578D01*
X58422Y211573D01*
X58311Y211529D01*
X58198Y211493D01*
X58164Y211471D01*
X58126Y211456D01*
X58030Y211386D01*
X57929Y211323D01*
X57902Y211293D01*
X57869Y211269D01*
X57793Y211178D01*
X57711Y211091D01*
X57692Y211055D01*
X57666Y211024D01*
X57615Y210917D01*
X57558Y210812D01*
X57548Y210773D01*
X57531Y210737D01*
X57508Y210620D01*
X57478Y210504D01*
X57475Y210444D01*
X57471Y210424D01*
X57472Y210404D01*
X57468Y210344D01*
X57468Y165100D01*
X57483Y164982D01*
X57491Y164863D01*
X57503Y164825D01*
X57508Y164784D01*
X57552Y164674D01*
X57589Y164561D01*
X57610Y164526D01*
X57625Y164489D01*
X57695Y164393D01*
X57759Y164292D01*
X57788Y164264D01*
X57812Y164231D01*
X57904Y164156D01*
X57990Y164074D01*
X58026Y164054D01*
X58057Y164029D01*
X58165Y163978D01*
X58269Y163920D01*
X58308Y163910D01*
X58345Y163893D01*
X58461Y163871D01*
X58577Y163841D01*
X58637Y163837D01*
X58657Y163833D01*
X58677Y163835D01*
X58738Y163831D01*
X114300Y163831D01*
X114418Y163846D01*
G37*
G36*
X-62528Y167021D02*
X-62528Y167021D01*
X-62410Y167028D01*
X-62371Y167041D01*
X-62331Y167046D01*
X-62220Y167089D01*
X-62107Y167126D01*
X-62073Y167148D01*
X-62035Y167163D01*
X-61939Y167233D01*
X-61838Y167296D01*
X-61811Y167326D01*
X-61778Y167349D01*
X-61702Y167441D01*
X-61620Y167528D01*
X-61601Y167563D01*
X-61575Y167594D01*
X-61524Y167702D01*
X-61467Y167806D01*
X-61457Y167846D01*
X-61440Y167882D01*
X-61417Y167999D01*
X-61387Y168114D01*
X-61384Y168175D01*
X-61380Y168195D01*
X-61381Y168215D01*
X-61377Y168275D01*
X-61377Y168638D01*
X-60740Y170177D01*
X-60737Y170186D01*
X-60733Y170194D01*
X-60695Y170339D01*
X-60656Y170483D01*
X-60656Y170493D01*
X-60653Y170502D01*
X-60643Y170662D01*
X-60643Y209550D01*
X-60658Y209668D01*
X-60666Y209787D01*
X-60678Y209825D01*
X-60683Y209866D01*
X-60727Y209976D01*
X-60764Y210089D01*
X-60785Y210124D01*
X-60800Y210161D01*
X-60870Y210257D01*
X-60934Y210358D01*
X-60963Y210386D01*
X-60987Y210419D01*
X-61079Y210495D01*
X-61165Y210576D01*
X-61201Y210596D01*
X-61232Y210621D01*
X-61340Y210672D01*
X-61444Y210730D01*
X-61483Y210740D01*
X-61520Y210757D01*
X-61636Y210779D01*
X-61752Y210809D01*
X-61812Y210813D01*
X-61832Y210817D01*
X-61852Y210815D01*
X-61913Y210819D01*
X-82075Y210819D01*
X-82075Y237331D01*
X-82089Y237449D01*
X-82097Y237568D01*
X-82109Y237607D01*
X-82114Y237647D01*
X-82158Y237758D01*
X-82195Y237871D01*
X-82217Y237905D01*
X-82231Y237942D01*
X-82301Y238039D01*
X-82365Y238139D01*
X-82394Y238167D01*
X-82418Y238200D01*
X-82510Y238276D01*
X-82597Y238357D01*
X-82632Y238377D01*
X-82663Y238403D01*
X-82771Y238453D01*
X-82875Y238511D01*
X-82914Y238521D01*
X-82951Y238538D01*
X-83068Y238561D01*
X-83183Y238590D01*
X-83243Y238594D01*
X-83263Y238598D01*
X-83284Y238597D01*
X-83344Y238601D01*
X-114300Y238601D01*
X-114418Y238586D01*
X-114537Y238578D01*
X-114575Y238566D01*
X-114616Y238561D01*
X-114726Y238517D01*
X-114839Y238480D01*
X-114874Y238459D01*
X-114911Y238444D01*
X-115007Y238374D01*
X-115108Y238310D01*
X-115136Y238281D01*
X-115169Y238257D01*
X-115245Y238165D01*
X-115326Y238078D01*
X-115346Y238043D01*
X-115371Y238012D01*
X-115422Y237904D01*
X-115480Y237800D01*
X-115490Y237761D01*
X-115507Y237724D01*
X-115529Y237607D01*
X-115559Y237492D01*
X-115563Y237432D01*
X-115567Y237412D01*
X-115565Y237391D01*
X-115569Y237331D01*
X-115569Y168275D01*
X-115554Y168157D01*
X-115547Y168038D01*
X-115534Y168000D01*
X-115529Y167959D01*
X-115486Y167849D01*
X-115449Y167736D01*
X-115427Y167701D01*
X-115412Y167664D01*
X-115343Y167568D01*
X-115279Y167467D01*
X-115249Y167439D01*
X-115226Y167406D01*
X-115134Y167331D01*
X-115047Y167249D01*
X-115012Y167229D01*
X-114981Y167204D01*
X-114873Y167153D01*
X-114769Y167095D01*
X-114729Y167085D01*
X-114693Y167068D01*
X-114576Y167046D01*
X-114461Y167016D01*
X-114401Y167012D01*
X-114381Y167008D01*
X-114360Y167010D01*
X-114300Y167006D01*
X-62646Y167006D01*
X-62528Y167021D01*
G37*
%LPC*%
G36*
X-104423Y-29528D02*
X-104423Y-29528D01*
X-108811Y-27711D01*
X-112169Y-24352D01*
X-113987Y-19964D01*
X-113987Y-15215D01*
X-112169Y-10827D01*
X-108811Y-7468D01*
X-104423Y-5651D01*
X-99673Y-5651D01*
X-95285Y-7468D01*
X-91927Y-10827D01*
X-90109Y-15215D01*
X-90109Y-19964D01*
X-91927Y-24352D01*
X-95285Y-27711D01*
X-99673Y-29528D01*
X-104423Y-29528D01*
G37*
%LPD*%
%LPC*%
G36*
X-147977Y-54674D02*
X-147977Y-54674D01*
X-152365Y-52857D01*
X-155723Y-49498D01*
X-157541Y-45110D01*
X-157541Y-40361D01*
X-155723Y-35973D01*
X-152365Y-32614D01*
X-147977Y-30797D01*
X-143227Y-30797D01*
X-138839Y-32614D01*
X-135481Y-35973D01*
X-133663Y-40361D01*
X-133663Y-45110D01*
X-135481Y-49498D01*
X-138839Y-52857D01*
X-143227Y-54674D01*
X-147977Y-54674D01*
G37*
%LPD*%
%LPC*%
G36*
X51174Y118393D02*
X51174Y118393D01*
X49037Y119278D01*
X47401Y120914D01*
X46516Y123051D01*
X46516Y125364D01*
X47401Y127502D01*
X49037Y129137D01*
X51174Y130022D01*
X53487Y130022D01*
X55625Y129137D01*
X57260Y127502D01*
X58145Y125364D01*
X58145Y123051D01*
X57260Y120914D01*
X55625Y119278D01*
X53487Y118393D01*
X51174Y118393D01*
G37*
%LPD*%
%LPC*%
G36*
X-252775Y-3433D02*
X-252775Y-3433D01*
X-254913Y-2548D01*
X-256548Y-913D01*
X-257433Y1225D01*
X-257433Y3538D01*
X-256548Y5675D01*
X-254913Y7311D01*
X-252775Y8196D01*
X-250462Y8196D01*
X-248325Y7311D01*
X-246689Y5675D01*
X-245804Y3538D01*
X-245804Y1225D01*
X-246689Y-913D01*
X-248325Y-2548D01*
X-250462Y-3433D01*
X-252775Y-3433D01*
G37*
%LPD*%
D10*
X-134938Y305594D03*
X-134938Y280194D03*
D11*
X75406Y335756D03*
X75406Y361156D03*
X75406Y386556D03*
X-111125Y392906D03*
D12*
X-25146Y36513D03*
X25146Y36513D03*
X102048Y-16002D03*
X145602Y-41148D03*
X-145602Y-42736D03*
X-102048Y-17590D03*
D13*
X-17475Y368229D03*
X-116289Y357657D03*
X-27781Y369888D03*
X-42899Y460375D03*
X96044Y418306D03*
X-135731Y390525D03*
X-101600Y441325D03*
X-33338Y486569D03*
X34131Y486569D03*
X135731Y390525D03*
X121444Y441325D03*
X17463Y393700D03*
X-7938Y394494D03*
X109538Y334169D03*
X61119Y401075D03*
X96044Y402869D03*
X-39788Y380106D03*
X34925Y121444D03*
D14*
X34925Y159635D01*
X21431Y159635D01*
X21431Y265113D02*
X7588Y265113D01*
D13*
X7588Y265113D03*
D14*
X21431Y265113D02*
X21431Y159635D01*
D13*
X3406Y304006D03*
D14*
X-62Y307474D01*
X-62Y308523D01*
X-39788Y348249D02*
X-39788Y380106D01*
X-39788Y348249D02*
X-62Y308523D01*
D13*
X-17463Y211931D03*
X-794Y211931D03*
X9525Y204788D03*
X-2381Y200025D03*
X-16669Y200025D03*
X-18256Y187325D03*
X11906Y188913D03*
X7144Y175419D03*
X-7938Y175419D03*
X-19844Y165100D03*
X0Y165100D03*
X13494Y165100D03*
X-251619Y2381D03*
X254000Y-2381D03*
X159544Y242888D03*
X180975Y228600D03*
X206375Y213519D03*
X232569Y198438D03*
X259556Y182563D03*
X282575Y165100D03*
X288925Y132556D03*
X277019Y110331D03*
X243681Y110331D03*
X210344Y110331D03*
X177006Y111125D03*
X157956Y218281D03*
X179388Y206375D03*
X180975Y176213D03*
X203994Y189706D03*
X184150Y150019D03*
X192088Y128588D03*
X261144Y126206D03*
X262731Y150019D03*
X203200Y153194D03*
X-233363Y199231D03*
X-260350Y183356D03*
X-283369Y165894D03*
X-289719Y133350D03*
X-277813Y111125D03*
X-244475Y111125D03*
X-211138Y111125D03*
X-175419Y111919D03*
X-171450Y133350D03*
X-172244Y162719D03*
X-167481Y191294D03*
X-158750Y219075D03*
X-180181Y207169D03*
X-181769Y177006D03*
X-204788Y190500D03*
X-184944Y150813D03*
X-192881Y129381D03*
X-261938Y127000D03*
X-263525Y150813D03*
X-203994Y153988D03*
X-108744Y288925D03*
X-161925Y234950D03*
X-87313Y289719D03*
X-76994Y290513D03*
X-100013Y280988D03*
X-59531Y289719D03*
X142875Y292100D03*
X122238Y292100D03*
X121444Y277813D03*
X142081Y277813D03*
X107156Y292100D03*
X87313Y292100D03*
X96838Y279400D03*
X73819Y292100D03*
X56356Y292100D03*
X103956Y157956D03*
X20406Y303213D03*
D14*
X45244Y303213D01*
X56356Y292100D01*
D13*
X-1588Y188119D03*
D14*
X176213Y157956D02*
X184150Y150019D01*
X176213Y157956D02*
X103956Y157956D01*
D13*
X-96838Y93894D03*
X-107925Y156369D03*
D14*
X-114275Y162719D01*
X-172244Y162719D01*
X-107925Y104981D02*
X-96838Y93894D01*
X-107925Y104981D02*
X-107925Y156369D01*
D13*
X22225Y119856D03*
X11204Y352425D03*
X44450Y151606D03*
X58738Y151606D03*
X57944Y140494D03*
X45244Y140494D03*
X-64294Y153194D03*
X-49213Y153194D03*
X-48419Y142081D03*
X-63500Y142081D03*
X180975Y28575D03*
X208756Y27781D03*
X210344Y50006D03*
X177800Y50006D03*
X194469Y73819D03*
X177800Y91281D03*
X258763Y51594D03*
X277813Y33338D03*
X292894Y16669D03*
X295275Y53181D03*
X219075Y91281D03*
X295275Y91281D03*
X277019Y74613D03*
X259556Y91281D03*
X-291306Y92869D03*
X-291306Y54769D03*
X-273050Y76200D03*
X-255588Y92869D03*
X-215106Y92869D03*
X-190500Y75406D03*
X-206375Y51594D03*
X-173831Y92869D03*
X-173831Y51594D03*
X-177006Y30163D03*
X-209550Y29369D03*
X-273844Y34925D03*
X-288925Y18256D03*
X-254794Y53181D03*
X56356Y352425D03*
X3068Y357874D03*
X-15628Y349797D03*
X-46454Y309940D03*
X-80240Y310071D03*
X-80525Y323056D03*
X108744Y237331D03*
X96838Y237331D03*
X84931Y237331D03*
X84931Y223838D03*
X96838Y223838D03*
X108744Y223838D03*
X29369Y261938D03*
D15*
X82550Y221456D02*
X84931Y223838D01*
X82550Y221456D02*
X44768Y221456D01*
X41398Y224826D01*
D16*
X41398Y249523D01*
D15*
X29369Y261552D02*
X29369Y261938D01*
D16*
X29369Y261552D02*
X41398Y249523D01*
D13*
X65088Y202406D03*
X81756Y202406D03*
X96044Y211138D03*
X68263Y174625D03*
X87313Y174625D03*
X105569Y174625D03*
X92075Y189706D03*
X107156Y200025D03*
X-111919Y222250D03*
X-99219Y222250D03*
X-87313Y222250D03*
X-87313Y234950D03*
X-99219Y234950D03*
X-111919Y234950D03*
X-42069Y261938D03*
D15*
X-43341Y260665D01*
X-61598Y260665D01*
X-87313Y234950D01*
D13*
X-69056Y200819D03*
X-108744Y209550D03*
X-90488Y208756D03*
X-100013Y196850D03*
X-107950Y181769D03*
X-86519Y189706D03*
X-96838Y173831D03*
X-69056Y174625D03*
X-34131Y182563D03*
X-54769Y182563D03*
X-43656Y174625D03*
X-55563Y167481D03*
X-37198Y125304D03*
X-34131Y168275D03*
D16*
X-37198Y165208D02*
X-37198Y125304D01*
X-37198Y165208D02*
X-34131Y168275D01*
D13*
X-56050Y309185D03*
X-65525Y321783D03*
X43531Y315689D03*
X-34131Y210344D03*
X-54769Y209550D03*
X-34131Y196056D03*
X-54769Y196056D03*
D17*
X-36979Y213192D02*
X-34131Y210344D01*
D13*
X-53154Y253327D03*
D17*
X-36979Y237153D01*
X-36979Y213192D01*
D13*
X-43656Y203200D03*
X30163Y182563D03*
X51594Y182563D03*
X40481Y176213D03*
X29369Y167481D03*
X51594Y167481D03*
X52331Y124208D03*
X29369Y211138D03*
X51594Y211138D03*
X40481Y203994D03*
X29369Y194469D03*
X51594Y194469D03*
X34060Y246483D03*
D15*
X34060Y215829D02*
X29369Y211138D01*
X34060Y215829D02*
X34060Y246483D01*
D13*
X-6496Y355454D03*
X31235Y464330D03*
X-103735Y305594D03*
M02*
