G04 EAGLE Gerber RS-274X export*
G75*
%MOMM*%
%FSLAX34Y34*%
%LPD*%
%INBottom Copper*%
%IPPOS*%
%AMOC8*
5,1,8,0,0,1.08239X$1,22.5*%
G01*
%ADD10R,1.100000X1.000000*%
%ADD11R,1.300000X1.500000*%
%ADD12R,1.000000X1.100000*%
%ADD13R,1.500000X1.300000*%
%ADD14R,1.530000X1.530000*%
%ADD15C,1.530000*%
%ADD16C,1.524000*%
%ADD17P,1.649562X8X22.500000*%
%ADD18R,2.540000X1.270000*%
%ADD19R,0.812800X0.254000*%
%ADD20R,0.254000X0.812800*%
%ADD21R,5.384800X5.384800*%
%ADD22R,1.399997X0.400000*%
%ADD23C,1.981200*%
%ADD24C,1.000000*%
%ADD25C,0.756400*%
%ADD26C,0.254000*%
%ADD27C,0.304800*%
%ADD28C,0.406400*%
%ADD29C,0.609600*%
%ADD30C,0.190500*%

G36*
X52309Y-2448D02*
X52309Y-2448D01*
X52332Y-2451D01*
X52430Y-2428D01*
X52529Y-2412D01*
X52549Y-2401D01*
X52572Y-2396D01*
X52658Y-2344D01*
X52746Y-2297D01*
X52762Y-2280D01*
X52782Y-2268D01*
X52846Y-2191D01*
X52915Y-2119D01*
X52925Y-2098D01*
X52940Y-2080D01*
X52977Y-1987D01*
X53019Y-1896D01*
X53021Y-1873D01*
X53030Y-1851D01*
X53047Y-1684D01*
X52142Y103268D01*
X69143Y120268D01*
X69185Y120327D01*
X69234Y120379D01*
X69256Y120426D01*
X69286Y120468D01*
X69308Y120537D01*
X69338Y120602D01*
X69344Y120654D01*
X69359Y120703D01*
X69357Y120775D01*
X69365Y120846D01*
X69354Y120897D01*
X69352Y120949D01*
X69328Y121017D01*
X69313Y121087D01*
X69286Y121131D01*
X69268Y121180D01*
X69223Y121236D01*
X69186Y121298D01*
X69147Y121332D01*
X69114Y121372D01*
X69054Y121411D01*
X69000Y121458D01*
X68951Y121477D01*
X68907Y121505D01*
X68838Y121523D01*
X68771Y121550D01*
X68700Y121557D01*
X68669Y121565D01*
X68646Y121563D01*
X68605Y121568D01*
X67049Y121568D01*
X64912Y122453D01*
X63276Y124089D01*
X62391Y126226D01*
X62391Y128539D01*
X63276Y130677D01*
X64912Y132312D01*
X67049Y133197D01*
X69362Y133197D01*
X71500Y132312D01*
X73135Y130677D01*
X74020Y128539D01*
X74020Y126984D01*
X74032Y126913D01*
X74034Y126841D01*
X74052Y126792D01*
X74060Y126741D01*
X74094Y126678D01*
X74118Y126610D01*
X74151Y126570D01*
X74175Y126524D01*
X74227Y126474D01*
X74272Y126418D01*
X74316Y126390D01*
X74354Y126354D01*
X74419Y126324D01*
X74479Y126285D01*
X74530Y126273D01*
X74577Y126251D01*
X74648Y126243D01*
X74718Y126225D01*
X74769Y126229D01*
X74821Y126224D01*
X74891Y126239D01*
X74963Y126244D01*
X75011Y126265D01*
X75062Y126276D01*
X75123Y126313D01*
X75189Y126341D01*
X75245Y126386D01*
X75273Y126402D01*
X75288Y126420D01*
X75320Y126446D01*
X75945Y127070D01*
X75998Y127144D01*
X76057Y127214D01*
X76069Y127244D01*
X76088Y127270D01*
X76115Y127357D01*
X76149Y127442D01*
X76154Y127483D01*
X76160Y127505D01*
X76160Y127537D01*
X76168Y127608D01*
X76168Y159544D01*
X76164Y159563D01*
X76166Y159583D01*
X76144Y159684D01*
X76128Y159787D01*
X76118Y159804D01*
X76114Y159824D01*
X76061Y159913D01*
X76013Y160004D01*
X75998Y160018D01*
X75988Y160035D01*
X75909Y160102D01*
X75834Y160173D01*
X75816Y160182D01*
X75801Y160195D01*
X75705Y160233D01*
X75611Y160277D01*
X75592Y160279D01*
X75573Y160287D01*
X75406Y160305D01*
X22193Y160305D01*
X22193Y246889D01*
X119889Y246889D01*
X119889Y218281D01*
X119890Y218273D01*
X119890Y218271D01*
X119892Y218261D01*
X119890Y218242D01*
X119912Y218141D01*
X119929Y218039D01*
X119938Y218021D01*
X119942Y218001D01*
X119995Y217912D01*
X120044Y217821D01*
X120058Y217807D01*
X120068Y217790D01*
X120147Y217723D01*
X120222Y217652D01*
X120240Y217643D01*
X120255Y217630D01*
X120351Y217592D01*
X120445Y217548D01*
X120465Y217546D01*
X120483Y217538D01*
X120650Y217520D01*
X134622Y217520D01*
X164339Y187803D01*
X164339Y101600D01*
X164342Y101580D01*
X164340Y101561D01*
X164362Y101459D01*
X164379Y101357D01*
X164388Y101340D01*
X164392Y101320D01*
X164445Y101231D01*
X164494Y101140D01*
X164508Y101126D01*
X164518Y101109D01*
X164597Y101042D01*
X164672Y100971D01*
X164690Y100962D01*
X164705Y100949D01*
X164801Y100910D01*
X164895Y100867D01*
X164915Y100865D01*
X164933Y100857D01*
X165100Y100839D01*
X298503Y100839D01*
X298522Y100842D01*
X298542Y100840D01*
X298643Y100862D01*
X298746Y100879D01*
X298763Y100888D01*
X298783Y100892D01*
X298872Y100945D01*
X298963Y100994D01*
X298977Y101008D01*
X298994Y101018D01*
X299061Y101097D01*
X299132Y101172D01*
X299141Y101190D01*
X299154Y101205D01*
X299192Y101301D01*
X299236Y101395D01*
X299238Y101415D01*
X299246Y101433D01*
X299264Y101600D01*
X299264Y171680D01*
X299253Y171745D01*
X299253Y171811D01*
X299234Y171866D01*
X299224Y171922D01*
X299193Y171981D01*
X299171Y172044D01*
X299136Y172089D01*
X299109Y172140D01*
X299061Y172185D01*
X299020Y172238D01*
X298955Y172286D01*
X298931Y172309D01*
X298913Y172318D01*
X298886Y172338D01*
X178339Y242497D01*
X178338Y242497D01*
X178337Y242498D01*
X149993Y258862D01*
X149886Y258903D01*
X149779Y258946D01*
X149769Y258947D01*
X149763Y258949D01*
X149741Y258950D01*
X149718Y258952D01*
X149626Y259044D01*
X149613Y259053D01*
X149604Y259066D01*
X149468Y259165D01*
X149348Y259234D01*
X149348Y259235D01*
X149303Y259341D01*
X149296Y259349D01*
X149294Y259355D01*
X149279Y259372D01*
X149264Y259390D01*
X149264Y259519D01*
X149261Y259535D01*
X149263Y259550D01*
X149238Y259716D01*
X149202Y259850D01*
X149202Y259851D01*
X149246Y259958D01*
X149247Y259968D01*
X149249Y259974D01*
X149250Y259997D01*
X149264Y260125D01*
X149264Y295275D01*
X149261Y295295D01*
X149263Y295314D01*
X149241Y295416D01*
X149224Y295518D01*
X149215Y295535D01*
X149211Y295555D01*
X149158Y295644D01*
X149109Y295735D01*
X149095Y295749D01*
X149085Y295766D01*
X149006Y295833D01*
X148931Y295905D01*
X148913Y295913D01*
X148898Y295926D01*
X148801Y295965D01*
X148708Y296008D01*
X148688Y296010D01*
X148669Y296018D01*
X148503Y296036D01*
X-22177Y296036D01*
X-22267Y296022D01*
X-22358Y296014D01*
X-22387Y296002D01*
X-22419Y295997D01*
X-22500Y295954D01*
X-22584Y295918D01*
X-22616Y295892D01*
X-22637Y295881D01*
X-22659Y295858D01*
X-22715Y295813D01*
X-23547Y294981D01*
X-56535Y294981D01*
X-57367Y295813D01*
X-57441Y295866D01*
X-57511Y295926D01*
X-57541Y295938D01*
X-57567Y295957D01*
X-57654Y295984D01*
X-57739Y296018D01*
X-57780Y296022D01*
X-57802Y296029D01*
X-57834Y296028D01*
X-57905Y296036D01*
X-126005Y296036D01*
X-126095Y296022D01*
X-126186Y296014D01*
X-126216Y296002D01*
X-126248Y295997D01*
X-126328Y295954D01*
X-126412Y295918D01*
X-126421Y295911D01*
X-143458Y295911D01*
X-143475Y295926D01*
X-143505Y295938D01*
X-143531Y295957D01*
X-143619Y295984D01*
X-143703Y296018D01*
X-143744Y296022D01*
X-143766Y296029D01*
X-143799Y296028D01*
X-143870Y296036D01*
X-148431Y296036D01*
X-148451Y296033D01*
X-148471Y296035D01*
X-148572Y296013D01*
X-148674Y295997D01*
X-148692Y295987D01*
X-148711Y295983D01*
X-148800Y295930D01*
X-148891Y295881D01*
X-148905Y295867D01*
X-148922Y295857D01*
X-148990Y295778D01*
X-149061Y295703D01*
X-149069Y295685D01*
X-149082Y295670D01*
X-149121Y295574D01*
X-149164Y295480D01*
X-149167Y295460D01*
X-149174Y295442D01*
X-149193Y295275D01*
X-149193Y260066D01*
X-149174Y259952D01*
X-149161Y259863D01*
X-149167Y259843D01*
X-149168Y259828D01*
X-149174Y259813D01*
X-149193Y259646D01*
X-149193Y257617D01*
X-298828Y172111D01*
X-298881Y172067D01*
X-298941Y172032D01*
X-298976Y171990D01*
X-299019Y171956D01*
X-299056Y171898D01*
X-299101Y171845D01*
X-299121Y171794D01*
X-299150Y171748D01*
X-299167Y171681D01*
X-299193Y171617D01*
X-299201Y171541D01*
X-299209Y171509D01*
X-299207Y171488D01*
X-299211Y171450D01*
X-299211Y103981D01*
X-299208Y103962D01*
X-299210Y103942D01*
X-299188Y103841D01*
X-299172Y103739D01*
X-299162Y103721D01*
X-299158Y103701D01*
X-299105Y103612D01*
X-299056Y103521D01*
X-299042Y103507D01*
X-299032Y103490D01*
X-298953Y103423D01*
X-298878Y103352D01*
X-298860Y103343D01*
X-298845Y103330D01*
X-298749Y103292D01*
X-298655Y103248D01*
X-298635Y103246D01*
X-298617Y103238D01*
X-298450Y103220D01*
X-157956Y103220D01*
X-157937Y103223D01*
X-157917Y103221D01*
X-157816Y103243D01*
X-157714Y103260D01*
X-157696Y103269D01*
X-157676Y103273D01*
X-157587Y103327D01*
X-157496Y103375D01*
X-157482Y103389D01*
X-157465Y103399D01*
X-157398Y103478D01*
X-157327Y103553D01*
X-157318Y103571D01*
X-157305Y103586D01*
X-157267Y103683D01*
X-157223Y103776D01*
X-157221Y103796D01*
X-157213Y103815D01*
X-157195Y103981D01*
X-157195Y197328D01*
X-137003Y217520D01*
X-123031Y217520D01*
X-123012Y217523D01*
X-122992Y217521D01*
X-122891Y217543D01*
X-122789Y217560D01*
X-122771Y217569D01*
X-122751Y217573D01*
X-122662Y217627D01*
X-122571Y217675D01*
X-122557Y217689D01*
X-122540Y217699D01*
X-122473Y217778D01*
X-122402Y217853D01*
X-122393Y217871D01*
X-122380Y217886D01*
X-122342Y217983D01*
X-122298Y218076D01*
X-122296Y218096D01*
X-122288Y218115D01*
X-122270Y218281D01*
X-122270Y242126D01*
X-44765Y242126D01*
X-25368Y222728D01*
X-25368Y129564D01*
X-25349Y129449D01*
X-25332Y129333D01*
X-25329Y129328D01*
X-25328Y129321D01*
X-25273Y129219D01*
X-25220Y129114D01*
X-25216Y129110D01*
X-25213Y129104D01*
X-25128Y129024D01*
X-25045Y128942D01*
X-25038Y128938D01*
X-25034Y128935D01*
X-25017Y128927D01*
X-24898Y128861D01*
X-24379Y128646D01*
X-22743Y127010D01*
X-21858Y124873D01*
X-21858Y122560D01*
X-22743Y120423D01*
X-24379Y118787D01*
X-24898Y118572D01*
X-24997Y118511D01*
X-25097Y118451D01*
X-25101Y118446D01*
X-25107Y118443D01*
X-25181Y118353D01*
X-25257Y118264D01*
X-25259Y118258D01*
X-25263Y118253D01*
X-25305Y118145D01*
X-25349Y118036D01*
X-25350Y118028D01*
X-25352Y118024D01*
X-25352Y118005D01*
X-25368Y117869D01*
X-25368Y75406D01*
X-25364Y75387D01*
X-25366Y75367D01*
X-25344Y75266D01*
X-25328Y75164D01*
X-25318Y75146D01*
X-25314Y75126D01*
X-25261Y75037D01*
X-25213Y74946D01*
X-25198Y74932D01*
X-25188Y74915D01*
X-25109Y74848D01*
X-25034Y74777D01*
X-25016Y74768D01*
X-25001Y74755D01*
X-24905Y74717D01*
X-24811Y74673D01*
X-24792Y74671D01*
X-24773Y74663D01*
X-24606Y74645D01*
X-3936Y74645D01*
X-3936Y-175D01*
X-3933Y-192D01*
X-3935Y-208D01*
X-3920Y-277D01*
X-3912Y-364D01*
X-3901Y-389D01*
X-3897Y-417D01*
X-3885Y-439D01*
X-3883Y-448D01*
X-3859Y-487D01*
X-3852Y-501D01*
X-3814Y-589D01*
X-3795Y-610D01*
X-3781Y-635D01*
X-3758Y-657D01*
X-3757Y-659D01*
X-3746Y-668D01*
X-3712Y-700D01*
X-3648Y-771D01*
X-3624Y-785D01*
X-3603Y-804D01*
X-3517Y-844D01*
X-3433Y-891D01*
X-3406Y-896D01*
X-3380Y-908D01*
X-3285Y-918D01*
X-3192Y-936D01*
X-3164Y-932D01*
X-3136Y-935D01*
X-3042Y-915D01*
X-2948Y-901D01*
X-2922Y-890D01*
X-2921Y-890D01*
X-2918Y-888D01*
X-2916Y-887D01*
X-2895Y-883D01*
X-2867Y-866D01*
X-2794Y-834D01*
X-710Y369D01*
X-621Y442D01*
X-531Y513D01*
X-525Y521D01*
X-520Y525D01*
X-508Y544D01*
X-495Y563D01*
X-369Y596D01*
X-355Y603D01*
X-339Y605D01*
X-186Y672D01*
X-65Y742D01*
X-64Y741D01*
X50Y728D01*
X60Y729D01*
X66Y728D01*
X88Y733D01*
X111Y737D01*
X223Y672D01*
X238Y667D01*
X251Y657D01*
X407Y596D01*
X541Y560D01*
X542Y559D01*
X613Y469D01*
X621Y463D01*
X625Y458D01*
X644Y446D01*
X748Y369D01*
X5458Y-2350D01*
X5565Y-2391D01*
X5672Y-2433D01*
X5682Y-2435D01*
X5688Y-2437D01*
X5710Y-2438D01*
X5838Y-2452D01*
X52286Y-2452D01*
X52309Y-2448D01*
G37*
G36*
X150058Y-85684D02*
X150058Y-85684D01*
X150114Y-85686D01*
X150179Y-85667D01*
X150246Y-85657D01*
X150318Y-85626D01*
X150350Y-85616D01*
X150367Y-85604D01*
X150399Y-85590D01*
X150604Y-85472D01*
X150692Y-85400D01*
X150781Y-85331D01*
X150788Y-85321D01*
X150795Y-85316D01*
X150809Y-85294D01*
X150881Y-85197D01*
X187982Y-21816D01*
X188024Y-21708D01*
X188068Y-21598D01*
X188069Y-21591D01*
X188070Y-21586D01*
X188071Y-21568D01*
X188086Y-21431D01*
X188086Y10319D01*
X188072Y10409D01*
X188064Y10500D01*
X188052Y10530D01*
X188047Y10562D01*
X188004Y10642D01*
X187968Y10726D01*
X187942Y10758D01*
X187931Y10779D01*
X187908Y10801D01*
X187863Y10857D01*
X161893Y36828D01*
X161893Y186531D01*
X161878Y186621D01*
X161871Y186712D01*
X161858Y186742D01*
X161853Y186774D01*
X161810Y186855D01*
X161774Y186939D01*
X161749Y186971D01*
X161738Y186991D01*
X161714Y187014D01*
X161670Y187070D01*
X133888Y214851D01*
X133814Y214904D01*
X133745Y214963D01*
X133715Y214976D01*
X133689Y214994D01*
X133602Y215021D01*
X133517Y215055D01*
X133476Y215060D01*
X133453Y215067D01*
X133421Y215066D01*
X133350Y215074D01*
X25400Y215074D01*
X25380Y215071D01*
X25361Y215073D01*
X25259Y215051D01*
X25157Y215034D01*
X25140Y215025D01*
X25120Y215020D01*
X25031Y214967D01*
X24940Y214919D01*
X24926Y214905D01*
X24909Y214894D01*
X24842Y214816D01*
X24771Y214741D01*
X24762Y214723D01*
X24749Y214707D01*
X24710Y214611D01*
X24667Y214518D01*
X24665Y214498D01*
X24657Y214479D01*
X24639Y214313D01*
X24639Y189706D01*
X24642Y189687D01*
X24640Y189667D01*
X24662Y189566D01*
X24679Y189464D01*
X24688Y189446D01*
X24692Y189426D01*
X24745Y189337D01*
X24794Y189246D01*
X24808Y189232D01*
X24818Y189215D01*
X24897Y189148D01*
X24972Y189077D01*
X24990Y189068D01*
X25005Y189055D01*
X25101Y189017D01*
X25195Y188973D01*
X25215Y188971D01*
X25233Y188963D01*
X25400Y188945D01*
X110810Y188945D01*
X122270Y177485D01*
X122270Y21478D01*
X122284Y21391D01*
X122290Y21303D01*
X122306Y21260D01*
X122310Y21235D01*
X122324Y21208D01*
X122347Y21145D01*
X137193Y-9421D01*
X108167Y-60776D01*
X108161Y-60791D01*
X108151Y-60805D01*
X108118Y-60907D01*
X108082Y-61007D01*
X108081Y-61023D01*
X108076Y-61039D01*
X108078Y-61146D01*
X108075Y-61253D01*
X108080Y-61269D01*
X108080Y-61285D01*
X108116Y-61386D01*
X108147Y-61488D01*
X108156Y-61501D01*
X108162Y-61517D01*
X108228Y-61601D01*
X108290Y-61688D01*
X108303Y-61698D01*
X108313Y-61711D01*
X108449Y-61810D01*
X149638Y-85590D01*
X149701Y-85614D01*
X149760Y-85647D01*
X149816Y-85657D01*
X149868Y-85677D01*
X149936Y-85679D01*
X150002Y-85692D01*
X150058Y-85684D01*
G37*
G36*
X105623Y-59981D02*
X105623Y-59981D01*
X105646Y-59981D01*
X105741Y-59947D01*
X105838Y-59918D01*
X105856Y-59905D01*
X105877Y-59898D01*
X105956Y-59835D01*
X106039Y-59777D01*
X106052Y-59759D01*
X106070Y-59745D01*
X106168Y-59609D01*
X134229Y-10313D01*
X134247Y-10265D01*
X134274Y-10221D01*
X134290Y-10150D01*
X134315Y-10082D01*
X134316Y-10031D01*
X134328Y-9981D01*
X134320Y-9909D01*
X134322Y-9836D01*
X134308Y-9787D01*
X134302Y-9736D01*
X134259Y-9627D01*
X134251Y-9601D01*
X134246Y-9593D01*
X134241Y-9580D01*
X119824Y17652D01*
X119824Y176213D01*
X119809Y176303D01*
X119802Y176394D01*
X119789Y176423D01*
X119784Y176455D01*
X119741Y176536D01*
X119706Y176620D01*
X119680Y176652D01*
X119669Y176673D01*
X119646Y176695D01*
X119601Y176751D01*
X109679Y186673D01*
X109663Y186684D01*
X109650Y186700D01*
X109563Y186756D01*
X109479Y186816D01*
X109460Y186822D01*
X109443Y186833D01*
X109343Y186858D01*
X109244Y186889D01*
X109224Y186888D01*
X109205Y186893D01*
X109102Y186885D01*
X108998Y186882D01*
X108979Y186875D01*
X108960Y186874D01*
X108865Y186833D01*
X108767Y186798D01*
X108752Y186785D01*
X108733Y186777D01*
X108602Y186673D01*
X107635Y185705D01*
X26194Y185705D01*
X26174Y185702D01*
X26154Y185704D01*
X26053Y185682D01*
X25951Y185665D01*
X25933Y185656D01*
X25914Y185652D01*
X25825Y185599D01*
X25734Y185550D01*
X25720Y185536D01*
X25703Y185526D01*
X25635Y185447D01*
X25564Y185372D01*
X25556Y185354D01*
X25543Y185339D01*
X25504Y185242D01*
X25461Y185149D01*
X25458Y185129D01*
X25451Y185110D01*
X25433Y184944D01*
X25433Y163513D01*
X25436Y163493D01*
X25434Y163473D01*
X25456Y163372D01*
X25472Y163270D01*
X25482Y163252D01*
X25486Y163233D01*
X25539Y163144D01*
X25587Y163052D01*
X25602Y163039D01*
X25612Y163022D01*
X25691Y162954D01*
X25766Y162883D01*
X25784Y162875D01*
X25799Y162862D01*
X25895Y162823D01*
X25989Y162779D01*
X26009Y162777D01*
X26027Y162770D01*
X26194Y162751D01*
X78614Y162751D01*
X78614Y126522D01*
X55818Y103726D01*
X55765Y103652D01*
X55705Y103582D01*
X55693Y103552D01*
X55674Y103526D01*
X55648Y103439D01*
X55613Y103354D01*
X55609Y103313D01*
X55602Y103291D01*
X55603Y103259D01*
X55595Y103188D01*
X55595Y-30856D01*
X55606Y-30923D01*
X55607Y-30991D01*
X55626Y-31044D01*
X55635Y-31099D01*
X55666Y-31159D01*
X55689Y-31222D01*
X55724Y-31267D01*
X55750Y-31316D01*
X55799Y-31363D01*
X55841Y-31416D01*
X55904Y-31463D01*
X55928Y-31486D01*
X55947Y-31495D01*
X55976Y-31516D01*
X105126Y-59892D01*
X105147Y-59900D01*
X105165Y-59913D01*
X105262Y-59943D01*
X105356Y-59979D01*
X105378Y-59980D01*
X105400Y-59986D01*
X105501Y-59984D01*
X105602Y-59988D01*
X105623Y-59981D01*
G37*
G36*
X-149942Y-85684D02*
X-149942Y-85684D01*
X-149886Y-85686D01*
X-149821Y-85667D01*
X-149754Y-85657D01*
X-149682Y-85626D01*
X-149650Y-85616D01*
X-149633Y-85604D01*
X-149601Y-85590D01*
X-109023Y-62163D01*
X-109014Y-62156D01*
X-109003Y-62151D01*
X-108919Y-62078D01*
X-108832Y-62007D01*
X-108826Y-61997D01*
X-108817Y-61990D01*
X-108761Y-61894D01*
X-108701Y-61799D01*
X-108699Y-61788D01*
X-108693Y-61778D01*
X-108670Y-61668D01*
X-108644Y-61560D01*
X-108645Y-61548D01*
X-108643Y-61537D01*
X-108656Y-61426D01*
X-108666Y-61315D01*
X-108670Y-61304D01*
X-108672Y-61293D01*
X-108736Y-61138D01*
X-134879Y-13466D01*
X-119166Y20316D01*
X-119144Y20395D01*
X-119113Y20471D01*
X-119107Y20526D01*
X-119100Y20553D01*
X-119101Y20582D01*
X-119095Y20638D01*
X-119095Y191326D01*
X-28575Y191326D01*
X-28555Y191329D01*
X-28536Y191327D01*
X-28434Y191349D01*
X-28332Y191366D01*
X-28315Y191375D01*
X-28295Y191380D01*
X-28206Y191433D01*
X-28115Y191481D01*
X-28101Y191496D01*
X-28084Y191506D01*
X-28017Y191584D01*
X-27946Y191659D01*
X-27937Y191677D01*
X-27924Y191693D01*
X-27885Y191789D01*
X-27842Y191883D01*
X-27840Y191902D01*
X-27832Y191921D01*
X-27814Y192088D01*
X-27814Y214313D01*
X-27817Y214332D01*
X-27815Y214352D01*
X-27837Y214453D01*
X-27854Y214555D01*
X-27863Y214573D01*
X-27867Y214592D01*
X-27920Y214681D01*
X-27969Y214773D01*
X-27983Y214786D01*
X-27993Y214803D01*
X-28072Y214871D01*
X-28147Y214942D01*
X-28165Y214950D01*
X-28180Y214963D01*
X-28276Y215002D01*
X-28370Y215046D01*
X-28390Y215048D01*
X-28408Y215055D01*
X-28575Y215074D01*
X-135731Y215074D01*
X-135821Y215059D01*
X-135912Y215052D01*
X-135942Y215039D01*
X-135974Y215034D01*
X-136055Y214991D01*
X-136139Y214956D01*
X-136171Y214930D01*
X-136191Y214919D01*
X-136214Y214896D01*
X-136270Y214851D01*
X-154526Y196595D01*
X-154579Y196521D01*
X-154638Y196451D01*
X-154651Y196421D01*
X-154669Y196395D01*
X-154696Y196308D01*
X-154730Y196223D01*
X-154735Y196182D01*
X-154742Y196160D01*
X-154741Y196128D01*
X-154749Y196056D01*
X-154749Y47655D01*
X-191382Y-11605D01*
X-191407Y-11665D01*
X-191441Y-11721D01*
X-191453Y-11778D01*
X-191476Y-11832D01*
X-191480Y-11898D01*
X-191494Y-11961D01*
X-191488Y-12019D01*
X-191492Y-12078D01*
X-191476Y-12141D01*
X-191469Y-12206D01*
X-191438Y-12284D01*
X-191430Y-12316D01*
X-191419Y-12332D01*
X-191407Y-12362D01*
X-153671Y-83545D01*
X-153668Y-83550D01*
X-153666Y-83555D01*
X-153594Y-83647D01*
X-153522Y-83741D01*
X-153518Y-83744D01*
X-153514Y-83749D01*
X-153379Y-83848D01*
X-150362Y-85590D01*
X-150299Y-85614D01*
X-150240Y-85647D01*
X-150184Y-85657D01*
X-150132Y-85677D01*
X-150064Y-85679D01*
X-149998Y-85692D01*
X-149942Y-85684D01*
G37*
G36*
X-105162Y-59851D02*
X-105162Y-59851D01*
X-105060Y-59842D01*
X-105041Y-59833D01*
X-105019Y-59830D01*
X-104865Y-59763D01*
X-71932Y-40749D01*
X-71881Y-40708D01*
X-71825Y-40675D01*
X-71787Y-40630D01*
X-71741Y-40593D01*
X-71706Y-40538D01*
X-71664Y-40489D01*
X-71642Y-40435D01*
X-71610Y-40385D01*
X-71595Y-40321D01*
X-71570Y-40261D01*
X-71561Y-40178D01*
X-71553Y-40146D01*
X-71555Y-40127D01*
X-71551Y-40094D01*
X-70602Y113639D01*
X-70615Y113721D01*
X-70619Y113803D01*
X-70634Y113841D01*
X-70640Y113882D01*
X-70678Y113955D01*
X-70708Y114032D01*
X-70741Y114075D01*
X-70754Y114100D01*
X-70775Y114120D01*
X-70809Y114166D01*
X-81789Y125811D01*
X-81789Y162751D01*
X-29369Y162751D01*
X-29349Y162754D01*
X-29329Y162752D01*
X-29228Y162774D01*
X-29126Y162791D01*
X-29108Y162800D01*
X-29089Y162805D01*
X-29000Y162858D01*
X-28909Y162906D01*
X-28895Y162921D01*
X-28878Y162931D01*
X-28810Y163009D01*
X-28739Y163084D01*
X-28731Y163102D01*
X-28718Y163118D01*
X-28679Y163214D01*
X-28636Y163308D01*
X-28633Y163327D01*
X-28626Y163346D01*
X-28608Y163513D01*
X-28608Y186531D01*
X-28611Y186551D01*
X-28609Y186571D01*
X-28631Y186672D01*
X-28647Y186774D01*
X-28657Y186792D01*
X-28661Y186811D01*
X-28714Y186900D01*
X-28762Y186991D01*
X-28777Y187005D01*
X-28787Y187022D01*
X-28866Y187090D01*
X-28941Y187161D01*
X-28959Y187169D01*
X-28974Y187182D01*
X-29070Y187221D01*
X-29164Y187264D01*
X-29184Y187267D01*
X-29202Y187274D01*
X-29369Y187293D01*
X-115094Y187293D01*
X-115113Y187289D01*
X-115133Y187291D01*
X-115234Y187269D01*
X-115337Y187253D01*
X-115354Y187243D01*
X-115374Y187239D01*
X-115463Y187186D01*
X-115554Y187138D01*
X-115568Y187123D01*
X-115585Y187113D01*
X-115652Y187034D01*
X-115723Y186959D01*
X-115732Y186941D01*
X-115745Y186926D01*
X-115783Y186830D01*
X-115827Y186736D01*
X-115829Y186717D01*
X-115837Y186698D01*
X-115855Y186531D01*
X-115855Y17000D01*
X-131806Y-13451D01*
X-131822Y-13499D01*
X-131846Y-13543D01*
X-131860Y-13615D01*
X-131883Y-13685D01*
X-131883Y-13735D01*
X-131892Y-13784D01*
X-131882Y-13857D01*
X-131882Y-13931D01*
X-131866Y-13978D01*
X-131859Y-14028D01*
X-131811Y-14139D01*
X-131803Y-14163D01*
X-131798Y-14170D01*
X-131792Y-14182D01*
X-105907Y-59481D01*
X-105893Y-59498D01*
X-105885Y-59518D01*
X-105816Y-59593D01*
X-105752Y-59672D01*
X-105734Y-59684D01*
X-105719Y-59700D01*
X-105630Y-59750D01*
X-105544Y-59804D01*
X-105523Y-59809D01*
X-105504Y-59820D01*
X-105404Y-59838D01*
X-105305Y-59863D01*
X-105284Y-59861D01*
X-105263Y-59865D01*
X-105162Y-59851D01*
G37*
G36*
X120045Y351762D02*
X120045Y351762D01*
X120069Y351760D01*
X120202Y351782D01*
X120336Y351799D01*
X120359Y351808D01*
X120382Y351812D01*
X120506Y351866D01*
X120632Y351916D01*
X120651Y351930D01*
X120674Y351940D01*
X120780Y352023D01*
X120889Y352103D01*
X120905Y352121D01*
X120924Y352136D01*
X121005Y352243D01*
X121092Y352348D01*
X121102Y352370D01*
X121117Y352389D01*
X121170Y352513D01*
X121228Y352635D01*
X121232Y352659D01*
X121242Y352681D01*
X121276Y352839D01*
X121310Y353064D01*
X121371Y353123D01*
X121373Y353127D01*
X121376Y353129D01*
X121456Y353259D01*
X121540Y353393D01*
X121541Y353397D01*
X121543Y353400D01*
X121600Y353551D01*
X122053Y355018D01*
X122054Y355022D01*
X122056Y355026D01*
X122081Y355176D01*
X122108Y355331D01*
X122108Y355335D01*
X122109Y355339D01*
X122096Y355490D01*
X122089Y355586D01*
X122437Y356309D01*
X122442Y356323D01*
X122450Y356335D01*
X122505Y356482D01*
X122506Y356482D01*
X122506Y356483D01*
X122507Y356486D01*
X122744Y357255D01*
X122814Y357304D01*
X122817Y357307D01*
X122820Y357309D01*
X122920Y357427D01*
X123021Y357545D01*
X123023Y357549D01*
X123025Y357552D01*
X123104Y357693D01*
X123771Y359076D01*
X123772Y359080D01*
X123774Y359083D01*
X123822Y359230D01*
X123872Y359377D01*
X123872Y359381D01*
X123874Y359385D01*
X123884Y359540D01*
X123890Y359632D01*
X124343Y360295D01*
X124349Y360308D01*
X124359Y360319D01*
X124438Y360459D01*
X124787Y361185D01*
X124864Y361223D01*
X124867Y361226D01*
X124870Y361227D01*
X124987Y361330D01*
X125104Y361431D01*
X125106Y361434D01*
X125110Y361437D01*
X125209Y361564D01*
X126074Y362832D01*
X126076Y362836D01*
X126079Y362839D01*
X126149Y362978D01*
X126219Y363115D01*
X126220Y363119D01*
X126222Y363123D01*
X126254Y363272D01*
X126275Y363365D01*
X126821Y363953D01*
X126830Y363965D01*
X126841Y363974D01*
X126940Y364101D01*
X127394Y364767D01*
X127474Y364793D01*
X127478Y364795D01*
X127482Y364796D01*
X127611Y364879D01*
X127743Y364963D01*
X127746Y364966D01*
X127750Y364968D01*
X127866Y365079D01*
X128911Y366204D01*
X128913Y366207D01*
X128917Y366210D01*
X129004Y366333D01*
X129017Y366349D01*
X129020Y366356D01*
X129097Y366462D01*
X129098Y366466D01*
X129101Y366469D01*
X129157Y366617D01*
X129189Y366700D01*
X129817Y367201D01*
X129827Y367211D01*
X129839Y367219D01*
X129956Y367330D01*
X130504Y367920D01*
X130588Y367934D01*
X130592Y367935D01*
X130596Y367936D01*
X130738Y367999D01*
X130879Y368061D01*
X130883Y368064D01*
X130886Y368066D01*
X131018Y368158D01*
X132219Y369115D01*
X132222Y369118D01*
X132226Y369120D01*
X132332Y369230D01*
X132441Y369343D01*
X132443Y369346D01*
X132446Y369349D01*
X132519Y369478D01*
X132568Y369564D01*
X133264Y369965D01*
X133275Y369974D01*
X133288Y369980D01*
X133420Y370072D01*
X134050Y370574D01*
X134135Y370575D01*
X134139Y370576D01*
X134143Y370576D01*
X134294Y370618D01*
X134442Y370658D01*
X134446Y370660D01*
X134450Y370661D01*
X134594Y370733D01*
X135924Y371500D01*
X135927Y371503D01*
X135931Y371504D01*
X136053Y371598D01*
X136177Y371692D01*
X136180Y371696D01*
X136183Y371698D01*
X136279Y371821D01*
X136336Y371892D01*
X137084Y372186D01*
X137096Y372192D01*
X137110Y372196D01*
X137242Y372262D01*
X137246Y372263D01*
X137248Y372264D01*
X137255Y372268D01*
X137952Y372670D01*
X138036Y372659D01*
X138041Y372659D01*
X138045Y372659D01*
X138198Y372677D01*
X138352Y372695D01*
X138356Y372697D01*
X138360Y372697D01*
X138514Y372746D01*
X139943Y373307D01*
X139947Y373309D01*
X139951Y373310D01*
X140087Y373385D01*
X140222Y373459D01*
X140225Y373462D01*
X140229Y373464D01*
X140341Y373570D01*
X140409Y373633D01*
X141192Y373812D01*
X141205Y373817D01*
X141220Y373818D01*
X141373Y373867D01*
X142123Y374161D01*
X142204Y374137D01*
X142209Y374137D01*
X142213Y374136D01*
X142369Y374132D01*
X142522Y374126D01*
X142526Y374127D01*
X142530Y374127D01*
X142689Y374153D01*
X144187Y374494D01*
X144190Y374496D01*
X144195Y374496D01*
X144338Y374549D01*
X144485Y374603D01*
X144489Y374605D01*
X144493Y374607D01*
X144620Y374695D01*
X144696Y374748D01*
X145497Y374807D01*
X145511Y374810D01*
X145525Y374810D01*
X145684Y374835D01*
X146469Y375014D01*
X146546Y374979D01*
X146551Y374978D01*
X146554Y374976D01*
X146707Y374949D01*
X146859Y374920D01*
X146863Y374920D01*
X146867Y374920D01*
X147028Y374922D01*
X148089Y375001D01*
X148160Y375015D01*
X148232Y375019D01*
X148315Y375047D01*
X148401Y375064D01*
X148466Y375095D01*
X148534Y375118D01*
X148608Y375164D01*
X148687Y375203D01*
X148742Y375249D01*
X148803Y375288D01*
X148863Y375352D01*
X148930Y375408D01*
X148971Y375467D01*
X149021Y375519D01*
X149063Y375596D01*
X149114Y375668D01*
X149140Y375735D01*
X149174Y375798D01*
X149196Y375883D01*
X149228Y375964D01*
X149236Y376036D01*
X149254Y376106D01*
X149264Y376266D01*
X149264Y413418D01*
X150029Y413356D01*
X150057Y413360D01*
X150086Y413355D01*
X150155Y413371D01*
X150226Y413380D01*
X150251Y413394D01*
X150279Y413401D01*
X150336Y413443D01*
X150398Y413479D01*
X150416Y413502D01*
X150439Y413519D01*
X150475Y413581D01*
X150519Y413637D01*
X150526Y413665D01*
X150540Y413690D01*
X150557Y413789D01*
X150567Y413830D01*
X150566Y413841D01*
X150568Y413854D01*
X150545Y432894D01*
X150530Y432969D01*
X150521Y433046D01*
X150510Y433066D01*
X150505Y433089D01*
X150462Y433152D01*
X150424Y433219D01*
X150404Y433236D01*
X150393Y433252D01*
X150355Y433276D01*
X150296Y433325D01*
X133819Y442865D01*
X133791Y442874D01*
X133768Y442891D01*
X133698Y442905D01*
X133630Y442928D01*
X133601Y442926D01*
X133573Y442932D01*
X133503Y442918D01*
X133432Y442913D01*
X133406Y442900D01*
X133378Y442894D01*
X133319Y442854D01*
X133255Y442821D01*
X133237Y442799D01*
X133213Y442783D01*
X133156Y442701D01*
X133129Y442668D01*
X133125Y442658D01*
X133118Y442647D01*
X132804Y441986D01*
X101305Y460171D01*
X101239Y460199D01*
X101177Y460236D01*
X101093Y460260D01*
X101012Y460294D01*
X100941Y460305D01*
X100872Y460325D01*
X100784Y460328D01*
X100698Y460341D01*
X100626Y460333D01*
X100554Y460336D01*
X100469Y460317D01*
X100381Y460308D01*
X100314Y460283D01*
X100244Y460267D01*
X100165Y460227D01*
X100083Y460197D01*
X100024Y460156D01*
X99960Y460123D01*
X99894Y460066D01*
X99822Y460016D01*
X99775Y459961D01*
X99721Y459914D01*
X99622Y459787D01*
X98943Y458790D01*
X98941Y458786D01*
X98938Y458783D01*
X98869Y458645D01*
X98798Y458507D01*
X98797Y458503D01*
X98795Y458499D01*
X98762Y458347D01*
X98742Y458257D01*
X98196Y457669D01*
X98188Y457657D01*
X98177Y457647D01*
X98078Y457520D01*
X97624Y456855D01*
X97544Y456829D01*
X97540Y456826D01*
X97536Y456825D01*
X97405Y456741D01*
X97275Y456659D01*
X97272Y456656D01*
X97269Y456653D01*
X97152Y456542D01*
X96108Y455417D01*
X96105Y455413D01*
X96102Y455410D01*
X96012Y455282D01*
X95922Y455158D01*
X95921Y455154D01*
X95919Y455151D01*
X95864Y455008D01*
X95830Y454920D01*
X95202Y454419D01*
X95192Y454409D01*
X95180Y454401D01*
X95063Y454290D01*
X94516Y453700D01*
X94432Y453686D01*
X94428Y453684D01*
X94424Y453683D01*
X94283Y453620D01*
X94141Y453558D01*
X94138Y453555D01*
X94134Y453553D01*
X94002Y453461D01*
X92802Y452503D01*
X92799Y452500D01*
X92795Y452498D01*
X92688Y452387D01*
X92580Y452276D01*
X92578Y452272D01*
X92575Y452269D01*
X92499Y452135D01*
X92453Y452054D01*
X91758Y451652D01*
X91746Y451644D01*
X91733Y451638D01*
X91601Y451545D01*
X90972Y451043D01*
X90886Y451042D01*
X90883Y451041D01*
X90878Y451041D01*
X90730Y450999D01*
X90580Y450959D01*
X90576Y450957D01*
X90572Y450955D01*
X90428Y450884D01*
X89098Y450116D01*
X89095Y450113D01*
X89091Y450112D01*
X88968Y450016D01*
X88845Y449923D01*
X88842Y449920D01*
X88839Y449918D01*
X88743Y449795D01*
X88686Y449723D01*
X87939Y449430D01*
X87926Y449423D01*
X87913Y449419D01*
X87768Y449347D01*
X87071Y448944D01*
X86987Y448956D01*
X86983Y448955D01*
X86978Y448956D01*
X86824Y448937D01*
X86671Y448919D01*
X86667Y448918D01*
X86663Y448917D01*
X86510Y448868D01*
X85080Y448307D01*
X85077Y448305D01*
X85073Y448304D01*
X84937Y448228D01*
X84801Y448154D01*
X84798Y448151D01*
X84795Y448149D01*
X84682Y448043D01*
X84615Y447980D01*
X83832Y447801D01*
X83818Y447796D01*
X83804Y447794D01*
X83651Y447745D01*
X82901Y447450D01*
X82819Y447474D01*
X82815Y447475D01*
X82811Y447476D01*
X82657Y447480D01*
X82502Y447485D01*
X82498Y447484D01*
X82494Y447485D01*
X82335Y447459D01*
X80838Y447117D01*
X80834Y447115D01*
X80830Y447115D01*
X80683Y447060D01*
X80539Y447007D01*
X80536Y447005D01*
X80532Y447004D01*
X80404Y446914D01*
X80328Y446863D01*
X79528Y446803D01*
X79514Y446800D01*
X79499Y446800D01*
X79340Y446774D01*
X78555Y446595D01*
X78478Y446631D01*
X78474Y446631D01*
X78470Y446633D01*
X78318Y446660D01*
X78165Y446689D01*
X78161Y446688D01*
X78157Y446689D01*
X77996Y446687D01*
X76465Y446572D01*
X76461Y446571D01*
X76457Y446571D01*
X76303Y446539D01*
X76153Y446509D01*
X76150Y446507D01*
X76146Y446506D01*
X76007Y446438D01*
X75924Y446397D01*
X75123Y446457D01*
X75109Y446456D01*
X75094Y446459D01*
X74933Y446457D01*
X74130Y446396D01*
X74059Y446443D01*
X74056Y446445D01*
X74052Y446447D01*
X73905Y446497D01*
X73759Y446547D01*
X73755Y446548D01*
X73751Y446549D01*
X73591Y446571D01*
X72060Y446685D01*
X72056Y446685D01*
X72052Y446686D01*
X71897Y446677D01*
X71742Y446669D01*
X71738Y446668D01*
X71734Y446668D01*
X71588Y446621D01*
X71499Y446593D01*
X70716Y446771D01*
X70702Y446773D01*
X70688Y446778D01*
X70528Y446800D01*
X69725Y446860D01*
X69662Y446917D01*
X69658Y446918D01*
X69655Y446921D01*
X69515Y446994D01*
X69380Y447064D01*
X69376Y447065D01*
X69373Y447067D01*
X69218Y447113D01*
X67721Y447454D01*
X67717Y447454D01*
X67713Y447456D01*
X67560Y447470D01*
X67405Y447485D01*
X67401Y447485D01*
X67397Y447485D01*
X67244Y447460D01*
X67152Y447446D01*
X66405Y447739D01*
X66391Y447743D01*
X66378Y447750D01*
X66224Y447795D01*
X65438Y447974D01*
X65384Y448040D01*
X65381Y448042D01*
X65378Y448046D01*
X65252Y448137D01*
X65128Y448228D01*
X65124Y448230D01*
X65121Y448232D01*
X64975Y448300D01*
X63545Y448861D01*
X63541Y448862D01*
X63538Y448864D01*
X63386Y448901D01*
X63237Y448939D01*
X63233Y448939D01*
X63229Y448940D01*
X63076Y448938D01*
X62982Y448938D01*
X62286Y449339D01*
X62273Y449345D01*
X62261Y449353D01*
X62115Y449421D01*
X61365Y449715D01*
X61322Y449788D01*
X61319Y449791D01*
X61317Y449795D01*
X61204Y449905D01*
X61096Y450013D01*
X61093Y450015D01*
X61090Y450018D01*
X60956Y450107D01*
X59626Y450874D01*
X59622Y450876D01*
X59619Y450878D01*
X59476Y450937D01*
X59333Y450997D01*
X59329Y450998D01*
X59325Y450999D01*
X59170Y451021D01*
X59080Y451034D01*
X58923Y451159D01*
X58882Y451184D01*
X58846Y451216D01*
X58747Y451267D01*
X58652Y451325D01*
X58606Y451339D01*
X58563Y451361D01*
X58454Y451385D01*
X58348Y451417D01*
X58300Y451420D01*
X58253Y451430D01*
X58141Y451427D01*
X58030Y451432D01*
X57983Y451422D01*
X57935Y451420D01*
X57828Y451389D01*
X57719Y451367D01*
X57700Y451357D01*
X35254Y451357D01*
X35136Y451342D01*
X35017Y451335D01*
X34979Y451322D01*
X34938Y451317D01*
X34828Y451274D01*
X34715Y451237D01*
X34680Y451215D01*
X34643Y451200D01*
X34547Y451131D01*
X34446Y451067D01*
X34418Y451037D01*
X34385Y451014D01*
X34309Y450922D01*
X34228Y450835D01*
X34208Y450800D01*
X34183Y450769D01*
X34132Y450661D01*
X34074Y450557D01*
X34064Y450517D01*
X34047Y450481D01*
X34025Y450364D01*
X33995Y450249D01*
X33991Y450189D01*
X33987Y450169D01*
X33989Y450148D01*
X33985Y450088D01*
X33985Y444829D01*
X34000Y444711D01*
X34007Y444592D01*
X34020Y444554D01*
X34025Y444513D01*
X34068Y444403D01*
X34105Y444290D01*
X34127Y444255D01*
X34142Y444218D01*
X34211Y444122D01*
X34275Y444021D01*
X34305Y443993D01*
X34328Y443960D01*
X34420Y443884D01*
X34507Y443803D01*
X34542Y443783D01*
X34573Y443758D01*
X34681Y443707D01*
X34785Y443649D01*
X34825Y443639D01*
X34861Y443622D01*
X34978Y443600D01*
X35093Y443570D01*
X35153Y443566D01*
X35173Y443562D01*
X35194Y443564D01*
X35254Y443560D01*
X42625Y443560D01*
X43816Y442369D01*
X43816Y439828D01*
X43831Y439710D01*
X43838Y439591D01*
X43851Y439553D01*
X43856Y439512D01*
X43899Y439402D01*
X43936Y439289D01*
X43958Y439254D01*
X43973Y439217D01*
X44042Y439121D01*
X44106Y439020D01*
X44136Y438992D01*
X44159Y438959D01*
X44251Y438883D01*
X44338Y438802D01*
X44373Y438782D01*
X44404Y438757D01*
X44512Y438706D01*
X44616Y438648D01*
X44656Y438638D01*
X44692Y438621D01*
X44809Y438599D01*
X44924Y438569D01*
X44984Y438565D01*
X45004Y438561D01*
X45025Y438563D01*
X45085Y438559D01*
X51974Y438559D01*
X52072Y438571D01*
X52171Y438574D01*
X52229Y438591D01*
X52289Y438599D01*
X52381Y438635D01*
X52476Y438663D01*
X52529Y438693D01*
X52585Y438716D01*
X52665Y438774D01*
X52750Y438824D01*
X52826Y438890D01*
X52842Y438902D01*
X52850Y438912D01*
X52871Y438930D01*
X54852Y440911D01*
X75812Y440911D01*
X75813Y440911D01*
X75814Y440911D01*
X75968Y440931D01*
X76127Y440951D01*
X76128Y440951D01*
X76129Y440951D01*
X76271Y441008D01*
X76423Y441068D01*
X76424Y441069D01*
X76425Y441069D01*
X76448Y441084D01*
X77463Y440926D01*
X77480Y440926D01*
X77497Y440921D01*
X77658Y440911D01*
X78693Y440911D01*
X78716Y440889D01*
X78751Y440870D01*
X78836Y440804D01*
X78837Y440804D01*
X78837Y440803D01*
X78976Y440743D01*
X79127Y440678D01*
X79129Y440678D01*
X79129Y440677D01*
X79287Y440642D01*
X80634Y440433D01*
X80692Y440431D01*
X80749Y440420D01*
X80850Y440427D01*
X80952Y440424D01*
X81008Y440436D01*
X81066Y440440D01*
X81163Y440471D01*
X81262Y440494D01*
X81314Y440520D01*
X81369Y440538D01*
X81455Y440592D01*
X81545Y440639D01*
X81589Y440677D01*
X81637Y440708D01*
X81707Y440782D01*
X81783Y440850D01*
X81816Y440898D01*
X81855Y440940D01*
X81904Y441029D01*
X81961Y441113D01*
X81981Y441168D01*
X82009Y441218D01*
X82034Y441317D01*
X82069Y441413D01*
X82074Y441470D01*
X82088Y441526D01*
X82099Y441687D01*
X82099Y442111D01*
X83289Y443301D01*
X94973Y443301D01*
X96164Y442111D01*
X96164Y429427D01*
X94973Y428236D01*
X83289Y428236D01*
X82099Y429427D01*
X82099Y432433D01*
X82096Y432454D01*
X82098Y432476D01*
X82076Y432611D01*
X82059Y432749D01*
X82051Y432768D01*
X82047Y432790D01*
X81992Y432916D01*
X81942Y433044D01*
X81929Y433062D01*
X81921Y433081D01*
X81836Y433190D01*
X81755Y433302D01*
X81738Y433315D01*
X81725Y433332D01*
X81616Y433416D01*
X81510Y433504D01*
X81490Y433514D01*
X81474Y433527D01*
X81347Y433581D01*
X81222Y433640D01*
X81201Y433644D01*
X81182Y433652D01*
X81024Y433687D01*
X77146Y434290D01*
X77129Y434291D01*
X77112Y434295D01*
X76951Y434306D01*
X58114Y434306D01*
X58015Y434293D01*
X57916Y434290D01*
X57858Y434273D01*
X57798Y434266D01*
X57706Y434229D01*
X57611Y434202D01*
X57559Y434171D01*
X57502Y434149D01*
X57422Y434091D01*
X57337Y434040D01*
X57261Y433974D01*
X57245Y433962D01*
X57242Y433958D01*
X57239Y433956D01*
X57233Y433949D01*
X57216Y433934D01*
X55236Y431953D01*
X45085Y431953D01*
X44967Y431938D01*
X44848Y431931D01*
X44810Y431918D01*
X44769Y431913D01*
X44659Y431870D01*
X44546Y431833D01*
X44511Y431811D01*
X44474Y431796D01*
X44378Y431727D01*
X44277Y431663D01*
X44249Y431633D01*
X44216Y431610D01*
X44140Y431518D01*
X44059Y431431D01*
X44039Y431396D01*
X44014Y431365D01*
X43963Y431257D01*
X43905Y431153D01*
X43895Y431113D01*
X43878Y431077D01*
X43856Y430960D01*
X43826Y430845D01*
X43822Y430785D01*
X43818Y430765D01*
X43820Y430744D01*
X43816Y430684D01*
X43816Y418140D01*
X42625Y416949D01*
X32813Y416949D01*
X31622Y418140D01*
X31622Y439928D01*
X31607Y440046D01*
X31600Y440165D01*
X31587Y440203D01*
X31582Y440244D01*
X31539Y440354D01*
X31502Y440467D01*
X31480Y440502D01*
X31465Y440539D01*
X31396Y440635D01*
X31332Y440736D01*
X31302Y440764D01*
X31279Y440797D01*
X31187Y440873D01*
X31100Y440954D01*
X31065Y440974D01*
X31034Y440999D01*
X30926Y441050D01*
X30822Y441108D01*
X30782Y441118D01*
X30746Y441135D01*
X30629Y441157D01*
X30514Y441187D01*
X30454Y441191D01*
X30434Y441195D01*
X30413Y441193D01*
X30353Y441197D01*
X-24003Y441197D01*
X-24121Y441182D01*
X-24240Y441175D01*
X-24278Y441162D01*
X-24319Y441157D01*
X-24429Y441114D01*
X-24542Y441077D01*
X-24577Y441055D01*
X-24614Y441040D01*
X-24710Y440971D01*
X-24811Y440907D01*
X-24839Y440877D01*
X-24872Y440854D01*
X-24948Y440762D01*
X-25029Y440675D01*
X-25049Y440640D01*
X-25074Y440609D01*
X-25125Y440501D01*
X-25183Y440397D01*
X-25193Y440357D01*
X-25210Y440321D01*
X-25232Y440204D01*
X-25262Y440089D01*
X-25266Y440029D01*
X-25270Y440009D01*
X-25268Y439988D01*
X-25272Y439928D01*
X-25272Y385572D01*
X-25257Y385454D01*
X-25250Y385335D01*
X-25237Y385297D01*
X-25232Y385256D01*
X-25189Y385146D01*
X-25152Y385033D01*
X-25130Y384998D01*
X-25115Y384961D01*
X-25046Y384865D01*
X-24982Y384764D01*
X-24952Y384736D01*
X-24929Y384703D01*
X-24837Y384627D01*
X-24750Y384546D01*
X-24715Y384526D01*
X-24684Y384501D01*
X-24576Y384450D01*
X-24472Y384392D01*
X-24432Y384382D01*
X-24396Y384365D01*
X-24279Y384343D01*
X-24164Y384313D01*
X-24104Y384309D01*
X-24084Y384305D01*
X-24063Y384307D01*
X-24003Y384303D01*
X30353Y384303D01*
X30471Y384318D01*
X30590Y384325D01*
X30628Y384338D01*
X30669Y384343D01*
X30779Y384386D01*
X30892Y384423D01*
X30927Y384445D01*
X30964Y384460D01*
X31060Y384529D01*
X31161Y384593D01*
X31189Y384623D01*
X31222Y384646D01*
X31298Y384738D01*
X31379Y384825D01*
X31399Y384860D01*
X31424Y384891D01*
X31475Y384999D01*
X31533Y385103D01*
X31543Y385143D01*
X31560Y385179D01*
X31582Y385296D01*
X31612Y385411D01*
X31616Y385471D01*
X31620Y385491D01*
X31618Y385512D01*
X31622Y385572D01*
X31622Y412361D01*
X32813Y413552D01*
X46963Y413552D01*
X47566Y412948D01*
X47644Y412888D01*
X47717Y412820D01*
X47770Y412790D01*
X47818Y412753D01*
X47908Y412714D01*
X47995Y412666D01*
X48054Y412651D01*
X48109Y412627D01*
X48207Y412611D01*
X48303Y412587D01*
X48403Y412580D01*
X48423Y412577D01*
X48436Y412578D01*
X48464Y412576D01*
X54286Y412576D01*
X54404Y412591D01*
X54522Y412599D01*
X54561Y412611D01*
X54601Y412616D01*
X54712Y412660D01*
X54825Y412697D01*
X54859Y412718D01*
X54897Y412733D01*
X54993Y412803D01*
X55094Y412867D01*
X55121Y412896D01*
X55154Y412920D01*
X55230Y413012D01*
X55312Y413099D01*
X55331Y413134D01*
X55357Y413165D01*
X55408Y413273D01*
X55465Y413377D01*
X55475Y413416D01*
X55492Y413453D01*
X55515Y413570D01*
X55545Y413685D01*
X55548Y413745D01*
X55552Y413765D01*
X55551Y413786D01*
X55555Y413846D01*
X55555Y416148D01*
X56746Y417339D01*
X73429Y417339D01*
X74620Y416148D01*
X74620Y401464D01*
X73429Y400274D01*
X67929Y400274D01*
X67899Y400270D01*
X67870Y400272D01*
X67742Y400250D01*
X67613Y400234D01*
X67586Y400223D01*
X67557Y400218D01*
X67438Y400164D01*
X67317Y400117D01*
X67294Y400099D01*
X67267Y400087D01*
X67165Y400006D01*
X67060Y399930D01*
X67041Y399907D01*
X67018Y399889D01*
X66940Y399785D01*
X66857Y399685D01*
X66845Y399658D01*
X66827Y399635D01*
X66756Y399490D01*
X66048Y397781D01*
X64413Y396145D01*
X62275Y395260D01*
X59962Y395260D01*
X57825Y396145D01*
X56831Y397139D01*
X56753Y397200D01*
X56681Y397268D01*
X56628Y397297D01*
X56580Y397334D01*
X56489Y397373D01*
X56402Y397421D01*
X56344Y397436D01*
X56288Y397461D01*
X56190Y397476D01*
X56094Y397501D01*
X55994Y397507D01*
X55974Y397510D01*
X55962Y397509D01*
X55934Y397511D01*
X45085Y397511D01*
X44967Y397496D01*
X44848Y397489D01*
X44810Y397476D01*
X44769Y397471D01*
X44659Y397427D01*
X44546Y397391D01*
X44511Y397369D01*
X44474Y397354D01*
X44378Y397284D01*
X44277Y397221D01*
X44249Y397191D01*
X44216Y397167D01*
X44140Y397076D01*
X44059Y396989D01*
X44039Y396953D01*
X44014Y396922D01*
X43963Y396815D01*
X43905Y396710D01*
X43895Y396671D01*
X43878Y396635D01*
X43856Y396518D01*
X43826Y396402D01*
X43822Y396342D01*
X43818Y396322D01*
X43819Y396307D01*
X43818Y396303D01*
X43819Y396292D01*
X43816Y396242D01*
X43816Y394768D01*
X43828Y394670D01*
X43831Y394571D01*
X43848Y394513D01*
X43856Y394453D01*
X43892Y394361D01*
X43920Y394266D01*
X43950Y394213D01*
X43973Y394157D01*
X44031Y394077D01*
X44081Y393992D01*
X44147Y393916D01*
X44159Y393900D01*
X44169Y393892D01*
X44187Y393871D01*
X47066Y390993D01*
X47144Y390932D01*
X47216Y390864D01*
X47269Y390835D01*
X47317Y390798D01*
X47408Y390758D01*
X47494Y390711D01*
X47553Y390696D01*
X47609Y390671D01*
X47707Y390656D01*
X47802Y390631D01*
X47902Y390625D01*
X47923Y390622D01*
X47935Y390623D01*
X47963Y390621D01*
X65794Y390621D01*
X65823Y390625D01*
X65853Y390622D01*
X65980Y390645D01*
X66109Y390661D01*
X66137Y390672D01*
X66166Y390677D01*
X66284Y390730D01*
X66405Y390778D01*
X66429Y390795D01*
X66456Y390807D01*
X66557Y390888D01*
X66662Y390965D01*
X66681Y390987D01*
X66704Y391006D01*
X66782Y391110D01*
X66865Y391210D01*
X66878Y391236D01*
X66896Y391260D01*
X66966Y391405D01*
X67223Y392024D01*
X69938Y394739D01*
X73486Y396209D01*
X77326Y396209D01*
X80874Y394739D01*
X83589Y392024D01*
X85059Y388476D01*
X85059Y384636D01*
X83589Y381088D01*
X80874Y378373D01*
X77326Y376904D01*
X73486Y376904D01*
X69938Y378373D01*
X67223Y381088D01*
X66966Y381708D01*
X66952Y381734D01*
X66943Y381762D01*
X66873Y381871D01*
X66809Y381984D01*
X66788Y382005D01*
X66773Y382030D01*
X66678Y382119D01*
X66588Y382213D01*
X66562Y382228D01*
X66541Y382248D01*
X66427Y382311D01*
X66316Y382379D01*
X66288Y382388D01*
X66262Y382402D01*
X66137Y382434D01*
X66013Y382473D01*
X65983Y382474D01*
X65954Y382481D01*
X65794Y382492D01*
X47904Y382492D01*
X47766Y382474D01*
X47628Y382461D01*
X47608Y382454D01*
X47588Y382452D01*
X47459Y382401D01*
X47328Y382353D01*
X47311Y382342D01*
X47293Y382335D01*
X47181Y382253D01*
X47065Y382175D01*
X47052Y382160D01*
X47035Y382148D01*
X46947Y382041D01*
X46855Y381936D01*
X46845Y381918D01*
X46832Y381903D01*
X46773Y381777D01*
X46710Y381653D01*
X46706Y381633D01*
X46697Y381615D01*
X46671Y381479D01*
X46640Y381343D01*
X46641Y381323D01*
X46637Y381303D01*
X46646Y381164D01*
X46650Y381025D01*
X46656Y381006D01*
X46657Y380985D01*
X46700Y380853D01*
X46738Y380720D01*
X46749Y380702D01*
X46755Y380683D01*
X46830Y380565D01*
X46900Y380446D01*
X46919Y380425D01*
X46925Y380414D01*
X46940Y380400D01*
X47006Y380325D01*
X61738Y365593D01*
X61817Y365532D01*
X61889Y365464D01*
X61942Y365435D01*
X61990Y365398D01*
X62081Y365358D01*
X62167Y365311D01*
X62226Y365296D01*
X62282Y365271D01*
X62380Y365256D01*
X62475Y365231D01*
X62575Y365225D01*
X62596Y365222D01*
X62608Y365223D01*
X62636Y365221D01*
X65794Y365221D01*
X65823Y365225D01*
X65853Y365222D01*
X65980Y365245D01*
X66109Y365261D01*
X66137Y365272D01*
X66166Y365277D01*
X66284Y365330D01*
X66405Y365378D01*
X66429Y365395D01*
X66456Y365407D01*
X66557Y365488D01*
X66662Y365565D01*
X66681Y365587D01*
X66704Y365606D01*
X66782Y365710D01*
X66865Y365810D01*
X66878Y365836D01*
X66896Y365860D01*
X66966Y366005D01*
X67223Y366624D01*
X69938Y369339D01*
X73486Y370809D01*
X77326Y370809D01*
X80874Y369339D01*
X83589Y366624D01*
X83846Y366005D01*
X83861Y365979D01*
X83870Y365951D01*
X83939Y365841D01*
X84004Y365728D01*
X84024Y365707D01*
X84040Y365682D01*
X84135Y365593D01*
X84225Y365500D01*
X84250Y365484D01*
X84272Y365464D01*
X84385Y365401D01*
X84496Y365334D01*
X84524Y365325D01*
X84550Y365311D01*
X84676Y365278D01*
X84800Y365240D01*
X84829Y365239D01*
X84858Y365231D01*
X85019Y365221D01*
X92402Y365221D01*
X92800Y364823D01*
X92878Y364763D01*
X92951Y364695D01*
X93004Y364665D01*
X93051Y364628D01*
X93142Y364589D01*
X93229Y364541D01*
X93288Y364526D01*
X93343Y364502D01*
X93441Y364486D01*
X93537Y364462D01*
X93637Y364455D01*
X93657Y364452D01*
X93670Y364453D01*
X93698Y364451D01*
X100798Y364451D01*
X101989Y363261D01*
X101989Y353028D01*
X102004Y352910D01*
X102011Y352791D01*
X102024Y352753D01*
X102029Y352713D01*
X102073Y352602D01*
X102109Y352489D01*
X102131Y352455D01*
X102146Y352417D01*
X102216Y352321D01*
X102279Y352220D01*
X102309Y352192D01*
X102333Y352160D01*
X102424Y352084D01*
X102511Y352002D01*
X102547Y351983D01*
X102578Y351957D01*
X102685Y351906D01*
X102790Y351849D01*
X102829Y351839D01*
X102865Y351821D01*
X102982Y351799D01*
X103098Y351769D01*
X103158Y351765D01*
X103178Y351762D01*
X103198Y351763D01*
X103258Y351759D01*
X120021Y351759D01*
X120045Y351762D01*
G37*
G36*
X-7819Y-2048D02*
X-7819Y-2048D01*
X-7701Y-2041D01*
X-7662Y-2028D01*
X-7622Y-2023D01*
X-7511Y-1979D01*
X-7398Y-1943D01*
X-7364Y-1921D01*
X-7326Y-1906D01*
X-7230Y-1836D01*
X-7129Y-1773D01*
X-7102Y-1743D01*
X-7069Y-1719D01*
X-6993Y-1628D01*
X-6911Y-1541D01*
X-6892Y-1505D01*
X-6866Y-1474D01*
X-6815Y-1367D01*
X-6758Y-1262D01*
X-6748Y-1223D01*
X-6731Y-1187D01*
X-6708Y-1070D01*
X-6678Y-954D01*
X-6675Y-894D01*
X-6671Y-874D01*
X-6672Y-854D01*
X-6668Y-794D01*
X-6668Y70644D01*
X-6683Y70762D01*
X-6691Y70881D01*
X-6703Y70919D01*
X-6708Y70959D01*
X-6752Y71070D01*
X-6789Y71183D01*
X-6810Y71217D01*
X-6825Y71255D01*
X-6895Y71351D01*
X-6959Y71452D01*
X-6988Y71480D01*
X-7012Y71512D01*
X-7104Y71588D01*
X-7190Y71670D01*
X-7226Y71689D01*
X-7257Y71715D01*
X-7365Y71766D01*
X-7469Y71823D01*
X-7508Y71833D01*
X-7545Y71851D01*
X-7661Y71873D01*
X-7777Y71903D01*
X-7837Y71907D01*
X-7857Y71910D01*
X-7877Y71909D01*
X-7938Y71913D01*
X-28100Y71913D01*
X-28100Y116751D01*
X-28103Y116781D01*
X-28101Y116810D01*
X-28123Y116938D01*
X-28139Y117067D01*
X-28150Y117094D01*
X-28155Y117123D01*
X-28209Y117242D01*
X-28256Y117363D01*
X-28274Y117387D01*
X-28286Y117413D01*
X-28367Y117515D01*
X-28443Y117620D01*
X-28466Y117639D01*
X-28484Y117662D01*
X-28588Y117740D01*
X-28688Y117823D01*
X-28715Y117835D01*
X-28739Y117853D01*
X-28883Y117924D01*
X-30967Y118787D01*
X-32602Y120423D01*
X-33488Y122560D01*
X-33488Y124873D01*
X-32602Y127010D01*
X-30967Y128646D01*
X-28883Y129509D01*
X-28857Y129524D01*
X-28829Y129533D01*
X-28720Y129602D01*
X-28607Y129667D01*
X-28586Y129687D01*
X-28561Y129703D01*
X-28472Y129798D01*
X-28378Y129888D01*
X-28363Y129913D01*
X-28343Y129935D01*
X-28280Y130048D01*
X-28212Y130159D01*
X-28203Y130187D01*
X-28189Y130213D01*
X-28157Y130339D01*
X-28119Y130463D01*
X-28117Y130493D01*
X-28110Y130521D01*
X-28100Y130682D01*
X-28100Y157956D01*
X-28114Y158074D01*
X-28122Y158193D01*
X-28134Y158232D01*
X-28139Y158272D01*
X-28183Y158383D01*
X-28220Y158496D01*
X-28242Y158530D01*
X-28256Y158567D01*
X-28326Y158664D01*
X-28390Y158764D01*
X-28419Y158792D01*
X-28443Y158825D01*
X-28535Y158901D01*
X-28622Y158982D01*
X-28657Y159002D01*
X-28688Y159028D01*
X-28796Y159078D01*
X-28900Y159136D01*
X-28939Y159146D01*
X-28976Y159163D01*
X-29093Y159186D01*
X-29208Y159215D01*
X-29268Y159219D01*
X-29288Y159223D01*
X-29309Y159222D01*
X-29369Y159226D01*
X-77788Y159226D01*
X-77906Y159211D01*
X-78024Y159203D01*
X-78063Y159191D01*
X-78103Y159186D01*
X-78214Y159142D01*
X-78327Y159105D01*
X-78361Y159084D01*
X-78399Y159069D01*
X-78495Y158999D01*
X-78596Y158935D01*
X-78623Y158906D01*
X-78656Y158882D01*
X-78732Y158790D01*
X-78814Y158703D01*
X-78833Y158668D01*
X-78859Y158637D01*
X-78910Y158529D01*
X-78967Y158425D01*
X-78977Y158386D01*
X-78994Y158349D01*
X-79017Y158232D01*
X-79047Y158117D01*
X-79050Y158057D01*
X-79054Y158037D01*
X-79053Y158016D01*
X-79057Y157956D01*
X-79057Y128588D01*
X-79044Y128489D01*
X-79041Y128390D01*
X-79025Y128332D01*
X-79017Y128272D01*
X-78980Y128180D01*
X-78953Y128085D01*
X-78922Y128033D01*
X-78900Y127976D01*
X-78842Y127896D01*
X-78791Y127811D01*
X-78725Y127735D01*
X-78713Y127719D01*
X-78704Y127711D01*
X-78685Y127690D01*
X-67944Y116949D01*
X-67944Y-794D01*
X-67929Y-912D01*
X-67922Y-1031D01*
X-67909Y-1069D01*
X-67904Y-1109D01*
X-67861Y-1220D01*
X-67824Y-1333D01*
X-67802Y-1367D01*
X-67787Y-1405D01*
X-67718Y-1501D01*
X-67654Y-1602D01*
X-67624Y-1630D01*
X-67601Y-1662D01*
X-67509Y-1738D01*
X-67422Y-1820D01*
X-67387Y-1839D01*
X-67356Y-1865D01*
X-67248Y-1916D01*
X-67144Y-1973D01*
X-67104Y-1983D01*
X-67068Y-2001D01*
X-66951Y-2023D01*
X-66836Y-2053D01*
X-66776Y-2057D01*
X-66756Y-2060D01*
X-66735Y-2059D01*
X-66675Y-2063D01*
X-7938Y-2063D01*
X-7819Y-2048D01*
G37*
G36*
X-100458Y313736D02*
X-100458Y313736D01*
X-100338Y313743D01*
X-100301Y313755D01*
X-100263Y313760D01*
X-100150Y313804D01*
X-100036Y313841D01*
X-100003Y313862D01*
X-99967Y313876D01*
X-99869Y313947D01*
X-99767Y314011D01*
X-99740Y314040D01*
X-99709Y314062D01*
X-99632Y314155D01*
X-99549Y314243D01*
X-99530Y314277D01*
X-99505Y314307D01*
X-99454Y314416D01*
X-99395Y314521D01*
X-99386Y314559D01*
X-99369Y314594D01*
X-99346Y314713D01*
X-99316Y314829D01*
X-99312Y314887D01*
X-99309Y314906D01*
X-99310Y314927D01*
X-99306Y314990D01*
X-99306Y332798D01*
X-98532Y334665D01*
X-97103Y336095D01*
X-95156Y336901D01*
X-95103Y336908D01*
X-95011Y336945D01*
X-94916Y336972D01*
X-94863Y337003D01*
X-94807Y337025D01*
X-94727Y337083D01*
X-94642Y337134D01*
X-94566Y337200D01*
X-94550Y337212D01*
X-94542Y337221D01*
X-94521Y337240D01*
X-94321Y337440D01*
X-77160Y337440D01*
X-77022Y337457D01*
X-76884Y337470D01*
X-76865Y337477D01*
X-76844Y337480D01*
X-76715Y337531D01*
X-76584Y337578D01*
X-76567Y337589D01*
X-76549Y337597D01*
X-76436Y337678D01*
X-76321Y337756D01*
X-76308Y337772D01*
X-76291Y337783D01*
X-76203Y337891D01*
X-76111Y337995D01*
X-76101Y338013D01*
X-76089Y338028D01*
X-76029Y338154D01*
X-75966Y338278D01*
X-75962Y338298D01*
X-75953Y338316D01*
X-75927Y338453D01*
X-75896Y338588D01*
X-75897Y338609D01*
X-75893Y338628D01*
X-75902Y338767D01*
X-75906Y338906D01*
X-75912Y338926D01*
X-75913Y338946D01*
X-75956Y339078D01*
X-75994Y339212D01*
X-76005Y339229D01*
X-76011Y339248D01*
X-76085Y339366D01*
X-76156Y339486D01*
X-76175Y339507D01*
X-76181Y339517D01*
X-76196Y339531D01*
X-76262Y339606D01*
X-77564Y340908D01*
X-77564Y375054D01*
X-76373Y376245D01*
X-75246Y376245D01*
X-75128Y376260D01*
X-75009Y376268D01*
X-74970Y376280D01*
X-74930Y376285D01*
X-74819Y376329D01*
X-74706Y376366D01*
X-74672Y376387D01*
X-74635Y376402D01*
X-74538Y376472D01*
X-74438Y376536D01*
X-74410Y376565D01*
X-74377Y376589D01*
X-74301Y376681D01*
X-74220Y376767D01*
X-74200Y376803D01*
X-74174Y376834D01*
X-74124Y376942D01*
X-74066Y377046D01*
X-74056Y377085D01*
X-74039Y377122D01*
X-74016Y377238D01*
X-73987Y377354D01*
X-73983Y377414D01*
X-73979Y377434D01*
X-73980Y377454D01*
X-73976Y377514D01*
X-73976Y399542D01*
X-72786Y400733D01*
X-64608Y400733D01*
X-64509Y400745D01*
X-64410Y400748D01*
X-64352Y400765D01*
X-64292Y400773D01*
X-64200Y400809D01*
X-64105Y400837D01*
X-64053Y400867D01*
X-63996Y400890D01*
X-63916Y400948D01*
X-63831Y400998D01*
X-63755Y401064D01*
X-63739Y401076D01*
X-63731Y401086D01*
X-63710Y401104D01*
X-60298Y404516D01*
X-60225Y404610D01*
X-60147Y404700D01*
X-60128Y404735D01*
X-60103Y404767D01*
X-60056Y404877D01*
X-60002Y404983D01*
X-59993Y405022D01*
X-59977Y405059D01*
X-59958Y405177D01*
X-59932Y405293D01*
X-59934Y405333D01*
X-59927Y405373D01*
X-59938Y405492D01*
X-59942Y405611D01*
X-59953Y405650D01*
X-59957Y405690D01*
X-59997Y405802D01*
X-60030Y405916D01*
X-60051Y405951D01*
X-60065Y405989D01*
X-60132Y406088D01*
X-60192Y406190D01*
X-60232Y406236D01*
X-60243Y406252D01*
X-60258Y406266D01*
X-60298Y406311D01*
X-61420Y407433D01*
X-61420Y413117D01*
X-60229Y414308D01*
X-51264Y414308D01*
X-51166Y414320D01*
X-51067Y414323D01*
X-51008Y414340D01*
X-50948Y414348D01*
X-50856Y414384D01*
X-50761Y414412D01*
X-50709Y414442D01*
X-50653Y414465D01*
X-50573Y414523D01*
X-50487Y414573D01*
X-50412Y414639D01*
X-50395Y414651D01*
X-50387Y414661D01*
X-50366Y414680D01*
X-43668Y421377D01*
X-43595Y421472D01*
X-43517Y421561D01*
X-43498Y421597D01*
X-43473Y421629D01*
X-43426Y421738D01*
X-43372Y421844D01*
X-43363Y421883D01*
X-43347Y421921D01*
X-43328Y422038D01*
X-43302Y422154D01*
X-43303Y422195D01*
X-43297Y422235D01*
X-43308Y422353D01*
X-43312Y422472D01*
X-43323Y422511D01*
X-43327Y422551D01*
X-43367Y422664D01*
X-43400Y422778D01*
X-43421Y422812D01*
X-43435Y422851D01*
X-43501Y422949D01*
X-43562Y423052D01*
X-43602Y423097D01*
X-43613Y423114D01*
X-43628Y423127D01*
X-43668Y423172D01*
X-50366Y429870D01*
X-50445Y429931D01*
X-50517Y429999D01*
X-50570Y430028D01*
X-50618Y430065D01*
X-50709Y430105D01*
X-50795Y430153D01*
X-50854Y430168D01*
X-50909Y430192D01*
X-51007Y430207D01*
X-51103Y430232D01*
X-51203Y430238D01*
X-51223Y430242D01*
X-51236Y430240D01*
X-51264Y430242D01*
X-60229Y430242D01*
X-61420Y431433D01*
X-61420Y434876D01*
X-61438Y435014D01*
X-61451Y435152D01*
X-61458Y435172D01*
X-61460Y435192D01*
X-61511Y435321D01*
X-61558Y435452D01*
X-61570Y435468D01*
X-61577Y435487D01*
X-61658Y435599D01*
X-61737Y435715D01*
X-61752Y435728D01*
X-61764Y435745D01*
X-61871Y435833D01*
X-61975Y435925D01*
X-61993Y435934D01*
X-62009Y435947D01*
X-62134Y436007D01*
X-62258Y436070D01*
X-62278Y436074D01*
X-62297Y436083D01*
X-62433Y436109D01*
X-62569Y436140D01*
X-62589Y436139D01*
X-62609Y436143D01*
X-62747Y436134D01*
X-62887Y436130D01*
X-62906Y436124D01*
X-62926Y436123D01*
X-63058Y436080D01*
X-63192Y436041D01*
X-63210Y436031D01*
X-63229Y436025D01*
X-63346Y435951D01*
X-63466Y435880D01*
X-63487Y435861D01*
X-63498Y435855D01*
X-63512Y435840D01*
X-63587Y435774D01*
X-91814Y407546D01*
X-91875Y407468D01*
X-91943Y407396D01*
X-91972Y407343D01*
X-92009Y407295D01*
X-92049Y407204D01*
X-92096Y407117D01*
X-92111Y407059D01*
X-92136Y407003D01*
X-92151Y406905D01*
X-92176Y406809D01*
X-92182Y406709D01*
X-92185Y406689D01*
X-92184Y406677D01*
X-92186Y406649D01*
X-92186Y404258D01*
X-93377Y403067D01*
X-94690Y403067D01*
X-94788Y403055D01*
X-94887Y403052D01*
X-94945Y403035D01*
X-95005Y403027D01*
X-95097Y402991D01*
X-95193Y402963D01*
X-95245Y402933D01*
X-95301Y402910D01*
X-95381Y402852D01*
X-95466Y402802D01*
X-95542Y402736D01*
X-95558Y402724D01*
X-95566Y402714D01*
X-95587Y402696D01*
X-97907Y400376D01*
X-101101Y397182D01*
X-101161Y397104D01*
X-101229Y397032D01*
X-101258Y396979D01*
X-101295Y396931D01*
X-101335Y396840D01*
X-101383Y396753D01*
X-101398Y396695D01*
X-101422Y396639D01*
X-101437Y396541D01*
X-101462Y396446D01*
X-101468Y396346D01*
X-101472Y396325D01*
X-101470Y396313D01*
X-101472Y396285D01*
X-101472Y388908D01*
X-107127Y383254D01*
X-115123Y383254D01*
X-120778Y388908D01*
X-120778Y396905D01*
X-115123Y402559D01*
X-107746Y402559D01*
X-107648Y402571D01*
X-107549Y402574D01*
X-107491Y402591D01*
X-107431Y402599D01*
X-107339Y402635D01*
X-107244Y402663D01*
X-107191Y402694D01*
X-107135Y402716D01*
X-107055Y402774D01*
X-106970Y402824D01*
X-106894Y402891D01*
X-106878Y402903D01*
X-106873Y402909D01*
X-106869Y402912D01*
X-106864Y402917D01*
X-106849Y402931D01*
X-106623Y403156D01*
X-106563Y403235D01*
X-106495Y403307D01*
X-106465Y403360D01*
X-106428Y403408D01*
X-106389Y403499D01*
X-106341Y403585D01*
X-106326Y403644D01*
X-106302Y403700D01*
X-106286Y403797D01*
X-106262Y403893D01*
X-106255Y403993D01*
X-106252Y404014D01*
X-106253Y404026D01*
X-106251Y404054D01*
X-106251Y416942D01*
X-105061Y418133D01*
X-93377Y418133D01*
X-92871Y417627D01*
X-92777Y417554D01*
X-92687Y417475D01*
X-92651Y417456D01*
X-92619Y417432D01*
X-92510Y417384D01*
X-92404Y417330D01*
X-92365Y417321D01*
X-92327Y417305D01*
X-92210Y417287D01*
X-92094Y417260D01*
X-92053Y417262D01*
X-92013Y417255D01*
X-91895Y417267D01*
X-91776Y417270D01*
X-91737Y417281D01*
X-91697Y417285D01*
X-91585Y417325D01*
X-91470Y417359D01*
X-91435Y417379D01*
X-91397Y417393D01*
X-91299Y417460D01*
X-91196Y417520D01*
X-91151Y417560D01*
X-91134Y417571D01*
X-91121Y417587D01*
X-91076Y417626D01*
X-65822Y442880D01*
X-42652Y442880D01*
X-40345Y440573D01*
X-39632Y439860D01*
X-39523Y439775D01*
X-39416Y439687D01*
X-39397Y439678D01*
X-39381Y439666D01*
X-39253Y439610D01*
X-39128Y439551D01*
X-39108Y439547D01*
X-39089Y439539D01*
X-38951Y439517D01*
X-38815Y439491D01*
X-38795Y439492D01*
X-38775Y439489D01*
X-38636Y439502D01*
X-38498Y439511D01*
X-38479Y439517D01*
X-38459Y439519D01*
X-38328Y439566D01*
X-38196Y439609D01*
X-38178Y439620D01*
X-38159Y439627D01*
X-38045Y439705D01*
X-37927Y439779D01*
X-37913Y439794D01*
X-37896Y439805D01*
X-37804Y439909D01*
X-37709Y440011D01*
X-37699Y440029D01*
X-37686Y440044D01*
X-37623Y440167D01*
X-37555Y440289D01*
X-37550Y440309D01*
X-37541Y440327D01*
X-37511Y440463D01*
X-37476Y440597D01*
X-37474Y440625D01*
X-37471Y440637D01*
X-37472Y440658D01*
X-37466Y440758D01*
X-37466Y442369D01*
X-36275Y443560D01*
X-28904Y443560D01*
X-28786Y443575D01*
X-28667Y443582D01*
X-28629Y443595D01*
X-28588Y443600D01*
X-28478Y443643D01*
X-28365Y443680D01*
X-28330Y443702D01*
X-28293Y443717D01*
X-28197Y443786D01*
X-28096Y443850D01*
X-28068Y443880D01*
X-28035Y443903D01*
X-27960Y443995D01*
X-27878Y444082D01*
X-27858Y444117D01*
X-27833Y444148D01*
X-27782Y444256D01*
X-27724Y444360D01*
X-27714Y444400D01*
X-27697Y444436D01*
X-27675Y444553D01*
X-27645Y444668D01*
X-27641Y444728D01*
X-27637Y444748D01*
X-27639Y444769D01*
X-27635Y444829D01*
X-27635Y449369D01*
X-27647Y449467D01*
X-27650Y449566D01*
X-27667Y449624D01*
X-27675Y449684D01*
X-27711Y449777D01*
X-27739Y449872D01*
X-27769Y449924D01*
X-27792Y449980D01*
X-27850Y450060D01*
X-27900Y450146D01*
X-27966Y450221D01*
X-27978Y450238D01*
X-27988Y450245D01*
X-28006Y450266D01*
X-34186Y456446D01*
X-34264Y456507D01*
X-34337Y456575D01*
X-34390Y456604D01*
X-34437Y456641D01*
X-34528Y456680D01*
X-34615Y456728D01*
X-34674Y456743D01*
X-34729Y456767D01*
X-34827Y456783D01*
X-34923Y456808D01*
X-35023Y456814D01*
X-35043Y456817D01*
X-35056Y456816D01*
X-35084Y456818D01*
X-37707Y456818D01*
X-37805Y456805D01*
X-37904Y456802D01*
X-37962Y456786D01*
X-38022Y456778D01*
X-38114Y456742D01*
X-38209Y456714D01*
X-38262Y456683D01*
X-38318Y456661D01*
X-38398Y456603D01*
X-38483Y456553D01*
X-38559Y456486D01*
X-38575Y456474D01*
X-38583Y456465D01*
X-38604Y456446D01*
X-39605Y455445D01*
X-41742Y454560D01*
X-44056Y454560D01*
X-46193Y455445D01*
X-47828Y457081D01*
X-48426Y458523D01*
X-48462Y458587D01*
X-48489Y458655D01*
X-48541Y458725D01*
X-48583Y458800D01*
X-48634Y458852D01*
X-48678Y458911D01*
X-48745Y458966D01*
X-48805Y459028D01*
X-48867Y459066D01*
X-48924Y459113D01*
X-49002Y459149D01*
X-49076Y459194D01*
X-49146Y459216D01*
X-49212Y459247D01*
X-49297Y459263D01*
X-49380Y459288D01*
X-49453Y459292D01*
X-49525Y459305D01*
X-49611Y459299D01*
X-49697Y459303D01*
X-49769Y459288D01*
X-49842Y459283D01*
X-49924Y459256D01*
X-50009Y459239D01*
X-50075Y459207D01*
X-50144Y459184D01*
X-50217Y459137D01*
X-50295Y459099D01*
X-50350Y459052D01*
X-50412Y459012D01*
X-50529Y458901D01*
X-51316Y458054D01*
X-51324Y458042D01*
X-51335Y458033D01*
X-51434Y457906D01*
X-51888Y457240D01*
X-51969Y457214D01*
X-51972Y457212D01*
X-51976Y457211D01*
X-52105Y457128D01*
X-52237Y457044D01*
X-52240Y457041D01*
X-52244Y457039D01*
X-52361Y456928D01*
X-53405Y455803D01*
X-53408Y455800D01*
X-53411Y455797D01*
X-53502Y455668D01*
X-53591Y455545D01*
X-53592Y455541D01*
X-53595Y455537D01*
X-53651Y455390D01*
X-53684Y455307D01*
X-54311Y454806D01*
X-54322Y454796D01*
X-54334Y454788D01*
X-54451Y454677D01*
X-54999Y454087D01*
X-55082Y454073D01*
X-55086Y454072D01*
X-55090Y454071D01*
X-55232Y454008D01*
X-55374Y453945D01*
X-55377Y453943D01*
X-55381Y453941D01*
X-55513Y453849D01*
X-56713Y452892D01*
X-56716Y452889D01*
X-56720Y452887D01*
X-56826Y452776D01*
X-56935Y452664D01*
X-56937Y452661D01*
X-56940Y452658D01*
X-57015Y452526D01*
X-57062Y452443D01*
X-57758Y452042D01*
X-57769Y452033D01*
X-57783Y452027D01*
X-57915Y451935D01*
X-58544Y451433D01*
X-58629Y451432D01*
X-58633Y451431D01*
X-58638Y451431D01*
X-58788Y451389D01*
X-58936Y451349D01*
X-58940Y451347D01*
X-58944Y451345D01*
X-59088Y451274D01*
X-60418Y450507D01*
X-60422Y450504D01*
X-60425Y450503D01*
X-60547Y450409D01*
X-60672Y450315D01*
X-60674Y450311D01*
X-60678Y450309D01*
X-60774Y450186D01*
X-60830Y450114D01*
X-61578Y449821D01*
X-61591Y449814D01*
X-61605Y449811D01*
X-61749Y449739D01*
X-62446Y449337D01*
X-62531Y449348D01*
X-62535Y449348D01*
X-62539Y449348D01*
X-62692Y449330D01*
X-62847Y449312D01*
X-62850Y449310D01*
X-62855Y449310D01*
X-63008Y449261D01*
X-64437Y448700D01*
X-64441Y448698D01*
X-64445Y448697D01*
X-64582Y448621D01*
X-64717Y448548D01*
X-64720Y448545D01*
X-64723Y448543D01*
X-64836Y448436D01*
X-64903Y448374D01*
X-65686Y448195D01*
X-65700Y448190D01*
X-65714Y448189D01*
X-65867Y448139D01*
X-66617Y447845D01*
X-66699Y447869D01*
X-66703Y447870D01*
X-66707Y447871D01*
X-66863Y447875D01*
X-67017Y447881D01*
X-67021Y447880D01*
X-67025Y447880D01*
X-67184Y447854D01*
X-68681Y447513D01*
X-68685Y447511D01*
X-68689Y447511D01*
X-68832Y447458D01*
X-68980Y447404D01*
X-68983Y447402D01*
X-68987Y447400D01*
X-69114Y447312D01*
X-69190Y447259D01*
X-69991Y447200D01*
X-70005Y447197D01*
X-70020Y447197D01*
X-70179Y447171D01*
X-70964Y446993D01*
X-71041Y447028D01*
X-71045Y447029D01*
X-71049Y447031D01*
X-71201Y447058D01*
X-71353Y447087D01*
X-71357Y447086D01*
X-71362Y447087D01*
X-71523Y447085D01*
X-73054Y446971D01*
X-73058Y446970D01*
X-73062Y446970D01*
X-73214Y446939D01*
X-73366Y446908D01*
X-73369Y446906D01*
X-73373Y446905D01*
X-73511Y446838D01*
X-73595Y446797D01*
X-74396Y446857D01*
X-74410Y446856D01*
X-74425Y446859D01*
X-74586Y446857D01*
X-75389Y446797D01*
X-75460Y446844D01*
X-75464Y446845D01*
X-75467Y446847D01*
X-75611Y446897D01*
X-75760Y446948D01*
X-75764Y446948D01*
X-75768Y446950D01*
X-75928Y446972D01*
X-77459Y447087D01*
X-77463Y447087D01*
X-77467Y447088D01*
X-77622Y447079D01*
X-77776Y447071D01*
X-77780Y447070D01*
X-77785Y447070D01*
X-77932Y447023D01*
X-78020Y446995D01*
X-78803Y447174D01*
X-78817Y447176D01*
X-78831Y447180D01*
X-78990Y447203D01*
X-79794Y447263D01*
X-79857Y447320D01*
X-79860Y447322D01*
X-79863Y447325D01*
X-80002Y447397D01*
X-80138Y447468D01*
X-80142Y447469D01*
X-80146Y447471D01*
X-80300Y447517D01*
X-81797Y447859D01*
X-81801Y447859D01*
X-81805Y447860D01*
X-81958Y447875D01*
X-82114Y447890D01*
X-82118Y447890D01*
X-82122Y447890D01*
X-82273Y447866D01*
X-82366Y447851D01*
X-83113Y448145D01*
X-83127Y448149D01*
X-83140Y448155D01*
X-83294Y448201D01*
X-84080Y448380D01*
X-84133Y448446D01*
X-84137Y448449D01*
X-84139Y448452D01*
X-84264Y448542D01*
X-84390Y448634D01*
X-84394Y448636D01*
X-84397Y448638D01*
X-84543Y448707D01*
X-85972Y449268D01*
X-85976Y449269D01*
X-85980Y449271D01*
X-86129Y449308D01*
X-86280Y449346D01*
X-86284Y449346D01*
X-86288Y449347D01*
X-86443Y449346D01*
X-86536Y449346D01*
X-87231Y449747D01*
X-87244Y449753D01*
X-87256Y449761D01*
X-87402Y449830D01*
X-88151Y450124D01*
X-88195Y450197D01*
X-88198Y450200D01*
X-88200Y450204D01*
X-88311Y450312D01*
X-88420Y450421D01*
X-88424Y450424D01*
X-88427Y450426D01*
X-88561Y450516D01*
X-89890Y451284D01*
X-89894Y451285D01*
X-89897Y451288D01*
X-90042Y451348D01*
X-90183Y451407D01*
X-90187Y451408D01*
X-90191Y451409D01*
X-90344Y451431D01*
X-90436Y451445D01*
X-91064Y451945D01*
X-91076Y451953D01*
X-91086Y451963D01*
X-91220Y452052D01*
X-91918Y452455D01*
X-91950Y452534D01*
X-91952Y452537D01*
X-91954Y452541D01*
X-92046Y452664D01*
X-92139Y452789D01*
X-92142Y452792D01*
X-92145Y452795D01*
X-92264Y452903D01*
X-93464Y453861D01*
X-93468Y453863D01*
X-93471Y453866D01*
X-93601Y453945D01*
X-93736Y454027D01*
X-93740Y454028D01*
X-93743Y454030D01*
X-93891Y454074D01*
X-93980Y454102D01*
X-94526Y454690D01*
X-94537Y454700D01*
X-94546Y454711D01*
X-94665Y454819D01*
X-95294Y455322D01*
X-95314Y455404D01*
X-95316Y455408D01*
X-95317Y455412D01*
X-95392Y455550D01*
X-95464Y455685D01*
X-95467Y455688D01*
X-95469Y455692D01*
X-95570Y455817D01*
X-96614Y456942D01*
X-96617Y456945D01*
X-96620Y456948D01*
X-96740Y457048D01*
X-96858Y457147D01*
X-96862Y457149D01*
X-96865Y457151D01*
X-97007Y457218D01*
X-97088Y457257D01*
X-97541Y457920D01*
X-97550Y457931D01*
X-97557Y457944D01*
X-97659Y458069D01*
X-98206Y458659D01*
X-98214Y458744D01*
X-98215Y458748D01*
X-98216Y458752D01*
X-98268Y458897D01*
X-98320Y459044D01*
X-98322Y459047D01*
X-98323Y459051D01*
X-98405Y459190D01*
X-98824Y459804D01*
X-98874Y459860D01*
X-98916Y459923D01*
X-98979Y459979D01*
X-99034Y460042D01*
X-99097Y460084D01*
X-99153Y460135D01*
X-99228Y460173D01*
X-99297Y460220D01*
X-99369Y460246D01*
X-99436Y460281D01*
X-99518Y460300D01*
X-99597Y460328D01*
X-99672Y460335D01*
X-99746Y460352D01*
X-99830Y460350D01*
X-99913Y460358D01*
X-99988Y460346D01*
X-100064Y460344D01*
X-100144Y460321D01*
X-100227Y460308D01*
X-100297Y460278D01*
X-100370Y460257D01*
X-100513Y460184D01*
X-132359Y441551D01*
X-132942Y442778D01*
X-132959Y442801D01*
X-132969Y442829D01*
X-133018Y442880D01*
X-133061Y442937D01*
X-133086Y442952D01*
X-133106Y442973D01*
X-133171Y443001D01*
X-133233Y443037D01*
X-133262Y443041D01*
X-133288Y443052D01*
X-133359Y443053D01*
X-133430Y443062D01*
X-133458Y443054D01*
X-133487Y443054D01*
X-133581Y443019D01*
X-133622Y443008D01*
X-133630Y443001D01*
X-133643Y442996D01*
X-150120Y433457D01*
X-150178Y433406D01*
X-150240Y433360D01*
X-150252Y433340D01*
X-150269Y433325D01*
X-150302Y433255D01*
X-150341Y433189D01*
X-150346Y433164D01*
X-150355Y433145D01*
X-150356Y433101D01*
X-150369Y433025D01*
X-150392Y413986D01*
X-150386Y413958D01*
X-150389Y413929D01*
X-150367Y413861D01*
X-150353Y413791D01*
X-150336Y413767D01*
X-150327Y413740D01*
X-150281Y413686D01*
X-150240Y413627D01*
X-150216Y413611D01*
X-150197Y413589D01*
X-150133Y413558D01*
X-150073Y413520D01*
X-150044Y413515D01*
X-150018Y413502D01*
X-149919Y413494D01*
X-149877Y413486D01*
X-149866Y413489D01*
X-149853Y413488D01*
X-149219Y413539D01*
X-149219Y376962D01*
X-149210Y376891D01*
X-149210Y376820D01*
X-149190Y376734D01*
X-149179Y376647D01*
X-149152Y376580D01*
X-149135Y376511D01*
X-149094Y376433D01*
X-149062Y376351D01*
X-149020Y376293D01*
X-148986Y376230D01*
X-148927Y376165D01*
X-148875Y376094D01*
X-148820Y376048D01*
X-148771Y375995D01*
X-148698Y375947D01*
X-148630Y375891D01*
X-148565Y375860D01*
X-148505Y375821D01*
X-148422Y375793D01*
X-148342Y375755D01*
X-148272Y375742D01*
X-148204Y375719D01*
X-148045Y375697D01*
X-146720Y375597D01*
X-146715Y375597D01*
X-146711Y375596D01*
X-146557Y375605D01*
X-146402Y375613D01*
X-146398Y375614D01*
X-146394Y375614D01*
X-146248Y375661D01*
X-146158Y375689D01*
X-145376Y375510D01*
X-145361Y375509D01*
X-145347Y375504D01*
X-145188Y375482D01*
X-144385Y375421D01*
X-144322Y375364D01*
X-144318Y375362D01*
X-144315Y375360D01*
X-144176Y375288D01*
X-144040Y375216D01*
X-144036Y375215D01*
X-144032Y375213D01*
X-143878Y375168D01*
X-142381Y374826D01*
X-142377Y374825D01*
X-142373Y374824D01*
X-142220Y374810D01*
X-142065Y374794D01*
X-142061Y374795D01*
X-142057Y374794D01*
X-141906Y374819D01*
X-141812Y374833D01*
X-141065Y374539D01*
X-141051Y374536D01*
X-141038Y374529D01*
X-140884Y374483D01*
X-140099Y374304D01*
X-140045Y374238D01*
X-140041Y374236D01*
X-140039Y374232D01*
X-139914Y374142D01*
X-139788Y374050D01*
X-139785Y374048D01*
X-139781Y374046D01*
X-139635Y373978D01*
X-138206Y373416D01*
X-138202Y373415D01*
X-138199Y373413D01*
X-138049Y373376D01*
X-137898Y373338D01*
X-137894Y373338D01*
X-137890Y373337D01*
X-137735Y373338D01*
X-137643Y373339D01*
X-136948Y372937D01*
X-136934Y372931D01*
X-136922Y372923D01*
X-136777Y372855D01*
X-136027Y372560D01*
X-135984Y372487D01*
X-135981Y372484D01*
X-135978Y372481D01*
X-135868Y372372D01*
X-135758Y372263D01*
X-135755Y372261D01*
X-135752Y372258D01*
X-135618Y372169D01*
X-134288Y371400D01*
X-134284Y371399D01*
X-134281Y371396D01*
X-134136Y371337D01*
X-133995Y371277D01*
X-133991Y371276D01*
X-133987Y371275D01*
X-133834Y371253D01*
X-133742Y371240D01*
X-133115Y370739D01*
X-133102Y370731D01*
X-133092Y370721D01*
X-132958Y370632D01*
X-132261Y370229D01*
X-132229Y370150D01*
X-132226Y370147D01*
X-132225Y370143D01*
X-132130Y370018D01*
X-132039Y369895D01*
X-132036Y369892D01*
X-132033Y369889D01*
X-131914Y369781D01*
X-130714Y368823D01*
X-130710Y368821D01*
X-130708Y368818D01*
X-130573Y368737D01*
X-130442Y368657D01*
X-130439Y368656D01*
X-130435Y368654D01*
X-130285Y368609D01*
X-130198Y368583D01*
X-129652Y367994D01*
X-129641Y367985D01*
X-129633Y367973D01*
X-129513Y367865D01*
X-128884Y367363D01*
X-128864Y367280D01*
X-128862Y367276D01*
X-128861Y367272D01*
X-128787Y367135D01*
X-128715Y366999D01*
X-128712Y366996D01*
X-128710Y366992D01*
X-128608Y366868D01*
X-127564Y365742D01*
X-127561Y365739D01*
X-127558Y365736D01*
X-127438Y365636D01*
X-127320Y365538D01*
X-127317Y365536D01*
X-127313Y365533D01*
X-127174Y365468D01*
X-127090Y365427D01*
X-126638Y364764D01*
X-126628Y364753D01*
X-126621Y364740D01*
X-126520Y364615D01*
X-125972Y364025D01*
X-125964Y363940D01*
X-125963Y363936D01*
X-125963Y363932D01*
X-125909Y363783D01*
X-125859Y363640D01*
X-125856Y363637D01*
X-125855Y363633D01*
X-125773Y363494D01*
X-124908Y362225D01*
X-124906Y362222D01*
X-124904Y362219D01*
X-124801Y362104D01*
X-124698Y361987D01*
X-124694Y361985D01*
X-124692Y361982D01*
X-124563Y361896D01*
X-124460Y361826D01*
X-124446Y361804D01*
X-124364Y361675D01*
X-124360Y361671D01*
X-124357Y361666D01*
X-124244Y361562D01*
X-124133Y361457D01*
X-124127Y361454D01*
X-124123Y361450D01*
X-123988Y361377D01*
X-123854Y361304D01*
X-123848Y361302D01*
X-123843Y361299D01*
X-123694Y361262D01*
X-123546Y361224D01*
X-123538Y361224D01*
X-123534Y361223D01*
X-123524Y361223D01*
X-123386Y361214D01*
X-121481Y361214D01*
X-121383Y361226D01*
X-121284Y361229D01*
X-121226Y361246D01*
X-121166Y361254D01*
X-121073Y361290D01*
X-120978Y361318D01*
X-120926Y361349D01*
X-120870Y361371D01*
X-120790Y361429D01*
X-120704Y361479D01*
X-120629Y361546D01*
X-120613Y361558D01*
X-120605Y361567D01*
X-120584Y361586D01*
X-119583Y362587D01*
X-117445Y363472D01*
X-115132Y363472D01*
X-112995Y362587D01*
X-111359Y360951D01*
X-110474Y358814D01*
X-110474Y356501D01*
X-111359Y354363D01*
X-112995Y352728D01*
X-115132Y351843D01*
X-117445Y351843D01*
X-118876Y352435D01*
X-119014Y352473D01*
X-119152Y352514D01*
X-119168Y352515D01*
X-119182Y352519D01*
X-119326Y352521D01*
X-119470Y352527D01*
X-119485Y352524D01*
X-119500Y352524D01*
X-119641Y352490D01*
X-119781Y352460D01*
X-119795Y352453D01*
X-119810Y352450D01*
X-119937Y352382D01*
X-120066Y352318D01*
X-120077Y352308D01*
X-120091Y352301D01*
X-120197Y352204D01*
X-120306Y352110D01*
X-120315Y352097D01*
X-120326Y352087D01*
X-120405Y351967D01*
X-120487Y351849D01*
X-120492Y351834D01*
X-120501Y351821D01*
X-120548Y351685D01*
X-120598Y351550D01*
X-120599Y351535D01*
X-120604Y351521D01*
X-120616Y351377D01*
X-120630Y351234D01*
X-120629Y351213D01*
X-120629Y351204D01*
X-120626Y351186D01*
X-120617Y351074D01*
X-120438Y349890D01*
X-120437Y349886D01*
X-120437Y349881D01*
X-120393Y349728D01*
X-120352Y349583D01*
X-120350Y349580D01*
X-120349Y349576D01*
X-120270Y349442D01*
X-120224Y349363D01*
X-120224Y348560D01*
X-120222Y348545D01*
X-120224Y348531D01*
X-120210Y348371D01*
X-120090Y347574D01*
X-120132Y347500D01*
X-120133Y347496D01*
X-120135Y347492D01*
X-120175Y347339D01*
X-120213Y347193D01*
X-120213Y347189D01*
X-120214Y347184D01*
X-120225Y347024D01*
X-120225Y345488D01*
X-120225Y345484D01*
X-120225Y345480D01*
X-120205Y345326D01*
X-120185Y345173D01*
X-120184Y345169D01*
X-120183Y345165D01*
X-120126Y345022D01*
X-120091Y344935D01*
X-120211Y344142D01*
X-120212Y344127D01*
X-120215Y344113D01*
X-120226Y343952D01*
X-120226Y343147D01*
X-120278Y343080D01*
X-120280Y343076D01*
X-120282Y343073D01*
X-120343Y342930D01*
X-120404Y342788D01*
X-120405Y342784D01*
X-120407Y342780D01*
X-120441Y342623D01*
X-120670Y341104D01*
X-120670Y341100D01*
X-120671Y341096D01*
X-120674Y340941D01*
X-120678Y340787D01*
X-120677Y340782D01*
X-120677Y340778D01*
X-120641Y340628D01*
X-120620Y340538D01*
X-120857Y339771D01*
X-120860Y339756D01*
X-120866Y339743D01*
X-120900Y339586D01*
X-121020Y338789D01*
X-121081Y338731D01*
X-121084Y338727D01*
X-121087Y338724D01*
X-121167Y338594D01*
X-121250Y338461D01*
X-121251Y338457D01*
X-121253Y338453D01*
X-121310Y338303D01*
X-121764Y336836D01*
X-121764Y336832D01*
X-121766Y336828D01*
X-121791Y336677D01*
X-121819Y336523D01*
X-121818Y336518D01*
X-121819Y336514D01*
X-121806Y336363D01*
X-121799Y336268D01*
X-122147Y335545D01*
X-122152Y335531D01*
X-122160Y335519D01*
X-122217Y335368D01*
X-122454Y334599D01*
X-122524Y334550D01*
X-122527Y334547D01*
X-122530Y334544D01*
X-122630Y334426D01*
X-122731Y334308D01*
X-122733Y334305D01*
X-122735Y334301D01*
X-122814Y334161D01*
X-123481Y332778D01*
X-123482Y332774D01*
X-123485Y332770D01*
X-123533Y332623D01*
X-123582Y332476D01*
X-123582Y332472D01*
X-123584Y332468D01*
X-123594Y332313D01*
X-123601Y332222D01*
X-124053Y331558D01*
X-124060Y331546D01*
X-124069Y331534D01*
X-124148Y331394D01*
X-124498Y330669D01*
X-124574Y330631D01*
X-124577Y330628D01*
X-124580Y330626D01*
X-124697Y330524D01*
X-124814Y330423D01*
X-124817Y330419D01*
X-124820Y330417D01*
X-124919Y330290D01*
X-125784Y329021D01*
X-125786Y329018D01*
X-125789Y329014D01*
X-125859Y328875D01*
X-125929Y328738D01*
X-125930Y328734D01*
X-125932Y328730D01*
X-125965Y328578D01*
X-125985Y328489D01*
X-126531Y327901D01*
X-126540Y327889D01*
X-126551Y327879D01*
X-126650Y327752D01*
X-127104Y327087D01*
X-127184Y327061D01*
X-127188Y327059D01*
X-127192Y327057D01*
X-127321Y326975D01*
X-127453Y326891D01*
X-127456Y326888D01*
X-127460Y326886D01*
X-127576Y326775D01*
X-128621Y325650D01*
X-128624Y325646D01*
X-128627Y325644D01*
X-128718Y325515D01*
X-128807Y325391D01*
X-128808Y325388D01*
X-128811Y325384D01*
X-128867Y325236D01*
X-128899Y325153D01*
X-129527Y324653D01*
X-129537Y324643D01*
X-129550Y324635D01*
X-129666Y324524D01*
X-130214Y323934D01*
X-130298Y323920D01*
X-130302Y323918D01*
X-130306Y323918D01*
X-130448Y323854D01*
X-130589Y323792D01*
X-130593Y323790D01*
X-130596Y323788D01*
X-130728Y323696D01*
X-131929Y322739D01*
X-131932Y322736D01*
X-131936Y322734D01*
X-132042Y322623D01*
X-132151Y322511D01*
X-132153Y322507D01*
X-132156Y322504D01*
X-132231Y322373D01*
X-132278Y322290D01*
X-132974Y321888D01*
X-132985Y321880D01*
X-132998Y321874D01*
X-133130Y321782D01*
X-133760Y321280D01*
X-133845Y321278D01*
X-133849Y321277D01*
X-133853Y321277D01*
X-134004Y321236D01*
X-134152Y321195D01*
X-134156Y321193D01*
X-134160Y321192D01*
X-134304Y321121D01*
X-135634Y320353D01*
X-135638Y320351D01*
X-135641Y320349D01*
X-135763Y320256D01*
X-135888Y320161D01*
X-135890Y320158D01*
X-135893Y320156D01*
X-135989Y320033D01*
X-136046Y319961D01*
X-136794Y319668D01*
X-136806Y319661D01*
X-136820Y319657D01*
X-136965Y319586D01*
X-137662Y319183D01*
X-137747Y319195D01*
X-137751Y319194D01*
X-137755Y319195D01*
X-137908Y319176D01*
X-138062Y319159D01*
X-138066Y319157D01*
X-138070Y319157D01*
X-138224Y319107D01*
X-139653Y318547D01*
X-139657Y318545D01*
X-139661Y318544D01*
X-139797Y318468D01*
X-139932Y318395D01*
X-139936Y318392D01*
X-139939Y318390D01*
X-140051Y318284D01*
X-140119Y318220D01*
X-140902Y318042D01*
X-140916Y318037D01*
X-140930Y318035D01*
X-141083Y317986D01*
X-141743Y317727D01*
X-141815Y317688D01*
X-141891Y317658D01*
X-141954Y317612D01*
X-142023Y317575D01*
X-142082Y317519D01*
X-142149Y317471D01*
X-142198Y317411D01*
X-142255Y317358D01*
X-142299Y317289D01*
X-142351Y317226D01*
X-142385Y317156D01*
X-142427Y317090D01*
X-142452Y317013D01*
X-142487Y316939D01*
X-142502Y316862D01*
X-142526Y316788D01*
X-142531Y316707D01*
X-142547Y316626D01*
X-142542Y316549D01*
X-142547Y316471D01*
X-142532Y316390D01*
X-142527Y316309D01*
X-142503Y316235D01*
X-142489Y316158D01*
X-142454Y316084D01*
X-142429Y316006D01*
X-142387Y315940D01*
X-142354Y315870D01*
X-142303Y315807D01*
X-142259Y315738D01*
X-142202Y315684D01*
X-142153Y315624D01*
X-142087Y315576D01*
X-142027Y315520D01*
X-141959Y315482D01*
X-141896Y315436D01*
X-141820Y315406D01*
X-141749Y315366D01*
X-141673Y315347D01*
X-141601Y315318D01*
X-141520Y315307D01*
X-141441Y315287D01*
X-141291Y315277D01*
X-141286Y315276D01*
X-141284Y315277D01*
X-141280Y315276D01*
X-126446Y315276D01*
X-125325Y314156D01*
X-125248Y314096D01*
X-125177Y314029D01*
X-125123Y313999D01*
X-125073Y313961D01*
X-124984Y313922D01*
X-124899Y313875D01*
X-124839Y313859D01*
X-124782Y313834D01*
X-124685Y313819D01*
X-124591Y313795D01*
X-124487Y313788D01*
X-124467Y313785D01*
X-124456Y313786D01*
X-124431Y313784D01*
X-100578Y313721D01*
X-100458Y313736D01*
G37*
G36*
X16225Y453406D02*
X16225Y453406D01*
X16344Y453413D01*
X16382Y453426D01*
X16423Y453431D01*
X16533Y453474D01*
X16646Y453511D01*
X16681Y453533D01*
X16718Y453548D01*
X16814Y453617D01*
X16915Y453681D01*
X16943Y453711D01*
X16976Y453734D01*
X17052Y453826D01*
X17133Y453913D01*
X17153Y453948D01*
X17178Y453979D01*
X17229Y454087D01*
X17287Y454191D01*
X17297Y454231D01*
X17314Y454267D01*
X17336Y454384D01*
X17366Y454499D01*
X17370Y454559D01*
X17374Y454579D01*
X17372Y454600D01*
X17376Y454660D01*
X17376Y455550D01*
X25048Y463222D01*
X25109Y463301D01*
X25177Y463373D01*
X25206Y463426D01*
X25243Y463474D01*
X25282Y463565D01*
X25330Y463651D01*
X25345Y463710D01*
X25369Y463765D01*
X25385Y463863D01*
X25410Y463959D01*
X25416Y464059D01*
X25419Y464079D01*
X25418Y464092D01*
X25420Y464120D01*
X25420Y465487D01*
X26305Y467624D01*
X27941Y469259D01*
X30078Y470145D01*
X32391Y470145D01*
X34528Y469259D01*
X36164Y467624D01*
X37049Y465487D01*
X37049Y463173D01*
X36164Y461036D01*
X35257Y460129D01*
X35173Y460020D01*
X35084Y459913D01*
X35075Y459894D01*
X35063Y459878D01*
X35007Y459751D01*
X34948Y459625D01*
X34944Y459605D01*
X34936Y459586D01*
X34914Y459448D01*
X34888Y459312D01*
X34890Y459292D01*
X34886Y459272D01*
X34899Y459133D01*
X34908Y458995D01*
X34914Y458976D01*
X34916Y458956D01*
X34963Y458824D01*
X35006Y458693D01*
X35017Y458675D01*
X35024Y458656D01*
X35102Y458541D01*
X35176Y458424D01*
X35191Y458410D01*
X35202Y458393D01*
X35306Y458301D01*
X35408Y458206D01*
X35426Y458196D01*
X35441Y458183D01*
X35564Y458120D01*
X35686Y458052D01*
X35706Y458047D01*
X35724Y458038D01*
X35860Y458008D01*
X35994Y457973D01*
X36022Y457971D01*
X36034Y457968D01*
X36055Y457969D01*
X36155Y457963D01*
X49257Y457963D01*
X49278Y457965D01*
X49299Y457963D01*
X49435Y457985D01*
X49573Y458003D01*
X49592Y458010D01*
X49613Y458014D01*
X49740Y458069D01*
X49868Y458120D01*
X49885Y458132D01*
X49904Y458140D01*
X50014Y458225D01*
X50126Y458306D01*
X50139Y458323D01*
X50156Y458335D01*
X50240Y458445D01*
X50328Y458551D01*
X50337Y458570D01*
X50350Y458587D01*
X50405Y458714D01*
X50464Y458839D01*
X50468Y458860D01*
X50476Y458879D01*
X50498Y459016D01*
X50524Y459151D01*
X50522Y459172D01*
X50526Y459193D01*
X50513Y459331D01*
X50504Y459469D01*
X50498Y459489D01*
X50496Y459510D01*
X50449Y459640D01*
X50406Y459771D01*
X50395Y459789D01*
X50388Y459809D01*
X50306Y459947D01*
X50240Y460043D01*
X50238Y460046D01*
X50236Y460050D01*
X50131Y460167D01*
X50030Y460281D01*
X50026Y460283D01*
X50023Y460287D01*
X49894Y460373D01*
X49818Y460424D01*
X49470Y461147D01*
X49462Y461160D01*
X49457Y461173D01*
X49375Y461312D01*
X48921Y461977D01*
X48926Y462062D01*
X48925Y462066D01*
X48925Y462070D01*
X48895Y462224D01*
X48866Y462374D01*
X48864Y462378D01*
X48863Y462382D01*
X48803Y462531D01*
X48136Y463914D01*
X48134Y463918D01*
X48132Y463922D01*
X48046Y464053D01*
X47963Y464181D01*
X47960Y464184D01*
X47958Y464188D01*
X47842Y464293D01*
X47775Y464354D01*
X47538Y465121D01*
X47532Y465135D01*
X47530Y465149D01*
X47469Y465298D01*
X47119Y466024D01*
X47137Y466107D01*
X47137Y466111D01*
X47138Y466115D01*
X47130Y466272D01*
X47124Y466424D01*
X47123Y466428D01*
X47123Y466433D01*
X47085Y466589D01*
X46632Y468056D01*
X46630Y468060D01*
X46630Y468064D01*
X46566Y468203D01*
X46501Y468346D01*
X46498Y468349D01*
X46497Y468353D01*
X46400Y468472D01*
X46341Y468545D01*
X46221Y469339D01*
X46217Y469353D01*
X46217Y469367D01*
X46179Y469524D01*
X45941Y470293D01*
X45971Y470373D01*
X45972Y470377D01*
X45973Y470381D01*
X45989Y470537D01*
X46006Y470689D01*
X46005Y470693D01*
X46006Y470697D01*
X45992Y470858D01*
X45762Y472376D01*
X45761Y472380D01*
X45761Y472384D01*
X45718Y472532D01*
X45676Y472682D01*
X45674Y472686D01*
X45673Y472690D01*
X45595Y472821D01*
X45548Y472903D01*
X45547Y473706D01*
X45545Y473720D01*
X45547Y473734D01*
X45533Y473895D01*
X45413Y474691D01*
X45454Y474765D01*
X45455Y474769D01*
X45457Y474773D01*
X45496Y474921D01*
X45536Y475073D01*
X45536Y475077D01*
X45537Y475081D01*
X45547Y475242D01*
X45546Y476777D01*
X45546Y476781D01*
X45546Y476785D01*
X45526Y476937D01*
X45506Y477093D01*
X45505Y477096D01*
X45504Y477101D01*
X45448Y477241D01*
X45412Y477330D01*
X45532Y478124D01*
X45532Y478138D01*
X45536Y478152D01*
X45546Y478313D01*
X45546Y479119D01*
X45598Y479186D01*
X45599Y479189D01*
X45602Y479193D01*
X45662Y479334D01*
X45724Y479478D01*
X45725Y479482D01*
X45726Y479485D01*
X45760Y479643D01*
X45989Y481161D01*
X45989Y481165D01*
X45990Y481169D01*
X45992Y481325D01*
X45996Y481479D01*
X45995Y481483D01*
X45995Y481487D01*
X45959Y481640D01*
X45938Y481728D01*
X46175Y482495D01*
X46177Y482509D01*
X46183Y482523D01*
X46217Y482680D01*
X46337Y483477D01*
X46398Y483535D01*
X46400Y483539D01*
X46403Y483542D01*
X46485Y483674D01*
X46567Y483805D01*
X46568Y483809D01*
X46570Y483813D01*
X46627Y483963D01*
X47079Y485431D01*
X47080Y485435D01*
X47082Y485438D01*
X47107Y485590D01*
X47134Y485744D01*
X47134Y485748D01*
X47134Y485752D01*
X47121Y485906D01*
X47114Y485998D01*
X47462Y486722D01*
X47467Y486736D01*
X47474Y486748D01*
X47531Y486898D01*
X47769Y487668D01*
X47838Y487717D01*
X47841Y487720D01*
X47844Y487723D01*
X47945Y487842D01*
X48045Y487959D01*
X48047Y487962D01*
X48049Y487966D01*
X48128Y488106D01*
X48659Y489210D01*
X48682Y489278D01*
X48714Y489342D01*
X48732Y489428D01*
X48760Y489511D01*
X48765Y489583D01*
X48780Y489653D01*
X48777Y489741D01*
X48783Y489829D01*
X48770Y489899D01*
X48767Y489971D01*
X48742Y490055D01*
X48726Y490141D01*
X48696Y490207D01*
X48676Y490275D01*
X48630Y490350D01*
X48593Y490430D01*
X48548Y490486D01*
X48511Y490547D01*
X48449Y490609D01*
X48393Y490677D01*
X48335Y490720D01*
X48284Y490770D01*
X48150Y490859D01*
X16510Y509127D01*
X16930Y509735D01*
X16941Y509762D01*
X16959Y509784D01*
X16980Y509852D01*
X17008Y509918D01*
X17008Y509947D01*
X17016Y509975D01*
X17008Y510046D01*
X17008Y510117D01*
X16997Y510143D01*
X16994Y510172D01*
X16959Y510235D01*
X16931Y510300D01*
X16910Y510320D01*
X16896Y510346D01*
X16819Y510409D01*
X16789Y510439D01*
X16778Y510443D01*
X16768Y510451D01*
X268Y519951D01*
X195Y519976D01*
X124Y520007D01*
X101Y520007D01*
X79Y520014D01*
X3Y520008D01*
X-74Y520009D01*
X-99Y520000D01*
X-119Y519999D01*
X-159Y519978D01*
X-230Y519951D01*
X-16730Y510451D01*
X-16752Y510432D01*
X-16778Y510420D01*
X-16826Y510367D01*
X-16879Y510320D01*
X-16892Y510294D01*
X-16911Y510272D01*
X-16935Y510205D01*
X-16965Y510141D01*
X-16967Y510112D01*
X-16976Y510084D01*
X-16971Y510013D01*
X-16975Y509942D01*
X-16965Y509915D01*
X-16963Y509886D01*
X-16920Y509795D01*
X-16905Y509755D01*
X-16898Y509747D01*
X-16892Y509735D01*
X-16468Y509120D01*
X-47385Y491270D01*
X-47387Y491269D01*
X-47391Y491267D01*
X-47573Y491160D01*
X-47627Y491119D01*
X-47686Y491086D01*
X-47753Y491022D01*
X-47825Y490966D01*
X-47867Y490913D01*
X-47917Y490866D01*
X-47965Y490788D01*
X-48022Y490716D01*
X-48049Y490654D01*
X-48085Y490596D01*
X-48113Y490509D01*
X-48149Y490425D01*
X-48160Y490358D01*
X-48181Y490293D01*
X-48186Y490201D01*
X-48201Y490111D01*
X-48195Y490043D01*
X-48198Y489975D01*
X-48180Y489885D01*
X-48172Y489794D01*
X-48150Y489730D01*
X-48136Y489664D01*
X-48076Y489514D01*
X-47591Y488506D01*
X-47589Y488503D01*
X-47587Y488499D01*
X-47501Y488367D01*
X-47418Y488239D01*
X-47415Y488236D01*
X-47413Y488233D01*
X-47299Y488129D01*
X-47230Y488066D01*
X-46994Y487298D01*
X-46988Y487285D01*
X-46985Y487271D01*
X-46925Y487122D01*
X-46575Y486396D01*
X-46593Y486313D01*
X-46593Y486309D01*
X-46594Y486305D01*
X-46587Y486152D01*
X-46581Y485995D01*
X-46579Y485991D01*
X-46579Y485987D01*
X-46542Y485831D01*
X-46090Y484363D01*
X-46088Y484359D01*
X-46087Y484355D01*
X-46022Y484214D01*
X-45959Y484073D01*
X-45956Y484070D01*
X-45954Y484066D01*
X-45857Y483947D01*
X-45799Y483874D01*
X-45679Y483080D01*
X-45676Y483066D01*
X-45675Y483052D01*
X-45637Y482895D01*
X-45400Y482125D01*
X-45430Y482046D01*
X-45431Y482042D01*
X-45432Y482038D01*
X-45448Y481884D01*
X-45465Y481730D01*
X-45464Y481726D01*
X-45465Y481722D01*
X-45451Y481561D01*
X-45223Y480043D01*
X-45222Y480039D01*
X-45221Y480035D01*
X-45178Y479886D01*
X-45136Y479737D01*
X-45134Y479733D01*
X-45133Y479729D01*
X-45054Y479595D01*
X-45008Y479516D01*
X-45008Y478713D01*
X-45007Y478699D01*
X-45008Y478684D01*
X-44994Y478524D01*
X-44874Y477727D01*
X-44916Y477653D01*
X-44917Y477649D01*
X-44919Y477646D01*
X-44959Y477492D01*
X-44997Y477346D01*
X-44998Y477342D01*
X-44999Y477338D01*
X-45009Y477177D01*
X-45009Y475642D01*
X-45009Y475637D01*
X-45009Y475633D01*
X-44989Y475479D01*
X-44970Y475326D01*
X-44968Y475322D01*
X-44968Y475318D01*
X-44909Y475172D01*
X-44853Y475030D01*
X-44850Y475027D01*
X-44849Y475023D01*
X-44792Y474934D01*
X-44783Y474908D01*
X-44760Y474807D01*
X-44734Y474758D01*
X-44717Y474705D01*
X-44661Y474617D01*
X-44613Y474524D01*
X-44577Y474483D01*
X-44547Y474437D01*
X-44471Y474365D01*
X-44401Y474287D01*
X-44356Y474256D01*
X-44316Y474219D01*
X-44224Y474168D01*
X-44137Y474110D01*
X-44085Y474092D01*
X-44037Y474065D01*
X-43936Y474039D01*
X-43837Y474004D01*
X-43782Y473999D01*
X-43729Y473986D01*
X-43568Y473975D01*
X-33971Y473975D01*
X-30915Y470920D01*
X-30915Y470904D01*
X-30908Y470883D01*
X-30908Y470871D01*
X-30897Y470836D01*
X-30890Y470786D01*
X-30854Y470694D01*
X-30826Y470599D01*
X-30811Y470574D01*
X-30810Y470568D01*
X-30795Y470545D01*
X-30773Y470490D01*
X-30715Y470410D01*
X-30665Y470325D01*
X-30598Y470249D01*
X-30586Y470233D01*
X-30577Y470225D01*
X-30558Y470204D01*
X-16028Y455674D01*
X-16028Y454660D01*
X-16013Y454542D01*
X-16006Y454423D01*
X-15993Y454385D01*
X-15988Y454344D01*
X-15945Y454234D01*
X-15908Y454121D01*
X-15886Y454086D01*
X-15871Y454049D01*
X-15802Y453953D01*
X-15738Y453852D01*
X-15708Y453824D01*
X-15685Y453791D01*
X-15593Y453715D01*
X-15506Y453634D01*
X-15471Y453614D01*
X-15440Y453589D01*
X-15332Y453538D01*
X-15228Y453480D01*
X-15188Y453470D01*
X-15152Y453453D01*
X-15035Y453431D01*
X-14920Y453401D01*
X-14860Y453397D01*
X-14840Y453393D01*
X-14819Y453395D01*
X-14759Y453391D01*
X16107Y453391D01*
X16225Y453406D01*
G37*
G36*
X-149680Y318754D02*
X-149680Y318754D01*
X-149669Y318753D01*
X-145642Y319053D01*
X-145611Y319062D01*
X-145568Y319064D01*
X-141632Y319961D01*
X-141603Y319975D01*
X-141560Y319983D01*
X-137801Y321457D01*
X-137774Y321475D01*
X-137734Y321490D01*
X-134237Y323507D01*
X-134213Y323528D01*
X-134175Y323549D01*
X-131017Y326066D01*
X-130997Y326090D01*
X-130963Y326117D01*
X-128215Y329075D01*
X-128199Y329103D01*
X-128169Y329134D01*
X-125893Y332469D01*
X-125881Y332499D01*
X-125856Y332534D01*
X-124103Y336171D01*
X-124095Y336202D01*
X-124076Y336240D01*
X-122884Y340098D01*
X-122881Y340130D01*
X-122868Y340171D01*
X-122265Y344163D01*
X-122266Y344195D01*
X-122259Y344238D01*
X-122258Y348276D01*
X-122264Y348307D01*
X-122263Y348350D01*
X-122864Y352343D01*
X-122875Y352373D01*
X-122880Y352415D01*
X-124069Y356274D01*
X-124085Y356302D01*
X-124096Y356344D01*
X-125847Y359982D01*
X-125866Y360007D01*
X-125884Y360047D01*
X-128158Y363383D01*
X-128181Y363406D01*
X-128204Y363442D01*
X-130950Y366402D01*
X-130976Y366421D01*
X-131004Y366453D01*
X-134160Y368972D01*
X-134189Y368986D01*
X-134222Y369014D01*
X-137718Y371034D01*
X-137748Y371044D01*
X-137785Y371066D01*
X-141543Y372542D01*
X-141575Y372548D01*
X-141615Y372564D01*
X-145551Y373464D01*
X-145583Y373465D01*
X-145625Y373475D01*
X-149651Y373778D01*
X-149678Y373775D01*
X-149705Y373779D01*
X-149776Y373763D01*
X-149848Y373753D01*
X-149872Y373740D01*
X-149898Y373734D01*
X-149957Y373690D01*
X-150020Y373654D01*
X-150037Y373632D01*
X-150058Y373616D01*
X-150096Y373553D01*
X-150139Y373495D01*
X-150146Y373468D01*
X-150160Y373445D01*
X-150177Y373341D01*
X-150187Y373301D01*
X-150186Y373292D01*
X-150188Y373281D01*
X-150205Y319251D01*
X-150200Y319224D01*
X-150202Y319197D01*
X-150180Y319127D01*
X-150165Y319056D01*
X-150150Y319033D01*
X-150142Y319007D01*
X-150094Y318952D01*
X-150053Y318892D01*
X-150030Y318877D01*
X-150012Y318857D01*
X-149947Y318824D01*
X-149885Y318785D01*
X-149859Y318780D01*
X-149834Y318768D01*
X-149729Y318758D01*
X-149689Y318752D01*
X-149680Y318754D01*
G37*
G36*
X150066Y318091D02*
X150066Y318091D01*
X150138Y318100D01*
X150162Y318114D01*
X150188Y318120D01*
X150247Y318163D01*
X150310Y318200D01*
X150326Y318222D01*
X150348Y318238D01*
X150386Y318301D01*
X150429Y318359D01*
X150436Y318386D01*
X150450Y318409D01*
X150467Y318513D01*
X150477Y318552D01*
X150476Y318562D01*
X150478Y318573D01*
X150495Y372603D01*
X150489Y372630D01*
X150492Y372657D01*
X150470Y372726D01*
X150455Y372798D01*
X150440Y372820D01*
X150432Y372846D01*
X150384Y372902D01*
X150343Y372962D01*
X150320Y372977D01*
X150302Y372997D01*
X150237Y373030D01*
X150175Y373069D01*
X150149Y373073D01*
X150124Y373086D01*
X150019Y373095D01*
X149979Y373102D01*
X149970Y373100D01*
X149958Y373101D01*
X145932Y372801D01*
X145901Y372792D01*
X145858Y372790D01*
X141922Y371892D01*
X141893Y371879D01*
X141850Y371870D01*
X138091Y370396D01*
X138064Y370379D01*
X138024Y370364D01*
X134527Y368346D01*
X134503Y368325D01*
X134465Y368304D01*
X131307Y365788D01*
X131287Y365763D01*
X131253Y365737D01*
X128505Y362778D01*
X128489Y362751D01*
X128459Y362720D01*
X126183Y359385D01*
X126171Y359355D01*
X126146Y359320D01*
X124393Y355683D01*
X124385Y355652D01*
X124366Y355613D01*
X123174Y351755D01*
X123171Y351724D01*
X123158Y351683D01*
X122555Y347690D01*
X122556Y347658D01*
X122549Y347616D01*
X122548Y343578D01*
X122554Y343547D01*
X122553Y343504D01*
X123154Y339511D01*
X123165Y339481D01*
X123170Y339438D01*
X124359Y335580D01*
X124374Y335552D01*
X124386Y335510D01*
X126137Y331872D01*
X126156Y331846D01*
X126174Y331807D01*
X128448Y328470D01*
X128471Y328448D01*
X128494Y328412D01*
X131240Y325451D01*
X131266Y325433D01*
X131294Y325400D01*
X134450Y322882D01*
X134479Y322867D01*
X134512Y322840D01*
X138008Y320820D01*
X138038Y320810D01*
X138075Y320788D01*
X141833Y319311D01*
X141865Y319306D01*
X141905Y319289D01*
X145841Y318390D01*
X145873Y318389D01*
X145915Y318378D01*
X149941Y318075D01*
X149968Y318079D01*
X149995Y318074D01*
X150066Y318091D01*
G37*
G36*
X75022Y448510D02*
X75022Y448510D01*
X75065Y448506D01*
X79091Y448809D01*
X79122Y448818D01*
X79165Y448820D01*
X83101Y449720D01*
X83130Y449733D01*
X83172Y449742D01*
X86930Y451218D01*
X86957Y451236D01*
X86998Y451251D01*
X90494Y453271D01*
X90518Y453292D01*
X90555Y453313D01*
X93711Y455831D01*
X93732Y455855D01*
X93766Y455882D01*
X96511Y458842D01*
X96528Y458870D01*
X96558Y458901D01*
X98831Y462238D01*
X98842Y462263D01*
X98859Y462284D01*
X98880Y462354D01*
X98908Y462421D01*
X98908Y462448D01*
X98916Y462474D01*
X98908Y462547D01*
X98908Y462620D01*
X98897Y462645D01*
X98894Y462672D01*
X98858Y462736D01*
X98829Y462803D01*
X98810Y462821D01*
X98796Y462845D01*
X98715Y462912D01*
X98686Y462940D01*
X98677Y462944D01*
X98668Y462951D01*
X51868Y489951D01*
X51842Y489960D01*
X51820Y489976D01*
X51749Y489991D01*
X51680Y490014D01*
X51652Y490012D01*
X51626Y490018D01*
X51554Y490004D01*
X51481Y489999D01*
X51457Y489986D01*
X51431Y489981D01*
X51370Y489941D01*
X51305Y489907D01*
X51288Y489886D01*
X51265Y489871D01*
X51204Y489785D01*
X51178Y489754D01*
X51176Y489745D01*
X51169Y489735D01*
X49418Y486097D01*
X49410Y486066D01*
X49391Y486027D01*
X48202Y482169D01*
X48199Y482137D01*
X48185Y482096D01*
X47585Y478103D01*
X47587Y478071D01*
X47579Y478029D01*
X47581Y473991D01*
X47587Y473962D01*
X47585Y473950D01*
X47587Y473941D01*
X47586Y473917D01*
X48189Y469924D01*
X48200Y469894D01*
X48206Y469852D01*
X49397Y465994D01*
X49413Y465966D01*
X49425Y465924D01*
X51178Y462287D01*
X51197Y462262D01*
X51215Y462222D01*
X53491Y458887D01*
X53513Y458865D01*
X53537Y458829D01*
X56284Y455870D01*
X56310Y455851D01*
X56339Y455819D01*
X59497Y453303D01*
X59525Y453288D01*
X59558Y453261D01*
X63056Y451243D01*
X63086Y451233D01*
X63123Y451211D01*
X66882Y449737D01*
X66913Y449731D01*
X66953Y449715D01*
X70890Y448817D01*
X70922Y448817D01*
X70964Y448806D01*
X74990Y448506D01*
X75022Y448510D01*
G37*
G36*
X-70426Y449206D02*
X-70426Y449206D01*
X-70396Y449215D01*
X-70353Y449217D01*
X-66416Y450115D01*
X-66387Y450128D01*
X-66344Y450137D01*
X-62585Y451611D01*
X-62559Y451628D01*
X-62518Y451643D01*
X-59021Y453661D01*
X-58997Y453682D01*
X-58959Y453703D01*
X-55802Y456219D01*
X-55781Y456243D01*
X-55747Y456270D01*
X-53000Y459229D01*
X-52983Y459256D01*
X-52953Y459287D01*
X-50678Y462622D01*
X-50665Y462652D01*
X-50640Y462687D01*
X-48887Y466324D01*
X-48879Y466355D01*
X-48860Y466394D01*
X-47668Y470252D01*
X-47665Y470283D01*
X-47652Y470324D01*
X-47049Y474317D01*
X-47050Y474349D01*
X-47043Y474391D01*
X-47042Y478429D01*
X-47048Y478460D01*
X-47047Y478503D01*
X-47648Y482496D01*
X-47659Y482526D01*
X-47665Y482569D01*
X-48853Y486427D01*
X-48869Y486455D01*
X-48881Y486497D01*
X-50631Y490135D01*
X-50648Y490157D01*
X-50657Y490182D01*
X-50707Y490235D01*
X-50752Y490294D01*
X-50775Y490307D01*
X-50794Y490327D01*
X-50861Y490356D01*
X-50924Y490393D01*
X-50951Y490396D01*
X-50976Y490407D01*
X-51049Y490408D01*
X-51121Y490416D01*
X-51148Y490409D01*
X-51175Y490409D01*
X-51273Y490373D01*
X-51313Y490361D01*
X-51320Y490355D01*
X-51331Y490351D01*
X-98131Y463351D01*
X-98151Y463333D01*
X-98176Y463322D01*
X-98225Y463268D01*
X-98280Y463220D01*
X-98292Y463195D01*
X-98310Y463175D01*
X-98334Y463106D01*
X-98366Y463040D01*
X-98367Y463013D01*
X-98376Y462987D01*
X-98371Y462914D01*
X-98374Y462841D01*
X-98365Y462816D01*
X-98363Y462789D01*
X-98319Y462693D01*
X-98305Y462655D01*
X-98299Y462648D01*
X-98294Y462638D01*
X-96020Y459301D01*
X-95998Y459279D01*
X-95974Y459242D01*
X-93229Y456282D01*
X-93203Y456263D01*
X-93174Y456231D01*
X-90018Y453713D01*
X-89990Y453698D01*
X-89956Y453671D01*
X-86460Y451651D01*
X-86430Y451640D01*
X-86393Y451618D01*
X-82635Y450142D01*
X-82603Y450136D01*
X-82564Y450120D01*
X-78627Y449220D01*
X-78596Y449219D01*
X-78554Y449209D01*
X-74527Y448906D01*
X-74496Y448910D01*
X-74453Y448906D01*
X-70426Y449206D01*
G37*
G36*
X116006Y219408D02*
X116006Y219408D01*
X116124Y219416D01*
X116163Y219428D01*
X116203Y219433D01*
X116314Y219477D01*
X116427Y219514D01*
X116461Y219535D01*
X116499Y219550D01*
X116595Y219620D01*
X116696Y219684D01*
X116723Y219713D01*
X116756Y219737D01*
X116832Y219829D01*
X116914Y219915D01*
X116933Y219951D01*
X116959Y219982D01*
X117010Y220090D01*
X117067Y220194D01*
X117077Y220233D01*
X117094Y220270D01*
X117117Y220386D01*
X117147Y220502D01*
X117150Y220562D01*
X117154Y220582D01*
X117153Y220602D01*
X117157Y220663D01*
X117157Y242888D01*
X117142Y243006D01*
X117134Y243124D01*
X117122Y243163D01*
X117117Y243203D01*
X117073Y243314D01*
X117036Y243427D01*
X117015Y243461D01*
X117000Y243499D01*
X116930Y243595D01*
X116866Y243696D01*
X116837Y243723D01*
X116813Y243756D01*
X116721Y243832D01*
X116635Y243914D01*
X116599Y243933D01*
X116568Y243959D01*
X116460Y244010D01*
X116356Y244067D01*
X116317Y244077D01*
X116280Y244094D01*
X116164Y244117D01*
X116048Y244147D01*
X115988Y244150D01*
X115968Y244154D01*
X115948Y244153D01*
X115888Y244157D01*
X78581Y244157D01*
X78463Y244142D01*
X78344Y244134D01*
X78306Y244122D01*
X78266Y244117D01*
X78155Y244073D01*
X78042Y244036D01*
X78008Y244015D01*
X77970Y244000D01*
X77874Y243930D01*
X77773Y243866D01*
X77745Y243837D01*
X77713Y243813D01*
X77637Y243721D01*
X77555Y243635D01*
X77536Y243599D01*
X77510Y243568D01*
X77459Y243460D01*
X77402Y243356D01*
X77392Y243317D01*
X77374Y243280D01*
X77352Y243164D01*
X77322Y243048D01*
X77318Y242988D01*
X77315Y242968D01*
X77316Y242948D01*
X77312Y242888D01*
X77312Y220663D01*
X77327Y220544D01*
X77334Y220426D01*
X77347Y220387D01*
X77352Y220347D01*
X77396Y220236D01*
X77432Y220123D01*
X77454Y220089D01*
X77469Y220051D01*
X77539Y219955D01*
X77603Y219854D01*
X77632Y219827D01*
X77656Y219794D01*
X77747Y219718D01*
X77834Y219636D01*
X77870Y219617D01*
X77901Y219591D01*
X78008Y219540D01*
X78113Y219483D01*
X78152Y219473D01*
X78188Y219456D01*
X78305Y219433D01*
X78421Y219403D01*
X78481Y219400D01*
X78501Y219396D01*
X78521Y219397D01*
X78581Y219393D01*
X115888Y219393D01*
X116006Y219408D01*
G37*
G36*
X-80051Y217821D02*
X-80051Y217821D01*
X-79932Y217828D01*
X-79893Y217841D01*
X-79853Y217846D01*
X-79742Y217889D01*
X-79629Y217926D01*
X-79595Y217948D01*
X-79558Y217963D01*
X-79461Y218033D01*
X-79361Y218096D01*
X-79333Y218126D01*
X-79300Y218149D01*
X-79224Y218241D01*
X-79143Y218328D01*
X-79123Y218363D01*
X-79097Y218394D01*
X-79047Y218502D01*
X-78989Y218606D01*
X-78979Y218646D01*
X-78962Y218682D01*
X-78940Y218799D01*
X-78910Y218914D01*
X-78906Y218975D01*
X-78902Y218995D01*
X-78903Y219015D01*
X-78900Y219075D01*
X-78900Y238125D01*
X-78914Y238243D01*
X-78922Y238362D01*
X-78934Y238400D01*
X-78939Y238441D01*
X-78983Y238551D01*
X-79020Y238664D01*
X-79042Y238699D01*
X-79056Y238736D01*
X-79126Y238832D01*
X-79190Y238933D01*
X-79219Y238961D01*
X-79243Y238994D01*
X-79335Y239070D01*
X-79422Y239151D01*
X-79457Y239171D01*
X-79488Y239196D01*
X-79596Y239247D01*
X-79700Y239305D01*
X-79739Y239315D01*
X-79776Y239332D01*
X-79893Y239354D01*
X-80008Y239384D01*
X-80068Y239388D01*
X-80088Y239392D01*
X-80109Y239390D01*
X-80169Y239394D01*
X-118269Y239394D01*
X-118387Y239379D01*
X-118506Y239372D01*
X-118544Y239359D01*
X-118584Y239354D01*
X-118695Y239311D01*
X-118808Y239274D01*
X-118842Y239252D01*
X-118880Y239237D01*
X-118976Y239168D01*
X-119077Y239104D01*
X-119105Y239074D01*
X-119137Y239051D01*
X-119213Y238959D01*
X-119295Y238872D01*
X-119314Y238837D01*
X-119340Y238806D01*
X-119391Y238698D01*
X-119448Y238594D01*
X-119458Y238554D01*
X-119476Y238518D01*
X-119498Y238401D01*
X-119528Y238286D01*
X-119532Y238226D01*
X-119535Y238206D01*
X-119535Y238197D01*
X-119535Y238194D01*
X-119535Y238180D01*
X-119538Y238125D01*
X-119538Y219075D01*
X-119523Y218957D01*
X-119516Y218838D01*
X-119503Y218800D01*
X-119498Y218759D01*
X-119454Y218649D01*
X-119418Y218536D01*
X-119396Y218501D01*
X-119381Y218464D01*
X-119311Y218368D01*
X-119248Y218267D01*
X-119218Y218239D01*
X-119194Y218206D01*
X-119103Y218131D01*
X-119016Y218049D01*
X-118980Y218029D01*
X-118949Y218004D01*
X-118842Y217953D01*
X-118737Y217895D01*
X-118698Y217885D01*
X-118662Y217868D01*
X-118545Y217846D01*
X-118429Y217816D01*
X-118369Y217812D01*
X-118349Y217808D01*
X-118329Y217810D01*
X-118269Y217806D01*
X-80169Y217806D01*
X-80051Y217821D01*
G37*
%LPC*%
G36*
X94887Y397054D02*
X94887Y397054D01*
X92750Y397939D01*
X91114Y399575D01*
X90229Y401712D01*
X90229Y404025D01*
X91114Y406163D01*
X92750Y407798D01*
X94887Y408683D01*
X97200Y408683D01*
X99338Y407798D01*
X100494Y406641D01*
X100588Y406568D01*
X100678Y406490D01*
X100714Y406471D01*
X100746Y406446D01*
X100855Y406399D01*
X100961Y406345D01*
X101000Y406336D01*
X101037Y406320D01*
X101155Y406301D01*
X101271Y406275D01*
X101312Y406277D01*
X101352Y406270D01*
X101470Y406281D01*
X101589Y406285D01*
X101628Y406296D01*
X101668Y406300D01*
X101780Y406340D01*
X101895Y406373D01*
X101929Y406394D01*
X101967Y406408D01*
X102066Y406475D01*
X102169Y406535D01*
X102214Y406575D01*
X102231Y406586D01*
X102244Y406602D01*
X102289Y406641D01*
X106426Y410778D01*
X106486Y410856D01*
X106554Y410928D01*
X106583Y410981D01*
X106620Y411029D01*
X106660Y411120D01*
X106708Y411206D01*
X106723Y411265D01*
X106747Y411321D01*
X106762Y411419D01*
X106787Y411514D01*
X106793Y411614D01*
X106797Y411635D01*
X106795Y411647D01*
X106797Y411675D01*
X106797Y426967D01*
X106782Y427085D01*
X106775Y427204D01*
X106762Y427242D01*
X106757Y427282D01*
X106714Y427393D01*
X106677Y427506D01*
X106655Y427540D01*
X106640Y427578D01*
X106571Y427674D01*
X106507Y427775D01*
X106477Y427803D01*
X106454Y427835D01*
X106362Y427911D01*
X106275Y427993D01*
X106240Y428012D01*
X106209Y428038D01*
X106101Y428089D01*
X105997Y428146D01*
X105957Y428156D01*
X105921Y428174D01*
X105804Y428196D01*
X105689Y428226D01*
X105629Y428230D01*
X105609Y428233D01*
X105588Y428232D01*
X105528Y428236D01*
X100289Y428236D01*
X99099Y429427D01*
X99099Y442111D01*
X100289Y443301D01*
X111973Y443301D01*
X113164Y442111D01*
X113164Y433933D01*
X113176Y433834D01*
X113179Y433735D01*
X113196Y433677D01*
X113204Y433617D01*
X113240Y433525D01*
X113268Y433430D01*
X113299Y433378D01*
X113321Y433321D01*
X113379Y433241D01*
X113403Y433201D01*
X113403Y408413D01*
X104556Y399566D01*
X101490Y399566D01*
X101392Y399554D01*
X101293Y399551D01*
X101235Y399534D01*
X101175Y399526D01*
X101082Y399490D01*
X100987Y399462D01*
X100935Y399431D01*
X100879Y399409D01*
X100799Y399351D01*
X100713Y399301D01*
X100638Y399234D01*
X100621Y399222D01*
X100614Y399213D01*
X100593Y399194D01*
X99338Y397939D01*
X97200Y397054D01*
X94887Y397054D01*
G37*
%LPD*%
G36*
X-58915Y323438D02*
X-58915Y323438D01*
X-58865Y323439D01*
X-58760Y323470D01*
X-58652Y323492D01*
X-58608Y323514D01*
X-58560Y323528D01*
X-58465Y323583D01*
X-58367Y323632D01*
X-58329Y323664D01*
X-58286Y323689D01*
X-58165Y323796D01*
X-57983Y323978D01*
X-50455Y323978D01*
X-50357Y323990D01*
X-50258Y323993D01*
X-50200Y324010D01*
X-50140Y324018D01*
X-50048Y324054D01*
X-49953Y324082D01*
X-49900Y324112D01*
X-49844Y324135D01*
X-49764Y324193D01*
X-49679Y324243D01*
X-49603Y324309D01*
X-49587Y324321D01*
X-49579Y324331D01*
X-49558Y324349D01*
X-45020Y328887D01*
X-44960Y328965D01*
X-44892Y329037D01*
X-44862Y329090D01*
X-44825Y329138D01*
X-44786Y329229D01*
X-44738Y329316D01*
X-44728Y329357D01*
X-42342Y331742D01*
X-41204Y332880D01*
X-41131Y332974D01*
X-41053Y333063D01*
X-41034Y333099D01*
X-41010Y333131D01*
X-40962Y333240D01*
X-40908Y333346D01*
X-40899Y333386D01*
X-40883Y333423D01*
X-40864Y333541D01*
X-40838Y333657D01*
X-40840Y333697D01*
X-40833Y333737D01*
X-40844Y333856D01*
X-40848Y333975D01*
X-40859Y334013D01*
X-40863Y334054D01*
X-40903Y334166D01*
X-40937Y334280D01*
X-40957Y334315D01*
X-40971Y334353D01*
X-41038Y334451D01*
X-41098Y334554D01*
X-41138Y334599D01*
X-41149Y334616D01*
X-41165Y334630D01*
X-41204Y334675D01*
X-45875Y339346D01*
X-45953Y339406D01*
X-46026Y339474D01*
X-46079Y339503D01*
X-46126Y339540D01*
X-46217Y339580D01*
X-46304Y339628D01*
X-46363Y339643D01*
X-46418Y339667D01*
X-46516Y339682D01*
X-46612Y339707D01*
X-46712Y339713D01*
X-46732Y339717D01*
X-46745Y339715D01*
X-46773Y339717D01*
X-57373Y339717D01*
X-58634Y340978D01*
X-58728Y341051D01*
X-58817Y341129D01*
X-58853Y341148D01*
X-58885Y341173D01*
X-58994Y341220D01*
X-59100Y341274D01*
X-59140Y341283D01*
X-59177Y341299D01*
X-59294Y341318D01*
X-59410Y341344D01*
X-59451Y341343D01*
X-59491Y341349D01*
X-59610Y341338D01*
X-59728Y341334D01*
X-59767Y341323D01*
X-59808Y341319D01*
X-59920Y341279D01*
X-60034Y341246D01*
X-60069Y341225D01*
X-60107Y341212D01*
X-60205Y341145D01*
X-60308Y341084D01*
X-60353Y341044D01*
X-60370Y341033D01*
X-60383Y341018D01*
X-60429Y340978D01*
X-60627Y340780D01*
X-60687Y340702D01*
X-60755Y340629D01*
X-60785Y340576D01*
X-60822Y340529D01*
X-60861Y340438D01*
X-60909Y340351D01*
X-60924Y340292D01*
X-60948Y340237D01*
X-60964Y340139D01*
X-60988Y340043D01*
X-60995Y339943D01*
X-60998Y339923D01*
X-60997Y339911D01*
X-60999Y339882D01*
X-60999Y327006D01*
X-61029Y326971D01*
X-61048Y326935D01*
X-61072Y326903D01*
X-61120Y326794D01*
X-61174Y326688D01*
X-61183Y326648D01*
X-61199Y326611D01*
X-61217Y326494D01*
X-61244Y326377D01*
X-61242Y326337D01*
X-61249Y326297D01*
X-61237Y326179D01*
X-61234Y326059D01*
X-61223Y326020D01*
X-61219Y325980D01*
X-61179Y325868D01*
X-61145Y325754D01*
X-61125Y325719D01*
X-61111Y325681D01*
X-61044Y325582D01*
X-60984Y325480D01*
X-60944Y325435D01*
X-60933Y325418D01*
X-60917Y325404D01*
X-60878Y325359D01*
X-60595Y325077D01*
X-60235Y324207D01*
X-60211Y324164D01*
X-60194Y324117D01*
X-60132Y324027D01*
X-60078Y323931D01*
X-60043Y323895D01*
X-60015Y323854D01*
X-59933Y323782D01*
X-59856Y323703D01*
X-59814Y323677D01*
X-59777Y323644D01*
X-59679Y323594D01*
X-59585Y323536D01*
X-59538Y323522D01*
X-59494Y323499D01*
X-59386Y323475D01*
X-59281Y323443D01*
X-59232Y323440D01*
X-59183Y323430D01*
X-59073Y323433D01*
X-58964Y323428D01*
X-58915Y323438D01*
G37*
D10*
X-66444Y393700D03*
X-49444Y393700D03*
D11*
X-50031Y366713D03*
X-69031Y366713D03*
D12*
X-99219Y427600D03*
X-99219Y410600D03*
D10*
X-66444Y381000D03*
X-49444Y381000D03*
D11*
X-50031Y349250D03*
X-69031Y349250D03*
D12*
X50800Y422044D03*
X50800Y405044D03*
D13*
X65088Y408806D03*
X65088Y427806D03*
D14*
X-134938Y305594D03*
D15*
X-134938Y280194D03*
D16*
X75406Y335756D03*
X75406Y361156D03*
X75406Y386556D03*
D17*
X-111125Y392906D03*
D12*
X106131Y435769D03*
X89131Y435769D03*
D10*
X-16669Y321700D03*
X-16669Y338700D03*
X10319Y321700D03*
X10319Y338700D03*
X94456Y374419D03*
X94456Y357419D03*
X37306Y321700D03*
X37306Y338700D03*
X-3175Y321700D03*
X-3175Y338700D03*
X-32544Y321700D03*
X-32544Y338700D03*
X23813Y321700D03*
X23813Y338700D03*
D12*
X-51031Y333375D03*
X-68031Y333375D03*
D18*
X-99219Y254794D03*
X-99219Y229394D03*
X97631Y254794D03*
X97631Y229394D03*
D19*
X-31369Y385243D03*
X-31369Y390244D03*
X-31369Y395246D03*
X-31369Y400247D03*
X-31369Y405248D03*
X-31369Y410249D03*
X-31369Y415251D03*
X-31369Y420252D03*
X-31369Y425253D03*
X-31369Y430254D03*
X-31369Y435256D03*
X-31369Y440257D03*
D20*
X-24332Y447294D03*
X-19331Y447294D03*
X-14329Y447294D03*
X-9328Y447294D03*
X-4327Y447294D03*
X674Y447294D03*
X5676Y447294D03*
X10677Y447294D03*
X15678Y447294D03*
X20679Y447294D03*
X25681Y447294D03*
X30682Y447294D03*
D19*
X37719Y440257D03*
X37719Y435256D03*
X37719Y430254D03*
X37719Y425253D03*
X37719Y420252D03*
X37719Y415251D03*
X37719Y410249D03*
X37719Y405248D03*
X37719Y400247D03*
X37719Y395246D03*
X37719Y390244D03*
X37719Y385243D03*
D20*
X30682Y378206D03*
X25681Y378206D03*
X20679Y378206D03*
X15678Y378206D03*
X10677Y378206D03*
X5676Y378206D03*
X674Y378206D03*
X-4327Y378206D03*
X-9328Y378206D03*
X-14329Y378206D03*
X-19331Y378206D03*
X-24332Y378206D03*
D21*
X3175Y412750D03*
D22*
X-52388Y410275D03*
X-52388Y422275D03*
X-52388Y434275D03*
D23*
X-25146Y46419D02*
X-25146Y26607D01*
X25146Y26607D02*
X25146Y46419D01*
X107001Y-7423D02*
X97095Y-24581D01*
X140649Y-49727D02*
X150555Y-32569D01*
X-140649Y-51314D02*
X-150555Y-34157D01*
X-107001Y-9011D02*
X-97095Y-26168D01*
D24*
X19Y511519D03*
X143118Y428893D03*
X-70981Y470419D03*
X71519Y470019D03*
X143041Y345557D03*
X-142942Y429025D03*
X-142751Y346297D03*
D25*
X-17475Y368229D03*
D26*
X-19331Y368229D01*
X-19331Y378206D01*
D27*
X-131390Y357657D02*
X-142751Y346297D01*
X-131390Y357657D02*
X-116289Y357657D01*
D25*
X-116289Y357657D03*
X-27781Y369888D03*
D26*
X-24332Y373337D01*
X-24332Y378206D01*
X-24332Y447294D02*
X-24332Y451263D01*
X-33444Y460375D01*
D27*
X-42899Y460375D01*
D25*
X-42899Y460375D03*
D26*
X-19331Y454306D02*
X-19331Y447294D01*
X-19331Y454306D02*
X-34487Y469462D01*
D27*
X-35444Y470419D01*
X-70981Y470419D01*
D26*
X37719Y390244D02*
X43144Y390244D01*
X46831Y386556D01*
D28*
X75406Y386556D01*
X65088Y427806D02*
X55563Y427806D01*
X50800Y423044D01*
X50800Y422044D01*
D26*
X50006Y422044D01*
X43214Y415251D01*
X37719Y415251D01*
D25*
X96044Y418306D03*
X-135731Y390525D03*
X-101600Y441325D03*
X-33338Y486569D03*
X34131Y486569D03*
X135731Y390525D03*
X121444Y441325D03*
X-53975Y333375D03*
X17463Y393700D03*
X-7938Y394494D03*
D28*
X61119Y404838D02*
X65088Y408806D01*
X61119Y404838D02*
X61119Y401075D01*
D26*
X45595Y410249D02*
X37719Y410249D01*
X45595Y410249D02*
X50800Y405044D01*
D28*
X57150Y405044D01*
X61119Y401075D01*
D25*
X61119Y401075D03*
D26*
X53868Y435256D02*
X37719Y435256D01*
X53868Y435256D02*
X56220Y437608D01*
X77304Y437608D01*
X89131Y435769D01*
D25*
X96044Y402869D03*
D26*
X103188Y402869D01*
X110100Y409781D01*
X110100Y431800D02*
X106131Y435769D01*
X110100Y431800D02*
X110100Y409781D01*
X-31369Y420252D02*
X-40123Y420252D01*
X-50100Y410275D02*
X-52388Y410275D01*
X-50100Y410275D02*
X-40123Y420252D01*
X-41078Y425253D02*
X-31369Y425253D01*
X-50100Y434275D02*
X-52388Y434275D01*
X-50100Y434275D02*
X-41078Y425253D01*
D28*
X60427Y361156D02*
X75406Y361156D01*
X60427Y361156D02*
X37719Y383864D01*
D26*
X37719Y385243D01*
D28*
X90719Y361156D02*
X94456Y357419D01*
X90719Y361156D02*
X75406Y361156D01*
X-49444Y381000D02*
X-49444Y393700D01*
X-49444Y381000D02*
X-49444Y367300D01*
X-50031Y366713D01*
X-50031Y349250D01*
D26*
X-36370Y400247D02*
X-31369Y400247D01*
X-36370Y400247D02*
X-42897Y400247D01*
X-49444Y393700D01*
X-36370Y400247D02*
X-31369Y405248D01*
X-31369Y410249D01*
D25*
X-39788Y380106D03*
D28*
X-48550Y380106D01*
X-49444Y381000D01*
X-32544Y338700D02*
X-16669Y338700D01*
X-3175Y338700D01*
X10319Y338700D02*
X23813Y338700D01*
X10319Y338700D02*
X-3175Y338700D01*
X-39481Y338700D02*
X-50031Y349250D01*
X-39481Y338700D02*
X-16669Y338700D01*
X23813Y338700D02*
X37306Y338700D01*
X-69031Y349250D02*
X-69031Y366713D01*
X-69031Y378413D01*
X-66444Y381000D01*
X-66444Y393700D01*
D26*
X-36371Y415251D02*
X-31369Y415251D01*
X-36371Y415251D02*
X-42086Y409536D01*
X-42086Y406907D01*
X-55171Y404973D02*
X-66444Y393700D01*
X-55171Y404973D02*
X-44020Y404973D01*
X-42086Y406907D01*
D25*
X-17463Y211931D03*
X-794Y211931D03*
X9525Y204788D03*
X-2381Y200025D03*
X-16669Y200025D03*
X-18256Y187325D03*
X11906Y188913D03*
X7144Y175419D03*
X-7938Y175419D03*
X-19844Y165100D03*
X0Y165100D03*
X13494Y165100D03*
X42863Y85725D03*
X-251619Y2381D03*
X254000Y-2381D03*
D28*
X-68031Y333375D02*
X-69031Y334375D01*
X-69031Y349250D01*
X-68031Y333375D02*
X-92638Y333375D01*
X-94225Y331788D01*
D25*
X159544Y242888D03*
X180975Y228600D03*
X206375Y213519D03*
X232569Y198438D03*
X259556Y182563D03*
X282575Y165100D03*
X288925Y132556D03*
X277019Y110331D03*
X243681Y110331D03*
X210344Y110331D03*
X177006Y111125D03*
X157956Y218281D03*
X179388Y206375D03*
X180975Y176213D03*
X203994Y189706D03*
X184150Y150019D03*
X192088Y128588D03*
X261144Y126206D03*
X262731Y150019D03*
X203200Y153194D03*
X-233363Y199231D03*
X-260350Y183356D03*
X-283369Y165894D03*
X-289719Y133350D03*
X-277813Y111125D03*
X-244475Y111125D03*
X-211138Y111125D03*
X-175419Y111919D03*
X-171450Y133350D03*
X-172244Y162719D03*
X-167481Y191294D03*
X-158750Y219075D03*
X-180181Y207169D03*
X-181769Y177006D03*
X-204788Y190500D03*
X-184944Y150813D03*
X-192881Y129381D03*
X-261938Y127000D03*
X-263525Y150813D03*
X-203994Y153988D03*
X-108744Y288925D03*
X-161925Y234950D03*
X-87313Y289719D03*
X-76994Y290513D03*
X-100013Y280988D03*
X-59531Y289719D03*
X142875Y292100D03*
X122238Y292100D03*
X121444Y277813D03*
X142081Y277813D03*
X107156Y292100D03*
X87313Y292100D03*
X96838Y279400D03*
X73819Y292100D03*
X56356Y292100D03*
D29*
X-94225Y296631D02*
X-94225Y331788D01*
X-94225Y296631D02*
X-87313Y289719D01*
D25*
X15519Y110769D03*
X-1588Y188119D03*
D28*
X-244475Y2381D02*
X-251619Y2381D01*
X-244475Y2381D02*
X-244475Y111125D01*
X243681Y-2381D02*
X254000Y-2381D01*
X243681Y-2381D02*
X243681Y110331D01*
D26*
X-42086Y437643D02*
X-44020Y439577D01*
X-36371Y430254D02*
X-31369Y430254D01*
X-36371Y430254D02*
X-42086Y435969D01*
X-42086Y437643D01*
X-44020Y439577D02*
X-64454Y439577D01*
X-111125Y392906D01*
D28*
X-99219Y404813D02*
X-99219Y410600D01*
X-99219Y404813D02*
X-111125Y392906D01*
D25*
X11204Y352425D03*
D26*
X10677Y352952D01*
X10677Y378206D01*
X15678Y378206D02*
X15678Y362941D01*
X22225Y356394D01*
X36513Y356394D01*
X49153Y343754D02*
X62766Y343754D01*
X67469Y348456D01*
X140142Y348456D01*
X143041Y345557D01*
X49153Y343754D02*
X36513Y356394D01*
D25*
X-64294Y153194D03*
X-49213Y153194D03*
X-48419Y142081D03*
X-63500Y142081D03*
X180975Y28575D03*
X208756Y27781D03*
X210344Y50006D03*
X177800Y50006D03*
X194469Y73819D03*
X177800Y91281D03*
X258763Y51594D03*
X277813Y33338D03*
X292894Y16669D03*
X295275Y53181D03*
X219075Y91281D03*
X295275Y91281D03*
X277019Y74613D03*
X259556Y91281D03*
X-291306Y92869D03*
X-291306Y54769D03*
X-273050Y76200D03*
X-255588Y92869D03*
X-215106Y92869D03*
X-190500Y75406D03*
X-206375Y51594D03*
X-173831Y92869D03*
X-173831Y51594D03*
X-177006Y30163D03*
X-209550Y29369D03*
X-273844Y34925D03*
X-288925Y18256D03*
X-254794Y53181D03*
X53975Y350838D03*
D26*
X30682Y374131D02*
X30682Y378206D01*
X30682Y374131D02*
X53975Y350838D01*
D25*
X3068Y357874D03*
D26*
X5676Y360482D01*
X5676Y378206D01*
D25*
X-15628Y349797D03*
D26*
X-4327Y370138D02*
X-4327Y378206D01*
X-4327Y370138D02*
X-14373Y360092D01*
X-14373Y351052D01*
X-15628Y349797D01*
D25*
X-46454Y309940D03*
D27*
X-34694Y321700D01*
X-32544Y321700D01*
D25*
X-80240Y310071D03*
D26*
X-7867Y317008D02*
X-3175Y321700D01*
X-7867Y317008D02*
X-7867Y315332D01*
X-66954Y310071D02*
X-80240Y310071D01*
X-66954Y310071D02*
X-55167Y298284D01*
X-24915Y298284D02*
X-7867Y315332D01*
X-24915Y298284D02*
X-55167Y298284D01*
D25*
X-80525Y323056D03*
D27*
X5280Y330002D02*
X10319Y324964D01*
X10319Y321700D01*
D26*
X-62591Y314699D02*
X-68459Y314699D01*
X-76816Y323056D02*
X-80525Y323056D01*
X-76816Y323056D02*
X-68459Y314699D01*
X-62591Y314699D02*
X-56615Y320675D01*
X-48562Y320675D01*
X-41346Y328068D02*
X-39412Y330002D01*
X5280Y330002D01*
X-41346Y327891D02*
X-48562Y320675D01*
X-41346Y327891D02*
X-41346Y328068D01*
D25*
X108744Y237331D03*
X96838Y237331D03*
X84931Y237331D03*
X84931Y223838D03*
X96838Y223838D03*
X108744Y223838D03*
X-111919Y222250D03*
X-99219Y222250D03*
X-87313Y222250D03*
X-87313Y234950D03*
X-99219Y234950D03*
X-111919Y234950D03*
X-34131Y182563D03*
X-54769Y182563D03*
X-43656Y174625D03*
X-34131Y167481D03*
X-55563Y167481D03*
X-27673Y123717D03*
X-56050Y309185D03*
D26*
X-55718Y309185D01*
X-49388Y302856D01*
X-35513Y302856D02*
X-16669Y321700D01*
X-35513Y302856D02*
X-49388Y302856D01*
D25*
X-7908Y305273D03*
D26*
X17187Y313398D02*
X19121Y315332D01*
X217Y313398D02*
X-7908Y305273D01*
X217Y313398D02*
X17187Y313398D01*
X19121Y317008D02*
X23813Y321700D01*
X19121Y317008D02*
X19121Y315332D01*
D25*
X-65525Y321783D03*
X43531Y315689D03*
D30*
X37520Y321700D01*
X37306Y321700D01*
D25*
X-34131Y210344D03*
X-54769Y209550D03*
X-34131Y196056D03*
X-54769Y196056D03*
X-43656Y203200D03*
X30163Y182563D03*
X51594Y182563D03*
X40481Y176213D03*
X29369Y167481D03*
X51594Y167481D03*
X68206Y127383D03*
X29369Y211138D03*
X51594Y211138D03*
X40481Y203994D03*
X29369Y194469D03*
X51594Y194469D03*
X-6496Y355454D03*
D26*
X-4810Y357140D01*
X674Y366292D02*
X674Y378206D01*
X-4810Y360808D02*
X-4810Y357140D01*
X-4810Y360808D02*
X674Y366292D01*
D25*
X31235Y464330D03*
D26*
X30827Y464330D01*
X20679Y454182D02*
X20679Y447294D01*
X20679Y454182D02*
X30827Y464330D01*
X28044Y454660D02*
X26110Y452726D01*
X26110Y447723D01*
X25681Y447294D01*
X56160Y454660D02*
X71519Y470019D01*
X56160Y454660D02*
X28044Y454660D01*
M02*
