G04 EAGLE Gerber RS-274X export*
G75*
%MOMM*%
%FSLAX34Y34*%
%LPD*%
%INSilkscreen Bottom*%
%IPPOS*%
%AMOC8*
5,1,8,0,0,1.08239X$1,22.5*%
G01*
%ADD10C,0.152400*%
%ADD11C,0.101600*%
%ADD12C,0.076200*%
%ADD13C,0.127000*%
%ADD14C,0.812800*%
%ADD15C,0.254000*%

G36*
X12584Y453773D02*
X12584Y453773D01*
X12586Y453772D01*
X12629Y453792D01*
X12673Y453810D01*
X12673Y453812D01*
X12675Y453813D01*
X12708Y453898D01*
X12708Y456438D01*
X12707Y456440D01*
X12708Y456442D01*
X12688Y456485D01*
X12670Y456529D01*
X12668Y456529D01*
X12667Y456531D01*
X12582Y456564D01*
X8772Y456564D01*
X8770Y456563D01*
X8768Y456564D01*
X8725Y456544D01*
X8681Y456526D01*
X8681Y456524D01*
X8679Y456523D01*
X8646Y456438D01*
X8646Y453898D01*
X8647Y453896D01*
X8646Y453894D01*
X8666Y453851D01*
X8684Y453807D01*
X8686Y453807D01*
X8687Y453805D01*
X8772Y453772D01*
X12582Y453772D01*
X12584Y453773D01*
G37*
G36*
X-37971Y428224D02*
X-37971Y428224D01*
X-37969Y428223D01*
X-37926Y428243D01*
X-37882Y428261D01*
X-37882Y428263D01*
X-37880Y428264D01*
X-37847Y428349D01*
X-37847Y432159D01*
X-37848Y432161D01*
X-37847Y432163D01*
X-37867Y432206D01*
X-37885Y432250D01*
X-37887Y432250D01*
X-37888Y432252D01*
X-37973Y432285D01*
X-40513Y432285D01*
X-40515Y432284D01*
X-40517Y432285D01*
X-40560Y432265D01*
X-40604Y432247D01*
X-40604Y432245D01*
X-40606Y432244D01*
X-40639Y432159D01*
X-40639Y428349D01*
X-40638Y428347D01*
X-40639Y428345D01*
X-40619Y428302D01*
X-40601Y428258D01*
X-40599Y428258D01*
X-40598Y428256D01*
X-40513Y428223D01*
X-37973Y428223D01*
X-37971Y428224D01*
G37*
G36*
X46865Y413221D02*
X46865Y413221D01*
X46867Y413220D01*
X46910Y413240D01*
X46954Y413258D01*
X46954Y413260D01*
X46956Y413261D01*
X46989Y413346D01*
X46989Y417156D01*
X46988Y417158D01*
X46989Y417160D01*
X46969Y417203D01*
X46951Y417247D01*
X46949Y417247D01*
X46948Y417249D01*
X46863Y417282D01*
X44323Y417282D01*
X44321Y417281D01*
X44319Y417282D01*
X44276Y417262D01*
X44232Y417244D01*
X44232Y417242D01*
X44230Y417241D01*
X44197Y417156D01*
X44197Y413346D01*
X44198Y413344D01*
X44197Y413342D01*
X44217Y413299D01*
X44235Y413255D01*
X44237Y413255D01*
X44238Y413253D01*
X44323Y413220D01*
X46863Y413220D01*
X46865Y413221D01*
G37*
G36*
X17585Y368937D02*
X17585Y368937D01*
X17587Y368936D01*
X17630Y368956D01*
X17674Y368974D01*
X17674Y368976D01*
X17676Y368977D01*
X17709Y369062D01*
X17709Y371602D01*
X17708Y371604D01*
X17709Y371606D01*
X17689Y371649D01*
X17671Y371693D01*
X17669Y371693D01*
X17668Y371695D01*
X17583Y371728D01*
X13773Y371728D01*
X13771Y371727D01*
X13769Y371728D01*
X13726Y371708D01*
X13682Y371690D01*
X13682Y371688D01*
X13680Y371687D01*
X13647Y371602D01*
X13647Y369062D01*
X13648Y369060D01*
X13647Y369058D01*
X13667Y369015D01*
X13685Y368971D01*
X13687Y368971D01*
X13688Y368969D01*
X13773Y368936D01*
X17583Y368936D01*
X17585Y368937D01*
G37*
D10*
X65078Y438839D02*
X73968Y454237D01*
X69691Y456706D01*
X69569Y456774D01*
X69446Y456839D01*
X69320Y456900D01*
X69192Y456958D01*
X69064Y457012D01*
X68933Y457062D01*
X68801Y457109D01*
X68668Y457152D01*
X68534Y457191D01*
X68399Y457226D01*
X68263Y457257D01*
X68125Y457285D01*
X67988Y457308D01*
X67849Y457328D01*
X67710Y457344D01*
X67571Y457356D01*
X67432Y457364D01*
X67292Y457368D01*
X67152Y457368D01*
X67012Y457364D01*
X66873Y457356D01*
X66734Y457344D01*
X66595Y457328D01*
X66456Y457308D01*
X66318Y457285D01*
X66181Y457257D01*
X66045Y457226D01*
X65910Y457191D01*
X65776Y457152D01*
X65643Y457109D01*
X65511Y457062D01*
X65380Y457012D01*
X65252Y456958D01*
X65124Y456900D01*
X64998Y456839D01*
X64875Y456774D01*
X64752Y456706D01*
X64632Y456635D01*
X64514Y456560D01*
X64399Y456481D01*
X64285Y456400D01*
X64174Y456315D01*
X64065Y456227D01*
X63959Y456137D01*
X63855Y456043D01*
X63754Y455946D01*
X63656Y455846D01*
X63561Y455744D01*
X63469Y455639D01*
X63379Y455532D01*
X63293Y455422D01*
X63210Y455309D01*
X63130Y455195D01*
X63053Y455078D01*
X62980Y454959D01*
X62910Y454838D01*
X62844Y454715D01*
X62781Y454590D01*
X62721Y454463D01*
X62666Y454335D01*
X62614Y454205D01*
X62565Y454074D01*
X62520Y453942D01*
X62479Y453808D01*
X62442Y453674D01*
X62409Y453538D01*
X62380Y453401D01*
X62354Y453264D01*
X62332Y453126D01*
X62315Y452987D01*
X62301Y452848D01*
X62291Y452708D01*
X62285Y452569D01*
X62283Y452429D01*
X62285Y452289D01*
X62291Y452150D01*
X62301Y452010D01*
X62315Y451871D01*
X62332Y451732D01*
X62354Y451594D01*
X62380Y451457D01*
X62409Y451320D01*
X62442Y451184D01*
X62480Y451050D01*
X62520Y450916D01*
X62565Y450784D01*
X62614Y450652D01*
X62666Y450523D01*
X62721Y450395D01*
X62781Y450268D01*
X62844Y450143D01*
X62910Y450020D01*
X62980Y449899D01*
X63053Y449780D01*
X63130Y449663D01*
X63210Y449549D01*
X63293Y449436D01*
X63379Y449326D01*
X63469Y449219D01*
X63561Y449114D01*
X63656Y449012D01*
X63754Y448912D01*
X63855Y448815D01*
X63959Y448721D01*
X64065Y448631D01*
X64174Y448543D01*
X64285Y448458D01*
X64399Y448377D01*
X64514Y448298D01*
X64632Y448223D01*
X64752Y448152D01*
X69029Y445683D01*
X51226Y446837D02*
X46949Y449306D01*
X46948Y449306D02*
X46828Y449377D01*
X46710Y449452D01*
X46595Y449531D01*
X46481Y449612D01*
X46370Y449697D01*
X46261Y449785D01*
X46155Y449875D01*
X46051Y449969D01*
X45950Y450066D01*
X45852Y450166D01*
X45757Y450268D01*
X45665Y450373D01*
X45575Y450480D01*
X45489Y450590D01*
X45406Y450703D01*
X45326Y450817D01*
X45249Y450934D01*
X45176Y451053D01*
X45106Y451174D01*
X45040Y451297D01*
X44977Y451422D01*
X44917Y451549D01*
X44862Y451677D01*
X44810Y451806D01*
X44761Y451938D01*
X44716Y452070D01*
X44675Y452204D01*
X44638Y452338D01*
X44605Y452474D01*
X44576Y452611D01*
X44550Y452748D01*
X44528Y452886D01*
X44511Y453025D01*
X44497Y453164D01*
X44487Y453304D01*
X44481Y453443D01*
X44479Y453583D01*
X44481Y453723D01*
X44487Y453862D01*
X44497Y454002D01*
X44511Y454141D01*
X44528Y454280D01*
X44550Y454418D01*
X44576Y454555D01*
X44605Y454692D01*
X44638Y454828D01*
X44676Y454962D01*
X44716Y455096D01*
X44761Y455228D01*
X44810Y455360D01*
X44862Y455489D01*
X44917Y455617D01*
X44977Y455744D01*
X45040Y455869D01*
X45106Y455992D01*
X45176Y456113D01*
X45249Y456232D01*
X45326Y456349D01*
X45406Y456463D01*
X45489Y456576D01*
X45575Y456686D01*
X45665Y456793D01*
X45757Y456898D01*
X45852Y457000D01*
X45950Y457100D01*
X46051Y457197D01*
X46155Y457291D01*
X46261Y457381D01*
X46370Y457469D01*
X46481Y457554D01*
X46595Y457635D01*
X46710Y457714D01*
X46828Y457789D01*
X46949Y457860D01*
X47071Y457928D01*
X47194Y457993D01*
X47320Y458054D01*
X47448Y458112D01*
X47576Y458166D01*
X47707Y458216D01*
X47839Y458263D01*
X47972Y458306D01*
X48106Y458345D01*
X48241Y458380D01*
X48377Y458411D01*
X48515Y458439D01*
X48652Y458462D01*
X48791Y458482D01*
X48930Y458498D01*
X49069Y458510D01*
X49208Y458518D01*
X49348Y458522D01*
X49488Y458522D01*
X49628Y458518D01*
X49767Y458510D01*
X49906Y458498D01*
X50045Y458482D01*
X50184Y458462D01*
X50321Y458439D01*
X50459Y458411D01*
X50595Y458380D01*
X50730Y458345D01*
X50864Y458306D01*
X50997Y458263D01*
X51129Y458216D01*
X51260Y458166D01*
X51388Y458112D01*
X51516Y458054D01*
X51642Y457993D01*
X51765Y457928D01*
X51888Y457860D01*
X54984Y465198D02*
X60116Y462234D01*
X54983Y465198D02*
X54875Y465258D01*
X54765Y465315D01*
X54653Y465368D01*
X54539Y465418D01*
X54424Y465465D01*
X54307Y465507D01*
X54190Y465546D01*
X54070Y465581D01*
X53950Y465613D01*
X53829Y465641D01*
X53708Y465665D01*
X53585Y465685D01*
X53462Y465701D01*
X53339Y465713D01*
X53215Y465722D01*
X53091Y465726D01*
X52967Y465727D01*
X52843Y465724D01*
X52719Y465716D01*
X52595Y465705D01*
X52472Y465690D01*
X52349Y465672D01*
X52227Y465649D01*
X52106Y465623D01*
X51985Y465592D01*
X51866Y465558D01*
X51748Y465521D01*
X51631Y465479D01*
X51515Y465434D01*
X51401Y465385D01*
X51288Y465333D01*
X51178Y465277D01*
X51068Y465218D01*
X50961Y465156D01*
X50856Y465090D01*
X50753Y465020D01*
X50652Y464948D01*
X50554Y464872D01*
X50458Y464794D01*
X50364Y464712D01*
X50273Y464628D01*
X50185Y464540D01*
X50100Y464450D01*
X50017Y464358D01*
X49937Y464262D01*
X49861Y464165D01*
X49787Y464065D01*
X49717Y463962D01*
X49650Y463858D01*
X49586Y463751D01*
X49526Y463643D01*
X49469Y463533D01*
X49416Y463421D01*
X49366Y463307D01*
X49319Y463192D01*
X49277Y463075D01*
X49238Y462958D01*
X49203Y462838D01*
X49171Y462718D01*
X49143Y462597D01*
X49119Y462476D01*
X49099Y462353D01*
X49083Y462230D01*
X49071Y462107D01*
X49062Y461983D01*
X49058Y461859D01*
X49057Y461735D01*
X49060Y461611D01*
X49068Y461487D01*
X49079Y461363D01*
X49094Y461240D01*
X49112Y461117D01*
X49135Y460995D01*
X49161Y460874D01*
X49192Y460753D01*
X49226Y460634D01*
X49263Y460516D01*
X49305Y460399D01*
X49350Y460283D01*
X49399Y460169D01*
X49451Y460056D01*
X49507Y459946D01*
X49566Y459836D01*
X49628Y459729D01*
X49694Y459624D01*
X49764Y459521D01*
X49836Y459420D01*
X49912Y459322D01*
X49990Y459226D01*
X50072Y459132D01*
X50156Y459041D01*
X50244Y458953D01*
X50334Y458868D01*
X50426Y458785D01*
X50522Y458705D01*
X50619Y458629D01*
X50719Y458555D01*
X50822Y458485D01*
X50926Y458418D01*
X51033Y458354D01*
X51032Y458354D02*
X54454Y456379D01*
X-40519Y455882D02*
X-49409Y471280D01*
X-53687Y468811D01*
X-53807Y468740D01*
X-53925Y468665D01*
X-54040Y468586D01*
X-54154Y468505D01*
X-54265Y468420D01*
X-54374Y468332D01*
X-54480Y468242D01*
X-54584Y468148D01*
X-54685Y468051D01*
X-54783Y467951D01*
X-54878Y467849D01*
X-54970Y467744D01*
X-55060Y467637D01*
X-55146Y467527D01*
X-55229Y467414D01*
X-55309Y467300D01*
X-55386Y467183D01*
X-55459Y467064D01*
X-55529Y466943D01*
X-55595Y466820D01*
X-55658Y466695D01*
X-55718Y466568D01*
X-55773Y466440D01*
X-55825Y466310D01*
X-55874Y466179D01*
X-55919Y466047D01*
X-55960Y465913D01*
X-55997Y465779D01*
X-56030Y465643D01*
X-56059Y465506D01*
X-56085Y465369D01*
X-56107Y465231D01*
X-56124Y465092D01*
X-56138Y464953D01*
X-56148Y464813D01*
X-56154Y464674D01*
X-56156Y464534D01*
X-56154Y464394D01*
X-56148Y464255D01*
X-56138Y464115D01*
X-56124Y463976D01*
X-56107Y463837D01*
X-56085Y463699D01*
X-56059Y463562D01*
X-56030Y463425D01*
X-55997Y463289D01*
X-55959Y463155D01*
X-55919Y463021D01*
X-55874Y462889D01*
X-55825Y462757D01*
X-55773Y462628D01*
X-55718Y462500D01*
X-55658Y462373D01*
X-55595Y462248D01*
X-55529Y462125D01*
X-55459Y462004D01*
X-55386Y461885D01*
X-55309Y461768D01*
X-55229Y461654D01*
X-55146Y461541D01*
X-55060Y461431D01*
X-54970Y461324D01*
X-54878Y461219D01*
X-54783Y461117D01*
X-54685Y461017D01*
X-54584Y460920D01*
X-54480Y460826D01*
X-54374Y460736D01*
X-54265Y460648D01*
X-54154Y460563D01*
X-54040Y460482D01*
X-53925Y460403D01*
X-53807Y460328D01*
X-53686Y460257D01*
X-53564Y460189D01*
X-53441Y460124D01*
X-53315Y460063D01*
X-53187Y460005D01*
X-53059Y459951D01*
X-52928Y459901D01*
X-52796Y459854D01*
X-52663Y459811D01*
X-52529Y459772D01*
X-52394Y459737D01*
X-52258Y459706D01*
X-52120Y459678D01*
X-51983Y459655D01*
X-51844Y459635D01*
X-51705Y459619D01*
X-51566Y459607D01*
X-51427Y459599D01*
X-51287Y459595D01*
X-51147Y459595D01*
X-51007Y459599D01*
X-50868Y459607D01*
X-50729Y459619D01*
X-50590Y459635D01*
X-50451Y459655D01*
X-50313Y459678D01*
X-50176Y459706D01*
X-50040Y459737D01*
X-49905Y459772D01*
X-49771Y459811D01*
X-49638Y459854D01*
X-49506Y459901D01*
X-49375Y459951D01*
X-49247Y460005D01*
X-49119Y460063D01*
X-48993Y460124D01*
X-48870Y460189D01*
X-48747Y460257D01*
X-48748Y460256D02*
X-44470Y462726D01*
X-67966Y460567D02*
X-68080Y460499D01*
X-68191Y460428D01*
X-68300Y460354D01*
X-68406Y460277D01*
X-68510Y460196D01*
X-68612Y460113D01*
X-68712Y460026D01*
X-68808Y459937D01*
X-68903Y459845D01*
X-68994Y459750D01*
X-69082Y459652D01*
X-69168Y459552D01*
X-69250Y459449D01*
X-69330Y459344D01*
X-69406Y459237D01*
X-69479Y459127D01*
X-69549Y459015D01*
X-69615Y458901D01*
X-69678Y458786D01*
X-69738Y458668D01*
X-69794Y458549D01*
X-69846Y458428D01*
X-69895Y458306D01*
X-69941Y458182D01*
X-69982Y458057D01*
X-70020Y457931D01*
X-70054Y457804D01*
X-70084Y457676D01*
X-70111Y457546D01*
X-70134Y457417D01*
X-70152Y457286D01*
X-70167Y457155D01*
X-70178Y457024D01*
X-70186Y456893D01*
X-70189Y456761D01*
X-70188Y456629D01*
X-70184Y456498D01*
X-70175Y456366D01*
X-70163Y456235D01*
X-70147Y456104D01*
X-70126Y455974D01*
X-70103Y455844D01*
X-70075Y455716D01*
X-70043Y455588D01*
X-70008Y455461D01*
X-69969Y455335D01*
X-69926Y455211D01*
X-69879Y455087D01*
X-69829Y454965D01*
X-69776Y454845D01*
X-69718Y454726D01*
X-69658Y454610D01*
X-69593Y454495D01*
X-67966Y460567D02*
X-67836Y460640D01*
X-67704Y460710D01*
X-67569Y460776D01*
X-67433Y460838D01*
X-67296Y460898D01*
X-67157Y460953D01*
X-67017Y461005D01*
X-66875Y461053D01*
X-66732Y461097D01*
X-66588Y461138D01*
X-66443Y461175D01*
X-66297Y461207D01*
X-66150Y461237D01*
X-66003Y461262D01*
X-65855Y461283D01*
X-65706Y461301D01*
X-65557Y461315D01*
X-65408Y461324D01*
X-65258Y461330D01*
X-65109Y461332D01*
X-64959Y461330D01*
X-64810Y461324D01*
X-64660Y461314D01*
X-64511Y461300D01*
X-64363Y461283D01*
X-64215Y461261D01*
X-64067Y461236D01*
X-63921Y461207D01*
X-63775Y461173D01*
X-63630Y461137D01*
X-63486Y461096D01*
X-63343Y461051D01*
X-63201Y461003D01*
X-63061Y460951D01*
X-62922Y460896D01*
X-62784Y460837D01*
X-62649Y460774D01*
X-62514Y460708D01*
X-62382Y460638D01*
X-62252Y460565D01*
X-62123Y460488D01*
X-61997Y460408D01*
X-61872Y460325D01*
X-61750Y460238D01*
X-61630Y460149D01*
X-61513Y460056D01*
X-61398Y459960D01*
X-61286Y459861D01*
X-66582Y452242D02*
X-66711Y452275D01*
X-66839Y452312D01*
X-66966Y452352D01*
X-67092Y452396D01*
X-67217Y452443D01*
X-67340Y452494D01*
X-67462Y452548D01*
X-67582Y452606D01*
X-67700Y452667D01*
X-67817Y452731D01*
X-67932Y452799D01*
X-68045Y452869D01*
X-68156Y452943D01*
X-68265Y453020D01*
X-68372Y453100D01*
X-68476Y453183D01*
X-68579Y453268D01*
X-68678Y453357D01*
X-68775Y453448D01*
X-68870Y453542D01*
X-68962Y453638D01*
X-69051Y453737D01*
X-69137Y453839D01*
X-69221Y453943D01*
X-69302Y454049D01*
X-69379Y454157D01*
X-69454Y454268D01*
X-69525Y454380D01*
X-69593Y454495D01*
X-66582Y452241D02*
X-54371Y447885D01*
X-62926Y442946D01*
X-77096Y442749D02*
X-80059Y447882D01*
X-77096Y442749D02*
X-77867Y437171D01*
X-77096Y442749D02*
X-71879Y440628D01*
X-77096Y442749D02*
X-82788Y441744D01*
X-77096Y442749D02*
X-73379Y447176D01*
D11*
X-122340Y430864D02*
X-123314Y429177D01*
X-117693Y425932D01*
X-115745Y429305D01*
X-115746Y429305D02*
X-115698Y429392D01*
X-115653Y429481D01*
X-115612Y429571D01*
X-115574Y429663D01*
X-115540Y429757D01*
X-115509Y429851D01*
X-115482Y429947D01*
X-115459Y430044D01*
X-115439Y430141D01*
X-115424Y430240D01*
X-115412Y430338D01*
X-115403Y430437D01*
X-115399Y430537D01*
X-115398Y430636D01*
X-115401Y430736D01*
X-115408Y430835D01*
X-115419Y430934D01*
X-115434Y431032D01*
X-115452Y431130D01*
X-115474Y431227D01*
X-115500Y431323D01*
X-115529Y431418D01*
X-115562Y431512D01*
X-115599Y431604D01*
X-115639Y431695D01*
X-115682Y431785D01*
X-115729Y431872D01*
X-115780Y431958D01*
X-115833Y432042D01*
X-115890Y432124D01*
X-115950Y432203D01*
X-116012Y432280D01*
X-116078Y432355D01*
X-116147Y432427D01*
X-116218Y432496D01*
X-116292Y432563D01*
X-116368Y432627D01*
X-116447Y432688D01*
X-116528Y432745D01*
X-116611Y432800D01*
X-116696Y432851D01*
X-122317Y436097D01*
X-122317Y436096D02*
X-122404Y436144D01*
X-122493Y436189D01*
X-122583Y436230D01*
X-122675Y436268D01*
X-122769Y436302D01*
X-122863Y436333D01*
X-122959Y436360D01*
X-123056Y436383D01*
X-123153Y436403D01*
X-123252Y436418D01*
X-123350Y436430D01*
X-123449Y436439D01*
X-123549Y436443D01*
X-123648Y436444D01*
X-123748Y436441D01*
X-123847Y436434D01*
X-123946Y436423D01*
X-124044Y436408D01*
X-124142Y436390D01*
X-124239Y436368D01*
X-124335Y436342D01*
X-124430Y436313D01*
X-124524Y436280D01*
X-124616Y436243D01*
X-124707Y436203D01*
X-124796Y436160D01*
X-124884Y436113D01*
X-124970Y436062D01*
X-125054Y436009D01*
X-125135Y435952D01*
X-125215Y435892D01*
X-125292Y435830D01*
X-125367Y435764D01*
X-125439Y435695D01*
X-125508Y435624D01*
X-125575Y435550D01*
X-125639Y435474D01*
X-125699Y435395D01*
X-125757Y435314D01*
X-125812Y435231D01*
X-125863Y435146D01*
X-125864Y435147D02*
X-127811Y431774D01*
X-130662Y426837D02*
X-120543Y420995D01*
X-123789Y415373D02*
X-130662Y426837D01*
X-133907Y421215D02*
X-123789Y415373D01*
X-126639Y410436D02*
X-136758Y416278D01*
X-138380Y413467D01*
X-138381Y413468D02*
X-138436Y413369D01*
X-138487Y413268D01*
X-138535Y413165D01*
X-138580Y413061D01*
X-138620Y412955D01*
X-138657Y412848D01*
X-138690Y412740D01*
X-138720Y412630D01*
X-138745Y412520D01*
X-138767Y412409D01*
X-138784Y412297D01*
X-138798Y412184D01*
X-138808Y412071D01*
X-138814Y411958D01*
X-138816Y411845D01*
X-138814Y411732D01*
X-138808Y411619D01*
X-138798Y411506D01*
X-138784Y411393D01*
X-138767Y411281D01*
X-138745Y411170D01*
X-138720Y411060D01*
X-138690Y410950D01*
X-138657Y410842D01*
X-138620Y410735D01*
X-138580Y410629D01*
X-138535Y410525D01*
X-138487Y410422D01*
X-138436Y410321D01*
X-138381Y410222D01*
X-138323Y410125D01*
X-138261Y410030D01*
X-138196Y409937D01*
X-138128Y409847D01*
X-138057Y409759D01*
X-137982Y409673D01*
X-137905Y409590D01*
X-137825Y409510D01*
X-137742Y409433D01*
X-137656Y409358D01*
X-137568Y409287D01*
X-137478Y409219D01*
X-137385Y409154D01*
X-137290Y409092D01*
X-137193Y409034D01*
X-137192Y409034D02*
X-132695Y406437D01*
X-132696Y406437D02*
X-132597Y406382D01*
X-132496Y406331D01*
X-132393Y406283D01*
X-132289Y406238D01*
X-132183Y406198D01*
X-132076Y406161D01*
X-131968Y406128D01*
X-131858Y406098D01*
X-131748Y406073D01*
X-131637Y406051D01*
X-131525Y406034D01*
X-131412Y406020D01*
X-131299Y406010D01*
X-131186Y406004D01*
X-131073Y406002D01*
X-130960Y406004D01*
X-130847Y406010D01*
X-130734Y406020D01*
X-130621Y406034D01*
X-130509Y406051D01*
X-130398Y406073D01*
X-130288Y406098D01*
X-130178Y406128D01*
X-130070Y406161D01*
X-129963Y406198D01*
X-129857Y406238D01*
X-129753Y406283D01*
X-129650Y406331D01*
X-129549Y406382D01*
X-129450Y406437D01*
X-129353Y406495D01*
X-129258Y406557D01*
X-129165Y406622D01*
X-129075Y406690D01*
X-128986Y406761D01*
X-128901Y406836D01*
X-128818Y406913D01*
X-128738Y406993D01*
X-128661Y407076D01*
X-128586Y407162D01*
X-128515Y407250D01*
X-128447Y407340D01*
X-128382Y407433D01*
X-128320Y407528D01*
X-128262Y407625D01*
X-126639Y410436D01*
X9364Y495380D02*
X11311Y495380D01*
X9364Y495380D02*
X9364Y488889D01*
X13259Y488889D01*
X13259Y488890D02*
X13358Y488892D01*
X13458Y488898D01*
X13557Y488907D01*
X13655Y488920D01*
X13753Y488937D01*
X13851Y488958D01*
X13947Y488983D01*
X14042Y489011D01*
X14136Y489043D01*
X14229Y489078D01*
X14321Y489117D01*
X14411Y489160D01*
X14499Y489205D01*
X14586Y489255D01*
X14670Y489307D01*
X14753Y489363D01*
X14833Y489421D01*
X14911Y489483D01*
X14986Y489548D01*
X15059Y489616D01*
X15129Y489686D01*
X15197Y489759D01*
X15262Y489834D01*
X15324Y489912D01*
X15382Y489992D01*
X15438Y490075D01*
X15490Y490159D01*
X15540Y490246D01*
X15585Y490334D01*
X15628Y490424D01*
X15667Y490516D01*
X15702Y490609D01*
X15734Y490703D01*
X15762Y490798D01*
X15787Y490894D01*
X15808Y490992D01*
X15825Y491090D01*
X15838Y491188D01*
X15847Y491287D01*
X15853Y491387D01*
X15855Y491486D01*
X15855Y497977D01*
X15853Y498076D01*
X15847Y498176D01*
X15838Y498275D01*
X15825Y498373D01*
X15808Y498471D01*
X15787Y498569D01*
X15762Y498665D01*
X15734Y498760D01*
X15702Y498854D01*
X15667Y498947D01*
X15628Y499039D01*
X15585Y499129D01*
X15540Y499217D01*
X15490Y499304D01*
X15438Y499388D01*
X15382Y499471D01*
X15324Y499551D01*
X15262Y499629D01*
X15197Y499704D01*
X15129Y499777D01*
X15059Y499847D01*
X14986Y499915D01*
X14911Y499980D01*
X14833Y500042D01*
X14753Y500100D01*
X14670Y500156D01*
X14586Y500208D01*
X14499Y500258D01*
X14411Y500303D01*
X14321Y500346D01*
X14229Y500385D01*
X14136Y500420D01*
X14042Y500452D01*
X13947Y500480D01*
X13851Y500505D01*
X13753Y500526D01*
X13655Y500543D01*
X13557Y500556D01*
X13458Y500565D01*
X13358Y500571D01*
X13259Y500573D01*
X9364Y500573D01*
X3663Y500573D02*
X3663Y488889D01*
X-2828Y488889D02*
X3663Y500573D01*
X-2828Y500573D02*
X-2828Y488889D01*
X-8529Y488889D02*
X-8529Y500573D01*
X-11774Y500573D01*
X-11774Y500574D02*
X-11887Y500572D01*
X-12000Y500566D01*
X-12113Y500556D01*
X-12226Y500542D01*
X-12338Y500525D01*
X-12449Y500503D01*
X-12559Y500478D01*
X-12669Y500448D01*
X-12777Y500415D01*
X-12884Y500378D01*
X-12990Y500338D01*
X-13094Y500293D01*
X-13197Y500245D01*
X-13298Y500194D01*
X-13397Y500139D01*
X-13494Y500081D01*
X-13589Y500019D01*
X-13682Y499954D01*
X-13772Y499886D01*
X-13860Y499815D01*
X-13946Y499740D01*
X-14029Y499663D01*
X-14109Y499583D01*
X-14186Y499500D01*
X-14261Y499414D01*
X-14332Y499326D01*
X-14400Y499236D01*
X-14465Y499143D01*
X-14527Y499048D01*
X-14585Y498951D01*
X-14640Y498852D01*
X-14691Y498751D01*
X-14739Y498648D01*
X-14784Y498544D01*
X-14824Y498438D01*
X-14861Y498331D01*
X-14894Y498223D01*
X-14924Y498113D01*
X-14949Y498003D01*
X-14971Y497892D01*
X-14988Y497780D01*
X-15002Y497667D01*
X-15012Y497554D01*
X-15018Y497441D01*
X-15020Y497328D01*
X-15020Y492135D01*
X-15018Y492022D01*
X-15012Y491909D01*
X-15002Y491796D01*
X-14988Y491683D01*
X-14971Y491571D01*
X-14949Y491460D01*
X-14924Y491350D01*
X-14894Y491240D01*
X-14861Y491132D01*
X-14824Y491025D01*
X-14784Y490919D01*
X-14739Y490815D01*
X-14691Y490712D01*
X-14640Y490611D01*
X-14585Y490512D01*
X-14527Y490415D01*
X-14465Y490320D01*
X-14400Y490227D01*
X-14332Y490137D01*
X-14261Y490049D01*
X-14186Y489963D01*
X-14109Y489880D01*
X-14029Y489800D01*
X-13946Y489723D01*
X-13860Y489648D01*
X-13772Y489577D01*
X-13682Y489509D01*
X-13589Y489444D01*
X-13494Y489382D01*
X-13397Y489324D01*
X-13298Y489269D01*
X-13197Y489218D01*
X-13094Y489170D01*
X-12990Y489125D01*
X-12884Y489085D01*
X-12777Y489048D01*
X-12669Y489015D01*
X-12559Y488985D01*
X-12449Y488960D01*
X-12338Y488938D01*
X-12226Y488921D01*
X-12113Y488907D01*
X-12000Y488897D01*
X-11887Y488891D01*
X-11774Y488889D01*
X-8529Y488889D01*
X133398Y412094D02*
X134372Y410408D01*
X133398Y412094D02*
X127776Y408849D01*
X129724Y405476D01*
X129775Y405391D01*
X129830Y405308D01*
X129887Y405227D01*
X129948Y405148D01*
X130012Y405072D01*
X130079Y404998D01*
X130148Y404927D01*
X130220Y404858D01*
X130295Y404792D01*
X130372Y404730D01*
X130451Y404670D01*
X130533Y404613D01*
X130617Y404560D01*
X130703Y404509D01*
X130790Y404462D01*
X130880Y404419D01*
X130971Y404379D01*
X131063Y404342D01*
X131157Y404309D01*
X131252Y404280D01*
X131348Y404254D01*
X131445Y404232D01*
X131543Y404214D01*
X131641Y404199D01*
X131740Y404188D01*
X131839Y404181D01*
X131939Y404178D01*
X132038Y404179D01*
X132138Y404183D01*
X132237Y404192D01*
X132336Y404204D01*
X132434Y404219D01*
X132531Y404239D01*
X132628Y404262D01*
X132724Y404289D01*
X132818Y404320D01*
X132912Y404354D01*
X133004Y404392D01*
X133094Y404433D01*
X133183Y404478D01*
X133270Y404526D01*
X133271Y404525D02*
X138892Y407771D01*
X138892Y407772D02*
X138977Y407823D01*
X139060Y407878D01*
X139141Y407935D01*
X139220Y407996D01*
X139296Y408060D01*
X139370Y408127D01*
X139441Y408196D01*
X139510Y408268D01*
X139576Y408343D01*
X139638Y408420D01*
X139698Y408499D01*
X139755Y408581D01*
X139808Y408665D01*
X139859Y408751D01*
X139906Y408838D01*
X139949Y408928D01*
X139989Y409019D01*
X140026Y409111D01*
X140059Y409205D01*
X140088Y409300D01*
X140114Y409396D01*
X140136Y409493D01*
X140154Y409591D01*
X140169Y409689D01*
X140180Y409788D01*
X140187Y409887D01*
X140190Y409987D01*
X140189Y410086D01*
X140185Y410186D01*
X140176Y410285D01*
X140164Y410383D01*
X140149Y410482D01*
X140129Y410579D01*
X140106Y410676D01*
X140079Y410772D01*
X140048Y410866D01*
X140014Y410960D01*
X139976Y411052D01*
X139935Y411142D01*
X139890Y411231D01*
X139842Y411318D01*
X137895Y414691D01*
X135045Y419628D02*
X124926Y413786D01*
X121681Y419407D02*
X135045Y419628D01*
X131799Y425249D02*
X121681Y419407D01*
X118830Y424344D02*
X128949Y430186D01*
X127326Y432997D01*
X127268Y433094D01*
X127206Y433189D01*
X127141Y433282D01*
X127073Y433372D01*
X127002Y433460D01*
X126927Y433546D01*
X126850Y433629D01*
X126770Y433709D01*
X126687Y433786D01*
X126601Y433861D01*
X126513Y433932D01*
X126423Y434000D01*
X126330Y434065D01*
X126235Y434127D01*
X126138Y434185D01*
X126039Y434240D01*
X125938Y434291D01*
X125835Y434339D01*
X125731Y434384D01*
X125625Y434424D01*
X125518Y434461D01*
X125410Y434494D01*
X125300Y434524D01*
X125190Y434549D01*
X125079Y434571D01*
X124967Y434588D01*
X124854Y434602D01*
X124741Y434612D01*
X124628Y434618D01*
X124515Y434620D01*
X124402Y434618D01*
X124289Y434612D01*
X124176Y434602D01*
X124063Y434588D01*
X123951Y434571D01*
X123840Y434549D01*
X123730Y434524D01*
X123620Y434494D01*
X123512Y434461D01*
X123405Y434424D01*
X123299Y434384D01*
X123195Y434339D01*
X123092Y434291D01*
X122991Y434240D01*
X122892Y434185D01*
X118395Y431588D01*
X118395Y431589D02*
X118298Y431531D01*
X118203Y431469D01*
X118110Y431404D01*
X118020Y431336D01*
X117932Y431265D01*
X117846Y431190D01*
X117763Y431113D01*
X117683Y431033D01*
X117606Y430950D01*
X117531Y430864D01*
X117460Y430776D01*
X117392Y430686D01*
X117327Y430593D01*
X117265Y430498D01*
X117207Y430401D01*
X117152Y430302D01*
X117101Y430201D01*
X117053Y430098D01*
X117008Y429994D01*
X116968Y429888D01*
X116931Y429781D01*
X116898Y429673D01*
X116868Y429563D01*
X116843Y429453D01*
X116821Y429342D01*
X116804Y429230D01*
X116790Y429117D01*
X116780Y429004D01*
X116774Y428891D01*
X116772Y428778D01*
X116774Y428665D01*
X116780Y428552D01*
X116790Y428439D01*
X116804Y428326D01*
X116821Y428214D01*
X116843Y428103D01*
X116868Y427993D01*
X116898Y427883D01*
X116931Y427775D01*
X116968Y427668D01*
X117008Y427562D01*
X117053Y427458D01*
X117101Y427355D01*
X117152Y427254D01*
X117207Y427155D01*
X118830Y424344D01*
D10*
X-103327Y348840D02*
X-103327Y331060D01*
X-103327Y348840D02*
X-108266Y348840D01*
X-108406Y348838D01*
X-108545Y348832D01*
X-108685Y348822D01*
X-108824Y348808D01*
X-108963Y348791D01*
X-109101Y348769D01*
X-109238Y348743D01*
X-109375Y348714D01*
X-109511Y348681D01*
X-109645Y348644D01*
X-109779Y348603D01*
X-109911Y348558D01*
X-110043Y348509D01*
X-110172Y348457D01*
X-110300Y348402D01*
X-110427Y348342D01*
X-110552Y348279D01*
X-110675Y348213D01*
X-110796Y348143D01*
X-110915Y348070D01*
X-111032Y347993D01*
X-111146Y347913D01*
X-111259Y347830D01*
X-111369Y347744D01*
X-111476Y347654D01*
X-111581Y347562D01*
X-111683Y347467D01*
X-111783Y347369D01*
X-111880Y347268D01*
X-111974Y347164D01*
X-112064Y347058D01*
X-112152Y346949D01*
X-112237Y346838D01*
X-112318Y346724D01*
X-112397Y346609D01*
X-112472Y346491D01*
X-112543Y346371D01*
X-112611Y346248D01*
X-112676Y346125D01*
X-112737Y345999D01*
X-112795Y345871D01*
X-112849Y345743D01*
X-112899Y345612D01*
X-112946Y345480D01*
X-112989Y345347D01*
X-113028Y345213D01*
X-113063Y345078D01*
X-113094Y344942D01*
X-113122Y344804D01*
X-113145Y344667D01*
X-113165Y344528D01*
X-113181Y344389D01*
X-113193Y344250D01*
X-113201Y344111D01*
X-113205Y343971D01*
X-113205Y343831D01*
X-113201Y343691D01*
X-113193Y343552D01*
X-113181Y343413D01*
X-113165Y343274D01*
X-113145Y343135D01*
X-113122Y342998D01*
X-113094Y342860D01*
X-113063Y342724D01*
X-113028Y342589D01*
X-112989Y342455D01*
X-112946Y342322D01*
X-112899Y342190D01*
X-112849Y342059D01*
X-112795Y341931D01*
X-112737Y341803D01*
X-112676Y341677D01*
X-112611Y341554D01*
X-112543Y341432D01*
X-112472Y341311D01*
X-112397Y341193D01*
X-112318Y341078D01*
X-112237Y340964D01*
X-112152Y340853D01*
X-112064Y340744D01*
X-111974Y340638D01*
X-111880Y340534D01*
X-111783Y340433D01*
X-111683Y340335D01*
X-111581Y340240D01*
X-111476Y340148D01*
X-111369Y340058D01*
X-111259Y339972D01*
X-111146Y339889D01*
X-111032Y339809D01*
X-110915Y339732D01*
X-110796Y339659D01*
X-110675Y339589D01*
X-110552Y339523D01*
X-110427Y339460D01*
X-110300Y339400D01*
X-110172Y339345D01*
X-110043Y339293D01*
X-109911Y339244D01*
X-109779Y339199D01*
X-109645Y339158D01*
X-109511Y339121D01*
X-109375Y339088D01*
X-109238Y339059D01*
X-109101Y339033D01*
X-108963Y339011D01*
X-108824Y338994D01*
X-108685Y338980D01*
X-108545Y338970D01*
X-108406Y338964D01*
X-108266Y338962D01*
X-103327Y338962D01*
X-119322Y344889D02*
X-124261Y348840D01*
X-124261Y331060D01*
X-119322Y331060D02*
X-129200Y331060D01*
X126860Y329473D02*
X126860Y347253D01*
X121921Y347253D01*
X121781Y347251D01*
X121642Y347245D01*
X121502Y347235D01*
X121363Y347221D01*
X121224Y347204D01*
X121086Y347182D01*
X120949Y347156D01*
X120812Y347127D01*
X120676Y347094D01*
X120542Y347057D01*
X120408Y347016D01*
X120276Y346971D01*
X120144Y346922D01*
X120015Y346870D01*
X119887Y346815D01*
X119760Y346755D01*
X119635Y346692D01*
X119512Y346626D01*
X119391Y346556D01*
X119272Y346483D01*
X119155Y346406D01*
X119041Y346326D01*
X118928Y346243D01*
X118818Y346157D01*
X118711Y346067D01*
X118606Y345975D01*
X118504Y345880D01*
X118404Y345782D01*
X118307Y345681D01*
X118213Y345577D01*
X118123Y345471D01*
X118035Y345362D01*
X117950Y345251D01*
X117869Y345137D01*
X117790Y345022D01*
X117715Y344904D01*
X117644Y344784D01*
X117576Y344661D01*
X117511Y344538D01*
X117450Y344412D01*
X117392Y344284D01*
X117338Y344156D01*
X117288Y344025D01*
X117241Y343893D01*
X117198Y343760D01*
X117159Y343626D01*
X117124Y343491D01*
X117093Y343355D01*
X117065Y343217D01*
X117042Y343080D01*
X117022Y342941D01*
X117006Y342802D01*
X116994Y342663D01*
X116986Y342524D01*
X116982Y342384D01*
X116982Y342244D01*
X116986Y342104D01*
X116994Y341965D01*
X117006Y341826D01*
X117022Y341687D01*
X117042Y341548D01*
X117065Y341411D01*
X117093Y341273D01*
X117124Y341137D01*
X117159Y341002D01*
X117198Y340868D01*
X117241Y340735D01*
X117288Y340603D01*
X117338Y340472D01*
X117392Y340344D01*
X117450Y340216D01*
X117511Y340090D01*
X117576Y339967D01*
X117644Y339845D01*
X117715Y339724D01*
X117790Y339606D01*
X117869Y339491D01*
X117950Y339377D01*
X118035Y339266D01*
X118123Y339157D01*
X118213Y339051D01*
X118307Y338947D01*
X118404Y338846D01*
X118504Y338748D01*
X118606Y338653D01*
X118711Y338561D01*
X118818Y338471D01*
X118928Y338385D01*
X119041Y338302D01*
X119155Y338222D01*
X119272Y338145D01*
X119391Y338072D01*
X119512Y338002D01*
X119635Y337936D01*
X119760Y337873D01*
X119887Y337813D01*
X120015Y337758D01*
X120144Y337706D01*
X120276Y337657D01*
X120408Y337612D01*
X120542Y337571D01*
X120676Y337534D01*
X120812Y337501D01*
X120949Y337472D01*
X121086Y337446D01*
X121224Y337424D01*
X121363Y337407D01*
X121502Y337393D01*
X121642Y337383D01*
X121781Y337377D01*
X121921Y337375D01*
X126860Y337375D01*
X110865Y333424D02*
X106914Y347253D01*
X110865Y333424D02*
X100987Y333424D01*
X103951Y337375D02*
X103951Y329473D01*
D12*
X-77741Y391065D02*
X-79829Y391065D01*
X-77741Y391065D02*
X-77652Y391067D01*
X-77564Y391073D01*
X-77476Y391082D01*
X-77388Y391095D01*
X-77301Y391112D01*
X-77215Y391132D01*
X-77130Y391157D01*
X-77045Y391184D01*
X-76962Y391216D01*
X-76881Y391250D01*
X-76801Y391289D01*
X-76723Y391330D01*
X-76646Y391375D01*
X-76572Y391423D01*
X-76499Y391474D01*
X-76429Y391528D01*
X-76362Y391586D01*
X-76296Y391646D01*
X-76234Y391708D01*
X-76174Y391774D01*
X-76116Y391841D01*
X-76062Y391911D01*
X-76011Y391984D01*
X-75963Y392058D01*
X-75918Y392135D01*
X-75877Y392213D01*
X-75838Y392293D01*
X-75804Y392374D01*
X-75772Y392457D01*
X-75745Y392542D01*
X-75720Y392627D01*
X-75700Y392713D01*
X-75683Y392800D01*
X-75670Y392888D01*
X-75661Y392976D01*
X-75655Y393064D01*
X-75653Y393153D01*
X-75652Y393153D02*
X-75652Y398374D01*
X-75653Y398374D02*
X-75655Y398465D01*
X-75661Y398556D01*
X-75671Y398647D01*
X-75685Y398737D01*
X-75702Y398826D01*
X-75724Y398914D01*
X-75750Y399002D01*
X-75779Y399088D01*
X-75812Y399173D01*
X-75849Y399256D01*
X-75889Y399338D01*
X-75933Y399418D01*
X-75980Y399496D01*
X-76031Y399572D01*
X-76084Y399645D01*
X-76141Y399716D01*
X-76202Y399785D01*
X-76265Y399850D01*
X-76330Y399913D01*
X-76399Y399973D01*
X-76470Y400031D01*
X-76543Y400084D01*
X-76619Y400135D01*
X-76697Y400182D01*
X-76777Y400226D01*
X-76859Y400266D01*
X-76942Y400303D01*
X-77027Y400336D01*
X-77113Y400365D01*
X-77201Y400391D01*
X-77289Y400413D01*
X-77378Y400430D01*
X-77468Y400444D01*
X-77559Y400454D01*
X-77650Y400460D01*
X-77741Y400462D01*
X-77741Y400463D02*
X-79829Y400463D01*
X-86170Y400463D02*
X-86265Y400461D01*
X-86359Y400455D01*
X-86453Y400446D01*
X-86547Y400433D01*
X-86640Y400416D01*
X-86732Y400395D01*
X-86824Y400370D01*
X-86914Y400342D01*
X-87003Y400310D01*
X-87091Y400275D01*
X-87177Y400236D01*
X-87262Y400194D01*
X-87345Y400148D01*
X-87426Y400099D01*
X-87505Y400047D01*
X-87582Y399992D01*
X-87656Y399933D01*
X-87728Y399872D01*
X-87798Y399808D01*
X-87865Y399741D01*
X-87929Y399671D01*
X-87990Y399599D01*
X-88049Y399525D01*
X-88104Y399448D01*
X-88156Y399369D01*
X-88205Y399288D01*
X-88251Y399205D01*
X-88293Y399120D01*
X-88332Y399034D01*
X-88367Y398946D01*
X-88399Y398857D01*
X-88427Y398767D01*
X-88452Y398675D01*
X-88473Y398583D01*
X-88490Y398490D01*
X-88503Y398396D01*
X-88512Y398302D01*
X-88518Y398208D01*
X-88520Y398113D01*
X-86170Y400462D02*
X-86062Y400460D01*
X-85953Y400454D01*
X-85845Y400444D01*
X-85738Y400431D01*
X-85631Y400413D01*
X-85524Y400392D01*
X-85419Y400367D01*
X-85314Y400338D01*
X-85211Y400306D01*
X-85109Y400269D01*
X-85008Y400229D01*
X-84909Y400186D01*
X-84811Y400139D01*
X-84715Y400088D01*
X-84621Y400034D01*
X-84529Y399977D01*
X-84439Y399916D01*
X-84351Y399852D01*
X-84266Y399786D01*
X-84183Y399716D01*
X-84103Y399643D01*
X-84025Y399567D01*
X-83950Y399489D01*
X-83878Y399408D01*
X-83809Y399324D01*
X-83743Y399238D01*
X-83680Y399150D01*
X-83621Y399059D01*
X-83564Y398967D01*
X-83511Y398872D01*
X-83462Y398776D01*
X-83416Y398677D01*
X-83373Y398578D01*
X-83334Y398476D01*
X-83299Y398374D01*
X-87736Y396285D02*
X-87805Y396354D01*
X-87871Y396425D01*
X-87935Y396498D01*
X-87996Y396574D01*
X-88054Y396653D01*
X-88108Y396733D01*
X-88160Y396816D01*
X-88208Y396900D01*
X-88254Y396986D01*
X-88295Y397074D01*
X-88334Y397164D01*
X-88369Y397255D01*
X-88400Y397347D01*
X-88428Y397440D01*
X-88452Y397534D01*
X-88472Y397629D01*
X-88489Y397725D01*
X-88502Y397822D01*
X-88511Y397919D01*
X-88517Y398016D01*
X-88519Y398113D01*
X-87736Y396286D02*
X-83298Y391065D01*
X-88519Y391065D01*
D10*
X-39376Y376669D02*
X-39376Y356540D01*
D12*
X-80257Y360744D02*
X-82345Y360744D01*
X-80257Y360744D02*
X-80168Y360746D01*
X-80080Y360752D01*
X-79992Y360761D01*
X-79904Y360774D01*
X-79817Y360791D01*
X-79731Y360811D01*
X-79646Y360836D01*
X-79561Y360863D01*
X-79478Y360895D01*
X-79397Y360929D01*
X-79317Y360968D01*
X-79239Y361009D01*
X-79162Y361054D01*
X-79088Y361102D01*
X-79015Y361153D01*
X-78945Y361207D01*
X-78878Y361265D01*
X-78812Y361325D01*
X-78750Y361387D01*
X-78690Y361453D01*
X-78632Y361520D01*
X-78578Y361590D01*
X-78527Y361663D01*
X-78479Y361737D01*
X-78434Y361814D01*
X-78393Y361892D01*
X-78354Y361972D01*
X-78320Y362053D01*
X-78288Y362136D01*
X-78261Y362221D01*
X-78236Y362306D01*
X-78216Y362392D01*
X-78199Y362479D01*
X-78186Y362567D01*
X-78177Y362655D01*
X-78171Y362743D01*
X-78169Y362832D01*
X-78169Y368053D01*
X-78171Y368144D01*
X-78177Y368235D01*
X-78187Y368326D01*
X-78201Y368416D01*
X-78218Y368505D01*
X-78240Y368593D01*
X-78266Y368681D01*
X-78295Y368767D01*
X-78328Y368852D01*
X-78365Y368935D01*
X-78405Y369017D01*
X-78449Y369097D01*
X-78496Y369175D01*
X-78547Y369251D01*
X-78600Y369324D01*
X-78657Y369395D01*
X-78718Y369464D01*
X-78781Y369529D01*
X-78846Y369592D01*
X-78915Y369652D01*
X-78986Y369710D01*
X-79059Y369763D01*
X-79135Y369814D01*
X-79213Y369861D01*
X-79293Y369905D01*
X-79375Y369945D01*
X-79458Y369982D01*
X-79543Y370015D01*
X-79629Y370044D01*
X-79717Y370070D01*
X-79805Y370092D01*
X-79894Y370109D01*
X-79984Y370123D01*
X-80075Y370133D01*
X-80166Y370139D01*
X-80257Y370141D01*
X-80257Y370142D02*
X-82345Y370142D01*
X-85814Y360744D02*
X-88425Y360744D01*
X-88425Y360743D02*
X-88526Y360745D01*
X-88627Y360751D01*
X-88728Y360761D01*
X-88828Y360774D01*
X-88928Y360792D01*
X-89027Y360813D01*
X-89125Y360839D01*
X-89222Y360868D01*
X-89318Y360900D01*
X-89412Y360937D01*
X-89505Y360977D01*
X-89597Y361021D01*
X-89686Y361068D01*
X-89774Y361119D01*
X-89860Y361173D01*
X-89943Y361230D01*
X-90025Y361290D01*
X-90103Y361354D01*
X-90180Y361420D01*
X-90253Y361490D01*
X-90324Y361562D01*
X-90392Y361637D01*
X-90457Y361715D01*
X-90519Y361795D01*
X-90578Y361877D01*
X-90634Y361962D01*
X-90686Y362049D01*
X-90735Y362137D01*
X-90781Y362228D01*
X-90822Y362320D01*
X-90861Y362414D01*
X-90895Y362509D01*
X-90926Y362605D01*
X-90953Y362703D01*
X-90977Y362801D01*
X-90996Y362901D01*
X-91012Y363001D01*
X-91024Y363101D01*
X-91032Y363202D01*
X-91036Y363303D01*
X-91036Y363405D01*
X-91032Y363506D01*
X-91024Y363607D01*
X-91012Y363707D01*
X-90996Y363807D01*
X-90977Y363907D01*
X-90953Y364005D01*
X-90926Y364103D01*
X-90895Y364199D01*
X-90861Y364294D01*
X-90822Y364388D01*
X-90781Y364480D01*
X-90735Y364571D01*
X-90686Y364660D01*
X-90634Y364746D01*
X-90578Y364831D01*
X-90519Y364913D01*
X-90457Y364993D01*
X-90392Y365071D01*
X-90324Y365146D01*
X-90253Y365218D01*
X-90180Y365288D01*
X-90103Y365354D01*
X-90025Y365418D01*
X-89943Y365478D01*
X-89860Y365535D01*
X-89774Y365589D01*
X-89686Y365640D01*
X-89597Y365687D01*
X-89505Y365731D01*
X-89412Y365771D01*
X-89318Y365808D01*
X-89222Y365840D01*
X-89125Y365869D01*
X-89027Y365895D01*
X-88928Y365916D01*
X-88828Y365934D01*
X-88728Y365947D01*
X-88627Y365957D01*
X-88526Y365963D01*
X-88425Y365965D01*
X-88947Y370142D02*
X-85814Y370142D01*
X-88947Y370141D02*
X-89037Y370139D01*
X-89126Y370133D01*
X-89216Y370124D01*
X-89305Y370110D01*
X-89393Y370093D01*
X-89480Y370072D01*
X-89567Y370047D01*
X-89652Y370018D01*
X-89736Y369986D01*
X-89818Y369951D01*
X-89899Y369911D01*
X-89978Y369869D01*
X-90055Y369823D01*
X-90130Y369773D01*
X-90203Y369721D01*
X-90274Y369665D01*
X-90342Y369607D01*
X-90407Y369545D01*
X-90470Y369481D01*
X-90530Y369414D01*
X-90587Y369345D01*
X-90641Y369273D01*
X-90692Y369199D01*
X-90740Y369123D01*
X-90784Y369045D01*
X-90825Y368965D01*
X-90863Y368883D01*
X-90897Y368800D01*
X-90927Y368715D01*
X-90954Y368629D01*
X-90977Y368543D01*
X-90996Y368455D01*
X-91011Y368366D01*
X-91023Y368277D01*
X-91031Y368188D01*
X-91035Y368098D01*
X-91035Y368008D01*
X-91031Y367918D01*
X-91023Y367829D01*
X-91011Y367740D01*
X-90996Y367651D01*
X-90977Y367563D01*
X-90954Y367477D01*
X-90927Y367391D01*
X-90897Y367306D01*
X-90863Y367223D01*
X-90825Y367141D01*
X-90784Y367061D01*
X-90740Y366983D01*
X-90692Y366907D01*
X-90641Y366833D01*
X-90587Y366761D01*
X-90530Y366692D01*
X-90470Y366625D01*
X-90407Y366561D01*
X-90342Y366499D01*
X-90274Y366441D01*
X-90203Y366385D01*
X-90130Y366333D01*
X-90055Y366283D01*
X-89978Y366237D01*
X-89899Y366195D01*
X-89818Y366155D01*
X-89736Y366120D01*
X-89652Y366088D01*
X-89567Y366059D01*
X-89480Y366034D01*
X-89393Y366013D01*
X-89305Y365996D01*
X-89216Y365982D01*
X-89126Y365973D01*
X-89037Y365967D01*
X-88947Y365965D01*
X-86858Y365965D01*
X-90742Y416672D02*
X-90742Y418760D01*
X-90741Y416672D02*
X-90739Y416583D01*
X-90733Y416495D01*
X-90724Y416407D01*
X-90711Y416319D01*
X-90694Y416232D01*
X-90674Y416146D01*
X-90649Y416061D01*
X-90622Y415976D01*
X-90590Y415893D01*
X-90556Y415812D01*
X-90517Y415732D01*
X-90476Y415654D01*
X-90431Y415577D01*
X-90383Y415503D01*
X-90332Y415430D01*
X-90278Y415360D01*
X-90220Y415293D01*
X-90160Y415227D01*
X-90098Y415165D01*
X-90032Y415105D01*
X-89965Y415047D01*
X-89895Y414993D01*
X-89822Y414942D01*
X-89748Y414894D01*
X-89671Y414849D01*
X-89593Y414808D01*
X-89513Y414769D01*
X-89432Y414735D01*
X-89349Y414703D01*
X-89264Y414676D01*
X-89179Y414651D01*
X-89093Y414631D01*
X-89006Y414614D01*
X-88918Y414601D01*
X-88830Y414592D01*
X-88742Y414586D01*
X-88653Y414584D01*
X-88653Y414583D02*
X-83432Y414583D01*
X-83341Y414585D01*
X-83250Y414591D01*
X-83159Y414601D01*
X-83069Y414615D01*
X-82980Y414633D01*
X-82891Y414654D01*
X-82804Y414680D01*
X-82718Y414709D01*
X-82633Y414742D01*
X-82549Y414779D01*
X-82467Y414819D01*
X-82388Y414863D01*
X-82310Y414910D01*
X-82234Y414961D01*
X-82160Y415015D01*
X-82089Y415072D01*
X-82021Y415132D01*
X-81955Y415195D01*
X-81892Y415261D01*
X-81832Y415329D01*
X-81775Y415400D01*
X-81721Y415474D01*
X-81670Y415550D01*
X-81623Y415627D01*
X-81579Y415707D01*
X-81539Y415789D01*
X-81502Y415873D01*
X-81469Y415957D01*
X-81440Y416044D01*
X-81414Y416131D01*
X-81393Y416220D01*
X-81375Y416309D01*
X-81361Y416399D01*
X-81351Y416490D01*
X-81345Y416581D01*
X-81343Y416672D01*
X-81344Y416672D02*
X-81344Y418760D01*
X-83432Y422229D02*
X-81344Y424840D01*
X-90742Y424840D01*
X-90742Y427450D02*
X-90742Y422229D01*
X-79964Y377412D02*
X-77876Y377412D01*
X-77876Y377413D02*
X-77787Y377415D01*
X-77699Y377421D01*
X-77611Y377430D01*
X-77523Y377443D01*
X-77436Y377460D01*
X-77350Y377480D01*
X-77265Y377505D01*
X-77180Y377532D01*
X-77097Y377564D01*
X-77016Y377598D01*
X-76936Y377637D01*
X-76858Y377678D01*
X-76781Y377723D01*
X-76707Y377771D01*
X-76634Y377822D01*
X-76564Y377876D01*
X-76497Y377934D01*
X-76431Y377994D01*
X-76369Y378056D01*
X-76309Y378122D01*
X-76251Y378189D01*
X-76197Y378259D01*
X-76146Y378332D01*
X-76098Y378406D01*
X-76053Y378483D01*
X-76012Y378561D01*
X-75973Y378641D01*
X-75939Y378722D01*
X-75907Y378805D01*
X-75880Y378890D01*
X-75855Y378975D01*
X-75835Y379061D01*
X-75818Y379148D01*
X-75805Y379236D01*
X-75796Y379324D01*
X-75790Y379412D01*
X-75788Y379501D01*
X-75787Y379501D02*
X-75787Y384722D01*
X-75788Y384722D02*
X-75790Y384813D01*
X-75796Y384904D01*
X-75806Y384995D01*
X-75820Y385085D01*
X-75837Y385174D01*
X-75859Y385262D01*
X-75885Y385350D01*
X-75914Y385436D01*
X-75947Y385521D01*
X-75984Y385604D01*
X-76024Y385686D01*
X-76068Y385766D01*
X-76115Y385844D01*
X-76166Y385920D01*
X-76219Y385993D01*
X-76276Y386064D01*
X-76337Y386133D01*
X-76400Y386198D01*
X-76465Y386261D01*
X-76534Y386321D01*
X-76605Y386379D01*
X-76678Y386432D01*
X-76754Y386483D01*
X-76832Y386530D01*
X-76912Y386574D01*
X-76994Y386614D01*
X-77077Y386651D01*
X-77162Y386684D01*
X-77248Y386713D01*
X-77336Y386739D01*
X-77424Y386761D01*
X-77513Y386778D01*
X-77603Y386792D01*
X-77694Y386802D01*
X-77785Y386808D01*
X-77876Y386810D01*
X-79964Y386810D01*
X-85521Y386810D02*
X-83433Y379501D01*
X-88654Y379501D01*
X-87088Y381589D02*
X-87088Y377412D01*
D10*
X-39376Y359207D02*
X-39376Y339077D01*
D12*
X-80257Y344869D02*
X-82345Y344869D01*
X-80257Y344869D02*
X-80168Y344871D01*
X-80080Y344877D01*
X-79992Y344886D01*
X-79904Y344899D01*
X-79817Y344916D01*
X-79731Y344936D01*
X-79646Y344961D01*
X-79561Y344988D01*
X-79478Y345020D01*
X-79397Y345054D01*
X-79317Y345093D01*
X-79239Y345134D01*
X-79162Y345179D01*
X-79088Y345227D01*
X-79015Y345278D01*
X-78945Y345332D01*
X-78878Y345390D01*
X-78812Y345450D01*
X-78750Y345512D01*
X-78690Y345578D01*
X-78632Y345645D01*
X-78578Y345715D01*
X-78527Y345788D01*
X-78479Y345862D01*
X-78434Y345939D01*
X-78393Y346017D01*
X-78354Y346097D01*
X-78320Y346178D01*
X-78288Y346261D01*
X-78261Y346346D01*
X-78236Y346431D01*
X-78216Y346517D01*
X-78199Y346604D01*
X-78186Y346692D01*
X-78177Y346780D01*
X-78171Y346868D01*
X-78169Y346957D01*
X-78169Y352178D01*
X-78171Y352269D01*
X-78177Y352360D01*
X-78187Y352451D01*
X-78201Y352541D01*
X-78218Y352630D01*
X-78240Y352718D01*
X-78266Y352806D01*
X-78295Y352892D01*
X-78328Y352977D01*
X-78365Y353060D01*
X-78405Y353142D01*
X-78449Y353222D01*
X-78496Y353300D01*
X-78547Y353376D01*
X-78600Y353449D01*
X-78657Y353520D01*
X-78718Y353589D01*
X-78781Y353654D01*
X-78846Y353717D01*
X-78915Y353777D01*
X-78986Y353835D01*
X-79059Y353888D01*
X-79135Y353939D01*
X-79213Y353986D01*
X-79293Y354030D01*
X-79375Y354070D01*
X-79458Y354107D01*
X-79543Y354140D01*
X-79629Y354169D01*
X-79717Y354195D01*
X-79805Y354217D01*
X-79894Y354234D01*
X-79984Y354248D01*
X-80075Y354258D01*
X-80166Y354264D01*
X-80257Y354266D01*
X-80257Y354267D02*
X-82345Y354267D01*
X-85814Y344869D02*
X-88947Y344869D01*
X-89036Y344871D01*
X-89124Y344877D01*
X-89212Y344886D01*
X-89300Y344899D01*
X-89387Y344916D01*
X-89473Y344936D01*
X-89558Y344961D01*
X-89643Y344988D01*
X-89726Y345020D01*
X-89807Y345054D01*
X-89887Y345093D01*
X-89965Y345134D01*
X-90042Y345179D01*
X-90116Y345227D01*
X-90189Y345278D01*
X-90259Y345332D01*
X-90326Y345390D01*
X-90392Y345450D01*
X-90454Y345512D01*
X-90514Y345578D01*
X-90572Y345645D01*
X-90626Y345715D01*
X-90677Y345788D01*
X-90725Y345862D01*
X-90770Y345939D01*
X-90811Y346017D01*
X-90850Y346097D01*
X-90884Y346178D01*
X-90916Y346261D01*
X-90943Y346346D01*
X-90968Y346431D01*
X-90988Y346517D01*
X-91005Y346604D01*
X-91018Y346692D01*
X-91027Y346780D01*
X-91033Y346868D01*
X-91035Y346957D01*
X-91035Y348001D01*
X-91033Y348090D01*
X-91027Y348178D01*
X-91018Y348266D01*
X-91005Y348354D01*
X-90988Y348441D01*
X-90968Y348527D01*
X-90943Y348612D01*
X-90916Y348697D01*
X-90884Y348780D01*
X-90850Y348861D01*
X-90811Y348941D01*
X-90770Y349019D01*
X-90725Y349096D01*
X-90677Y349170D01*
X-90626Y349243D01*
X-90572Y349313D01*
X-90514Y349380D01*
X-90454Y349446D01*
X-90392Y349508D01*
X-90326Y349568D01*
X-90259Y349626D01*
X-90189Y349680D01*
X-90116Y349731D01*
X-90042Y349779D01*
X-89965Y349824D01*
X-89887Y349865D01*
X-89807Y349904D01*
X-89726Y349938D01*
X-89643Y349970D01*
X-89558Y349997D01*
X-89473Y350022D01*
X-89387Y350042D01*
X-89300Y350059D01*
X-89212Y350072D01*
X-89124Y350081D01*
X-89036Y350087D01*
X-88947Y350089D01*
X-88947Y350090D02*
X-85814Y350090D01*
X-85814Y354267D01*
X-91035Y354267D01*
X75152Y415084D02*
X75152Y417173D01*
X75153Y415084D02*
X75155Y414995D01*
X75161Y414907D01*
X75170Y414819D01*
X75183Y414731D01*
X75200Y414644D01*
X75220Y414558D01*
X75245Y414473D01*
X75272Y414388D01*
X75304Y414305D01*
X75338Y414224D01*
X75377Y414144D01*
X75418Y414066D01*
X75463Y413989D01*
X75511Y413915D01*
X75562Y413842D01*
X75616Y413772D01*
X75674Y413705D01*
X75734Y413639D01*
X75796Y413577D01*
X75862Y413517D01*
X75929Y413459D01*
X75999Y413405D01*
X76072Y413354D01*
X76146Y413306D01*
X76223Y413261D01*
X76301Y413220D01*
X76381Y413181D01*
X76462Y413147D01*
X76545Y413115D01*
X76630Y413088D01*
X76715Y413063D01*
X76801Y413043D01*
X76888Y413026D01*
X76976Y413013D01*
X77064Y413004D01*
X77152Y412998D01*
X77241Y412996D01*
X82462Y412996D01*
X82553Y412998D01*
X82644Y413004D01*
X82735Y413014D01*
X82825Y413028D01*
X82914Y413045D01*
X83002Y413067D01*
X83090Y413093D01*
X83176Y413122D01*
X83261Y413155D01*
X83344Y413192D01*
X83426Y413232D01*
X83506Y413276D01*
X83584Y413323D01*
X83660Y413374D01*
X83733Y413427D01*
X83804Y413484D01*
X83873Y413545D01*
X83938Y413608D01*
X84001Y413673D01*
X84061Y413742D01*
X84119Y413813D01*
X84172Y413886D01*
X84223Y413962D01*
X84270Y414040D01*
X84314Y414120D01*
X84354Y414202D01*
X84391Y414285D01*
X84424Y414370D01*
X84453Y414456D01*
X84479Y414544D01*
X84501Y414632D01*
X84518Y414721D01*
X84532Y414811D01*
X84542Y414902D01*
X84548Y414993D01*
X84550Y415084D01*
X84550Y417173D01*
X80373Y420642D02*
X80373Y423774D01*
X80371Y423863D01*
X80365Y423951D01*
X80356Y424039D01*
X80343Y424127D01*
X80326Y424214D01*
X80306Y424300D01*
X80281Y424385D01*
X80254Y424470D01*
X80222Y424553D01*
X80188Y424634D01*
X80149Y424714D01*
X80108Y424792D01*
X80063Y424869D01*
X80015Y424943D01*
X79964Y425016D01*
X79910Y425086D01*
X79852Y425153D01*
X79792Y425219D01*
X79730Y425281D01*
X79664Y425341D01*
X79597Y425399D01*
X79527Y425453D01*
X79454Y425504D01*
X79380Y425552D01*
X79303Y425597D01*
X79225Y425638D01*
X79145Y425677D01*
X79064Y425711D01*
X78981Y425743D01*
X78896Y425770D01*
X78811Y425795D01*
X78725Y425815D01*
X78638Y425832D01*
X78550Y425845D01*
X78462Y425854D01*
X78374Y425860D01*
X78285Y425862D01*
X78285Y425863D02*
X77763Y425863D01*
X77662Y425861D01*
X77561Y425855D01*
X77460Y425845D01*
X77360Y425832D01*
X77260Y425814D01*
X77161Y425793D01*
X77063Y425767D01*
X76966Y425738D01*
X76870Y425706D01*
X76776Y425669D01*
X76683Y425629D01*
X76591Y425585D01*
X76502Y425538D01*
X76414Y425487D01*
X76328Y425433D01*
X76245Y425376D01*
X76163Y425316D01*
X76085Y425252D01*
X76008Y425186D01*
X75935Y425116D01*
X75864Y425044D01*
X75796Y424969D01*
X75731Y424891D01*
X75669Y424811D01*
X75610Y424729D01*
X75554Y424644D01*
X75502Y424558D01*
X75453Y424469D01*
X75407Y424378D01*
X75366Y424286D01*
X75327Y424192D01*
X75293Y424097D01*
X75262Y424001D01*
X75235Y423903D01*
X75211Y423805D01*
X75192Y423705D01*
X75176Y423605D01*
X75164Y423505D01*
X75156Y423404D01*
X75152Y423303D01*
X75152Y423201D01*
X75156Y423100D01*
X75164Y422999D01*
X75176Y422899D01*
X75192Y422799D01*
X75211Y422699D01*
X75235Y422601D01*
X75262Y422503D01*
X75293Y422407D01*
X75327Y422312D01*
X75366Y422218D01*
X75407Y422126D01*
X75453Y422035D01*
X75502Y421947D01*
X75554Y421860D01*
X75610Y421775D01*
X75669Y421693D01*
X75731Y421613D01*
X75796Y421535D01*
X75864Y421460D01*
X75935Y421388D01*
X76008Y421318D01*
X76085Y421252D01*
X76163Y421188D01*
X76245Y421128D01*
X76328Y421071D01*
X76414Y421017D01*
X76502Y420966D01*
X76591Y420919D01*
X76683Y420875D01*
X76776Y420835D01*
X76870Y420798D01*
X76966Y420766D01*
X77063Y420737D01*
X77161Y420711D01*
X77260Y420690D01*
X77360Y420672D01*
X77460Y420659D01*
X77561Y420649D01*
X77662Y420643D01*
X77763Y420641D01*
X77763Y420642D02*
X80373Y420642D01*
X80502Y420644D01*
X80630Y420650D01*
X80758Y420660D01*
X80886Y420674D01*
X81014Y420691D01*
X81141Y420713D01*
X81267Y420739D01*
X81392Y420768D01*
X81516Y420801D01*
X81639Y420839D01*
X81761Y420879D01*
X81882Y420924D01*
X82001Y420972D01*
X82119Y421024D01*
X82235Y421080D01*
X82349Y421139D01*
X82461Y421202D01*
X82572Y421268D01*
X82680Y421337D01*
X82786Y421410D01*
X82890Y421486D01*
X82992Y421565D01*
X83091Y421647D01*
X83187Y421732D01*
X83281Y421820D01*
X83372Y421911D01*
X83460Y422005D01*
X83545Y422101D01*
X83627Y422200D01*
X83706Y422302D01*
X83782Y422406D01*
X83855Y422512D01*
X83924Y422620D01*
X83990Y422730D01*
X84053Y422843D01*
X84112Y422957D01*
X84168Y423073D01*
X84220Y423191D01*
X84268Y423310D01*
X84313Y423431D01*
X84353Y423553D01*
X84391Y423676D01*
X84424Y423800D01*
X84453Y423925D01*
X84479Y424051D01*
X84501Y424178D01*
X84518Y424306D01*
X84532Y424434D01*
X84542Y424562D01*
X84548Y424690D01*
X84550Y424819D01*
D10*
X75044Y398151D02*
X54915Y398151D01*
D12*
X90869Y414426D02*
X90869Y416514D01*
X90869Y414426D02*
X90871Y414337D01*
X90877Y414249D01*
X90886Y414161D01*
X90899Y414073D01*
X90916Y413986D01*
X90936Y413900D01*
X90961Y413815D01*
X90988Y413730D01*
X91020Y413647D01*
X91054Y413566D01*
X91093Y413486D01*
X91134Y413408D01*
X91179Y413331D01*
X91227Y413257D01*
X91278Y413184D01*
X91332Y413114D01*
X91390Y413047D01*
X91450Y412981D01*
X91512Y412919D01*
X91578Y412859D01*
X91645Y412801D01*
X91715Y412747D01*
X91788Y412696D01*
X91862Y412648D01*
X91939Y412603D01*
X92017Y412562D01*
X92097Y412523D01*
X92178Y412489D01*
X92261Y412457D01*
X92346Y412430D01*
X92431Y412405D01*
X92517Y412385D01*
X92604Y412368D01*
X92692Y412355D01*
X92780Y412346D01*
X92868Y412340D01*
X92957Y412338D01*
X92957Y412337D02*
X98178Y412337D01*
X98178Y412338D02*
X98269Y412340D01*
X98360Y412346D01*
X98451Y412356D01*
X98541Y412370D01*
X98630Y412387D01*
X98718Y412409D01*
X98806Y412435D01*
X98892Y412464D01*
X98977Y412497D01*
X99060Y412534D01*
X99142Y412574D01*
X99222Y412618D01*
X99300Y412665D01*
X99376Y412716D01*
X99449Y412769D01*
X99520Y412826D01*
X99589Y412887D01*
X99654Y412950D01*
X99717Y413015D01*
X99777Y413084D01*
X99835Y413155D01*
X99888Y413228D01*
X99939Y413304D01*
X99986Y413382D01*
X100030Y413462D01*
X100070Y413544D01*
X100107Y413627D01*
X100140Y413712D01*
X100169Y413798D01*
X100195Y413886D01*
X100217Y413974D01*
X100234Y414063D01*
X100248Y414153D01*
X100258Y414244D01*
X100264Y414335D01*
X100266Y414426D01*
X100267Y414426D02*
X100267Y416514D01*
X100267Y419983D02*
X99222Y419983D01*
X100267Y419983D02*
X100267Y425204D01*
X90869Y422593D01*
X107569Y444087D02*
X107569Y453485D01*
X104958Y453485D01*
X104958Y453486D02*
X104857Y453484D01*
X104756Y453478D01*
X104655Y453468D01*
X104555Y453455D01*
X104455Y453437D01*
X104356Y453416D01*
X104258Y453390D01*
X104161Y453361D01*
X104065Y453329D01*
X103971Y453292D01*
X103878Y453252D01*
X103786Y453208D01*
X103697Y453161D01*
X103609Y453110D01*
X103523Y453056D01*
X103440Y452999D01*
X103358Y452939D01*
X103280Y452875D01*
X103203Y452809D01*
X103130Y452739D01*
X103059Y452667D01*
X102991Y452592D01*
X102926Y452514D01*
X102864Y452434D01*
X102805Y452352D01*
X102749Y452267D01*
X102697Y452181D01*
X102648Y452092D01*
X102602Y452001D01*
X102561Y451909D01*
X102522Y451815D01*
X102488Y451720D01*
X102457Y451624D01*
X102430Y451526D01*
X102406Y451428D01*
X102387Y451328D01*
X102371Y451228D01*
X102359Y451128D01*
X102351Y451027D01*
X102347Y450926D01*
X102347Y450824D01*
X102351Y450723D01*
X102359Y450622D01*
X102371Y450522D01*
X102387Y450422D01*
X102406Y450322D01*
X102430Y450224D01*
X102457Y450126D01*
X102488Y450030D01*
X102522Y449935D01*
X102561Y449841D01*
X102602Y449749D01*
X102648Y449658D01*
X102697Y449570D01*
X102749Y449483D01*
X102805Y449398D01*
X102864Y449316D01*
X102926Y449236D01*
X102991Y449158D01*
X103059Y449083D01*
X103130Y449011D01*
X103203Y448941D01*
X103280Y448875D01*
X103358Y448811D01*
X103440Y448751D01*
X103523Y448694D01*
X103609Y448640D01*
X103697Y448589D01*
X103786Y448542D01*
X103878Y448498D01*
X103971Y448458D01*
X104065Y448421D01*
X104161Y448389D01*
X104258Y448360D01*
X104356Y448334D01*
X104455Y448313D01*
X104555Y448295D01*
X104655Y448282D01*
X104756Y448272D01*
X104857Y448266D01*
X104958Y448264D01*
X107569Y448264D01*
X104436Y448264D02*
X102348Y444087D01*
X93261Y451136D02*
X93263Y451231D01*
X93269Y451325D01*
X93278Y451419D01*
X93291Y451513D01*
X93308Y451606D01*
X93329Y451698D01*
X93354Y451790D01*
X93382Y451880D01*
X93414Y451969D01*
X93449Y452057D01*
X93488Y452143D01*
X93530Y452228D01*
X93576Y452311D01*
X93625Y452392D01*
X93677Y452471D01*
X93732Y452548D01*
X93791Y452622D01*
X93852Y452694D01*
X93916Y452764D01*
X93983Y452831D01*
X94053Y452895D01*
X94125Y452956D01*
X94199Y453015D01*
X94276Y453070D01*
X94355Y453122D01*
X94436Y453171D01*
X94519Y453217D01*
X94604Y453259D01*
X94690Y453298D01*
X94778Y453333D01*
X94867Y453365D01*
X94957Y453393D01*
X95049Y453418D01*
X95141Y453439D01*
X95234Y453456D01*
X95328Y453469D01*
X95422Y453478D01*
X95516Y453484D01*
X95611Y453486D01*
X95611Y453485D02*
X95719Y453483D01*
X95828Y453477D01*
X95936Y453467D01*
X96043Y453454D01*
X96150Y453436D01*
X96257Y453415D01*
X96362Y453390D01*
X96467Y453361D01*
X96570Y453329D01*
X96672Y453292D01*
X96773Y453252D01*
X96872Y453209D01*
X96970Y453162D01*
X97066Y453111D01*
X97160Y453057D01*
X97252Y453000D01*
X97342Y452939D01*
X97430Y452875D01*
X97515Y452809D01*
X97598Y452739D01*
X97678Y452666D01*
X97756Y452590D01*
X97831Y452512D01*
X97903Y452431D01*
X97972Y452347D01*
X98038Y452261D01*
X98101Y452173D01*
X98160Y452082D01*
X98217Y451990D01*
X98270Y451895D01*
X98319Y451798D01*
X98365Y451700D01*
X98408Y451601D01*
X98447Y451499D01*
X98482Y451397D01*
X94044Y449308D02*
X93975Y449377D01*
X93909Y449448D01*
X93845Y449521D01*
X93784Y449597D01*
X93726Y449676D01*
X93672Y449756D01*
X93620Y449839D01*
X93572Y449923D01*
X93526Y450009D01*
X93485Y450097D01*
X93446Y450187D01*
X93411Y450278D01*
X93380Y450370D01*
X93352Y450463D01*
X93328Y450557D01*
X93308Y450652D01*
X93291Y450748D01*
X93278Y450845D01*
X93269Y450942D01*
X93263Y451039D01*
X93261Y451136D01*
X94044Y449308D02*
X98482Y444087D01*
X93261Y444087D01*
X-11652Y290100D02*
X-21050Y290100D01*
X-11652Y290100D02*
X-11652Y292710D01*
X-11654Y292811D01*
X-11660Y292912D01*
X-11670Y293013D01*
X-11683Y293113D01*
X-11701Y293213D01*
X-11722Y293312D01*
X-11748Y293410D01*
X-11777Y293507D01*
X-11809Y293603D01*
X-11846Y293697D01*
X-11886Y293790D01*
X-11930Y293882D01*
X-11977Y293971D01*
X-12028Y294059D01*
X-12082Y294145D01*
X-12139Y294228D01*
X-12199Y294310D01*
X-12263Y294388D01*
X-12329Y294465D01*
X-12399Y294538D01*
X-12471Y294609D01*
X-12546Y294677D01*
X-12624Y294742D01*
X-12704Y294804D01*
X-12786Y294863D01*
X-12871Y294919D01*
X-12958Y294971D01*
X-13046Y295020D01*
X-13137Y295066D01*
X-13229Y295107D01*
X-13323Y295146D01*
X-13418Y295180D01*
X-13514Y295211D01*
X-13612Y295238D01*
X-13710Y295262D01*
X-13810Y295281D01*
X-13910Y295297D01*
X-14010Y295309D01*
X-14111Y295317D01*
X-14212Y295321D01*
X-14314Y295321D01*
X-14415Y295317D01*
X-14516Y295309D01*
X-14616Y295297D01*
X-14716Y295281D01*
X-14816Y295262D01*
X-14914Y295238D01*
X-15012Y295211D01*
X-15108Y295180D01*
X-15203Y295146D01*
X-15297Y295107D01*
X-15389Y295066D01*
X-15480Y295020D01*
X-15569Y294971D01*
X-15655Y294919D01*
X-15740Y294863D01*
X-15822Y294804D01*
X-15902Y294742D01*
X-15980Y294677D01*
X-16055Y294609D01*
X-16127Y294538D01*
X-16197Y294465D01*
X-16263Y294388D01*
X-16327Y294310D01*
X-16387Y294228D01*
X-16444Y294145D01*
X-16498Y294059D01*
X-16549Y293971D01*
X-16596Y293882D01*
X-16640Y293790D01*
X-16680Y293697D01*
X-16717Y293603D01*
X-16749Y293507D01*
X-16778Y293410D01*
X-16804Y293312D01*
X-16825Y293213D01*
X-16843Y293113D01*
X-16856Y293013D01*
X-16866Y292912D01*
X-16872Y292811D01*
X-16874Y292710D01*
X-16873Y292710D02*
X-16873Y290100D01*
X-16873Y293232D02*
X-21050Y295321D01*
X-13741Y299187D02*
X-11652Y301797D01*
X-21050Y301797D01*
X-21050Y299187D02*
X-21050Y304408D01*
X-21050Y308331D02*
X-21050Y310941D01*
X-21051Y310941D02*
X-21049Y311042D01*
X-21043Y311143D01*
X-21033Y311244D01*
X-21020Y311344D01*
X-21002Y311444D01*
X-20981Y311543D01*
X-20955Y311641D01*
X-20926Y311738D01*
X-20894Y311834D01*
X-20857Y311928D01*
X-20817Y312021D01*
X-20773Y312113D01*
X-20726Y312202D01*
X-20675Y312290D01*
X-20621Y312376D01*
X-20564Y312459D01*
X-20504Y312541D01*
X-20440Y312619D01*
X-20374Y312696D01*
X-20304Y312769D01*
X-20232Y312840D01*
X-20157Y312908D01*
X-20079Y312973D01*
X-19999Y313035D01*
X-19917Y313094D01*
X-19832Y313150D01*
X-19746Y313202D01*
X-19657Y313251D01*
X-19566Y313297D01*
X-19474Y313338D01*
X-19380Y313377D01*
X-19285Y313411D01*
X-19189Y313442D01*
X-19091Y313469D01*
X-18993Y313493D01*
X-18893Y313512D01*
X-18793Y313528D01*
X-18693Y313540D01*
X-18592Y313548D01*
X-18491Y313552D01*
X-18389Y313552D01*
X-18288Y313548D01*
X-18187Y313540D01*
X-18087Y313528D01*
X-17987Y313512D01*
X-17887Y313493D01*
X-17789Y313469D01*
X-17691Y313442D01*
X-17595Y313411D01*
X-17500Y313377D01*
X-17406Y313338D01*
X-17314Y313297D01*
X-17223Y313251D01*
X-17135Y313202D01*
X-17048Y313150D01*
X-16963Y313094D01*
X-16881Y313035D01*
X-16801Y312973D01*
X-16723Y312908D01*
X-16648Y312840D01*
X-16576Y312769D01*
X-16506Y312696D01*
X-16440Y312619D01*
X-16376Y312541D01*
X-16316Y312459D01*
X-16259Y312376D01*
X-16205Y312290D01*
X-16154Y312202D01*
X-16107Y312113D01*
X-16063Y312021D01*
X-16023Y311928D01*
X-15986Y311834D01*
X-15954Y311738D01*
X-15925Y311641D01*
X-15899Y311543D01*
X-15878Y311444D01*
X-15860Y311344D01*
X-15847Y311244D01*
X-15837Y311143D01*
X-15831Y311042D01*
X-15829Y310941D01*
X-11652Y311463D02*
X-11652Y308331D01*
X-11653Y311463D02*
X-11655Y311553D01*
X-11661Y311642D01*
X-11670Y311732D01*
X-11684Y311821D01*
X-11701Y311909D01*
X-11722Y311996D01*
X-11747Y312083D01*
X-11776Y312168D01*
X-11808Y312252D01*
X-11843Y312334D01*
X-11883Y312415D01*
X-11925Y312494D01*
X-11971Y312571D01*
X-12021Y312646D01*
X-12073Y312719D01*
X-12129Y312790D01*
X-12187Y312858D01*
X-12249Y312923D01*
X-12313Y312986D01*
X-12380Y313046D01*
X-12449Y313103D01*
X-12521Y313157D01*
X-12595Y313208D01*
X-12671Y313256D01*
X-12749Y313300D01*
X-12829Y313341D01*
X-12911Y313379D01*
X-12994Y313413D01*
X-13079Y313443D01*
X-13165Y313470D01*
X-13251Y313493D01*
X-13339Y313512D01*
X-13428Y313527D01*
X-13517Y313539D01*
X-13606Y313547D01*
X-13696Y313551D01*
X-13786Y313551D01*
X-13876Y313547D01*
X-13965Y313539D01*
X-14054Y313527D01*
X-14143Y313512D01*
X-14231Y313493D01*
X-14317Y313470D01*
X-14403Y313443D01*
X-14488Y313413D01*
X-14571Y313379D01*
X-14653Y313341D01*
X-14733Y313300D01*
X-14811Y313256D01*
X-14887Y313208D01*
X-14961Y313157D01*
X-15033Y313103D01*
X-15102Y313046D01*
X-15169Y312986D01*
X-15233Y312923D01*
X-15295Y312858D01*
X-15353Y312790D01*
X-15409Y312719D01*
X-15461Y312646D01*
X-15511Y312571D01*
X-15557Y312494D01*
X-15599Y312415D01*
X-15639Y312334D01*
X-15674Y312252D01*
X-15706Y312168D01*
X-15735Y312083D01*
X-15760Y311996D01*
X-15781Y311909D01*
X-15798Y311821D01*
X-15812Y311732D01*
X-15821Y311642D01*
X-15827Y311553D01*
X-15829Y311463D01*
X-15829Y309375D01*
X6731Y290894D02*
X16129Y290894D01*
X16129Y293504D01*
X16127Y293605D01*
X16121Y293706D01*
X16111Y293807D01*
X16098Y293907D01*
X16080Y294007D01*
X16059Y294106D01*
X16033Y294204D01*
X16004Y294301D01*
X15972Y294397D01*
X15935Y294491D01*
X15895Y294584D01*
X15851Y294676D01*
X15804Y294765D01*
X15753Y294853D01*
X15699Y294939D01*
X15642Y295022D01*
X15582Y295104D01*
X15518Y295182D01*
X15452Y295259D01*
X15382Y295332D01*
X15310Y295403D01*
X15235Y295471D01*
X15157Y295536D01*
X15077Y295598D01*
X14995Y295657D01*
X14910Y295713D01*
X14824Y295765D01*
X14735Y295814D01*
X14644Y295860D01*
X14552Y295901D01*
X14458Y295940D01*
X14363Y295974D01*
X14267Y296005D01*
X14169Y296032D01*
X14071Y296056D01*
X13971Y296075D01*
X13871Y296091D01*
X13771Y296103D01*
X13670Y296111D01*
X13569Y296115D01*
X13467Y296115D01*
X13366Y296111D01*
X13265Y296103D01*
X13165Y296091D01*
X13065Y296075D01*
X12965Y296056D01*
X12867Y296032D01*
X12769Y296005D01*
X12673Y295974D01*
X12578Y295940D01*
X12484Y295901D01*
X12392Y295860D01*
X12301Y295814D01*
X12213Y295765D01*
X12126Y295713D01*
X12041Y295657D01*
X11959Y295598D01*
X11879Y295536D01*
X11801Y295471D01*
X11726Y295403D01*
X11654Y295332D01*
X11584Y295259D01*
X11518Y295182D01*
X11454Y295104D01*
X11394Y295022D01*
X11337Y294939D01*
X11283Y294853D01*
X11232Y294765D01*
X11185Y294676D01*
X11141Y294584D01*
X11101Y294491D01*
X11064Y294397D01*
X11032Y294301D01*
X11003Y294204D01*
X10977Y294106D01*
X10956Y294007D01*
X10938Y293907D01*
X10925Y293807D01*
X10915Y293706D01*
X10909Y293605D01*
X10907Y293504D01*
X10908Y293504D02*
X10908Y290894D01*
X10908Y294026D02*
X6731Y296115D01*
X14041Y299980D02*
X16129Y302591D01*
X6731Y302591D01*
X6731Y299980D02*
X6731Y305202D01*
X6731Y309124D02*
X6731Y312257D01*
X6733Y312346D01*
X6739Y312434D01*
X6748Y312522D01*
X6761Y312610D01*
X6778Y312697D01*
X6798Y312783D01*
X6823Y312868D01*
X6850Y312953D01*
X6882Y313036D01*
X6916Y313117D01*
X6955Y313197D01*
X6996Y313275D01*
X7041Y313352D01*
X7089Y313426D01*
X7140Y313499D01*
X7194Y313569D01*
X7252Y313636D01*
X7312Y313702D01*
X7374Y313764D01*
X7440Y313824D01*
X7507Y313882D01*
X7577Y313936D01*
X7650Y313987D01*
X7724Y314035D01*
X7801Y314080D01*
X7879Y314121D01*
X7959Y314160D01*
X8040Y314194D01*
X8123Y314226D01*
X8208Y314253D01*
X8293Y314278D01*
X8379Y314298D01*
X8466Y314315D01*
X8554Y314328D01*
X8642Y314337D01*
X8730Y314343D01*
X8819Y314345D01*
X9864Y314345D01*
X9953Y314343D01*
X10041Y314337D01*
X10129Y314328D01*
X10217Y314315D01*
X10304Y314298D01*
X10390Y314278D01*
X10475Y314253D01*
X10560Y314226D01*
X10643Y314194D01*
X10724Y314160D01*
X10804Y314121D01*
X10882Y314080D01*
X10959Y314035D01*
X11033Y313987D01*
X11106Y313936D01*
X11176Y313882D01*
X11243Y313824D01*
X11309Y313764D01*
X11371Y313702D01*
X11431Y313636D01*
X11489Y313569D01*
X11543Y313499D01*
X11594Y313426D01*
X11642Y313352D01*
X11687Y313275D01*
X11728Y313197D01*
X11767Y313117D01*
X11801Y313036D01*
X11833Y312953D01*
X11860Y312868D01*
X11885Y312783D01*
X11905Y312697D01*
X11922Y312610D01*
X11935Y312522D01*
X11944Y312434D01*
X11950Y312346D01*
X11952Y312257D01*
X11952Y309124D01*
X16129Y309124D01*
X16129Y314345D01*
X101981Y357569D02*
X111379Y357569D01*
X111379Y360179D01*
X111377Y360280D01*
X111371Y360381D01*
X111361Y360482D01*
X111348Y360582D01*
X111330Y360682D01*
X111309Y360781D01*
X111283Y360879D01*
X111254Y360976D01*
X111222Y361072D01*
X111185Y361166D01*
X111145Y361259D01*
X111101Y361351D01*
X111054Y361440D01*
X111003Y361528D01*
X110949Y361614D01*
X110892Y361697D01*
X110832Y361779D01*
X110768Y361857D01*
X110702Y361934D01*
X110632Y362007D01*
X110560Y362078D01*
X110485Y362146D01*
X110407Y362211D01*
X110327Y362273D01*
X110245Y362332D01*
X110160Y362388D01*
X110074Y362440D01*
X109985Y362489D01*
X109894Y362535D01*
X109802Y362576D01*
X109708Y362615D01*
X109613Y362649D01*
X109517Y362680D01*
X109419Y362707D01*
X109321Y362731D01*
X109221Y362750D01*
X109121Y362766D01*
X109021Y362778D01*
X108920Y362786D01*
X108819Y362790D01*
X108717Y362790D01*
X108616Y362786D01*
X108515Y362778D01*
X108415Y362766D01*
X108315Y362750D01*
X108215Y362731D01*
X108117Y362707D01*
X108019Y362680D01*
X107923Y362649D01*
X107828Y362615D01*
X107734Y362576D01*
X107642Y362535D01*
X107551Y362489D01*
X107463Y362440D01*
X107376Y362388D01*
X107291Y362332D01*
X107209Y362273D01*
X107129Y362211D01*
X107051Y362146D01*
X106976Y362078D01*
X106904Y362007D01*
X106834Y361934D01*
X106768Y361857D01*
X106704Y361779D01*
X106644Y361697D01*
X106587Y361614D01*
X106533Y361528D01*
X106482Y361440D01*
X106435Y361351D01*
X106391Y361259D01*
X106351Y361166D01*
X106314Y361072D01*
X106282Y360976D01*
X106253Y360879D01*
X106227Y360781D01*
X106206Y360682D01*
X106188Y360582D01*
X106175Y360482D01*
X106165Y360381D01*
X106159Y360280D01*
X106157Y360179D01*
X106158Y360179D02*
X106158Y357569D01*
X106158Y360701D02*
X101981Y362790D01*
X101981Y366655D02*
X101981Y369266D01*
X101983Y369367D01*
X101989Y369468D01*
X101999Y369569D01*
X102012Y369669D01*
X102030Y369769D01*
X102051Y369868D01*
X102077Y369966D01*
X102106Y370063D01*
X102138Y370159D01*
X102175Y370253D01*
X102215Y370346D01*
X102259Y370438D01*
X102306Y370527D01*
X102357Y370615D01*
X102411Y370701D01*
X102468Y370784D01*
X102528Y370866D01*
X102592Y370944D01*
X102658Y371021D01*
X102728Y371094D01*
X102800Y371165D01*
X102875Y371233D01*
X102953Y371298D01*
X103033Y371360D01*
X103115Y371419D01*
X103200Y371475D01*
X103287Y371527D01*
X103375Y371576D01*
X103466Y371622D01*
X103558Y371663D01*
X103652Y371702D01*
X103747Y371736D01*
X103843Y371767D01*
X103941Y371794D01*
X104039Y371818D01*
X104139Y371837D01*
X104239Y371853D01*
X104339Y371865D01*
X104440Y371873D01*
X104541Y371877D01*
X104643Y371877D01*
X104744Y371873D01*
X104845Y371865D01*
X104945Y371853D01*
X105045Y371837D01*
X105145Y371818D01*
X105243Y371794D01*
X105341Y371767D01*
X105437Y371736D01*
X105532Y371702D01*
X105626Y371663D01*
X105718Y371622D01*
X105809Y371576D01*
X105898Y371527D01*
X105984Y371475D01*
X106069Y371419D01*
X106151Y371360D01*
X106231Y371298D01*
X106309Y371233D01*
X106384Y371165D01*
X106456Y371094D01*
X106526Y371021D01*
X106592Y370944D01*
X106656Y370866D01*
X106716Y370784D01*
X106773Y370701D01*
X106827Y370615D01*
X106878Y370527D01*
X106925Y370438D01*
X106969Y370346D01*
X107009Y370253D01*
X107046Y370159D01*
X107078Y370063D01*
X107107Y369966D01*
X107133Y369868D01*
X107154Y369769D01*
X107172Y369669D01*
X107185Y369569D01*
X107195Y369468D01*
X107201Y369367D01*
X107203Y369266D01*
X111379Y369788D02*
X111379Y366655D01*
X111379Y369788D02*
X111377Y369878D01*
X111371Y369967D01*
X111362Y370057D01*
X111348Y370146D01*
X111331Y370234D01*
X111310Y370321D01*
X111285Y370408D01*
X111256Y370493D01*
X111224Y370577D01*
X111189Y370659D01*
X111149Y370740D01*
X111107Y370819D01*
X111061Y370896D01*
X111011Y370971D01*
X110959Y371044D01*
X110903Y371115D01*
X110845Y371183D01*
X110783Y371248D01*
X110719Y371311D01*
X110652Y371371D01*
X110583Y371428D01*
X110511Y371482D01*
X110437Y371533D01*
X110361Y371581D01*
X110283Y371625D01*
X110203Y371666D01*
X110121Y371704D01*
X110038Y371738D01*
X109953Y371768D01*
X109867Y371795D01*
X109781Y371818D01*
X109693Y371837D01*
X109604Y371852D01*
X109515Y371864D01*
X109426Y371872D01*
X109336Y371876D01*
X109246Y371876D01*
X109156Y371872D01*
X109067Y371864D01*
X108978Y371852D01*
X108889Y371837D01*
X108801Y371818D01*
X108715Y371795D01*
X108629Y371768D01*
X108544Y371738D01*
X108461Y371704D01*
X108379Y371666D01*
X108299Y371625D01*
X108221Y371581D01*
X108145Y371533D01*
X108071Y371482D01*
X107999Y371428D01*
X107930Y371371D01*
X107863Y371311D01*
X107799Y371248D01*
X107737Y371183D01*
X107679Y371115D01*
X107623Y371044D01*
X107571Y370971D01*
X107521Y370896D01*
X107475Y370819D01*
X107433Y370740D01*
X107393Y370659D01*
X107358Y370577D01*
X107326Y370493D01*
X107297Y370408D01*
X107272Y370321D01*
X107251Y370234D01*
X107234Y370146D01*
X107220Y370057D01*
X107211Y369967D01*
X107205Y369878D01*
X107203Y369788D01*
X107202Y369788D02*
X107202Y367700D01*
X43117Y290100D02*
X33719Y290100D01*
X43117Y290100D02*
X43117Y292710D01*
X43115Y292811D01*
X43109Y292912D01*
X43099Y293013D01*
X43086Y293113D01*
X43068Y293213D01*
X43047Y293312D01*
X43021Y293410D01*
X42992Y293507D01*
X42960Y293603D01*
X42923Y293697D01*
X42883Y293790D01*
X42839Y293882D01*
X42792Y293971D01*
X42741Y294059D01*
X42687Y294145D01*
X42630Y294228D01*
X42570Y294310D01*
X42506Y294388D01*
X42440Y294465D01*
X42370Y294538D01*
X42298Y294609D01*
X42223Y294677D01*
X42145Y294742D01*
X42065Y294804D01*
X41983Y294863D01*
X41898Y294919D01*
X41812Y294971D01*
X41723Y295020D01*
X41632Y295066D01*
X41540Y295107D01*
X41446Y295146D01*
X41351Y295180D01*
X41255Y295211D01*
X41157Y295238D01*
X41059Y295262D01*
X40959Y295281D01*
X40859Y295297D01*
X40759Y295309D01*
X40658Y295317D01*
X40557Y295321D01*
X40455Y295321D01*
X40354Y295317D01*
X40253Y295309D01*
X40153Y295297D01*
X40053Y295281D01*
X39953Y295262D01*
X39855Y295238D01*
X39757Y295211D01*
X39661Y295180D01*
X39566Y295146D01*
X39472Y295107D01*
X39380Y295066D01*
X39289Y295020D01*
X39201Y294971D01*
X39114Y294919D01*
X39029Y294863D01*
X38947Y294804D01*
X38867Y294742D01*
X38789Y294677D01*
X38714Y294609D01*
X38642Y294538D01*
X38572Y294465D01*
X38506Y294388D01*
X38442Y294310D01*
X38382Y294228D01*
X38325Y294145D01*
X38271Y294059D01*
X38220Y293971D01*
X38173Y293882D01*
X38129Y293790D01*
X38089Y293697D01*
X38052Y293603D01*
X38020Y293507D01*
X37991Y293410D01*
X37965Y293312D01*
X37944Y293213D01*
X37926Y293113D01*
X37913Y293013D01*
X37903Y292912D01*
X37897Y292811D01*
X37895Y292710D01*
X37895Y290100D01*
X37895Y293232D02*
X33719Y295321D01*
X41028Y299187D02*
X43117Y301797D01*
X33719Y301797D01*
X33719Y299187D02*
X33719Y304408D01*
X40767Y313552D02*
X40862Y313550D01*
X40956Y313544D01*
X41050Y313535D01*
X41144Y313522D01*
X41237Y313505D01*
X41329Y313484D01*
X41421Y313459D01*
X41511Y313431D01*
X41600Y313399D01*
X41688Y313364D01*
X41774Y313325D01*
X41859Y313283D01*
X41942Y313237D01*
X42023Y313188D01*
X42102Y313136D01*
X42179Y313081D01*
X42253Y313022D01*
X42325Y312961D01*
X42395Y312897D01*
X42462Y312830D01*
X42526Y312760D01*
X42587Y312688D01*
X42646Y312614D01*
X42701Y312537D01*
X42753Y312458D01*
X42802Y312377D01*
X42848Y312294D01*
X42890Y312209D01*
X42929Y312123D01*
X42964Y312035D01*
X42996Y311946D01*
X43024Y311856D01*
X43049Y311764D01*
X43070Y311672D01*
X43087Y311579D01*
X43100Y311485D01*
X43109Y311391D01*
X43115Y311297D01*
X43117Y311202D01*
X43116Y311202D02*
X43114Y311094D01*
X43108Y310985D01*
X43098Y310877D01*
X43085Y310770D01*
X43067Y310663D01*
X43046Y310556D01*
X43021Y310451D01*
X42992Y310346D01*
X42960Y310243D01*
X42923Y310141D01*
X42883Y310040D01*
X42840Y309941D01*
X42793Y309843D01*
X42742Y309747D01*
X42688Y309653D01*
X42631Y309561D01*
X42570Y309471D01*
X42506Y309383D01*
X42440Y309298D01*
X42370Y309215D01*
X42297Y309135D01*
X42221Y309057D01*
X42143Y308982D01*
X42062Y308910D01*
X41978Y308841D01*
X41892Y308775D01*
X41804Y308712D01*
X41713Y308653D01*
X41621Y308596D01*
X41526Y308543D01*
X41430Y308494D01*
X41331Y308448D01*
X41232Y308405D01*
X41130Y308366D01*
X41028Y308331D01*
X38939Y312769D02*
X39008Y312838D01*
X39079Y312904D01*
X39152Y312968D01*
X39228Y313029D01*
X39307Y313087D01*
X39387Y313141D01*
X39470Y313193D01*
X39554Y313241D01*
X39640Y313287D01*
X39728Y313328D01*
X39818Y313367D01*
X39909Y313402D01*
X40001Y313433D01*
X40094Y313461D01*
X40188Y313485D01*
X40283Y313505D01*
X40379Y313522D01*
X40476Y313535D01*
X40573Y313544D01*
X40670Y313550D01*
X40767Y313552D01*
X38940Y312769D02*
X33719Y308331D01*
X33719Y313552D01*
X1842Y291687D02*
X-7557Y291687D01*
X1842Y291687D02*
X1842Y294298D01*
X1840Y294399D01*
X1834Y294500D01*
X1824Y294601D01*
X1811Y294701D01*
X1793Y294801D01*
X1772Y294900D01*
X1746Y294998D01*
X1717Y295095D01*
X1685Y295191D01*
X1648Y295285D01*
X1608Y295378D01*
X1564Y295470D01*
X1517Y295559D01*
X1466Y295647D01*
X1412Y295733D01*
X1355Y295816D01*
X1295Y295898D01*
X1231Y295976D01*
X1165Y296053D01*
X1095Y296126D01*
X1023Y296197D01*
X948Y296265D01*
X870Y296330D01*
X790Y296392D01*
X708Y296451D01*
X623Y296507D01*
X537Y296559D01*
X448Y296608D01*
X357Y296654D01*
X265Y296695D01*
X171Y296734D01*
X76Y296768D01*
X-20Y296799D01*
X-118Y296826D01*
X-216Y296850D01*
X-316Y296869D01*
X-416Y296885D01*
X-516Y296897D01*
X-617Y296905D01*
X-718Y296909D01*
X-820Y296909D01*
X-921Y296905D01*
X-1022Y296897D01*
X-1122Y296885D01*
X-1222Y296869D01*
X-1322Y296850D01*
X-1420Y296826D01*
X-1518Y296799D01*
X-1614Y296768D01*
X-1709Y296734D01*
X-1803Y296695D01*
X-1895Y296654D01*
X-1986Y296608D01*
X-2074Y296559D01*
X-2161Y296507D01*
X-2246Y296451D01*
X-2328Y296392D01*
X-2408Y296330D01*
X-2486Y296265D01*
X-2561Y296197D01*
X-2633Y296126D01*
X-2703Y296053D01*
X-2769Y295976D01*
X-2833Y295898D01*
X-2893Y295816D01*
X-2950Y295733D01*
X-3004Y295647D01*
X-3055Y295559D01*
X-3102Y295470D01*
X-3146Y295378D01*
X-3186Y295285D01*
X-3223Y295191D01*
X-3255Y295095D01*
X-3284Y294998D01*
X-3310Y294900D01*
X-3331Y294801D01*
X-3349Y294701D01*
X-3362Y294601D01*
X-3372Y294500D01*
X-3378Y294399D01*
X-3380Y294298D01*
X-3380Y291687D01*
X-3380Y294820D02*
X-7557Y296908D01*
X-247Y300774D02*
X1842Y303385D01*
X-7557Y303385D01*
X-7557Y305995D02*
X-7557Y300774D01*
X-247Y309918D02*
X1842Y312529D01*
X-7557Y312529D01*
X-7557Y315139D02*
X-7557Y309918D01*
X-26734Y298831D02*
X-36132Y298831D01*
X-26734Y298831D02*
X-26734Y301442D01*
X-26733Y301442D02*
X-26735Y301543D01*
X-26741Y301644D01*
X-26751Y301745D01*
X-26764Y301845D01*
X-26782Y301945D01*
X-26803Y302044D01*
X-26829Y302142D01*
X-26858Y302239D01*
X-26890Y302335D01*
X-26927Y302429D01*
X-26967Y302522D01*
X-27011Y302614D01*
X-27058Y302703D01*
X-27109Y302791D01*
X-27163Y302877D01*
X-27220Y302960D01*
X-27280Y303042D01*
X-27344Y303120D01*
X-27410Y303197D01*
X-27480Y303270D01*
X-27552Y303341D01*
X-27627Y303409D01*
X-27705Y303474D01*
X-27785Y303536D01*
X-27867Y303595D01*
X-27952Y303651D01*
X-28039Y303703D01*
X-28127Y303752D01*
X-28218Y303798D01*
X-28310Y303839D01*
X-28404Y303878D01*
X-28499Y303912D01*
X-28595Y303943D01*
X-28693Y303970D01*
X-28791Y303994D01*
X-28891Y304013D01*
X-28991Y304029D01*
X-29091Y304041D01*
X-29192Y304049D01*
X-29293Y304053D01*
X-29395Y304053D01*
X-29496Y304049D01*
X-29597Y304041D01*
X-29697Y304029D01*
X-29797Y304013D01*
X-29897Y303994D01*
X-29995Y303970D01*
X-30093Y303943D01*
X-30189Y303912D01*
X-30284Y303878D01*
X-30378Y303839D01*
X-30470Y303798D01*
X-30561Y303752D01*
X-30650Y303703D01*
X-30736Y303651D01*
X-30821Y303595D01*
X-30903Y303536D01*
X-30983Y303474D01*
X-31061Y303409D01*
X-31136Y303341D01*
X-31208Y303270D01*
X-31278Y303197D01*
X-31344Y303120D01*
X-31408Y303042D01*
X-31468Y302960D01*
X-31525Y302877D01*
X-31579Y302791D01*
X-31630Y302703D01*
X-31677Y302614D01*
X-31721Y302522D01*
X-31761Y302429D01*
X-31798Y302335D01*
X-31830Y302239D01*
X-31859Y302142D01*
X-31885Y302044D01*
X-31906Y301945D01*
X-31924Y301845D01*
X-31937Y301745D01*
X-31947Y301644D01*
X-31953Y301543D01*
X-31955Y301442D01*
X-31955Y298831D01*
X-31955Y301964D02*
X-36132Y304052D01*
X-36132Y307918D02*
X-36132Y311051D01*
X-36131Y311051D02*
X-36129Y311140D01*
X-36123Y311228D01*
X-36114Y311316D01*
X-36101Y311404D01*
X-36084Y311491D01*
X-36064Y311577D01*
X-36039Y311662D01*
X-36012Y311747D01*
X-35980Y311830D01*
X-35946Y311911D01*
X-35907Y311991D01*
X-35866Y312069D01*
X-35821Y312146D01*
X-35773Y312220D01*
X-35722Y312293D01*
X-35668Y312363D01*
X-35610Y312430D01*
X-35550Y312496D01*
X-35488Y312558D01*
X-35422Y312618D01*
X-35355Y312676D01*
X-35285Y312730D01*
X-35212Y312781D01*
X-35138Y312829D01*
X-35061Y312874D01*
X-34983Y312915D01*
X-34903Y312954D01*
X-34822Y312988D01*
X-34739Y313020D01*
X-34654Y313047D01*
X-34569Y313072D01*
X-34483Y313092D01*
X-34396Y313109D01*
X-34308Y313122D01*
X-34220Y313131D01*
X-34132Y313137D01*
X-34043Y313139D01*
X-32999Y313139D01*
X-32910Y313137D01*
X-32822Y313131D01*
X-32734Y313122D01*
X-32646Y313109D01*
X-32559Y313092D01*
X-32473Y313072D01*
X-32388Y313047D01*
X-32303Y313020D01*
X-32220Y312988D01*
X-32139Y312954D01*
X-32059Y312915D01*
X-31981Y312874D01*
X-31904Y312829D01*
X-31830Y312781D01*
X-31757Y312730D01*
X-31687Y312676D01*
X-31620Y312618D01*
X-31554Y312558D01*
X-31492Y312496D01*
X-31432Y312430D01*
X-31374Y312363D01*
X-31320Y312293D01*
X-31269Y312220D01*
X-31221Y312146D01*
X-31176Y312069D01*
X-31135Y311991D01*
X-31096Y311911D01*
X-31062Y311830D01*
X-31030Y311747D01*
X-31003Y311662D01*
X-30978Y311577D01*
X-30958Y311491D01*
X-30941Y311404D01*
X-30928Y311316D01*
X-30919Y311228D01*
X-30913Y311140D01*
X-30911Y311051D01*
X-30910Y311051D02*
X-30910Y307918D01*
X-26734Y307918D01*
X-26734Y313139D01*
X21019Y290100D02*
X30417Y290100D01*
X30417Y292710D01*
X30415Y292811D01*
X30409Y292912D01*
X30399Y293013D01*
X30386Y293113D01*
X30368Y293213D01*
X30347Y293312D01*
X30321Y293410D01*
X30292Y293507D01*
X30260Y293603D01*
X30223Y293697D01*
X30183Y293790D01*
X30139Y293882D01*
X30092Y293971D01*
X30041Y294059D01*
X29987Y294145D01*
X29930Y294228D01*
X29870Y294310D01*
X29806Y294388D01*
X29740Y294465D01*
X29670Y294538D01*
X29598Y294609D01*
X29523Y294677D01*
X29445Y294742D01*
X29365Y294804D01*
X29283Y294863D01*
X29198Y294919D01*
X29112Y294971D01*
X29023Y295020D01*
X28932Y295066D01*
X28840Y295107D01*
X28746Y295146D01*
X28651Y295180D01*
X28555Y295211D01*
X28457Y295238D01*
X28359Y295262D01*
X28259Y295281D01*
X28159Y295297D01*
X28059Y295309D01*
X27958Y295317D01*
X27857Y295321D01*
X27755Y295321D01*
X27654Y295317D01*
X27553Y295309D01*
X27453Y295297D01*
X27353Y295281D01*
X27253Y295262D01*
X27155Y295238D01*
X27057Y295211D01*
X26961Y295180D01*
X26866Y295146D01*
X26772Y295107D01*
X26680Y295066D01*
X26589Y295020D01*
X26501Y294971D01*
X26414Y294919D01*
X26329Y294863D01*
X26247Y294804D01*
X26167Y294742D01*
X26089Y294677D01*
X26014Y294609D01*
X25942Y294538D01*
X25872Y294465D01*
X25806Y294388D01*
X25742Y294310D01*
X25682Y294228D01*
X25625Y294145D01*
X25571Y294059D01*
X25520Y293971D01*
X25473Y293882D01*
X25429Y293790D01*
X25389Y293697D01*
X25352Y293603D01*
X25320Y293507D01*
X25291Y293410D01*
X25265Y293312D01*
X25244Y293213D01*
X25226Y293113D01*
X25213Y293013D01*
X25203Y292912D01*
X25197Y292811D01*
X25195Y292710D01*
X25195Y290100D01*
X25195Y293232D02*
X21019Y295321D01*
X28328Y299187D02*
X30417Y301797D01*
X21019Y301797D01*
X21019Y299187D02*
X21019Y304408D01*
X23107Y308331D02*
X30417Y310419D01*
X23107Y308331D02*
X23107Y313552D01*
X25195Y311985D02*
X21019Y311985D01*
X-78974Y328359D02*
X-78974Y337757D01*
X-81584Y337757D01*
X-81685Y337755D01*
X-81786Y337749D01*
X-81887Y337739D01*
X-81987Y337726D01*
X-82087Y337708D01*
X-82186Y337687D01*
X-82284Y337661D01*
X-82381Y337632D01*
X-82477Y337600D01*
X-82571Y337563D01*
X-82664Y337523D01*
X-82756Y337479D01*
X-82845Y337432D01*
X-82933Y337381D01*
X-83019Y337327D01*
X-83102Y337270D01*
X-83184Y337210D01*
X-83262Y337146D01*
X-83339Y337080D01*
X-83412Y337010D01*
X-83483Y336938D01*
X-83551Y336863D01*
X-83616Y336785D01*
X-83678Y336705D01*
X-83737Y336623D01*
X-83793Y336538D01*
X-83845Y336452D01*
X-83894Y336363D01*
X-83940Y336272D01*
X-83981Y336180D01*
X-84020Y336086D01*
X-84054Y335991D01*
X-84085Y335895D01*
X-84112Y335797D01*
X-84136Y335699D01*
X-84155Y335599D01*
X-84171Y335499D01*
X-84183Y335399D01*
X-84191Y335298D01*
X-84195Y335197D01*
X-84195Y335095D01*
X-84191Y334994D01*
X-84183Y334893D01*
X-84171Y334793D01*
X-84155Y334693D01*
X-84136Y334593D01*
X-84112Y334495D01*
X-84085Y334397D01*
X-84054Y334301D01*
X-84020Y334206D01*
X-83981Y334112D01*
X-83940Y334020D01*
X-83894Y333929D01*
X-83845Y333841D01*
X-83793Y333754D01*
X-83737Y333669D01*
X-83678Y333587D01*
X-83616Y333507D01*
X-83551Y333429D01*
X-83483Y333354D01*
X-83412Y333282D01*
X-83339Y333212D01*
X-83262Y333146D01*
X-83184Y333082D01*
X-83102Y333022D01*
X-83019Y332965D01*
X-82933Y332911D01*
X-82845Y332860D01*
X-82756Y332813D01*
X-82664Y332769D01*
X-82571Y332729D01*
X-82477Y332692D01*
X-82381Y332660D01*
X-82284Y332631D01*
X-82186Y332605D01*
X-82087Y332584D01*
X-81987Y332566D01*
X-81887Y332553D01*
X-81786Y332543D01*
X-81685Y332537D01*
X-81584Y332535D01*
X-78974Y332535D01*
X-82106Y332535D02*
X-84195Y328359D01*
X-88060Y335668D02*
X-90671Y337757D01*
X-90671Y328359D01*
X-88060Y328359D02*
X-93282Y328359D01*
D10*
X-83979Y261144D02*
X-83979Y223044D01*
X-111919Y220504D02*
X-112019Y220506D01*
X-112118Y220512D01*
X-112218Y220522D01*
X-112316Y220535D01*
X-112415Y220553D01*
X-112512Y220574D01*
X-112608Y220599D01*
X-112704Y220628D01*
X-112798Y220661D01*
X-112891Y220697D01*
X-112982Y220737D01*
X-113072Y220781D01*
X-113160Y220828D01*
X-113246Y220878D01*
X-113330Y220932D01*
X-113412Y220989D01*
X-113491Y221049D01*
X-113569Y221113D01*
X-113643Y221179D01*
X-113715Y221248D01*
X-113784Y221320D01*
X-113850Y221394D01*
X-113914Y221472D01*
X-113974Y221551D01*
X-114031Y221633D01*
X-114085Y221717D01*
X-114135Y221803D01*
X-114182Y221891D01*
X-114226Y221981D01*
X-114266Y222072D01*
X-114302Y222165D01*
X-114335Y222259D01*
X-114364Y222355D01*
X-114389Y222451D01*
X-114410Y222548D01*
X-114428Y222647D01*
X-114441Y222745D01*
X-114451Y222845D01*
X-114457Y222944D01*
X-114459Y223044D01*
X-114459Y261144D02*
X-114457Y261244D01*
X-114451Y261343D01*
X-114441Y261443D01*
X-114428Y261541D01*
X-114410Y261640D01*
X-114389Y261737D01*
X-114364Y261833D01*
X-114335Y261929D01*
X-114302Y262023D01*
X-114266Y262116D01*
X-114226Y262207D01*
X-114182Y262297D01*
X-114135Y262385D01*
X-114085Y262471D01*
X-114031Y262555D01*
X-113974Y262637D01*
X-113914Y262716D01*
X-113850Y262794D01*
X-113784Y262868D01*
X-113715Y262940D01*
X-113643Y263009D01*
X-113569Y263075D01*
X-113491Y263139D01*
X-113412Y263199D01*
X-113330Y263256D01*
X-113246Y263310D01*
X-113160Y263360D01*
X-113072Y263407D01*
X-112982Y263451D01*
X-112891Y263491D01*
X-112798Y263527D01*
X-112704Y263560D01*
X-112608Y263589D01*
X-112512Y263614D01*
X-112415Y263635D01*
X-112316Y263653D01*
X-112218Y263666D01*
X-112118Y263676D01*
X-112019Y263682D01*
X-111919Y263684D01*
X-86519Y263684D02*
X-86419Y263682D01*
X-86320Y263676D01*
X-86220Y263666D01*
X-86122Y263653D01*
X-86023Y263635D01*
X-85926Y263614D01*
X-85830Y263589D01*
X-85734Y263560D01*
X-85640Y263527D01*
X-85547Y263491D01*
X-85456Y263451D01*
X-85366Y263407D01*
X-85278Y263360D01*
X-85192Y263310D01*
X-85108Y263256D01*
X-85026Y263199D01*
X-84947Y263139D01*
X-84869Y263075D01*
X-84795Y263009D01*
X-84723Y262940D01*
X-84654Y262868D01*
X-84588Y262794D01*
X-84524Y262716D01*
X-84464Y262637D01*
X-84407Y262555D01*
X-84353Y262471D01*
X-84303Y262385D01*
X-84256Y262297D01*
X-84212Y262207D01*
X-84172Y262116D01*
X-84136Y262023D01*
X-84103Y261929D01*
X-84074Y261833D01*
X-84049Y261737D01*
X-84028Y261640D01*
X-84010Y261541D01*
X-83997Y261443D01*
X-83987Y261343D01*
X-83981Y261244D01*
X-83979Y261144D01*
X-83979Y223044D02*
X-83981Y222944D01*
X-83987Y222845D01*
X-83997Y222745D01*
X-84010Y222647D01*
X-84028Y222548D01*
X-84049Y222451D01*
X-84074Y222355D01*
X-84103Y222259D01*
X-84136Y222165D01*
X-84172Y222072D01*
X-84212Y221981D01*
X-84256Y221891D01*
X-84303Y221803D01*
X-84353Y221717D01*
X-84407Y221633D01*
X-84464Y221551D01*
X-84524Y221472D01*
X-84588Y221394D01*
X-84654Y221320D01*
X-84723Y221248D01*
X-84795Y221179D01*
X-84869Y221113D01*
X-84947Y221049D01*
X-85026Y220989D01*
X-85108Y220932D01*
X-85192Y220878D01*
X-85278Y220828D01*
X-85366Y220781D01*
X-85456Y220737D01*
X-85547Y220697D01*
X-85640Y220661D01*
X-85734Y220628D01*
X-85830Y220599D01*
X-85926Y220574D01*
X-86023Y220553D01*
X-86122Y220535D01*
X-86220Y220522D01*
X-86320Y220512D01*
X-86419Y220506D01*
X-86519Y220504D01*
X-111919Y220504D01*
X-111919Y263684D02*
X-86519Y263684D01*
X-114459Y261144D02*
X-114459Y223044D01*
D13*
X-80645Y232728D02*
X-80643Y232828D01*
X-80637Y232927D01*
X-80627Y233027D01*
X-80614Y233125D01*
X-80596Y233224D01*
X-80575Y233321D01*
X-80550Y233417D01*
X-80521Y233513D01*
X-80488Y233607D01*
X-80452Y233700D01*
X-80412Y233791D01*
X-80368Y233881D01*
X-80321Y233969D01*
X-80271Y234055D01*
X-80217Y234139D01*
X-80160Y234221D01*
X-80100Y234300D01*
X-80036Y234378D01*
X-79970Y234452D01*
X-79901Y234524D01*
X-79829Y234593D01*
X-79755Y234659D01*
X-79677Y234723D01*
X-79598Y234783D01*
X-79516Y234840D01*
X-79432Y234894D01*
X-79346Y234944D01*
X-79258Y234991D01*
X-79168Y235035D01*
X-79077Y235075D01*
X-78984Y235111D01*
X-78890Y235144D01*
X-78794Y235173D01*
X-78698Y235198D01*
X-78601Y235219D01*
X-78502Y235237D01*
X-78404Y235250D01*
X-78304Y235260D01*
X-78205Y235266D01*
X-78105Y235268D01*
X-80645Y232728D02*
X-80643Y232587D01*
X-80638Y232446D01*
X-80628Y232305D01*
X-80615Y232164D01*
X-80599Y232024D01*
X-80578Y231884D01*
X-80554Y231745D01*
X-80526Y231606D01*
X-80495Y231469D01*
X-80460Y231332D01*
X-80422Y231196D01*
X-80380Y231061D01*
X-80334Y230928D01*
X-80285Y230795D01*
X-80232Y230664D01*
X-80176Y230535D01*
X-80117Y230406D01*
X-80054Y230280D01*
X-79988Y230155D01*
X-79919Y230032D01*
X-79846Y229911D01*
X-79770Y229792D01*
X-79691Y229674D01*
X-79610Y229559D01*
X-79525Y229447D01*
X-79437Y229336D01*
X-79346Y229228D01*
X-79253Y229122D01*
X-79156Y229019D01*
X-79057Y228918D01*
X-71755Y229235D02*
X-71655Y229237D01*
X-71556Y229243D01*
X-71456Y229253D01*
X-71358Y229266D01*
X-71259Y229284D01*
X-71162Y229305D01*
X-71066Y229330D01*
X-70970Y229359D01*
X-70876Y229392D01*
X-70783Y229428D01*
X-70692Y229468D01*
X-70602Y229512D01*
X-70514Y229559D01*
X-70428Y229609D01*
X-70344Y229663D01*
X-70262Y229720D01*
X-70183Y229780D01*
X-70105Y229844D01*
X-70031Y229910D01*
X-69959Y229979D01*
X-69890Y230051D01*
X-69824Y230125D01*
X-69760Y230203D01*
X-69700Y230282D01*
X-69643Y230364D01*
X-69589Y230448D01*
X-69539Y230534D01*
X-69492Y230622D01*
X-69448Y230712D01*
X-69408Y230803D01*
X-69372Y230896D01*
X-69339Y230990D01*
X-69310Y231086D01*
X-69285Y231182D01*
X-69264Y231279D01*
X-69246Y231378D01*
X-69233Y231476D01*
X-69223Y231576D01*
X-69217Y231675D01*
X-69215Y231775D01*
X-69217Y231908D01*
X-69222Y232041D01*
X-69232Y232174D01*
X-69245Y232307D01*
X-69262Y232439D01*
X-69282Y232571D01*
X-69306Y232702D01*
X-69334Y232832D01*
X-69365Y232962D01*
X-69400Y233090D01*
X-69439Y233218D01*
X-69481Y233344D01*
X-69527Y233469D01*
X-69576Y233593D01*
X-69628Y233716D01*
X-69684Y233837D01*
X-69744Y233956D01*
X-69806Y234074D01*
X-69872Y234189D01*
X-69941Y234303D01*
X-70014Y234415D01*
X-70089Y234525D01*
X-70168Y234633D01*
X-73978Y230505D02*
X-73926Y230421D01*
X-73871Y230338D01*
X-73812Y230258D01*
X-73751Y230180D01*
X-73687Y230105D01*
X-73619Y230032D01*
X-73549Y229961D01*
X-73477Y229894D01*
X-73402Y229829D01*
X-73324Y229767D01*
X-73244Y229708D01*
X-73162Y229652D01*
X-73078Y229600D01*
X-72992Y229551D01*
X-72904Y229505D01*
X-72814Y229462D01*
X-72723Y229423D01*
X-72630Y229388D01*
X-72536Y229356D01*
X-72441Y229328D01*
X-72345Y229303D01*
X-72248Y229283D01*
X-72150Y229265D01*
X-72052Y229252D01*
X-71953Y229243D01*
X-71854Y229237D01*
X-71755Y229235D01*
X-75882Y233998D02*
X-75934Y234082D01*
X-75989Y234165D01*
X-76048Y234245D01*
X-76109Y234323D01*
X-76173Y234398D01*
X-76241Y234471D01*
X-76311Y234542D01*
X-76383Y234609D01*
X-76458Y234674D01*
X-76536Y234736D01*
X-76616Y234795D01*
X-76698Y234851D01*
X-76782Y234903D01*
X-76868Y234952D01*
X-76956Y234998D01*
X-77046Y235041D01*
X-77137Y235080D01*
X-77230Y235115D01*
X-77324Y235147D01*
X-77419Y235175D01*
X-77515Y235200D01*
X-77612Y235220D01*
X-77710Y235238D01*
X-77808Y235251D01*
X-77907Y235260D01*
X-78006Y235266D01*
X-78105Y235268D01*
X-75883Y233998D02*
X-73978Y230505D01*
X-78105Y242559D02*
X-69215Y242559D01*
X-78105Y242559D02*
X-78205Y242557D01*
X-78304Y242551D01*
X-78404Y242541D01*
X-78502Y242528D01*
X-78601Y242510D01*
X-78698Y242489D01*
X-78794Y242464D01*
X-78890Y242435D01*
X-78984Y242402D01*
X-79077Y242366D01*
X-79168Y242326D01*
X-79258Y242282D01*
X-79346Y242235D01*
X-79432Y242185D01*
X-79516Y242131D01*
X-79598Y242074D01*
X-79677Y242014D01*
X-79755Y241950D01*
X-79829Y241884D01*
X-79901Y241815D01*
X-79970Y241743D01*
X-80036Y241669D01*
X-80100Y241591D01*
X-80160Y241512D01*
X-80217Y241430D01*
X-80271Y241346D01*
X-80321Y241260D01*
X-80368Y241172D01*
X-80412Y241082D01*
X-80452Y240991D01*
X-80488Y240898D01*
X-80521Y240804D01*
X-80550Y240708D01*
X-80575Y240612D01*
X-80596Y240515D01*
X-80614Y240416D01*
X-80627Y240318D01*
X-80637Y240218D01*
X-80643Y240119D01*
X-80645Y240019D01*
X-80645Y238749D01*
X-71755Y247968D02*
X-69215Y251143D01*
X-80645Y251143D01*
X-80645Y247968D02*
X-80645Y254318D01*
D10*
X112871Y261144D02*
X112871Y223044D01*
X84931Y220504D02*
X84831Y220506D01*
X84732Y220512D01*
X84632Y220522D01*
X84534Y220535D01*
X84435Y220553D01*
X84338Y220574D01*
X84242Y220599D01*
X84146Y220628D01*
X84052Y220661D01*
X83959Y220697D01*
X83868Y220737D01*
X83778Y220781D01*
X83690Y220828D01*
X83604Y220878D01*
X83520Y220932D01*
X83438Y220989D01*
X83359Y221049D01*
X83281Y221113D01*
X83207Y221179D01*
X83135Y221248D01*
X83066Y221320D01*
X83000Y221394D01*
X82936Y221472D01*
X82876Y221551D01*
X82819Y221633D01*
X82765Y221717D01*
X82715Y221803D01*
X82668Y221891D01*
X82624Y221981D01*
X82584Y222072D01*
X82548Y222165D01*
X82515Y222259D01*
X82486Y222355D01*
X82461Y222451D01*
X82440Y222548D01*
X82422Y222647D01*
X82409Y222745D01*
X82399Y222845D01*
X82393Y222944D01*
X82391Y223044D01*
X82391Y261144D02*
X82393Y261244D01*
X82399Y261343D01*
X82409Y261443D01*
X82422Y261541D01*
X82440Y261640D01*
X82461Y261737D01*
X82486Y261833D01*
X82515Y261929D01*
X82548Y262023D01*
X82584Y262116D01*
X82624Y262207D01*
X82668Y262297D01*
X82715Y262385D01*
X82765Y262471D01*
X82819Y262555D01*
X82876Y262637D01*
X82936Y262716D01*
X83000Y262794D01*
X83066Y262868D01*
X83135Y262940D01*
X83207Y263009D01*
X83281Y263075D01*
X83359Y263139D01*
X83438Y263199D01*
X83520Y263256D01*
X83604Y263310D01*
X83690Y263360D01*
X83778Y263407D01*
X83868Y263451D01*
X83959Y263491D01*
X84052Y263527D01*
X84146Y263560D01*
X84242Y263589D01*
X84338Y263614D01*
X84435Y263635D01*
X84534Y263653D01*
X84632Y263666D01*
X84732Y263676D01*
X84831Y263682D01*
X84931Y263684D01*
X110331Y263684D02*
X110431Y263682D01*
X110530Y263676D01*
X110630Y263666D01*
X110728Y263653D01*
X110827Y263635D01*
X110924Y263614D01*
X111020Y263589D01*
X111116Y263560D01*
X111210Y263527D01*
X111303Y263491D01*
X111394Y263451D01*
X111484Y263407D01*
X111572Y263360D01*
X111658Y263310D01*
X111742Y263256D01*
X111824Y263199D01*
X111903Y263139D01*
X111981Y263075D01*
X112055Y263009D01*
X112127Y262940D01*
X112196Y262868D01*
X112262Y262794D01*
X112326Y262716D01*
X112386Y262637D01*
X112443Y262555D01*
X112497Y262471D01*
X112547Y262385D01*
X112594Y262297D01*
X112638Y262207D01*
X112678Y262116D01*
X112714Y262023D01*
X112747Y261929D01*
X112776Y261833D01*
X112801Y261737D01*
X112822Y261640D01*
X112840Y261541D01*
X112853Y261443D01*
X112863Y261343D01*
X112869Y261244D01*
X112871Y261144D01*
X112871Y223044D02*
X112869Y222944D01*
X112863Y222845D01*
X112853Y222745D01*
X112840Y222647D01*
X112822Y222548D01*
X112801Y222451D01*
X112776Y222355D01*
X112747Y222259D01*
X112714Y222165D01*
X112678Y222072D01*
X112638Y221981D01*
X112594Y221891D01*
X112547Y221803D01*
X112497Y221717D01*
X112443Y221633D01*
X112386Y221551D01*
X112326Y221472D01*
X112262Y221394D01*
X112196Y221320D01*
X112127Y221248D01*
X112055Y221179D01*
X111981Y221113D01*
X111903Y221049D01*
X111824Y220989D01*
X111742Y220932D01*
X111658Y220878D01*
X111572Y220828D01*
X111484Y220781D01*
X111394Y220737D01*
X111303Y220697D01*
X111210Y220661D01*
X111116Y220628D01*
X111020Y220599D01*
X110924Y220574D01*
X110827Y220553D01*
X110728Y220535D01*
X110630Y220522D01*
X110530Y220512D01*
X110431Y220506D01*
X110331Y220504D01*
X84931Y220504D01*
X84931Y263684D02*
X110331Y263684D01*
X82391Y261144D02*
X82391Y223044D01*
D13*
X118428Y229711D02*
X118430Y229811D01*
X118436Y229910D01*
X118446Y230010D01*
X118459Y230108D01*
X118477Y230207D01*
X118498Y230304D01*
X118523Y230400D01*
X118552Y230496D01*
X118585Y230590D01*
X118621Y230683D01*
X118661Y230774D01*
X118705Y230864D01*
X118752Y230952D01*
X118802Y231038D01*
X118856Y231122D01*
X118913Y231204D01*
X118973Y231283D01*
X119037Y231361D01*
X119103Y231435D01*
X119172Y231507D01*
X119244Y231576D01*
X119318Y231642D01*
X119396Y231706D01*
X119475Y231766D01*
X119557Y231823D01*
X119641Y231877D01*
X119727Y231927D01*
X119815Y231974D01*
X119905Y232018D01*
X119996Y232058D01*
X120089Y232094D01*
X120183Y232127D01*
X120279Y232156D01*
X120375Y232181D01*
X120472Y232202D01*
X120571Y232220D01*
X120669Y232233D01*
X120769Y232243D01*
X120868Y232249D01*
X120968Y232251D01*
X118427Y229711D02*
X118429Y229570D01*
X118434Y229429D01*
X118444Y229288D01*
X118457Y229147D01*
X118473Y229007D01*
X118494Y228867D01*
X118518Y228728D01*
X118546Y228589D01*
X118577Y228452D01*
X118612Y228315D01*
X118650Y228179D01*
X118692Y228044D01*
X118738Y227911D01*
X118787Y227778D01*
X118840Y227647D01*
X118896Y227518D01*
X118955Y227389D01*
X119018Y227263D01*
X119084Y227138D01*
X119153Y227015D01*
X119226Y226894D01*
X119302Y226775D01*
X119381Y226657D01*
X119462Y226542D01*
X119547Y226430D01*
X119635Y226319D01*
X119726Y226211D01*
X119819Y226105D01*
X119916Y226002D01*
X120015Y225901D01*
X127318Y226219D02*
X127418Y226221D01*
X127517Y226227D01*
X127617Y226237D01*
X127715Y226250D01*
X127814Y226268D01*
X127911Y226289D01*
X128007Y226314D01*
X128103Y226343D01*
X128197Y226376D01*
X128290Y226412D01*
X128381Y226452D01*
X128471Y226496D01*
X128559Y226543D01*
X128645Y226593D01*
X128729Y226647D01*
X128811Y226704D01*
X128890Y226764D01*
X128968Y226828D01*
X129042Y226894D01*
X129114Y226963D01*
X129183Y227035D01*
X129249Y227109D01*
X129313Y227187D01*
X129373Y227266D01*
X129430Y227348D01*
X129484Y227432D01*
X129534Y227518D01*
X129581Y227606D01*
X129625Y227696D01*
X129665Y227787D01*
X129701Y227880D01*
X129734Y227974D01*
X129763Y228070D01*
X129788Y228166D01*
X129809Y228263D01*
X129827Y228362D01*
X129840Y228460D01*
X129850Y228560D01*
X129856Y228659D01*
X129858Y228759D01*
X129856Y228892D01*
X129851Y229025D01*
X129841Y229158D01*
X129828Y229291D01*
X129811Y229423D01*
X129791Y229555D01*
X129767Y229686D01*
X129739Y229816D01*
X129708Y229946D01*
X129673Y230074D01*
X129634Y230202D01*
X129592Y230328D01*
X129546Y230453D01*
X129497Y230577D01*
X129445Y230700D01*
X129389Y230821D01*
X129329Y230940D01*
X129267Y231058D01*
X129201Y231173D01*
X129132Y231287D01*
X129059Y231399D01*
X128984Y231509D01*
X128905Y231617D01*
X125095Y227488D02*
X125147Y227404D01*
X125202Y227321D01*
X125261Y227241D01*
X125322Y227163D01*
X125386Y227088D01*
X125454Y227015D01*
X125524Y226944D01*
X125596Y226877D01*
X125671Y226812D01*
X125749Y226750D01*
X125829Y226691D01*
X125911Y226635D01*
X125995Y226583D01*
X126081Y226534D01*
X126169Y226488D01*
X126259Y226445D01*
X126350Y226406D01*
X126443Y226371D01*
X126537Y226339D01*
X126632Y226311D01*
X126728Y226286D01*
X126825Y226266D01*
X126923Y226248D01*
X127021Y226235D01*
X127120Y226226D01*
X127219Y226220D01*
X127318Y226218D01*
X123191Y230982D02*
X123139Y231066D01*
X123084Y231149D01*
X123025Y231229D01*
X122964Y231307D01*
X122900Y231382D01*
X122832Y231455D01*
X122762Y231526D01*
X122690Y231593D01*
X122615Y231658D01*
X122537Y231720D01*
X122457Y231779D01*
X122375Y231835D01*
X122291Y231887D01*
X122205Y231936D01*
X122117Y231982D01*
X122027Y232025D01*
X121936Y232064D01*
X121843Y232099D01*
X121749Y232131D01*
X121654Y232159D01*
X121558Y232184D01*
X121461Y232204D01*
X121363Y232222D01*
X121265Y232235D01*
X121166Y232244D01*
X121067Y232250D01*
X120968Y232252D01*
X123190Y230981D02*
X125095Y227489D01*
X120968Y239543D02*
X129858Y239543D01*
X120968Y239543D02*
X120868Y239541D01*
X120769Y239535D01*
X120669Y239525D01*
X120571Y239512D01*
X120472Y239494D01*
X120375Y239473D01*
X120279Y239448D01*
X120183Y239419D01*
X120089Y239386D01*
X119996Y239350D01*
X119905Y239310D01*
X119815Y239266D01*
X119727Y239219D01*
X119641Y239169D01*
X119557Y239115D01*
X119475Y239058D01*
X119396Y238998D01*
X119318Y238934D01*
X119244Y238868D01*
X119172Y238799D01*
X119103Y238727D01*
X119037Y238653D01*
X118973Y238575D01*
X118913Y238496D01*
X118856Y238414D01*
X118802Y238330D01*
X118752Y238244D01*
X118705Y238156D01*
X118661Y238066D01*
X118621Y237975D01*
X118585Y237882D01*
X118552Y237788D01*
X118523Y237692D01*
X118498Y237596D01*
X118477Y237499D01*
X118459Y237400D01*
X118446Y237302D01*
X118436Y237202D01*
X118430Y237103D01*
X118428Y237003D01*
X118428Y235733D01*
X129858Y248444D02*
X129856Y248548D01*
X129850Y248653D01*
X129841Y248757D01*
X129828Y248860D01*
X129810Y248963D01*
X129790Y249065D01*
X129765Y249167D01*
X129737Y249267D01*
X129705Y249367D01*
X129669Y249465D01*
X129630Y249562D01*
X129588Y249657D01*
X129542Y249751D01*
X129492Y249843D01*
X129440Y249933D01*
X129384Y250021D01*
X129324Y250107D01*
X129262Y250191D01*
X129197Y250272D01*
X129129Y250351D01*
X129057Y250428D01*
X128984Y250501D01*
X128907Y250573D01*
X128828Y250641D01*
X128747Y250706D01*
X128663Y250768D01*
X128577Y250828D01*
X128489Y250884D01*
X128399Y250936D01*
X128307Y250986D01*
X128213Y251032D01*
X128118Y251074D01*
X128021Y251113D01*
X127923Y251149D01*
X127823Y251181D01*
X127723Y251209D01*
X127621Y251234D01*
X127519Y251254D01*
X127416Y251272D01*
X127313Y251285D01*
X127209Y251294D01*
X127104Y251300D01*
X127000Y251302D01*
X129857Y248444D02*
X129855Y248326D01*
X129849Y248207D01*
X129840Y248089D01*
X129827Y247972D01*
X129809Y247855D01*
X129789Y247738D01*
X129764Y247622D01*
X129736Y247507D01*
X129703Y247394D01*
X129668Y247281D01*
X129628Y247169D01*
X129586Y247059D01*
X129539Y246950D01*
X129489Y246842D01*
X129436Y246737D01*
X129379Y246633D01*
X129319Y246531D01*
X129256Y246431D01*
X129189Y246333D01*
X129120Y246237D01*
X129047Y246144D01*
X128971Y246053D01*
X128893Y245964D01*
X128811Y245878D01*
X128727Y245795D01*
X128641Y245714D01*
X128551Y245637D01*
X128460Y245562D01*
X128366Y245490D01*
X128269Y245421D01*
X128171Y245356D01*
X128070Y245293D01*
X127967Y245234D01*
X127863Y245178D01*
X127757Y245126D01*
X127649Y245077D01*
X127540Y245032D01*
X127429Y244990D01*
X127317Y244952D01*
X124778Y250349D02*
X124853Y250425D01*
X124932Y250500D01*
X125013Y250571D01*
X125097Y250640D01*
X125183Y250705D01*
X125271Y250767D01*
X125361Y250827D01*
X125453Y250883D01*
X125548Y250936D01*
X125644Y250985D01*
X125742Y251031D01*
X125841Y251074D01*
X125942Y251113D01*
X126044Y251148D01*
X126147Y251180D01*
X126251Y251208D01*
X126356Y251233D01*
X126463Y251254D01*
X126569Y251271D01*
X126676Y251284D01*
X126784Y251293D01*
X126892Y251299D01*
X127000Y251301D01*
X124778Y250349D02*
X118428Y244951D01*
X118428Y251301D01*
D10*
X-28929Y449580D02*
X-33655Y449580D01*
X40005Y449580D02*
X40005Y444854D01*
X40005Y375920D02*
X35279Y375920D01*
X-33655Y375920D02*
X-33655Y380646D01*
X-33655Y444854D02*
X-33655Y449580D01*
X35279Y449580D02*
X40005Y449580D01*
X40005Y380646D02*
X40005Y375920D01*
X-28929Y375920D02*
X-33655Y375920D01*
D14*
X-25314Y365506D02*
X-25312Y365562D01*
X-25306Y365618D01*
X-25296Y365673D01*
X-25283Y365727D01*
X-25266Y365781D01*
X-25245Y365833D01*
X-25220Y365883D01*
X-25192Y365932D01*
X-25161Y365978D01*
X-25126Y366022D01*
X-25089Y366064D01*
X-25048Y366103D01*
X-25005Y366139D01*
X-24960Y366172D01*
X-24913Y366201D01*
X-24863Y366228D01*
X-24812Y366251D01*
X-24759Y366270D01*
X-24705Y366285D01*
X-24650Y366297D01*
X-24595Y366305D01*
X-24539Y366309D01*
X-24483Y366309D01*
X-24427Y366305D01*
X-24372Y366297D01*
X-24317Y366285D01*
X-24263Y366270D01*
X-24210Y366251D01*
X-24159Y366228D01*
X-24110Y366201D01*
X-24062Y366172D01*
X-24017Y366139D01*
X-23974Y366103D01*
X-23933Y366064D01*
X-23896Y366022D01*
X-23861Y365978D01*
X-23830Y365932D01*
X-23802Y365883D01*
X-23777Y365833D01*
X-23756Y365781D01*
X-23739Y365727D01*
X-23726Y365673D01*
X-23716Y365618D01*
X-23710Y365562D01*
X-23708Y365506D01*
X-23710Y365450D01*
X-23716Y365394D01*
X-23726Y365339D01*
X-23739Y365285D01*
X-23756Y365231D01*
X-23777Y365179D01*
X-23802Y365129D01*
X-23830Y365080D01*
X-23861Y365034D01*
X-23896Y364990D01*
X-23933Y364948D01*
X-23974Y364909D01*
X-24017Y364873D01*
X-24062Y364840D01*
X-24109Y364811D01*
X-24159Y364784D01*
X-24210Y364761D01*
X-24263Y364742D01*
X-24317Y364727D01*
X-24372Y364715D01*
X-24427Y364707D01*
X-24483Y364703D01*
X-24539Y364703D01*
X-24595Y364707D01*
X-24650Y364715D01*
X-24705Y364727D01*
X-24759Y364742D01*
X-24812Y364761D01*
X-24863Y364784D01*
X-24913Y364811D01*
X-24960Y364840D01*
X-25005Y364873D01*
X-25048Y364909D01*
X-25089Y364948D01*
X-25126Y364990D01*
X-25161Y365034D01*
X-25192Y365080D01*
X-25220Y365129D01*
X-25245Y365179D01*
X-25266Y365231D01*
X-25283Y365285D01*
X-25296Y365339D01*
X-25306Y365394D01*
X-25312Y365450D01*
X-25314Y365506D01*
D12*
X-30744Y454406D02*
X-30744Y463028D01*
X-30743Y463028D02*
X-30741Y463142D01*
X-30735Y463257D01*
X-30725Y463371D01*
X-30711Y463484D01*
X-30694Y463598D01*
X-30672Y463710D01*
X-30647Y463822D01*
X-30617Y463932D01*
X-30584Y464042D01*
X-30547Y464150D01*
X-30507Y464257D01*
X-30462Y464363D01*
X-30415Y464467D01*
X-30363Y464569D01*
X-30308Y464669D01*
X-30250Y464768D01*
X-30188Y464864D01*
X-30123Y464959D01*
X-30055Y465050D01*
X-29983Y465140D01*
X-29909Y465227D01*
X-29832Y465311D01*
X-29751Y465393D01*
X-29668Y465472D01*
X-29583Y465548D01*
X-29494Y465621D01*
X-29404Y465690D01*
X-29311Y465757D01*
X-29215Y465820D01*
X-29118Y465880D01*
X-29018Y465937D01*
X-28917Y465990D01*
X-28814Y466040D01*
X-28709Y466086D01*
X-28603Y466129D01*
X-28495Y466167D01*
X-28386Y466202D01*
X-28276Y466233D01*
X-28165Y466261D01*
X-28053Y466284D01*
X-27940Y466304D01*
X-27827Y466320D01*
X-27713Y466332D01*
X-27599Y466340D01*
X-27484Y466344D01*
X-27370Y466344D01*
X-27255Y466340D01*
X-27141Y466332D01*
X-27027Y466320D01*
X-26914Y466304D01*
X-26801Y466284D01*
X-26689Y466261D01*
X-26578Y466233D01*
X-26468Y466202D01*
X-26359Y466167D01*
X-26251Y466129D01*
X-26145Y466086D01*
X-26040Y466040D01*
X-25937Y465990D01*
X-25836Y465937D01*
X-25736Y465880D01*
X-25639Y465820D01*
X-25543Y465757D01*
X-25450Y465690D01*
X-25360Y465621D01*
X-25271Y465548D01*
X-25186Y465472D01*
X-25103Y465393D01*
X-25022Y465311D01*
X-24945Y465227D01*
X-24871Y465140D01*
X-24799Y465050D01*
X-24731Y464959D01*
X-24666Y464864D01*
X-24604Y464768D01*
X-24546Y464669D01*
X-24491Y464569D01*
X-24439Y464467D01*
X-24392Y464363D01*
X-24347Y464257D01*
X-24307Y464150D01*
X-24270Y464042D01*
X-24237Y463932D01*
X-24207Y463822D01*
X-24182Y463710D01*
X-24160Y463598D01*
X-24143Y463484D01*
X-24129Y463371D01*
X-24119Y463257D01*
X-24113Y463142D01*
X-24111Y463028D01*
X-24111Y454406D01*
X-18933Y457059D02*
X-15616Y454406D01*
X-15616Y466344D01*
X-12300Y466344D02*
X-18933Y466344D01*
D15*
X-42228Y440055D02*
X-42228Y404495D01*
X-42228Y440055D02*
X-62548Y440055D01*
X-62548Y404495D01*
X-42228Y404495D01*
D12*
X-65627Y422413D02*
X-75025Y416147D01*
X-75025Y422413D02*
X-65627Y416147D01*
X-67716Y425813D02*
X-65627Y428424D01*
X-75025Y428424D01*
X-75025Y431034D02*
X-75025Y425813D01*
M02*
