G04 EAGLE Gerber RS-274X export*
G75*
%MOMM*%
%FSLAX34Y34*%
%LPD*%
%INSilkscreen Bottom*%
%IPPOS*%
%AMOC8*
5,1,8,0,0,1.08239X$1,22.5*%
G01*
%ADD10C,0.152400*%
%ADD11C,0.101600*%
%ADD12C,0.076200*%
%ADD13C,0.127000*%
%ADD14C,0.812800*%
%ADD15C,0.254000*%

G36*
X12584Y453773D02*
X12584Y453773D01*
X12586Y453772D01*
X12629Y453792D01*
X12673Y453810D01*
X12673Y453812D01*
X12675Y453813D01*
X12708Y453898D01*
X12708Y456438D01*
X12707Y456440D01*
X12708Y456442D01*
X12688Y456485D01*
X12670Y456529D01*
X12668Y456529D01*
X12667Y456531D01*
X12582Y456564D01*
X8772Y456564D01*
X8770Y456563D01*
X8768Y456564D01*
X8725Y456544D01*
X8681Y456526D01*
X8681Y456524D01*
X8679Y456523D01*
X8646Y456438D01*
X8646Y453898D01*
X8647Y453896D01*
X8646Y453894D01*
X8666Y453851D01*
X8684Y453807D01*
X8686Y453807D01*
X8687Y453805D01*
X8772Y453772D01*
X12582Y453772D01*
X12584Y453773D01*
G37*
G36*
X-37971Y428224D02*
X-37971Y428224D01*
X-37969Y428223D01*
X-37926Y428243D01*
X-37882Y428261D01*
X-37882Y428263D01*
X-37880Y428264D01*
X-37847Y428349D01*
X-37847Y432159D01*
X-37848Y432161D01*
X-37847Y432163D01*
X-37867Y432206D01*
X-37885Y432250D01*
X-37887Y432250D01*
X-37888Y432252D01*
X-37973Y432285D01*
X-40513Y432285D01*
X-40515Y432284D01*
X-40517Y432285D01*
X-40560Y432265D01*
X-40604Y432247D01*
X-40604Y432245D01*
X-40606Y432244D01*
X-40639Y432159D01*
X-40639Y428349D01*
X-40638Y428347D01*
X-40639Y428345D01*
X-40619Y428302D01*
X-40601Y428258D01*
X-40599Y428258D01*
X-40598Y428256D01*
X-40513Y428223D01*
X-37973Y428223D01*
X-37971Y428224D01*
G37*
G36*
X46865Y413221D02*
X46865Y413221D01*
X46867Y413220D01*
X46910Y413240D01*
X46954Y413258D01*
X46954Y413260D01*
X46956Y413261D01*
X46989Y413346D01*
X46989Y417156D01*
X46988Y417158D01*
X46989Y417160D01*
X46969Y417203D01*
X46951Y417247D01*
X46949Y417247D01*
X46948Y417249D01*
X46863Y417282D01*
X44323Y417282D01*
X44321Y417281D01*
X44319Y417282D01*
X44276Y417262D01*
X44232Y417244D01*
X44232Y417242D01*
X44230Y417241D01*
X44197Y417156D01*
X44197Y413346D01*
X44198Y413344D01*
X44197Y413342D01*
X44217Y413299D01*
X44235Y413255D01*
X44237Y413255D01*
X44238Y413253D01*
X44323Y413220D01*
X46863Y413220D01*
X46865Y413221D01*
G37*
G36*
X17585Y368937D02*
X17585Y368937D01*
X17587Y368936D01*
X17630Y368956D01*
X17674Y368974D01*
X17674Y368976D01*
X17676Y368977D01*
X17709Y369062D01*
X17709Y371602D01*
X17708Y371604D01*
X17709Y371606D01*
X17689Y371649D01*
X17671Y371693D01*
X17669Y371693D01*
X17668Y371695D01*
X17583Y371728D01*
X13773Y371728D01*
X13771Y371727D01*
X13769Y371728D01*
X13726Y371708D01*
X13682Y371690D01*
X13682Y371688D01*
X13680Y371687D01*
X13647Y371602D01*
X13647Y369062D01*
X13648Y369060D01*
X13647Y369058D01*
X13667Y369015D01*
X13685Y368971D01*
X13687Y368971D01*
X13688Y368969D01*
X13773Y368936D01*
X17583Y368936D01*
X17585Y368937D01*
G37*
D10*
X65078Y438839D02*
X73968Y454237D01*
X69691Y456706D01*
X69569Y456774D01*
X69446Y456839D01*
X69320Y456900D01*
X69192Y456958D01*
X69064Y457012D01*
X68933Y457062D01*
X68801Y457109D01*
X68668Y457152D01*
X68534Y457191D01*
X68399Y457226D01*
X68263Y457257D01*
X68125Y457285D01*
X67988Y457308D01*
X67849Y457328D01*
X67710Y457344D01*
X67571Y457356D01*
X67432Y457364D01*
X67292Y457368D01*
X67152Y457368D01*
X67012Y457364D01*
X66873Y457356D01*
X66734Y457344D01*
X66595Y457328D01*
X66456Y457308D01*
X66318Y457285D01*
X66181Y457257D01*
X66045Y457226D01*
X65910Y457191D01*
X65776Y457152D01*
X65643Y457109D01*
X65511Y457062D01*
X65380Y457012D01*
X65252Y456958D01*
X65124Y456900D01*
X64998Y456839D01*
X64875Y456774D01*
X64752Y456706D01*
X64632Y456635D01*
X64514Y456560D01*
X64399Y456481D01*
X64285Y456400D01*
X64174Y456315D01*
X64065Y456227D01*
X63959Y456137D01*
X63855Y456043D01*
X63754Y455946D01*
X63656Y455846D01*
X63561Y455744D01*
X63469Y455639D01*
X63379Y455532D01*
X63293Y455422D01*
X63210Y455309D01*
X63130Y455195D01*
X63053Y455078D01*
X62980Y454959D01*
X62910Y454838D01*
X62844Y454715D01*
X62781Y454590D01*
X62721Y454463D01*
X62666Y454335D01*
X62614Y454205D01*
X62565Y454074D01*
X62520Y453942D01*
X62479Y453808D01*
X62442Y453674D01*
X62409Y453538D01*
X62380Y453401D01*
X62354Y453264D01*
X62332Y453126D01*
X62315Y452987D01*
X62301Y452848D01*
X62291Y452708D01*
X62285Y452569D01*
X62283Y452429D01*
X62285Y452289D01*
X62291Y452150D01*
X62301Y452010D01*
X62315Y451871D01*
X62332Y451732D01*
X62354Y451594D01*
X62380Y451457D01*
X62409Y451320D01*
X62442Y451184D01*
X62480Y451050D01*
X62520Y450916D01*
X62565Y450784D01*
X62614Y450652D01*
X62666Y450523D01*
X62721Y450395D01*
X62781Y450268D01*
X62844Y450143D01*
X62910Y450020D01*
X62980Y449899D01*
X63053Y449780D01*
X63130Y449663D01*
X63210Y449549D01*
X63293Y449436D01*
X63379Y449326D01*
X63469Y449219D01*
X63561Y449114D01*
X63656Y449012D01*
X63754Y448912D01*
X63855Y448815D01*
X63959Y448721D01*
X64065Y448631D01*
X64174Y448543D01*
X64285Y448458D01*
X64399Y448377D01*
X64514Y448298D01*
X64632Y448223D01*
X64752Y448152D01*
X69029Y445683D01*
X51226Y446837D02*
X46949Y449306D01*
X46948Y449306D02*
X46828Y449377D01*
X46710Y449452D01*
X46595Y449531D01*
X46481Y449612D01*
X46370Y449697D01*
X46261Y449785D01*
X46155Y449875D01*
X46051Y449969D01*
X45950Y450066D01*
X45852Y450166D01*
X45757Y450268D01*
X45665Y450373D01*
X45575Y450480D01*
X45489Y450590D01*
X45406Y450703D01*
X45326Y450817D01*
X45249Y450934D01*
X45176Y451053D01*
X45106Y451174D01*
X45040Y451297D01*
X44977Y451422D01*
X44917Y451549D01*
X44862Y451677D01*
X44810Y451806D01*
X44761Y451938D01*
X44716Y452070D01*
X44675Y452204D01*
X44638Y452338D01*
X44605Y452474D01*
X44576Y452611D01*
X44550Y452748D01*
X44528Y452886D01*
X44511Y453025D01*
X44497Y453164D01*
X44487Y453304D01*
X44481Y453443D01*
X44479Y453583D01*
X44481Y453723D01*
X44487Y453862D01*
X44497Y454002D01*
X44511Y454141D01*
X44528Y454280D01*
X44550Y454418D01*
X44576Y454555D01*
X44605Y454692D01*
X44638Y454828D01*
X44676Y454962D01*
X44716Y455096D01*
X44761Y455228D01*
X44810Y455360D01*
X44862Y455489D01*
X44917Y455617D01*
X44977Y455744D01*
X45040Y455869D01*
X45106Y455992D01*
X45176Y456113D01*
X45249Y456232D01*
X45326Y456349D01*
X45406Y456463D01*
X45489Y456576D01*
X45575Y456686D01*
X45665Y456793D01*
X45757Y456898D01*
X45852Y457000D01*
X45950Y457100D01*
X46051Y457197D01*
X46155Y457291D01*
X46261Y457381D01*
X46370Y457469D01*
X46481Y457554D01*
X46595Y457635D01*
X46710Y457714D01*
X46828Y457789D01*
X46949Y457860D01*
X47071Y457928D01*
X47194Y457993D01*
X47320Y458054D01*
X47448Y458112D01*
X47576Y458166D01*
X47707Y458216D01*
X47839Y458263D01*
X47972Y458306D01*
X48106Y458345D01*
X48241Y458380D01*
X48377Y458411D01*
X48515Y458439D01*
X48652Y458462D01*
X48791Y458482D01*
X48930Y458498D01*
X49069Y458510D01*
X49208Y458518D01*
X49348Y458522D01*
X49488Y458522D01*
X49628Y458518D01*
X49767Y458510D01*
X49906Y458498D01*
X50045Y458482D01*
X50184Y458462D01*
X50321Y458439D01*
X50459Y458411D01*
X50595Y458380D01*
X50730Y458345D01*
X50864Y458306D01*
X50997Y458263D01*
X51129Y458216D01*
X51260Y458166D01*
X51388Y458112D01*
X51516Y458054D01*
X51642Y457993D01*
X51765Y457928D01*
X51888Y457860D01*
X54984Y465198D02*
X60116Y462234D01*
X54983Y465198D02*
X54875Y465258D01*
X54765Y465315D01*
X54653Y465368D01*
X54539Y465418D01*
X54424Y465465D01*
X54307Y465507D01*
X54190Y465546D01*
X54070Y465581D01*
X53950Y465613D01*
X53829Y465641D01*
X53708Y465665D01*
X53585Y465685D01*
X53462Y465701D01*
X53339Y465713D01*
X53215Y465722D01*
X53091Y465726D01*
X52967Y465727D01*
X52843Y465724D01*
X52719Y465716D01*
X52595Y465705D01*
X52472Y465690D01*
X52349Y465672D01*
X52227Y465649D01*
X52106Y465623D01*
X51985Y465592D01*
X51866Y465558D01*
X51748Y465521D01*
X51631Y465479D01*
X51515Y465434D01*
X51401Y465385D01*
X51288Y465333D01*
X51178Y465277D01*
X51068Y465218D01*
X50961Y465156D01*
X50856Y465090D01*
X50753Y465020D01*
X50652Y464948D01*
X50554Y464872D01*
X50458Y464794D01*
X50364Y464712D01*
X50273Y464628D01*
X50185Y464540D01*
X50100Y464450D01*
X50017Y464358D01*
X49937Y464262D01*
X49861Y464165D01*
X49787Y464065D01*
X49717Y463962D01*
X49650Y463858D01*
X49586Y463751D01*
X49526Y463643D01*
X49469Y463533D01*
X49416Y463421D01*
X49366Y463307D01*
X49319Y463192D01*
X49277Y463075D01*
X49238Y462958D01*
X49203Y462838D01*
X49171Y462718D01*
X49143Y462597D01*
X49119Y462476D01*
X49099Y462353D01*
X49083Y462230D01*
X49071Y462107D01*
X49062Y461983D01*
X49058Y461859D01*
X49057Y461735D01*
X49060Y461611D01*
X49068Y461487D01*
X49079Y461363D01*
X49094Y461240D01*
X49112Y461117D01*
X49135Y460995D01*
X49161Y460874D01*
X49192Y460753D01*
X49226Y460634D01*
X49263Y460516D01*
X49305Y460399D01*
X49350Y460283D01*
X49399Y460169D01*
X49451Y460056D01*
X49507Y459946D01*
X49566Y459836D01*
X49628Y459729D01*
X49694Y459624D01*
X49764Y459521D01*
X49836Y459420D01*
X49912Y459322D01*
X49990Y459226D01*
X50072Y459132D01*
X50156Y459041D01*
X50244Y458953D01*
X50334Y458868D01*
X50426Y458785D01*
X50522Y458705D01*
X50619Y458629D01*
X50719Y458555D01*
X50822Y458485D01*
X50926Y458418D01*
X51033Y458354D01*
X51032Y458354D02*
X54454Y456379D01*
X-40519Y455882D02*
X-49409Y471280D01*
X-53687Y468811D01*
X-53807Y468740D01*
X-53925Y468665D01*
X-54040Y468586D01*
X-54154Y468505D01*
X-54265Y468420D01*
X-54374Y468332D01*
X-54480Y468242D01*
X-54584Y468148D01*
X-54685Y468051D01*
X-54783Y467951D01*
X-54878Y467849D01*
X-54970Y467744D01*
X-55060Y467637D01*
X-55146Y467527D01*
X-55229Y467414D01*
X-55309Y467300D01*
X-55386Y467183D01*
X-55459Y467064D01*
X-55529Y466943D01*
X-55595Y466820D01*
X-55658Y466695D01*
X-55718Y466568D01*
X-55773Y466440D01*
X-55825Y466310D01*
X-55874Y466179D01*
X-55919Y466047D01*
X-55960Y465913D01*
X-55997Y465779D01*
X-56030Y465643D01*
X-56059Y465506D01*
X-56085Y465369D01*
X-56107Y465231D01*
X-56124Y465092D01*
X-56138Y464953D01*
X-56148Y464813D01*
X-56154Y464674D01*
X-56156Y464534D01*
X-56154Y464394D01*
X-56148Y464255D01*
X-56138Y464115D01*
X-56124Y463976D01*
X-56107Y463837D01*
X-56085Y463699D01*
X-56059Y463562D01*
X-56030Y463425D01*
X-55997Y463289D01*
X-55959Y463155D01*
X-55919Y463021D01*
X-55874Y462889D01*
X-55825Y462757D01*
X-55773Y462628D01*
X-55718Y462500D01*
X-55658Y462373D01*
X-55595Y462248D01*
X-55529Y462125D01*
X-55459Y462004D01*
X-55386Y461885D01*
X-55309Y461768D01*
X-55229Y461654D01*
X-55146Y461541D01*
X-55060Y461431D01*
X-54970Y461324D01*
X-54878Y461219D01*
X-54783Y461117D01*
X-54685Y461017D01*
X-54584Y460920D01*
X-54480Y460826D01*
X-54374Y460736D01*
X-54265Y460648D01*
X-54154Y460563D01*
X-54040Y460482D01*
X-53925Y460403D01*
X-53807Y460328D01*
X-53686Y460257D01*
X-53564Y460189D01*
X-53441Y460124D01*
X-53315Y460063D01*
X-53187Y460005D01*
X-53059Y459951D01*
X-52928Y459901D01*
X-52796Y459854D01*
X-52663Y459811D01*
X-52529Y459772D01*
X-52394Y459737D01*
X-52258Y459706D01*
X-52120Y459678D01*
X-51983Y459655D01*
X-51844Y459635D01*
X-51705Y459619D01*
X-51566Y459607D01*
X-51427Y459599D01*
X-51287Y459595D01*
X-51147Y459595D01*
X-51007Y459599D01*
X-50868Y459607D01*
X-50729Y459619D01*
X-50590Y459635D01*
X-50451Y459655D01*
X-50313Y459678D01*
X-50176Y459706D01*
X-50040Y459737D01*
X-49905Y459772D01*
X-49771Y459811D01*
X-49638Y459854D01*
X-49506Y459901D01*
X-49375Y459951D01*
X-49247Y460005D01*
X-49119Y460063D01*
X-48993Y460124D01*
X-48870Y460189D01*
X-48747Y460257D01*
X-48748Y460256D02*
X-44470Y462726D01*
X-67966Y460567D02*
X-68080Y460499D01*
X-68191Y460428D01*
X-68300Y460354D01*
X-68406Y460277D01*
X-68510Y460196D01*
X-68612Y460113D01*
X-68712Y460026D01*
X-68808Y459937D01*
X-68903Y459845D01*
X-68994Y459750D01*
X-69082Y459652D01*
X-69168Y459552D01*
X-69250Y459449D01*
X-69330Y459344D01*
X-69406Y459237D01*
X-69479Y459127D01*
X-69549Y459015D01*
X-69615Y458901D01*
X-69678Y458786D01*
X-69738Y458668D01*
X-69794Y458549D01*
X-69846Y458428D01*
X-69895Y458306D01*
X-69941Y458182D01*
X-69982Y458057D01*
X-70020Y457931D01*
X-70054Y457804D01*
X-70084Y457676D01*
X-70111Y457546D01*
X-70134Y457417D01*
X-70152Y457286D01*
X-70167Y457155D01*
X-70178Y457024D01*
X-70186Y456893D01*
X-70189Y456761D01*
X-70188Y456629D01*
X-70184Y456498D01*
X-70175Y456366D01*
X-70163Y456235D01*
X-70147Y456104D01*
X-70126Y455974D01*
X-70103Y455844D01*
X-70075Y455716D01*
X-70043Y455588D01*
X-70008Y455461D01*
X-69969Y455335D01*
X-69926Y455211D01*
X-69879Y455087D01*
X-69829Y454965D01*
X-69776Y454845D01*
X-69718Y454726D01*
X-69658Y454610D01*
X-69593Y454495D01*
X-67966Y460567D02*
X-67836Y460640D01*
X-67704Y460710D01*
X-67569Y460776D01*
X-67433Y460838D01*
X-67296Y460898D01*
X-67157Y460953D01*
X-67017Y461005D01*
X-66875Y461053D01*
X-66732Y461097D01*
X-66588Y461138D01*
X-66443Y461175D01*
X-66297Y461207D01*
X-66150Y461237D01*
X-66003Y461262D01*
X-65855Y461283D01*
X-65706Y461301D01*
X-65557Y461315D01*
X-65408Y461324D01*
X-65258Y461330D01*
X-65109Y461332D01*
X-64959Y461330D01*
X-64810Y461324D01*
X-64660Y461314D01*
X-64511Y461300D01*
X-64363Y461283D01*
X-64215Y461261D01*
X-64067Y461236D01*
X-63921Y461207D01*
X-63775Y461173D01*
X-63630Y461137D01*
X-63486Y461096D01*
X-63343Y461051D01*
X-63201Y461003D01*
X-63061Y460951D01*
X-62922Y460896D01*
X-62784Y460837D01*
X-62649Y460774D01*
X-62514Y460708D01*
X-62382Y460638D01*
X-62252Y460565D01*
X-62123Y460488D01*
X-61997Y460408D01*
X-61872Y460325D01*
X-61750Y460238D01*
X-61630Y460149D01*
X-61513Y460056D01*
X-61398Y459960D01*
X-61286Y459861D01*
X-66582Y452242D02*
X-66711Y452275D01*
X-66839Y452312D01*
X-66966Y452352D01*
X-67092Y452396D01*
X-67217Y452443D01*
X-67340Y452494D01*
X-67462Y452548D01*
X-67582Y452606D01*
X-67700Y452667D01*
X-67817Y452731D01*
X-67932Y452799D01*
X-68045Y452869D01*
X-68156Y452943D01*
X-68265Y453020D01*
X-68372Y453100D01*
X-68476Y453183D01*
X-68579Y453268D01*
X-68678Y453357D01*
X-68775Y453448D01*
X-68870Y453542D01*
X-68962Y453638D01*
X-69051Y453737D01*
X-69137Y453839D01*
X-69221Y453943D01*
X-69302Y454049D01*
X-69379Y454157D01*
X-69454Y454268D01*
X-69525Y454380D01*
X-69593Y454495D01*
X-66582Y452241D02*
X-54371Y447885D01*
X-62926Y442946D01*
X-77096Y442749D02*
X-80059Y447882D01*
X-77096Y442749D02*
X-77867Y437171D01*
X-77096Y442749D02*
X-71879Y440628D01*
X-77096Y442749D02*
X-82788Y441744D01*
X-77096Y442749D02*
X-73379Y447176D01*
D11*
X-122340Y430864D02*
X-123314Y429177D01*
X-117693Y425932D01*
X-115745Y429305D01*
X-115746Y429305D02*
X-115698Y429392D01*
X-115653Y429481D01*
X-115612Y429571D01*
X-115574Y429663D01*
X-115540Y429757D01*
X-115509Y429851D01*
X-115482Y429947D01*
X-115459Y430044D01*
X-115439Y430141D01*
X-115424Y430240D01*
X-115412Y430338D01*
X-115403Y430437D01*
X-115399Y430537D01*
X-115398Y430636D01*
X-115401Y430736D01*
X-115408Y430835D01*
X-115419Y430934D01*
X-115434Y431032D01*
X-115452Y431130D01*
X-115474Y431227D01*
X-115500Y431323D01*
X-115529Y431418D01*
X-115562Y431512D01*
X-115599Y431604D01*
X-115639Y431695D01*
X-115682Y431785D01*
X-115729Y431872D01*
X-115780Y431958D01*
X-115833Y432042D01*
X-115890Y432124D01*
X-115950Y432203D01*
X-116012Y432280D01*
X-116078Y432355D01*
X-116147Y432427D01*
X-116218Y432496D01*
X-116292Y432563D01*
X-116368Y432627D01*
X-116447Y432688D01*
X-116528Y432745D01*
X-116611Y432800D01*
X-116696Y432851D01*
X-122317Y436097D01*
X-122317Y436096D02*
X-122404Y436144D01*
X-122493Y436189D01*
X-122583Y436230D01*
X-122675Y436268D01*
X-122769Y436302D01*
X-122863Y436333D01*
X-122959Y436360D01*
X-123056Y436383D01*
X-123153Y436403D01*
X-123252Y436418D01*
X-123350Y436430D01*
X-123449Y436439D01*
X-123549Y436443D01*
X-123648Y436444D01*
X-123748Y436441D01*
X-123847Y436434D01*
X-123946Y436423D01*
X-124044Y436408D01*
X-124142Y436390D01*
X-124239Y436368D01*
X-124335Y436342D01*
X-124430Y436313D01*
X-124524Y436280D01*
X-124616Y436243D01*
X-124707Y436203D01*
X-124796Y436160D01*
X-124884Y436113D01*
X-124970Y436062D01*
X-125054Y436009D01*
X-125135Y435952D01*
X-125215Y435892D01*
X-125292Y435830D01*
X-125367Y435764D01*
X-125439Y435695D01*
X-125508Y435624D01*
X-125575Y435550D01*
X-125639Y435474D01*
X-125699Y435395D01*
X-125757Y435314D01*
X-125812Y435231D01*
X-125863Y435146D01*
X-125864Y435147D02*
X-127811Y431774D01*
X-130662Y426837D02*
X-120543Y420995D01*
X-123789Y415373D02*
X-130662Y426837D01*
X-133907Y421215D02*
X-123789Y415373D01*
X-126639Y410436D02*
X-136758Y416278D01*
X-138380Y413467D01*
X-138381Y413468D02*
X-138436Y413369D01*
X-138487Y413268D01*
X-138535Y413165D01*
X-138580Y413061D01*
X-138620Y412955D01*
X-138657Y412848D01*
X-138690Y412740D01*
X-138720Y412630D01*
X-138745Y412520D01*
X-138767Y412409D01*
X-138784Y412297D01*
X-138798Y412184D01*
X-138808Y412071D01*
X-138814Y411958D01*
X-138816Y411845D01*
X-138814Y411732D01*
X-138808Y411619D01*
X-138798Y411506D01*
X-138784Y411393D01*
X-138767Y411281D01*
X-138745Y411170D01*
X-138720Y411060D01*
X-138690Y410950D01*
X-138657Y410842D01*
X-138620Y410735D01*
X-138580Y410629D01*
X-138535Y410525D01*
X-138487Y410422D01*
X-138436Y410321D01*
X-138381Y410222D01*
X-138323Y410125D01*
X-138261Y410030D01*
X-138196Y409937D01*
X-138128Y409847D01*
X-138057Y409759D01*
X-137982Y409673D01*
X-137905Y409590D01*
X-137825Y409510D01*
X-137742Y409433D01*
X-137656Y409358D01*
X-137568Y409287D01*
X-137478Y409219D01*
X-137385Y409154D01*
X-137290Y409092D01*
X-137193Y409034D01*
X-137192Y409034D02*
X-132695Y406437D01*
X-132696Y406437D02*
X-132597Y406382D01*
X-132496Y406331D01*
X-132393Y406283D01*
X-132289Y406238D01*
X-132183Y406198D01*
X-132076Y406161D01*
X-131968Y406128D01*
X-131858Y406098D01*
X-131748Y406073D01*
X-131637Y406051D01*
X-131525Y406034D01*
X-131412Y406020D01*
X-131299Y406010D01*
X-131186Y406004D01*
X-131073Y406002D01*
X-130960Y406004D01*
X-130847Y406010D01*
X-130734Y406020D01*
X-130621Y406034D01*
X-130509Y406051D01*
X-130398Y406073D01*
X-130288Y406098D01*
X-130178Y406128D01*
X-130070Y406161D01*
X-129963Y406198D01*
X-129857Y406238D01*
X-129753Y406283D01*
X-129650Y406331D01*
X-129549Y406382D01*
X-129450Y406437D01*
X-129353Y406495D01*
X-129258Y406557D01*
X-129165Y406622D01*
X-129075Y406690D01*
X-128986Y406761D01*
X-128901Y406836D01*
X-128818Y406913D01*
X-128738Y406993D01*
X-128661Y407076D01*
X-128586Y407162D01*
X-128515Y407250D01*
X-128447Y407340D01*
X-128382Y407433D01*
X-128320Y407528D01*
X-128262Y407625D01*
X-126639Y410436D01*
X9364Y495380D02*
X11311Y495380D01*
X9364Y495380D02*
X9364Y488889D01*
X13259Y488889D01*
X13259Y488890D02*
X13358Y488892D01*
X13458Y488898D01*
X13557Y488907D01*
X13655Y488920D01*
X13753Y488937D01*
X13851Y488958D01*
X13947Y488983D01*
X14042Y489011D01*
X14136Y489043D01*
X14229Y489078D01*
X14321Y489117D01*
X14411Y489160D01*
X14499Y489205D01*
X14586Y489255D01*
X14670Y489307D01*
X14753Y489363D01*
X14833Y489421D01*
X14911Y489483D01*
X14986Y489548D01*
X15059Y489616D01*
X15129Y489686D01*
X15197Y489759D01*
X15262Y489834D01*
X15324Y489912D01*
X15382Y489992D01*
X15438Y490075D01*
X15490Y490159D01*
X15540Y490246D01*
X15585Y490334D01*
X15628Y490424D01*
X15667Y490516D01*
X15702Y490609D01*
X15734Y490703D01*
X15762Y490798D01*
X15787Y490894D01*
X15808Y490992D01*
X15825Y491090D01*
X15838Y491188D01*
X15847Y491287D01*
X15853Y491387D01*
X15855Y491486D01*
X15855Y497977D01*
X15853Y498076D01*
X15847Y498176D01*
X15838Y498275D01*
X15825Y498373D01*
X15808Y498471D01*
X15787Y498569D01*
X15762Y498665D01*
X15734Y498760D01*
X15702Y498854D01*
X15667Y498947D01*
X15628Y499039D01*
X15585Y499129D01*
X15540Y499217D01*
X15490Y499304D01*
X15438Y499388D01*
X15382Y499471D01*
X15324Y499551D01*
X15262Y499629D01*
X15197Y499704D01*
X15129Y499777D01*
X15059Y499847D01*
X14986Y499915D01*
X14911Y499980D01*
X14833Y500042D01*
X14753Y500100D01*
X14670Y500156D01*
X14586Y500208D01*
X14499Y500258D01*
X14411Y500303D01*
X14321Y500346D01*
X14229Y500385D01*
X14136Y500420D01*
X14042Y500452D01*
X13947Y500480D01*
X13851Y500505D01*
X13753Y500526D01*
X13655Y500543D01*
X13557Y500556D01*
X13458Y500565D01*
X13358Y500571D01*
X13259Y500573D01*
X9364Y500573D01*
X3663Y500573D02*
X3663Y488889D01*
X-2828Y488889D02*
X3663Y500573D01*
X-2828Y500573D02*
X-2828Y488889D01*
X-8529Y488889D02*
X-8529Y500573D01*
X-11774Y500573D01*
X-11774Y500574D02*
X-11887Y500572D01*
X-12000Y500566D01*
X-12113Y500556D01*
X-12226Y500542D01*
X-12338Y500525D01*
X-12449Y500503D01*
X-12559Y500478D01*
X-12669Y500448D01*
X-12777Y500415D01*
X-12884Y500378D01*
X-12990Y500338D01*
X-13094Y500293D01*
X-13197Y500245D01*
X-13298Y500194D01*
X-13397Y500139D01*
X-13494Y500081D01*
X-13589Y500019D01*
X-13682Y499954D01*
X-13772Y499886D01*
X-13860Y499815D01*
X-13946Y499740D01*
X-14029Y499663D01*
X-14109Y499583D01*
X-14186Y499500D01*
X-14261Y499414D01*
X-14332Y499326D01*
X-14400Y499236D01*
X-14465Y499143D01*
X-14527Y499048D01*
X-14585Y498951D01*
X-14640Y498852D01*
X-14691Y498751D01*
X-14739Y498648D01*
X-14784Y498544D01*
X-14824Y498438D01*
X-14861Y498331D01*
X-14894Y498223D01*
X-14924Y498113D01*
X-14949Y498003D01*
X-14971Y497892D01*
X-14988Y497780D01*
X-15002Y497667D01*
X-15012Y497554D01*
X-15018Y497441D01*
X-15020Y497328D01*
X-15020Y492135D01*
X-15018Y492022D01*
X-15012Y491909D01*
X-15002Y491796D01*
X-14988Y491683D01*
X-14971Y491571D01*
X-14949Y491460D01*
X-14924Y491350D01*
X-14894Y491240D01*
X-14861Y491132D01*
X-14824Y491025D01*
X-14784Y490919D01*
X-14739Y490815D01*
X-14691Y490712D01*
X-14640Y490611D01*
X-14585Y490512D01*
X-14527Y490415D01*
X-14465Y490320D01*
X-14400Y490227D01*
X-14332Y490137D01*
X-14261Y490049D01*
X-14186Y489963D01*
X-14109Y489880D01*
X-14029Y489800D01*
X-13946Y489723D01*
X-13860Y489648D01*
X-13772Y489577D01*
X-13682Y489509D01*
X-13589Y489444D01*
X-13494Y489382D01*
X-13397Y489324D01*
X-13298Y489269D01*
X-13197Y489218D01*
X-13094Y489170D01*
X-12990Y489125D01*
X-12884Y489085D01*
X-12777Y489048D01*
X-12669Y489015D01*
X-12559Y488985D01*
X-12449Y488960D01*
X-12338Y488938D01*
X-12226Y488921D01*
X-12113Y488907D01*
X-12000Y488897D01*
X-11887Y488891D01*
X-11774Y488889D01*
X-8529Y488889D01*
X133398Y412094D02*
X134372Y410408D01*
X133398Y412094D02*
X127776Y408849D01*
X129724Y405476D01*
X129775Y405391D01*
X129830Y405308D01*
X129887Y405227D01*
X129948Y405148D01*
X130012Y405072D01*
X130079Y404998D01*
X130148Y404927D01*
X130220Y404858D01*
X130295Y404792D01*
X130372Y404730D01*
X130451Y404670D01*
X130533Y404613D01*
X130617Y404560D01*
X130703Y404509D01*
X130790Y404462D01*
X130880Y404419D01*
X130971Y404379D01*
X131063Y404342D01*
X131157Y404309D01*
X131252Y404280D01*
X131348Y404254D01*
X131445Y404232D01*
X131543Y404214D01*
X131641Y404199D01*
X131740Y404188D01*
X131839Y404181D01*
X131939Y404178D01*
X132038Y404179D01*
X132138Y404183D01*
X132237Y404192D01*
X132336Y404204D01*
X132434Y404219D01*
X132531Y404239D01*
X132628Y404262D01*
X132724Y404289D01*
X132818Y404320D01*
X132912Y404354D01*
X133004Y404392D01*
X133094Y404433D01*
X133183Y404478D01*
X133270Y404526D01*
X133271Y404525D02*
X138892Y407771D01*
X138892Y407772D02*
X138977Y407823D01*
X139060Y407878D01*
X139141Y407935D01*
X139220Y407996D01*
X139296Y408060D01*
X139370Y408127D01*
X139441Y408196D01*
X139510Y408268D01*
X139576Y408343D01*
X139638Y408420D01*
X139698Y408499D01*
X139755Y408581D01*
X139808Y408665D01*
X139859Y408751D01*
X139906Y408838D01*
X139949Y408928D01*
X139989Y409019D01*
X140026Y409111D01*
X140059Y409205D01*
X140088Y409300D01*
X140114Y409396D01*
X140136Y409493D01*
X140154Y409591D01*
X140169Y409689D01*
X140180Y409788D01*
X140187Y409887D01*
X140190Y409987D01*
X140189Y410086D01*
X140185Y410186D01*
X140176Y410285D01*
X140164Y410383D01*
X140149Y410482D01*
X140129Y410579D01*
X140106Y410676D01*
X140079Y410772D01*
X140048Y410866D01*
X140014Y410960D01*
X139976Y411052D01*
X139935Y411142D01*
X139890Y411231D01*
X139842Y411318D01*
X137895Y414691D01*
X135045Y419628D02*
X124926Y413786D01*
X121681Y419407D02*
X135045Y419628D01*
X131799Y425249D02*
X121681Y419407D01*
X118830Y424344D02*
X128949Y430186D01*
X127326Y432997D01*
X127268Y433094D01*
X127206Y433189D01*
X127141Y433282D01*
X127073Y433372D01*
X127002Y433460D01*
X126927Y433546D01*
X126850Y433629D01*
X126770Y433709D01*
X126687Y433786D01*
X126601Y433861D01*
X126513Y433932D01*
X126423Y434000D01*
X126330Y434065D01*
X126235Y434127D01*
X126138Y434185D01*
X126039Y434240D01*
X125938Y434291D01*
X125835Y434339D01*
X125731Y434384D01*
X125625Y434424D01*
X125518Y434461D01*
X125410Y434494D01*
X125300Y434524D01*
X125190Y434549D01*
X125079Y434571D01*
X124967Y434588D01*
X124854Y434602D01*
X124741Y434612D01*
X124628Y434618D01*
X124515Y434620D01*
X124402Y434618D01*
X124289Y434612D01*
X124176Y434602D01*
X124063Y434588D01*
X123951Y434571D01*
X123840Y434549D01*
X123730Y434524D01*
X123620Y434494D01*
X123512Y434461D01*
X123405Y434424D01*
X123299Y434384D01*
X123195Y434339D01*
X123092Y434291D01*
X122991Y434240D01*
X122892Y434185D01*
X118395Y431588D01*
X118395Y431589D02*
X118298Y431531D01*
X118203Y431469D01*
X118110Y431404D01*
X118020Y431336D01*
X117932Y431265D01*
X117846Y431190D01*
X117763Y431113D01*
X117683Y431033D01*
X117606Y430950D01*
X117531Y430864D01*
X117460Y430776D01*
X117392Y430686D01*
X117327Y430593D01*
X117265Y430498D01*
X117207Y430401D01*
X117152Y430302D01*
X117101Y430201D01*
X117053Y430098D01*
X117008Y429994D01*
X116968Y429888D01*
X116931Y429781D01*
X116898Y429673D01*
X116868Y429563D01*
X116843Y429453D01*
X116821Y429342D01*
X116804Y429230D01*
X116790Y429117D01*
X116780Y429004D01*
X116774Y428891D01*
X116772Y428778D01*
X116774Y428665D01*
X116780Y428552D01*
X116790Y428439D01*
X116804Y428326D01*
X116821Y428214D01*
X116843Y428103D01*
X116868Y427993D01*
X116898Y427883D01*
X116931Y427775D01*
X116968Y427668D01*
X117008Y427562D01*
X117053Y427458D01*
X117101Y427355D01*
X117152Y427254D01*
X117207Y427155D01*
X118830Y424344D01*
D10*
X-107296Y371065D02*
X-107296Y353285D01*
X-107296Y371065D02*
X-112235Y371065D01*
X-112375Y371063D01*
X-112514Y371057D01*
X-112654Y371047D01*
X-112793Y371033D01*
X-112932Y371016D01*
X-113070Y370994D01*
X-113207Y370968D01*
X-113344Y370939D01*
X-113480Y370906D01*
X-113614Y370869D01*
X-113748Y370828D01*
X-113880Y370783D01*
X-114012Y370734D01*
X-114141Y370682D01*
X-114269Y370627D01*
X-114396Y370567D01*
X-114521Y370504D01*
X-114644Y370438D01*
X-114765Y370368D01*
X-114884Y370295D01*
X-115001Y370218D01*
X-115115Y370138D01*
X-115228Y370055D01*
X-115338Y369969D01*
X-115445Y369879D01*
X-115550Y369787D01*
X-115652Y369692D01*
X-115752Y369594D01*
X-115849Y369493D01*
X-115943Y369389D01*
X-116033Y369283D01*
X-116121Y369174D01*
X-116206Y369063D01*
X-116287Y368949D01*
X-116366Y368834D01*
X-116441Y368716D01*
X-116512Y368596D01*
X-116580Y368473D01*
X-116645Y368350D01*
X-116706Y368224D01*
X-116764Y368096D01*
X-116818Y367968D01*
X-116868Y367837D01*
X-116915Y367705D01*
X-116958Y367572D01*
X-116997Y367438D01*
X-117032Y367303D01*
X-117063Y367167D01*
X-117091Y367029D01*
X-117114Y366892D01*
X-117134Y366753D01*
X-117150Y366614D01*
X-117162Y366475D01*
X-117170Y366336D01*
X-117174Y366196D01*
X-117174Y366056D01*
X-117170Y365916D01*
X-117162Y365777D01*
X-117150Y365638D01*
X-117134Y365499D01*
X-117114Y365360D01*
X-117091Y365223D01*
X-117063Y365085D01*
X-117032Y364949D01*
X-116997Y364814D01*
X-116958Y364680D01*
X-116915Y364547D01*
X-116868Y364415D01*
X-116818Y364284D01*
X-116764Y364156D01*
X-116706Y364028D01*
X-116645Y363902D01*
X-116580Y363779D01*
X-116512Y363657D01*
X-116441Y363536D01*
X-116366Y363418D01*
X-116287Y363303D01*
X-116206Y363189D01*
X-116121Y363078D01*
X-116033Y362969D01*
X-115943Y362863D01*
X-115849Y362759D01*
X-115752Y362658D01*
X-115652Y362560D01*
X-115550Y362465D01*
X-115445Y362373D01*
X-115338Y362283D01*
X-115228Y362197D01*
X-115115Y362114D01*
X-115001Y362034D01*
X-114884Y361957D01*
X-114765Y361884D01*
X-114644Y361814D01*
X-114521Y361748D01*
X-114396Y361685D01*
X-114269Y361625D01*
X-114141Y361570D01*
X-114012Y361518D01*
X-113880Y361469D01*
X-113748Y361424D01*
X-113614Y361383D01*
X-113480Y361346D01*
X-113344Y361313D01*
X-113207Y361284D01*
X-113070Y361258D01*
X-112932Y361236D01*
X-112793Y361219D01*
X-112654Y361205D01*
X-112514Y361195D01*
X-112375Y361189D01*
X-112235Y361187D01*
X-107296Y361187D01*
X-123291Y367114D02*
X-128230Y371065D01*
X-128230Y353285D01*
X-123291Y353285D02*
X-133169Y353285D01*
X138766Y359635D02*
X138766Y377415D01*
X133828Y377415D01*
X133688Y377413D01*
X133549Y377407D01*
X133409Y377397D01*
X133270Y377383D01*
X133131Y377366D01*
X132993Y377344D01*
X132856Y377318D01*
X132719Y377289D01*
X132583Y377256D01*
X132449Y377219D01*
X132315Y377178D01*
X132183Y377133D01*
X132051Y377084D01*
X131922Y377032D01*
X131794Y376977D01*
X131667Y376917D01*
X131542Y376854D01*
X131419Y376788D01*
X131298Y376718D01*
X131179Y376645D01*
X131062Y376568D01*
X130948Y376488D01*
X130835Y376405D01*
X130725Y376319D01*
X130618Y376229D01*
X130513Y376137D01*
X130411Y376042D01*
X130311Y375944D01*
X130214Y375843D01*
X130120Y375739D01*
X130030Y375633D01*
X129942Y375524D01*
X129857Y375413D01*
X129776Y375299D01*
X129697Y375184D01*
X129622Y375066D01*
X129551Y374946D01*
X129483Y374823D01*
X129418Y374700D01*
X129357Y374574D01*
X129299Y374446D01*
X129245Y374318D01*
X129195Y374187D01*
X129148Y374055D01*
X129105Y373922D01*
X129066Y373788D01*
X129031Y373653D01*
X129000Y373517D01*
X128972Y373379D01*
X128949Y373242D01*
X128929Y373103D01*
X128913Y372964D01*
X128901Y372825D01*
X128893Y372686D01*
X128889Y372546D01*
X128889Y372406D01*
X128893Y372266D01*
X128901Y372127D01*
X128913Y371988D01*
X128929Y371849D01*
X128949Y371710D01*
X128972Y371573D01*
X129000Y371435D01*
X129031Y371299D01*
X129066Y371164D01*
X129105Y371030D01*
X129148Y370897D01*
X129195Y370765D01*
X129245Y370634D01*
X129299Y370506D01*
X129357Y370378D01*
X129418Y370252D01*
X129483Y370129D01*
X129551Y370007D01*
X129622Y369886D01*
X129697Y369768D01*
X129776Y369653D01*
X129857Y369539D01*
X129942Y369428D01*
X130030Y369319D01*
X130120Y369213D01*
X130214Y369109D01*
X130311Y369008D01*
X130411Y368910D01*
X130513Y368815D01*
X130618Y368723D01*
X130725Y368633D01*
X130835Y368547D01*
X130948Y368464D01*
X131062Y368384D01*
X131179Y368307D01*
X131298Y368234D01*
X131419Y368164D01*
X131542Y368098D01*
X131667Y368035D01*
X131794Y367975D01*
X131922Y367920D01*
X132051Y367868D01*
X132183Y367819D01*
X132315Y367774D01*
X132449Y367733D01*
X132583Y367696D01*
X132719Y367663D01*
X132856Y367634D01*
X132993Y367608D01*
X133131Y367586D01*
X133270Y367569D01*
X133409Y367555D01*
X133549Y367545D01*
X133688Y367539D01*
X133828Y367537D01*
X138766Y367537D01*
X122771Y363586D02*
X118820Y377415D01*
X122771Y363586D02*
X112894Y363586D01*
X115857Y367537D02*
X115857Y359635D01*
D12*
X-81709Y391065D02*
X-83798Y391065D01*
X-81709Y391065D02*
X-81620Y391067D01*
X-81532Y391073D01*
X-81444Y391082D01*
X-81356Y391095D01*
X-81269Y391112D01*
X-81183Y391132D01*
X-81098Y391157D01*
X-81013Y391184D01*
X-80930Y391216D01*
X-80849Y391250D01*
X-80769Y391289D01*
X-80691Y391330D01*
X-80614Y391375D01*
X-80540Y391423D01*
X-80467Y391474D01*
X-80397Y391528D01*
X-80330Y391586D01*
X-80264Y391646D01*
X-80202Y391708D01*
X-80142Y391774D01*
X-80084Y391841D01*
X-80030Y391911D01*
X-79979Y391984D01*
X-79931Y392058D01*
X-79886Y392135D01*
X-79845Y392213D01*
X-79806Y392293D01*
X-79772Y392374D01*
X-79740Y392457D01*
X-79713Y392542D01*
X-79688Y392627D01*
X-79668Y392713D01*
X-79651Y392800D01*
X-79638Y392888D01*
X-79629Y392976D01*
X-79623Y393064D01*
X-79621Y393153D01*
X-79621Y398374D01*
X-79623Y398465D01*
X-79629Y398556D01*
X-79639Y398647D01*
X-79653Y398737D01*
X-79670Y398826D01*
X-79692Y398914D01*
X-79718Y399002D01*
X-79747Y399088D01*
X-79780Y399173D01*
X-79817Y399256D01*
X-79857Y399338D01*
X-79901Y399418D01*
X-79948Y399496D01*
X-79999Y399572D01*
X-80052Y399645D01*
X-80109Y399716D01*
X-80170Y399785D01*
X-80233Y399850D01*
X-80298Y399913D01*
X-80367Y399973D01*
X-80438Y400031D01*
X-80511Y400084D01*
X-80587Y400135D01*
X-80665Y400182D01*
X-80745Y400226D01*
X-80827Y400266D01*
X-80910Y400303D01*
X-80995Y400336D01*
X-81081Y400365D01*
X-81169Y400391D01*
X-81257Y400413D01*
X-81346Y400430D01*
X-81436Y400444D01*
X-81527Y400454D01*
X-81618Y400460D01*
X-81709Y400462D01*
X-81709Y400463D02*
X-83798Y400463D01*
X-90138Y400463D02*
X-90233Y400461D01*
X-90327Y400455D01*
X-90421Y400446D01*
X-90515Y400433D01*
X-90608Y400416D01*
X-90700Y400395D01*
X-90792Y400370D01*
X-90882Y400342D01*
X-90971Y400310D01*
X-91059Y400275D01*
X-91145Y400236D01*
X-91230Y400194D01*
X-91313Y400148D01*
X-91394Y400099D01*
X-91473Y400047D01*
X-91550Y399992D01*
X-91624Y399933D01*
X-91696Y399872D01*
X-91766Y399808D01*
X-91833Y399741D01*
X-91897Y399671D01*
X-91958Y399599D01*
X-92017Y399525D01*
X-92072Y399448D01*
X-92124Y399369D01*
X-92173Y399288D01*
X-92219Y399205D01*
X-92261Y399120D01*
X-92300Y399034D01*
X-92335Y398946D01*
X-92367Y398857D01*
X-92395Y398767D01*
X-92420Y398675D01*
X-92441Y398583D01*
X-92458Y398490D01*
X-92471Y398396D01*
X-92480Y398302D01*
X-92486Y398208D01*
X-92488Y398113D01*
X-90138Y400462D02*
X-90030Y400460D01*
X-89921Y400454D01*
X-89813Y400444D01*
X-89706Y400431D01*
X-89599Y400413D01*
X-89492Y400392D01*
X-89387Y400367D01*
X-89282Y400338D01*
X-89179Y400306D01*
X-89077Y400269D01*
X-88976Y400229D01*
X-88877Y400186D01*
X-88779Y400139D01*
X-88683Y400088D01*
X-88589Y400034D01*
X-88497Y399977D01*
X-88407Y399916D01*
X-88319Y399852D01*
X-88234Y399786D01*
X-88151Y399716D01*
X-88071Y399643D01*
X-87993Y399567D01*
X-87918Y399489D01*
X-87846Y399408D01*
X-87777Y399324D01*
X-87711Y399238D01*
X-87648Y399150D01*
X-87589Y399059D01*
X-87532Y398967D01*
X-87479Y398872D01*
X-87430Y398776D01*
X-87384Y398677D01*
X-87341Y398578D01*
X-87302Y398476D01*
X-87267Y398374D01*
X-91705Y396285D02*
X-91774Y396354D01*
X-91840Y396425D01*
X-91904Y396498D01*
X-91965Y396574D01*
X-92023Y396653D01*
X-92077Y396733D01*
X-92129Y396816D01*
X-92177Y396900D01*
X-92223Y396986D01*
X-92264Y397074D01*
X-92303Y397164D01*
X-92338Y397255D01*
X-92369Y397347D01*
X-92397Y397440D01*
X-92421Y397534D01*
X-92441Y397629D01*
X-92458Y397725D01*
X-92471Y397822D01*
X-92480Y397919D01*
X-92486Y398016D01*
X-92488Y398113D01*
X-91705Y396286D02*
X-87267Y391065D01*
X-92488Y391065D01*
D10*
X-44139Y375876D02*
X-44139Y355746D01*
D12*
X-85019Y359950D02*
X-87108Y359950D01*
X-85019Y359950D02*
X-84930Y359952D01*
X-84842Y359958D01*
X-84754Y359967D01*
X-84666Y359980D01*
X-84579Y359997D01*
X-84493Y360017D01*
X-84408Y360042D01*
X-84323Y360069D01*
X-84240Y360101D01*
X-84159Y360135D01*
X-84079Y360174D01*
X-84001Y360215D01*
X-83924Y360260D01*
X-83850Y360308D01*
X-83777Y360359D01*
X-83707Y360413D01*
X-83640Y360471D01*
X-83574Y360531D01*
X-83512Y360593D01*
X-83452Y360659D01*
X-83394Y360726D01*
X-83340Y360796D01*
X-83289Y360869D01*
X-83241Y360943D01*
X-83196Y361020D01*
X-83155Y361098D01*
X-83116Y361178D01*
X-83082Y361259D01*
X-83050Y361342D01*
X-83023Y361427D01*
X-82998Y361512D01*
X-82978Y361598D01*
X-82961Y361685D01*
X-82948Y361773D01*
X-82939Y361861D01*
X-82933Y361949D01*
X-82931Y362038D01*
X-82931Y367259D01*
X-82933Y367350D01*
X-82939Y367441D01*
X-82949Y367532D01*
X-82963Y367622D01*
X-82980Y367711D01*
X-83002Y367799D01*
X-83028Y367887D01*
X-83057Y367973D01*
X-83090Y368058D01*
X-83127Y368141D01*
X-83167Y368223D01*
X-83211Y368303D01*
X-83258Y368381D01*
X-83309Y368457D01*
X-83362Y368530D01*
X-83419Y368601D01*
X-83480Y368670D01*
X-83543Y368735D01*
X-83608Y368798D01*
X-83677Y368858D01*
X-83748Y368916D01*
X-83821Y368969D01*
X-83897Y369020D01*
X-83975Y369067D01*
X-84055Y369111D01*
X-84137Y369151D01*
X-84220Y369188D01*
X-84305Y369221D01*
X-84391Y369250D01*
X-84479Y369276D01*
X-84567Y369298D01*
X-84656Y369315D01*
X-84746Y369329D01*
X-84837Y369339D01*
X-84928Y369345D01*
X-85019Y369347D01*
X-85019Y369348D02*
X-87108Y369348D01*
X-90577Y359950D02*
X-93187Y359950D01*
X-93187Y359949D02*
X-93288Y359951D01*
X-93389Y359957D01*
X-93490Y359967D01*
X-93590Y359980D01*
X-93690Y359998D01*
X-93789Y360019D01*
X-93887Y360045D01*
X-93984Y360074D01*
X-94080Y360106D01*
X-94174Y360143D01*
X-94267Y360183D01*
X-94359Y360227D01*
X-94448Y360274D01*
X-94536Y360325D01*
X-94622Y360379D01*
X-94705Y360436D01*
X-94787Y360496D01*
X-94865Y360560D01*
X-94942Y360626D01*
X-95015Y360696D01*
X-95086Y360768D01*
X-95154Y360843D01*
X-95219Y360921D01*
X-95281Y361001D01*
X-95340Y361083D01*
X-95396Y361168D01*
X-95448Y361255D01*
X-95497Y361343D01*
X-95543Y361434D01*
X-95584Y361526D01*
X-95623Y361620D01*
X-95657Y361715D01*
X-95688Y361811D01*
X-95715Y361909D01*
X-95739Y362007D01*
X-95758Y362107D01*
X-95774Y362207D01*
X-95786Y362307D01*
X-95794Y362408D01*
X-95798Y362509D01*
X-95798Y362611D01*
X-95794Y362712D01*
X-95786Y362813D01*
X-95774Y362913D01*
X-95758Y363013D01*
X-95739Y363113D01*
X-95715Y363211D01*
X-95688Y363309D01*
X-95657Y363405D01*
X-95623Y363500D01*
X-95584Y363594D01*
X-95543Y363686D01*
X-95497Y363777D01*
X-95448Y363866D01*
X-95396Y363952D01*
X-95340Y364037D01*
X-95281Y364119D01*
X-95219Y364199D01*
X-95154Y364277D01*
X-95086Y364352D01*
X-95015Y364424D01*
X-94942Y364494D01*
X-94865Y364560D01*
X-94787Y364624D01*
X-94705Y364684D01*
X-94622Y364741D01*
X-94536Y364795D01*
X-94448Y364846D01*
X-94359Y364893D01*
X-94267Y364937D01*
X-94174Y364977D01*
X-94080Y365014D01*
X-93984Y365046D01*
X-93887Y365075D01*
X-93789Y365101D01*
X-93690Y365122D01*
X-93590Y365140D01*
X-93490Y365153D01*
X-93389Y365163D01*
X-93288Y365169D01*
X-93187Y365171D01*
X-93709Y369348D02*
X-90577Y369348D01*
X-93709Y369347D02*
X-93799Y369345D01*
X-93888Y369339D01*
X-93978Y369330D01*
X-94067Y369316D01*
X-94155Y369299D01*
X-94242Y369278D01*
X-94329Y369253D01*
X-94414Y369224D01*
X-94498Y369192D01*
X-94580Y369157D01*
X-94661Y369117D01*
X-94740Y369075D01*
X-94817Y369029D01*
X-94892Y368979D01*
X-94965Y368927D01*
X-95036Y368871D01*
X-95104Y368813D01*
X-95169Y368751D01*
X-95232Y368687D01*
X-95292Y368620D01*
X-95349Y368551D01*
X-95403Y368479D01*
X-95454Y368405D01*
X-95502Y368329D01*
X-95546Y368251D01*
X-95587Y368171D01*
X-95625Y368089D01*
X-95659Y368006D01*
X-95689Y367921D01*
X-95716Y367835D01*
X-95739Y367749D01*
X-95758Y367661D01*
X-95773Y367572D01*
X-95785Y367483D01*
X-95793Y367394D01*
X-95797Y367304D01*
X-95797Y367214D01*
X-95793Y367124D01*
X-95785Y367035D01*
X-95773Y366946D01*
X-95758Y366857D01*
X-95739Y366769D01*
X-95716Y366683D01*
X-95689Y366597D01*
X-95659Y366512D01*
X-95625Y366429D01*
X-95587Y366347D01*
X-95546Y366267D01*
X-95502Y366189D01*
X-95454Y366113D01*
X-95403Y366039D01*
X-95349Y365967D01*
X-95292Y365898D01*
X-95232Y365831D01*
X-95169Y365767D01*
X-95104Y365705D01*
X-95036Y365647D01*
X-94965Y365591D01*
X-94892Y365539D01*
X-94817Y365489D01*
X-94740Y365443D01*
X-94661Y365401D01*
X-94580Y365361D01*
X-94498Y365326D01*
X-94414Y365294D01*
X-94329Y365265D01*
X-94242Y365240D01*
X-94155Y365219D01*
X-94067Y365202D01*
X-93978Y365188D01*
X-93888Y365179D01*
X-93799Y365173D01*
X-93709Y365171D01*
X-91621Y365171D01*
X-90742Y416672D02*
X-90742Y418760D01*
X-90741Y416672D02*
X-90739Y416583D01*
X-90733Y416495D01*
X-90724Y416407D01*
X-90711Y416319D01*
X-90694Y416232D01*
X-90674Y416146D01*
X-90649Y416061D01*
X-90622Y415976D01*
X-90590Y415893D01*
X-90556Y415812D01*
X-90517Y415732D01*
X-90476Y415654D01*
X-90431Y415577D01*
X-90383Y415503D01*
X-90332Y415430D01*
X-90278Y415360D01*
X-90220Y415293D01*
X-90160Y415227D01*
X-90098Y415165D01*
X-90032Y415105D01*
X-89965Y415047D01*
X-89895Y414993D01*
X-89822Y414942D01*
X-89748Y414894D01*
X-89671Y414849D01*
X-89593Y414808D01*
X-89513Y414769D01*
X-89432Y414735D01*
X-89349Y414703D01*
X-89264Y414676D01*
X-89179Y414651D01*
X-89093Y414631D01*
X-89006Y414614D01*
X-88918Y414601D01*
X-88830Y414592D01*
X-88742Y414586D01*
X-88653Y414584D01*
X-88653Y414583D02*
X-83432Y414583D01*
X-83341Y414585D01*
X-83250Y414591D01*
X-83159Y414601D01*
X-83069Y414615D01*
X-82980Y414633D01*
X-82891Y414654D01*
X-82804Y414680D01*
X-82718Y414709D01*
X-82633Y414742D01*
X-82549Y414779D01*
X-82467Y414819D01*
X-82388Y414863D01*
X-82310Y414910D01*
X-82234Y414961D01*
X-82160Y415015D01*
X-82089Y415072D01*
X-82021Y415132D01*
X-81955Y415195D01*
X-81892Y415261D01*
X-81832Y415329D01*
X-81775Y415400D01*
X-81721Y415474D01*
X-81670Y415550D01*
X-81623Y415627D01*
X-81579Y415707D01*
X-81539Y415789D01*
X-81502Y415873D01*
X-81469Y415957D01*
X-81440Y416044D01*
X-81414Y416131D01*
X-81393Y416220D01*
X-81375Y416309D01*
X-81361Y416399D01*
X-81351Y416490D01*
X-81345Y416581D01*
X-81343Y416672D01*
X-81344Y416672D02*
X-81344Y418760D01*
X-83432Y422229D02*
X-81344Y424840D01*
X-90742Y424840D01*
X-90742Y427450D02*
X-90742Y422229D01*
X-85520Y377412D02*
X-83432Y377412D01*
X-83432Y377413D02*
X-83343Y377415D01*
X-83255Y377421D01*
X-83167Y377430D01*
X-83079Y377443D01*
X-82992Y377460D01*
X-82906Y377480D01*
X-82821Y377505D01*
X-82736Y377532D01*
X-82653Y377564D01*
X-82572Y377598D01*
X-82492Y377637D01*
X-82414Y377678D01*
X-82337Y377723D01*
X-82263Y377771D01*
X-82190Y377822D01*
X-82120Y377876D01*
X-82053Y377934D01*
X-81987Y377994D01*
X-81925Y378056D01*
X-81865Y378122D01*
X-81807Y378189D01*
X-81753Y378259D01*
X-81702Y378332D01*
X-81654Y378406D01*
X-81609Y378483D01*
X-81568Y378561D01*
X-81529Y378641D01*
X-81495Y378722D01*
X-81463Y378805D01*
X-81436Y378890D01*
X-81411Y378975D01*
X-81391Y379061D01*
X-81374Y379148D01*
X-81361Y379236D01*
X-81352Y379324D01*
X-81346Y379412D01*
X-81344Y379501D01*
X-81344Y384722D01*
X-81346Y384813D01*
X-81352Y384904D01*
X-81362Y384995D01*
X-81376Y385085D01*
X-81393Y385174D01*
X-81415Y385262D01*
X-81441Y385350D01*
X-81470Y385436D01*
X-81503Y385521D01*
X-81540Y385604D01*
X-81580Y385686D01*
X-81624Y385766D01*
X-81671Y385844D01*
X-81722Y385920D01*
X-81775Y385993D01*
X-81832Y386064D01*
X-81893Y386133D01*
X-81956Y386198D01*
X-82021Y386261D01*
X-82090Y386321D01*
X-82161Y386379D01*
X-82234Y386432D01*
X-82310Y386483D01*
X-82388Y386530D01*
X-82468Y386574D01*
X-82550Y386614D01*
X-82633Y386651D01*
X-82718Y386684D01*
X-82804Y386713D01*
X-82892Y386739D01*
X-82980Y386761D01*
X-83069Y386778D01*
X-83159Y386792D01*
X-83250Y386802D01*
X-83341Y386808D01*
X-83432Y386810D01*
X-85520Y386810D01*
X-91078Y386810D02*
X-88989Y379501D01*
X-94210Y379501D01*
X-92644Y381589D02*
X-92644Y377412D01*
D10*
X-44139Y359207D02*
X-44139Y339077D01*
D12*
X-85019Y344869D02*
X-87108Y344869D01*
X-85019Y344869D02*
X-84930Y344871D01*
X-84842Y344877D01*
X-84754Y344886D01*
X-84666Y344899D01*
X-84579Y344916D01*
X-84493Y344936D01*
X-84408Y344961D01*
X-84323Y344988D01*
X-84240Y345020D01*
X-84159Y345054D01*
X-84079Y345093D01*
X-84001Y345134D01*
X-83924Y345179D01*
X-83850Y345227D01*
X-83777Y345278D01*
X-83707Y345332D01*
X-83640Y345390D01*
X-83574Y345450D01*
X-83512Y345512D01*
X-83452Y345578D01*
X-83394Y345645D01*
X-83340Y345715D01*
X-83289Y345788D01*
X-83241Y345862D01*
X-83196Y345939D01*
X-83155Y346017D01*
X-83116Y346097D01*
X-83082Y346178D01*
X-83050Y346261D01*
X-83023Y346346D01*
X-82998Y346431D01*
X-82978Y346517D01*
X-82961Y346604D01*
X-82948Y346692D01*
X-82939Y346780D01*
X-82933Y346868D01*
X-82931Y346957D01*
X-82931Y352178D01*
X-82933Y352269D01*
X-82939Y352360D01*
X-82949Y352451D01*
X-82963Y352541D01*
X-82980Y352630D01*
X-83002Y352718D01*
X-83028Y352806D01*
X-83057Y352892D01*
X-83090Y352977D01*
X-83127Y353060D01*
X-83167Y353142D01*
X-83211Y353222D01*
X-83258Y353300D01*
X-83309Y353376D01*
X-83362Y353449D01*
X-83419Y353520D01*
X-83480Y353589D01*
X-83543Y353654D01*
X-83608Y353717D01*
X-83677Y353777D01*
X-83748Y353835D01*
X-83821Y353888D01*
X-83897Y353939D01*
X-83975Y353986D01*
X-84055Y354030D01*
X-84137Y354070D01*
X-84220Y354107D01*
X-84305Y354140D01*
X-84391Y354169D01*
X-84479Y354195D01*
X-84567Y354217D01*
X-84656Y354234D01*
X-84746Y354248D01*
X-84837Y354258D01*
X-84928Y354264D01*
X-85019Y354266D01*
X-85019Y354267D02*
X-87108Y354267D01*
X-90577Y344869D02*
X-93709Y344869D01*
X-93798Y344871D01*
X-93886Y344877D01*
X-93974Y344886D01*
X-94062Y344899D01*
X-94149Y344916D01*
X-94235Y344936D01*
X-94320Y344961D01*
X-94405Y344988D01*
X-94488Y345020D01*
X-94569Y345054D01*
X-94649Y345093D01*
X-94727Y345134D01*
X-94804Y345179D01*
X-94878Y345227D01*
X-94951Y345278D01*
X-95021Y345332D01*
X-95088Y345390D01*
X-95154Y345450D01*
X-95216Y345512D01*
X-95276Y345578D01*
X-95334Y345645D01*
X-95388Y345715D01*
X-95439Y345788D01*
X-95487Y345862D01*
X-95532Y345939D01*
X-95573Y346017D01*
X-95612Y346097D01*
X-95646Y346178D01*
X-95678Y346261D01*
X-95705Y346346D01*
X-95730Y346431D01*
X-95750Y346517D01*
X-95767Y346604D01*
X-95780Y346692D01*
X-95789Y346780D01*
X-95795Y346868D01*
X-95797Y346957D01*
X-95798Y346957D02*
X-95798Y348001D01*
X-95797Y348001D02*
X-95795Y348090D01*
X-95789Y348178D01*
X-95780Y348266D01*
X-95767Y348354D01*
X-95750Y348441D01*
X-95730Y348527D01*
X-95705Y348612D01*
X-95678Y348697D01*
X-95646Y348780D01*
X-95612Y348861D01*
X-95573Y348941D01*
X-95532Y349019D01*
X-95487Y349096D01*
X-95439Y349170D01*
X-95388Y349243D01*
X-95334Y349313D01*
X-95276Y349380D01*
X-95216Y349446D01*
X-95154Y349508D01*
X-95088Y349568D01*
X-95021Y349626D01*
X-94951Y349680D01*
X-94878Y349731D01*
X-94804Y349779D01*
X-94727Y349824D01*
X-94649Y349865D01*
X-94569Y349904D01*
X-94488Y349938D01*
X-94405Y349970D01*
X-94320Y349997D01*
X-94235Y350022D01*
X-94149Y350042D01*
X-94062Y350059D01*
X-93974Y350072D01*
X-93886Y350081D01*
X-93798Y350087D01*
X-93709Y350089D01*
X-93709Y350090D02*
X-90577Y350090D01*
X-90577Y354267D01*
X-95798Y354267D01*
X75152Y415084D02*
X75152Y417173D01*
X75153Y415084D02*
X75155Y414995D01*
X75161Y414907D01*
X75170Y414819D01*
X75183Y414731D01*
X75200Y414644D01*
X75220Y414558D01*
X75245Y414473D01*
X75272Y414388D01*
X75304Y414305D01*
X75338Y414224D01*
X75377Y414144D01*
X75418Y414066D01*
X75463Y413989D01*
X75511Y413915D01*
X75562Y413842D01*
X75616Y413772D01*
X75674Y413705D01*
X75734Y413639D01*
X75796Y413577D01*
X75862Y413517D01*
X75929Y413459D01*
X75999Y413405D01*
X76072Y413354D01*
X76146Y413306D01*
X76223Y413261D01*
X76301Y413220D01*
X76381Y413181D01*
X76462Y413147D01*
X76545Y413115D01*
X76630Y413088D01*
X76715Y413063D01*
X76801Y413043D01*
X76888Y413026D01*
X76976Y413013D01*
X77064Y413004D01*
X77152Y412998D01*
X77241Y412996D01*
X82462Y412996D01*
X82553Y412998D01*
X82644Y413004D01*
X82735Y413014D01*
X82825Y413028D01*
X82914Y413045D01*
X83002Y413067D01*
X83090Y413093D01*
X83176Y413122D01*
X83261Y413155D01*
X83344Y413192D01*
X83426Y413232D01*
X83506Y413276D01*
X83584Y413323D01*
X83660Y413374D01*
X83733Y413427D01*
X83804Y413484D01*
X83873Y413545D01*
X83938Y413608D01*
X84001Y413673D01*
X84061Y413742D01*
X84119Y413813D01*
X84172Y413886D01*
X84223Y413962D01*
X84270Y414040D01*
X84314Y414120D01*
X84354Y414202D01*
X84391Y414285D01*
X84424Y414370D01*
X84453Y414456D01*
X84479Y414544D01*
X84501Y414632D01*
X84518Y414721D01*
X84532Y414811D01*
X84542Y414902D01*
X84548Y414993D01*
X84550Y415084D01*
X84550Y417173D01*
X80373Y420642D02*
X80373Y423774D01*
X80371Y423863D01*
X80365Y423951D01*
X80356Y424039D01*
X80343Y424127D01*
X80326Y424214D01*
X80306Y424300D01*
X80281Y424385D01*
X80254Y424470D01*
X80222Y424553D01*
X80188Y424634D01*
X80149Y424714D01*
X80108Y424792D01*
X80063Y424869D01*
X80015Y424943D01*
X79964Y425016D01*
X79910Y425086D01*
X79852Y425153D01*
X79792Y425219D01*
X79730Y425281D01*
X79664Y425341D01*
X79597Y425399D01*
X79527Y425453D01*
X79454Y425504D01*
X79380Y425552D01*
X79303Y425597D01*
X79225Y425638D01*
X79145Y425677D01*
X79064Y425711D01*
X78981Y425743D01*
X78896Y425770D01*
X78811Y425795D01*
X78725Y425815D01*
X78638Y425832D01*
X78550Y425845D01*
X78462Y425854D01*
X78374Y425860D01*
X78285Y425862D01*
X78285Y425863D02*
X77763Y425863D01*
X77662Y425861D01*
X77561Y425855D01*
X77460Y425845D01*
X77360Y425832D01*
X77260Y425814D01*
X77161Y425793D01*
X77063Y425767D01*
X76966Y425738D01*
X76870Y425706D01*
X76776Y425669D01*
X76683Y425629D01*
X76591Y425585D01*
X76502Y425538D01*
X76414Y425487D01*
X76328Y425433D01*
X76245Y425376D01*
X76163Y425316D01*
X76085Y425252D01*
X76008Y425186D01*
X75935Y425116D01*
X75864Y425044D01*
X75796Y424969D01*
X75731Y424891D01*
X75669Y424811D01*
X75610Y424729D01*
X75554Y424644D01*
X75502Y424558D01*
X75453Y424469D01*
X75407Y424378D01*
X75366Y424286D01*
X75327Y424192D01*
X75293Y424097D01*
X75262Y424001D01*
X75235Y423903D01*
X75211Y423805D01*
X75192Y423705D01*
X75176Y423605D01*
X75164Y423505D01*
X75156Y423404D01*
X75152Y423303D01*
X75152Y423201D01*
X75156Y423100D01*
X75164Y422999D01*
X75176Y422899D01*
X75192Y422799D01*
X75211Y422699D01*
X75235Y422601D01*
X75262Y422503D01*
X75293Y422407D01*
X75327Y422312D01*
X75366Y422218D01*
X75407Y422126D01*
X75453Y422035D01*
X75502Y421947D01*
X75554Y421860D01*
X75610Y421775D01*
X75669Y421693D01*
X75731Y421613D01*
X75796Y421535D01*
X75864Y421460D01*
X75935Y421388D01*
X76008Y421318D01*
X76085Y421252D01*
X76163Y421188D01*
X76245Y421128D01*
X76328Y421071D01*
X76414Y421017D01*
X76502Y420966D01*
X76591Y420919D01*
X76683Y420875D01*
X76776Y420835D01*
X76870Y420798D01*
X76966Y420766D01*
X77063Y420737D01*
X77161Y420711D01*
X77260Y420690D01*
X77360Y420672D01*
X77460Y420659D01*
X77561Y420649D01*
X77662Y420643D01*
X77763Y420641D01*
X77763Y420642D02*
X80373Y420642D01*
X80502Y420644D01*
X80630Y420650D01*
X80758Y420660D01*
X80886Y420674D01*
X81014Y420691D01*
X81141Y420713D01*
X81267Y420739D01*
X81392Y420768D01*
X81516Y420801D01*
X81639Y420839D01*
X81761Y420879D01*
X81882Y420924D01*
X82001Y420972D01*
X82119Y421024D01*
X82235Y421080D01*
X82349Y421139D01*
X82461Y421202D01*
X82572Y421268D01*
X82680Y421337D01*
X82786Y421410D01*
X82890Y421486D01*
X82992Y421565D01*
X83091Y421647D01*
X83187Y421732D01*
X83281Y421820D01*
X83372Y421911D01*
X83460Y422005D01*
X83545Y422101D01*
X83627Y422200D01*
X83706Y422302D01*
X83782Y422406D01*
X83855Y422512D01*
X83924Y422620D01*
X83990Y422730D01*
X84053Y422843D01*
X84112Y422957D01*
X84168Y423073D01*
X84220Y423191D01*
X84268Y423310D01*
X84313Y423431D01*
X84353Y423553D01*
X84391Y423676D01*
X84424Y423800D01*
X84453Y423925D01*
X84479Y424051D01*
X84501Y424178D01*
X84518Y424306D01*
X84532Y424434D01*
X84542Y424562D01*
X84548Y424690D01*
X84550Y424819D01*
D10*
X75044Y398151D02*
X54915Y398151D01*
D12*
X90869Y414426D02*
X90869Y416514D01*
X90869Y414426D02*
X90871Y414337D01*
X90877Y414249D01*
X90886Y414161D01*
X90899Y414073D01*
X90916Y413986D01*
X90936Y413900D01*
X90961Y413815D01*
X90988Y413730D01*
X91020Y413647D01*
X91054Y413566D01*
X91093Y413486D01*
X91134Y413408D01*
X91179Y413331D01*
X91227Y413257D01*
X91278Y413184D01*
X91332Y413114D01*
X91390Y413047D01*
X91450Y412981D01*
X91512Y412919D01*
X91578Y412859D01*
X91645Y412801D01*
X91715Y412747D01*
X91788Y412696D01*
X91862Y412648D01*
X91939Y412603D01*
X92017Y412562D01*
X92097Y412523D01*
X92178Y412489D01*
X92261Y412457D01*
X92346Y412430D01*
X92431Y412405D01*
X92517Y412385D01*
X92604Y412368D01*
X92692Y412355D01*
X92780Y412346D01*
X92868Y412340D01*
X92957Y412338D01*
X92957Y412337D02*
X98178Y412337D01*
X98178Y412338D02*
X98269Y412340D01*
X98360Y412346D01*
X98451Y412356D01*
X98541Y412370D01*
X98630Y412387D01*
X98718Y412409D01*
X98806Y412435D01*
X98892Y412464D01*
X98977Y412497D01*
X99060Y412534D01*
X99142Y412574D01*
X99222Y412618D01*
X99300Y412665D01*
X99376Y412716D01*
X99449Y412769D01*
X99520Y412826D01*
X99589Y412887D01*
X99654Y412950D01*
X99717Y413015D01*
X99777Y413084D01*
X99835Y413155D01*
X99888Y413228D01*
X99939Y413304D01*
X99986Y413382D01*
X100030Y413462D01*
X100070Y413544D01*
X100107Y413627D01*
X100140Y413712D01*
X100169Y413798D01*
X100195Y413886D01*
X100217Y413974D01*
X100234Y414063D01*
X100248Y414153D01*
X100258Y414244D01*
X100264Y414335D01*
X100266Y414426D01*
X100267Y414426D02*
X100267Y416514D01*
X100267Y419983D02*
X99222Y419983D01*
X100267Y419983D02*
X100267Y425204D01*
X90869Y422593D01*
X107569Y444087D02*
X107569Y453485D01*
X104958Y453485D01*
X104958Y453486D02*
X104857Y453484D01*
X104756Y453478D01*
X104655Y453468D01*
X104555Y453455D01*
X104455Y453437D01*
X104356Y453416D01*
X104258Y453390D01*
X104161Y453361D01*
X104065Y453329D01*
X103971Y453292D01*
X103878Y453252D01*
X103786Y453208D01*
X103697Y453161D01*
X103609Y453110D01*
X103523Y453056D01*
X103440Y452999D01*
X103358Y452939D01*
X103280Y452875D01*
X103203Y452809D01*
X103130Y452739D01*
X103059Y452667D01*
X102991Y452592D01*
X102926Y452514D01*
X102864Y452434D01*
X102805Y452352D01*
X102749Y452267D01*
X102697Y452181D01*
X102648Y452092D01*
X102602Y452001D01*
X102561Y451909D01*
X102522Y451815D01*
X102488Y451720D01*
X102457Y451624D01*
X102430Y451526D01*
X102406Y451428D01*
X102387Y451328D01*
X102371Y451228D01*
X102359Y451128D01*
X102351Y451027D01*
X102347Y450926D01*
X102347Y450824D01*
X102351Y450723D01*
X102359Y450622D01*
X102371Y450522D01*
X102387Y450422D01*
X102406Y450322D01*
X102430Y450224D01*
X102457Y450126D01*
X102488Y450030D01*
X102522Y449935D01*
X102561Y449841D01*
X102602Y449749D01*
X102648Y449658D01*
X102697Y449570D01*
X102749Y449483D01*
X102805Y449398D01*
X102864Y449316D01*
X102926Y449236D01*
X102991Y449158D01*
X103059Y449083D01*
X103130Y449011D01*
X103203Y448941D01*
X103280Y448875D01*
X103358Y448811D01*
X103440Y448751D01*
X103523Y448694D01*
X103609Y448640D01*
X103697Y448589D01*
X103786Y448542D01*
X103878Y448498D01*
X103971Y448458D01*
X104065Y448421D01*
X104161Y448389D01*
X104258Y448360D01*
X104356Y448334D01*
X104455Y448313D01*
X104555Y448295D01*
X104655Y448282D01*
X104756Y448272D01*
X104857Y448266D01*
X104958Y448264D01*
X107569Y448264D01*
X104436Y448264D02*
X102348Y444087D01*
X93261Y451136D02*
X93263Y451231D01*
X93269Y451325D01*
X93278Y451419D01*
X93291Y451513D01*
X93308Y451606D01*
X93329Y451698D01*
X93354Y451790D01*
X93382Y451880D01*
X93414Y451969D01*
X93449Y452057D01*
X93488Y452143D01*
X93530Y452228D01*
X93576Y452311D01*
X93625Y452392D01*
X93677Y452471D01*
X93732Y452548D01*
X93791Y452622D01*
X93852Y452694D01*
X93916Y452764D01*
X93983Y452831D01*
X94053Y452895D01*
X94125Y452956D01*
X94199Y453015D01*
X94276Y453070D01*
X94355Y453122D01*
X94436Y453171D01*
X94519Y453217D01*
X94604Y453259D01*
X94690Y453298D01*
X94778Y453333D01*
X94867Y453365D01*
X94957Y453393D01*
X95049Y453418D01*
X95141Y453439D01*
X95234Y453456D01*
X95328Y453469D01*
X95422Y453478D01*
X95516Y453484D01*
X95611Y453486D01*
X95611Y453485D02*
X95719Y453483D01*
X95828Y453477D01*
X95936Y453467D01*
X96043Y453454D01*
X96150Y453436D01*
X96257Y453415D01*
X96362Y453390D01*
X96467Y453361D01*
X96570Y453329D01*
X96672Y453292D01*
X96773Y453252D01*
X96872Y453209D01*
X96970Y453162D01*
X97066Y453111D01*
X97160Y453057D01*
X97252Y453000D01*
X97342Y452939D01*
X97430Y452875D01*
X97515Y452809D01*
X97598Y452739D01*
X97678Y452666D01*
X97756Y452590D01*
X97831Y452512D01*
X97903Y452431D01*
X97972Y452347D01*
X98038Y452261D01*
X98101Y452173D01*
X98160Y452082D01*
X98217Y451990D01*
X98270Y451895D01*
X98319Y451798D01*
X98365Y451700D01*
X98408Y451601D01*
X98447Y451499D01*
X98482Y451397D01*
X94044Y449308D02*
X93975Y449377D01*
X93909Y449448D01*
X93845Y449521D01*
X93784Y449597D01*
X93726Y449676D01*
X93672Y449756D01*
X93620Y449839D01*
X93572Y449923D01*
X93526Y450009D01*
X93485Y450097D01*
X93446Y450187D01*
X93411Y450278D01*
X93380Y450370D01*
X93352Y450463D01*
X93328Y450557D01*
X93308Y450652D01*
X93291Y450748D01*
X93278Y450845D01*
X93269Y450942D01*
X93263Y451039D01*
X93261Y451136D01*
X94044Y449308D02*
X98482Y444087D01*
X93261Y444087D01*
X-14034Y290100D02*
X-23432Y290100D01*
X-14034Y290100D02*
X-14034Y292710D01*
X-14033Y292710D02*
X-14035Y292811D01*
X-14041Y292912D01*
X-14051Y293013D01*
X-14064Y293113D01*
X-14082Y293213D01*
X-14103Y293312D01*
X-14129Y293410D01*
X-14158Y293507D01*
X-14190Y293603D01*
X-14227Y293697D01*
X-14267Y293790D01*
X-14311Y293882D01*
X-14358Y293971D01*
X-14409Y294059D01*
X-14463Y294145D01*
X-14520Y294228D01*
X-14580Y294310D01*
X-14644Y294388D01*
X-14710Y294465D01*
X-14780Y294538D01*
X-14852Y294609D01*
X-14927Y294677D01*
X-15005Y294742D01*
X-15085Y294804D01*
X-15167Y294863D01*
X-15252Y294919D01*
X-15339Y294971D01*
X-15427Y295020D01*
X-15518Y295066D01*
X-15610Y295107D01*
X-15704Y295146D01*
X-15799Y295180D01*
X-15895Y295211D01*
X-15993Y295238D01*
X-16091Y295262D01*
X-16191Y295281D01*
X-16291Y295297D01*
X-16391Y295309D01*
X-16492Y295317D01*
X-16593Y295321D01*
X-16695Y295321D01*
X-16796Y295317D01*
X-16897Y295309D01*
X-16997Y295297D01*
X-17097Y295281D01*
X-17197Y295262D01*
X-17295Y295238D01*
X-17393Y295211D01*
X-17489Y295180D01*
X-17584Y295146D01*
X-17678Y295107D01*
X-17770Y295066D01*
X-17861Y295020D01*
X-17950Y294971D01*
X-18036Y294919D01*
X-18121Y294863D01*
X-18203Y294804D01*
X-18283Y294742D01*
X-18361Y294677D01*
X-18436Y294609D01*
X-18508Y294538D01*
X-18578Y294465D01*
X-18644Y294388D01*
X-18708Y294310D01*
X-18768Y294228D01*
X-18825Y294145D01*
X-18879Y294059D01*
X-18930Y293971D01*
X-18977Y293882D01*
X-19021Y293790D01*
X-19061Y293697D01*
X-19098Y293603D01*
X-19130Y293507D01*
X-19159Y293410D01*
X-19185Y293312D01*
X-19206Y293213D01*
X-19224Y293113D01*
X-19237Y293013D01*
X-19247Y292912D01*
X-19253Y292811D01*
X-19255Y292710D01*
X-19255Y290100D01*
X-19255Y293232D02*
X-23432Y295321D01*
X-16122Y299187D02*
X-14034Y301797D01*
X-23432Y301797D01*
X-23432Y299187D02*
X-23432Y304408D01*
X-23432Y308331D02*
X-23432Y310941D01*
X-23430Y311042D01*
X-23424Y311143D01*
X-23414Y311244D01*
X-23401Y311344D01*
X-23383Y311444D01*
X-23362Y311543D01*
X-23336Y311641D01*
X-23307Y311738D01*
X-23275Y311834D01*
X-23238Y311928D01*
X-23198Y312021D01*
X-23154Y312113D01*
X-23107Y312202D01*
X-23056Y312290D01*
X-23002Y312376D01*
X-22945Y312459D01*
X-22885Y312541D01*
X-22821Y312619D01*
X-22755Y312696D01*
X-22685Y312769D01*
X-22613Y312840D01*
X-22538Y312908D01*
X-22460Y312973D01*
X-22380Y313035D01*
X-22298Y313094D01*
X-22213Y313150D01*
X-22127Y313202D01*
X-22038Y313251D01*
X-21947Y313297D01*
X-21855Y313338D01*
X-21761Y313377D01*
X-21666Y313411D01*
X-21570Y313442D01*
X-21472Y313469D01*
X-21374Y313493D01*
X-21274Y313512D01*
X-21174Y313528D01*
X-21074Y313540D01*
X-20973Y313548D01*
X-20872Y313552D01*
X-20770Y313552D01*
X-20669Y313548D01*
X-20568Y313540D01*
X-20468Y313528D01*
X-20368Y313512D01*
X-20268Y313493D01*
X-20170Y313469D01*
X-20072Y313442D01*
X-19976Y313411D01*
X-19881Y313377D01*
X-19787Y313338D01*
X-19695Y313297D01*
X-19604Y313251D01*
X-19516Y313202D01*
X-19429Y313150D01*
X-19344Y313094D01*
X-19262Y313035D01*
X-19182Y312973D01*
X-19104Y312908D01*
X-19029Y312840D01*
X-18957Y312769D01*
X-18887Y312696D01*
X-18821Y312619D01*
X-18757Y312541D01*
X-18697Y312459D01*
X-18640Y312376D01*
X-18586Y312290D01*
X-18535Y312202D01*
X-18488Y312113D01*
X-18444Y312021D01*
X-18404Y311928D01*
X-18367Y311834D01*
X-18335Y311738D01*
X-18306Y311641D01*
X-18280Y311543D01*
X-18259Y311444D01*
X-18241Y311344D01*
X-18228Y311244D01*
X-18218Y311143D01*
X-18212Y311042D01*
X-18210Y310941D01*
X-14034Y311463D02*
X-14034Y308331D01*
X-14034Y311463D02*
X-14036Y311553D01*
X-14042Y311642D01*
X-14051Y311732D01*
X-14065Y311821D01*
X-14082Y311909D01*
X-14103Y311996D01*
X-14128Y312083D01*
X-14157Y312168D01*
X-14189Y312252D01*
X-14224Y312334D01*
X-14264Y312415D01*
X-14306Y312494D01*
X-14352Y312571D01*
X-14402Y312646D01*
X-14454Y312719D01*
X-14510Y312790D01*
X-14568Y312858D01*
X-14630Y312923D01*
X-14694Y312986D01*
X-14761Y313046D01*
X-14830Y313103D01*
X-14902Y313157D01*
X-14976Y313208D01*
X-15052Y313256D01*
X-15130Y313300D01*
X-15210Y313341D01*
X-15292Y313379D01*
X-15375Y313413D01*
X-15460Y313443D01*
X-15546Y313470D01*
X-15632Y313493D01*
X-15720Y313512D01*
X-15809Y313527D01*
X-15898Y313539D01*
X-15987Y313547D01*
X-16077Y313551D01*
X-16167Y313551D01*
X-16257Y313547D01*
X-16346Y313539D01*
X-16435Y313527D01*
X-16524Y313512D01*
X-16612Y313493D01*
X-16698Y313470D01*
X-16784Y313443D01*
X-16869Y313413D01*
X-16952Y313379D01*
X-17034Y313341D01*
X-17114Y313300D01*
X-17192Y313256D01*
X-17268Y313208D01*
X-17342Y313157D01*
X-17414Y313103D01*
X-17483Y313046D01*
X-17550Y312986D01*
X-17614Y312923D01*
X-17676Y312858D01*
X-17734Y312790D01*
X-17790Y312719D01*
X-17842Y312646D01*
X-17892Y312571D01*
X-17938Y312494D01*
X-17980Y312415D01*
X-18020Y312334D01*
X-18055Y312252D01*
X-18087Y312168D01*
X-18116Y312083D01*
X-18141Y311996D01*
X-18162Y311909D01*
X-18179Y311821D01*
X-18193Y311732D01*
X-18202Y311642D01*
X-18208Y311553D01*
X-18210Y311463D01*
X-18210Y309375D01*
X8319Y290894D02*
X17717Y290894D01*
X17717Y293504D01*
X17715Y293605D01*
X17709Y293706D01*
X17699Y293807D01*
X17686Y293907D01*
X17668Y294007D01*
X17647Y294106D01*
X17621Y294204D01*
X17592Y294301D01*
X17560Y294397D01*
X17523Y294491D01*
X17483Y294584D01*
X17439Y294676D01*
X17392Y294765D01*
X17341Y294853D01*
X17287Y294939D01*
X17230Y295022D01*
X17170Y295104D01*
X17106Y295182D01*
X17040Y295259D01*
X16970Y295332D01*
X16898Y295403D01*
X16823Y295471D01*
X16745Y295536D01*
X16665Y295598D01*
X16583Y295657D01*
X16498Y295713D01*
X16412Y295765D01*
X16323Y295814D01*
X16232Y295860D01*
X16140Y295901D01*
X16046Y295940D01*
X15951Y295974D01*
X15855Y296005D01*
X15757Y296032D01*
X15659Y296056D01*
X15559Y296075D01*
X15459Y296091D01*
X15359Y296103D01*
X15258Y296111D01*
X15157Y296115D01*
X15055Y296115D01*
X14954Y296111D01*
X14853Y296103D01*
X14753Y296091D01*
X14653Y296075D01*
X14553Y296056D01*
X14455Y296032D01*
X14357Y296005D01*
X14261Y295974D01*
X14166Y295940D01*
X14072Y295901D01*
X13980Y295860D01*
X13889Y295814D01*
X13801Y295765D01*
X13714Y295713D01*
X13629Y295657D01*
X13547Y295598D01*
X13467Y295536D01*
X13389Y295471D01*
X13314Y295403D01*
X13242Y295332D01*
X13172Y295259D01*
X13106Y295182D01*
X13042Y295104D01*
X12982Y295022D01*
X12925Y294939D01*
X12871Y294853D01*
X12820Y294765D01*
X12773Y294676D01*
X12729Y294584D01*
X12689Y294491D01*
X12652Y294397D01*
X12620Y294301D01*
X12591Y294204D01*
X12565Y294106D01*
X12544Y294007D01*
X12526Y293907D01*
X12513Y293807D01*
X12503Y293706D01*
X12497Y293605D01*
X12495Y293504D01*
X12495Y290894D01*
X12495Y294026D02*
X8319Y296115D01*
X15628Y299980D02*
X17717Y302591D01*
X8319Y302591D01*
X8319Y299980D02*
X8319Y305202D01*
X8319Y309124D02*
X8319Y312257D01*
X8321Y312346D01*
X8327Y312434D01*
X8336Y312522D01*
X8349Y312610D01*
X8366Y312697D01*
X8386Y312783D01*
X8411Y312868D01*
X8438Y312953D01*
X8470Y313036D01*
X8504Y313117D01*
X8543Y313197D01*
X8584Y313275D01*
X8629Y313352D01*
X8677Y313426D01*
X8728Y313499D01*
X8782Y313569D01*
X8840Y313636D01*
X8900Y313702D01*
X8962Y313764D01*
X9028Y313824D01*
X9095Y313882D01*
X9165Y313936D01*
X9238Y313987D01*
X9312Y314035D01*
X9389Y314080D01*
X9467Y314121D01*
X9547Y314160D01*
X9628Y314194D01*
X9711Y314226D01*
X9796Y314253D01*
X9881Y314278D01*
X9967Y314298D01*
X10054Y314315D01*
X10142Y314328D01*
X10230Y314337D01*
X10318Y314343D01*
X10407Y314345D01*
X11451Y314345D01*
X11540Y314343D01*
X11628Y314337D01*
X11716Y314328D01*
X11804Y314315D01*
X11891Y314298D01*
X11977Y314278D01*
X12062Y314253D01*
X12147Y314226D01*
X12230Y314194D01*
X12311Y314160D01*
X12391Y314121D01*
X12469Y314080D01*
X12546Y314035D01*
X12620Y313987D01*
X12693Y313936D01*
X12763Y313882D01*
X12830Y313824D01*
X12896Y313764D01*
X12958Y313702D01*
X13018Y313636D01*
X13076Y313569D01*
X13130Y313499D01*
X13181Y313426D01*
X13229Y313352D01*
X13274Y313275D01*
X13315Y313197D01*
X13354Y313117D01*
X13388Y313036D01*
X13420Y312953D01*
X13447Y312868D01*
X13472Y312783D01*
X13492Y312697D01*
X13509Y312610D01*
X13522Y312522D01*
X13531Y312434D01*
X13537Y312346D01*
X13539Y312257D01*
X13540Y312257D02*
X13540Y309124D01*
X17717Y309124D01*
X17717Y314345D01*
X101981Y357569D02*
X111379Y357569D01*
X111379Y360179D01*
X111377Y360280D01*
X111371Y360381D01*
X111361Y360482D01*
X111348Y360582D01*
X111330Y360682D01*
X111309Y360781D01*
X111283Y360879D01*
X111254Y360976D01*
X111222Y361072D01*
X111185Y361166D01*
X111145Y361259D01*
X111101Y361351D01*
X111054Y361440D01*
X111003Y361528D01*
X110949Y361614D01*
X110892Y361697D01*
X110832Y361779D01*
X110768Y361857D01*
X110702Y361934D01*
X110632Y362007D01*
X110560Y362078D01*
X110485Y362146D01*
X110407Y362211D01*
X110327Y362273D01*
X110245Y362332D01*
X110160Y362388D01*
X110074Y362440D01*
X109985Y362489D01*
X109894Y362535D01*
X109802Y362576D01*
X109708Y362615D01*
X109613Y362649D01*
X109517Y362680D01*
X109419Y362707D01*
X109321Y362731D01*
X109221Y362750D01*
X109121Y362766D01*
X109021Y362778D01*
X108920Y362786D01*
X108819Y362790D01*
X108717Y362790D01*
X108616Y362786D01*
X108515Y362778D01*
X108415Y362766D01*
X108315Y362750D01*
X108215Y362731D01*
X108117Y362707D01*
X108019Y362680D01*
X107923Y362649D01*
X107828Y362615D01*
X107734Y362576D01*
X107642Y362535D01*
X107551Y362489D01*
X107463Y362440D01*
X107376Y362388D01*
X107291Y362332D01*
X107209Y362273D01*
X107129Y362211D01*
X107051Y362146D01*
X106976Y362078D01*
X106904Y362007D01*
X106834Y361934D01*
X106768Y361857D01*
X106704Y361779D01*
X106644Y361697D01*
X106587Y361614D01*
X106533Y361528D01*
X106482Y361440D01*
X106435Y361351D01*
X106391Y361259D01*
X106351Y361166D01*
X106314Y361072D01*
X106282Y360976D01*
X106253Y360879D01*
X106227Y360781D01*
X106206Y360682D01*
X106188Y360582D01*
X106175Y360482D01*
X106165Y360381D01*
X106159Y360280D01*
X106157Y360179D01*
X106158Y360179D02*
X106158Y357569D01*
X106158Y360701D02*
X101981Y362790D01*
X101981Y366655D02*
X101981Y369266D01*
X101983Y369367D01*
X101989Y369468D01*
X101999Y369569D01*
X102012Y369669D01*
X102030Y369769D01*
X102051Y369868D01*
X102077Y369966D01*
X102106Y370063D01*
X102138Y370159D01*
X102175Y370253D01*
X102215Y370346D01*
X102259Y370438D01*
X102306Y370527D01*
X102357Y370615D01*
X102411Y370701D01*
X102468Y370784D01*
X102528Y370866D01*
X102592Y370944D01*
X102658Y371021D01*
X102728Y371094D01*
X102800Y371165D01*
X102875Y371233D01*
X102953Y371298D01*
X103033Y371360D01*
X103115Y371419D01*
X103200Y371475D01*
X103287Y371527D01*
X103375Y371576D01*
X103466Y371622D01*
X103558Y371663D01*
X103652Y371702D01*
X103747Y371736D01*
X103843Y371767D01*
X103941Y371794D01*
X104039Y371818D01*
X104139Y371837D01*
X104239Y371853D01*
X104339Y371865D01*
X104440Y371873D01*
X104541Y371877D01*
X104643Y371877D01*
X104744Y371873D01*
X104845Y371865D01*
X104945Y371853D01*
X105045Y371837D01*
X105145Y371818D01*
X105243Y371794D01*
X105341Y371767D01*
X105437Y371736D01*
X105532Y371702D01*
X105626Y371663D01*
X105718Y371622D01*
X105809Y371576D01*
X105898Y371527D01*
X105984Y371475D01*
X106069Y371419D01*
X106151Y371360D01*
X106231Y371298D01*
X106309Y371233D01*
X106384Y371165D01*
X106456Y371094D01*
X106526Y371021D01*
X106592Y370944D01*
X106656Y370866D01*
X106716Y370784D01*
X106773Y370701D01*
X106827Y370615D01*
X106878Y370527D01*
X106925Y370438D01*
X106969Y370346D01*
X107009Y370253D01*
X107046Y370159D01*
X107078Y370063D01*
X107107Y369966D01*
X107133Y369868D01*
X107154Y369769D01*
X107172Y369669D01*
X107185Y369569D01*
X107195Y369468D01*
X107201Y369367D01*
X107203Y369266D01*
X111379Y369788D02*
X111379Y366655D01*
X111379Y369788D02*
X111377Y369878D01*
X111371Y369967D01*
X111362Y370057D01*
X111348Y370146D01*
X111331Y370234D01*
X111310Y370321D01*
X111285Y370408D01*
X111256Y370493D01*
X111224Y370577D01*
X111189Y370659D01*
X111149Y370740D01*
X111107Y370819D01*
X111061Y370896D01*
X111011Y370971D01*
X110959Y371044D01*
X110903Y371115D01*
X110845Y371183D01*
X110783Y371248D01*
X110719Y371311D01*
X110652Y371371D01*
X110583Y371428D01*
X110511Y371482D01*
X110437Y371533D01*
X110361Y371581D01*
X110283Y371625D01*
X110203Y371666D01*
X110121Y371704D01*
X110038Y371738D01*
X109953Y371768D01*
X109867Y371795D01*
X109781Y371818D01*
X109693Y371837D01*
X109604Y371852D01*
X109515Y371864D01*
X109426Y371872D01*
X109336Y371876D01*
X109246Y371876D01*
X109156Y371872D01*
X109067Y371864D01*
X108978Y371852D01*
X108889Y371837D01*
X108801Y371818D01*
X108715Y371795D01*
X108629Y371768D01*
X108544Y371738D01*
X108461Y371704D01*
X108379Y371666D01*
X108299Y371625D01*
X108221Y371581D01*
X108145Y371533D01*
X108071Y371482D01*
X107999Y371428D01*
X107930Y371371D01*
X107863Y371311D01*
X107799Y371248D01*
X107737Y371183D01*
X107679Y371115D01*
X107623Y371044D01*
X107571Y370971D01*
X107521Y370896D01*
X107475Y370819D01*
X107433Y370740D01*
X107393Y370659D01*
X107358Y370577D01*
X107326Y370493D01*
X107297Y370408D01*
X107272Y370321D01*
X107251Y370234D01*
X107234Y370146D01*
X107220Y370057D01*
X107211Y369967D01*
X107205Y369878D01*
X107203Y369788D01*
X107202Y369788D02*
X107202Y367700D01*
X50260Y346456D02*
X40862Y346456D01*
X50260Y346456D02*
X50260Y349067D01*
X50261Y349067D02*
X50259Y349168D01*
X50253Y349269D01*
X50243Y349370D01*
X50230Y349470D01*
X50212Y349570D01*
X50191Y349669D01*
X50165Y349767D01*
X50136Y349864D01*
X50104Y349960D01*
X50067Y350054D01*
X50027Y350147D01*
X49983Y350239D01*
X49936Y350328D01*
X49885Y350416D01*
X49831Y350502D01*
X49774Y350585D01*
X49714Y350667D01*
X49650Y350745D01*
X49584Y350822D01*
X49514Y350895D01*
X49442Y350966D01*
X49367Y351034D01*
X49289Y351099D01*
X49209Y351161D01*
X49127Y351220D01*
X49042Y351276D01*
X48956Y351328D01*
X48867Y351377D01*
X48776Y351423D01*
X48684Y351464D01*
X48590Y351503D01*
X48495Y351537D01*
X48399Y351568D01*
X48301Y351595D01*
X48203Y351619D01*
X48103Y351638D01*
X48003Y351654D01*
X47903Y351666D01*
X47802Y351674D01*
X47701Y351678D01*
X47599Y351678D01*
X47498Y351674D01*
X47397Y351666D01*
X47297Y351654D01*
X47197Y351638D01*
X47097Y351619D01*
X46999Y351595D01*
X46901Y351568D01*
X46805Y351537D01*
X46710Y351503D01*
X46616Y351464D01*
X46524Y351423D01*
X46433Y351377D01*
X46345Y351328D01*
X46258Y351276D01*
X46173Y351220D01*
X46091Y351161D01*
X46011Y351099D01*
X45933Y351034D01*
X45858Y350966D01*
X45786Y350895D01*
X45716Y350822D01*
X45650Y350745D01*
X45586Y350667D01*
X45526Y350585D01*
X45469Y350502D01*
X45415Y350416D01*
X45364Y350328D01*
X45317Y350239D01*
X45273Y350147D01*
X45233Y350054D01*
X45196Y349960D01*
X45164Y349864D01*
X45135Y349767D01*
X45109Y349669D01*
X45088Y349570D01*
X45070Y349470D01*
X45057Y349370D01*
X45047Y349269D01*
X45041Y349168D01*
X45039Y349067D01*
X45039Y346456D01*
X45039Y349589D02*
X40862Y351677D01*
X48172Y355543D02*
X50260Y358153D01*
X40862Y358153D01*
X40862Y355543D02*
X40862Y360764D01*
X47911Y369908D02*
X48006Y369906D01*
X48100Y369900D01*
X48194Y369891D01*
X48288Y369878D01*
X48381Y369861D01*
X48473Y369840D01*
X48565Y369815D01*
X48655Y369787D01*
X48744Y369755D01*
X48832Y369720D01*
X48918Y369681D01*
X49003Y369639D01*
X49086Y369593D01*
X49167Y369544D01*
X49246Y369492D01*
X49323Y369437D01*
X49397Y369378D01*
X49469Y369317D01*
X49539Y369253D01*
X49606Y369186D01*
X49670Y369116D01*
X49731Y369044D01*
X49790Y368970D01*
X49845Y368893D01*
X49897Y368814D01*
X49946Y368733D01*
X49992Y368650D01*
X50034Y368565D01*
X50073Y368479D01*
X50108Y368391D01*
X50140Y368302D01*
X50168Y368212D01*
X50193Y368120D01*
X50214Y368028D01*
X50231Y367935D01*
X50244Y367841D01*
X50253Y367747D01*
X50259Y367653D01*
X50261Y367558D01*
X50260Y367558D02*
X50258Y367450D01*
X50252Y367341D01*
X50242Y367233D01*
X50229Y367126D01*
X50211Y367019D01*
X50190Y366912D01*
X50165Y366807D01*
X50136Y366702D01*
X50104Y366599D01*
X50067Y366497D01*
X50027Y366396D01*
X49984Y366297D01*
X49937Y366199D01*
X49886Y366103D01*
X49832Y366009D01*
X49775Y365917D01*
X49714Y365827D01*
X49650Y365739D01*
X49584Y365654D01*
X49514Y365571D01*
X49441Y365491D01*
X49365Y365413D01*
X49287Y365338D01*
X49206Y365266D01*
X49122Y365197D01*
X49036Y365131D01*
X48948Y365068D01*
X48857Y365009D01*
X48765Y364952D01*
X48670Y364899D01*
X48574Y364850D01*
X48475Y364804D01*
X48376Y364761D01*
X48274Y364722D01*
X48172Y364687D01*
X46083Y369125D02*
X46152Y369194D01*
X46223Y369260D01*
X46296Y369324D01*
X46372Y369385D01*
X46451Y369443D01*
X46531Y369497D01*
X46614Y369549D01*
X46698Y369597D01*
X46784Y369643D01*
X46872Y369684D01*
X46962Y369723D01*
X47053Y369758D01*
X47145Y369789D01*
X47238Y369817D01*
X47332Y369841D01*
X47427Y369861D01*
X47523Y369878D01*
X47620Y369891D01*
X47717Y369900D01*
X47814Y369906D01*
X47911Y369908D01*
X46083Y369125D02*
X40862Y364687D01*
X40862Y369908D01*
X1048Y291687D02*
X-8350Y291687D01*
X1048Y291687D02*
X1048Y294298D01*
X1046Y294399D01*
X1040Y294500D01*
X1030Y294601D01*
X1017Y294701D01*
X999Y294801D01*
X978Y294900D01*
X952Y294998D01*
X923Y295095D01*
X891Y295191D01*
X854Y295285D01*
X814Y295378D01*
X770Y295470D01*
X723Y295559D01*
X672Y295647D01*
X618Y295733D01*
X561Y295816D01*
X501Y295898D01*
X437Y295976D01*
X371Y296053D01*
X301Y296126D01*
X229Y296197D01*
X154Y296265D01*
X76Y296330D01*
X-4Y296392D01*
X-86Y296451D01*
X-171Y296507D01*
X-257Y296559D01*
X-346Y296608D01*
X-437Y296654D01*
X-529Y296695D01*
X-623Y296734D01*
X-718Y296768D01*
X-814Y296799D01*
X-912Y296826D01*
X-1010Y296850D01*
X-1110Y296869D01*
X-1210Y296885D01*
X-1310Y296897D01*
X-1411Y296905D01*
X-1512Y296909D01*
X-1614Y296909D01*
X-1715Y296905D01*
X-1816Y296897D01*
X-1916Y296885D01*
X-2016Y296869D01*
X-2116Y296850D01*
X-2214Y296826D01*
X-2312Y296799D01*
X-2408Y296768D01*
X-2503Y296734D01*
X-2597Y296695D01*
X-2689Y296654D01*
X-2780Y296608D01*
X-2868Y296559D01*
X-2955Y296507D01*
X-3040Y296451D01*
X-3122Y296392D01*
X-3202Y296330D01*
X-3280Y296265D01*
X-3355Y296197D01*
X-3427Y296126D01*
X-3497Y296053D01*
X-3563Y295976D01*
X-3627Y295898D01*
X-3687Y295816D01*
X-3744Y295733D01*
X-3798Y295647D01*
X-3849Y295559D01*
X-3896Y295470D01*
X-3940Y295378D01*
X-3980Y295285D01*
X-4017Y295191D01*
X-4049Y295095D01*
X-4078Y294998D01*
X-4104Y294900D01*
X-4125Y294801D01*
X-4143Y294701D01*
X-4156Y294601D01*
X-4166Y294500D01*
X-4172Y294399D01*
X-4174Y294298D01*
X-4173Y294298D02*
X-4173Y291687D01*
X-4173Y294820D02*
X-8350Y296908D01*
X-1041Y300774D02*
X1048Y303385D01*
X-8350Y303385D01*
X-8350Y305995D02*
X-8350Y300774D01*
X-1041Y309918D02*
X1048Y312529D01*
X-8350Y312529D01*
X-8350Y315139D02*
X-8350Y309918D01*
X-29115Y298831D02*
X-38513Y298831D01*
X-29115Y298831D02*
X-29115Y301442D01*
X-29114Y301442D02*
X-29116Y301543D01*
X-29122Y301644D01*
X-29132Y301745D01*
X-29145Y301845D01*
X-29163Y301945D01*
X-29184Y302044D01*
X-29210Y302142D01*
X-29239Y302239D01*
X-29271Y302335D01*
X-29308Y302429D01*
X-29348Y302522D01*
X-29392Y302614D01*
X-29439Y302703D01*
X-29490Y302791D01*
X-29544Y302877D01*
X-29601Y302960D01*
X-29661Y303042D01*
X-29725Y303120D01*
X-29791Y303197D01*
X-29861Y303270D01*
X-29933Y303341D01*
X-30008Y303409D01*
X-30086Y303474D01*
X-30166Y303536D01*
X-30248Y303595D01*
X-30333Y303651D01*
X-30420Y303703D01*
X-30508Y303752D01*
X-30599Y303798D01*
X-30691Y303839D01*
X-30785Y303878D01*
X-30880Y303912D01*
X-30976Y303943D01*
X-31074Y303970D01*
X-31172Y303994D01*
X-31272Y304013D01*
X-31372Y304029D01*
X-31472Y304041D01*
X-31573Y304049D01*
X-31674Y304053D01*
X-31776Y304053D01*
X-31877Y304049D01*
X-31978Y304041D01*
X-32078Y304029D01*
X-32178Y304013D01*
X-32278Y303994D01*
X-32376Y303970D01*
X-32474Y303943D01*
X-32570Y303912D01*
X-32665Y303878D01*
X-32759Y303839D01*
X-32851Y303798D01*
X-32942Y303752D01*
X-33031Y303703D01*
X-33117Y303651D01*
X-33202Y303595D01*
X-33284Y303536D01*
X-33364Y303474D01*
X-33442Y303409D01*
X-33517Y303341D01*
X-33589Y303270D01*
X-33659Y303197D01*
X-33725Y303120D01*
X-33789Y303042D01*
X-33849Y302960D01*
X-33906Y302877D01*
X-33960Y302791D01*
X-34011Y302703D01*
X-34058Y302614D01*
X-34102Y302522D01*
X-34142Y302429D01*
X-34179Y302335D01*
X-34211Y302239D01*
X-34240Y302142D01*
X-34266Y302044D01*
X-34287Y301945D01*
X-34305Y301845D01*
X-34318Y301745D01*
X-34328Y301644D01*
X-34334Y301543D01*
X-34336Y301442D01*
X-34336Y298831D01*
X-34336Y301964D02*
X-38513Y304052D01*
X-38513Y307918D02*
X-38513Y311051D01*
X-38512Y311051D02*
X-38510Y311140D01*
X-38504Y311228D01*
X-38495Y311316D01*
X-38482Y311404D01*
X-38465Y311491D01*
X-38445Y311577D01*
X-38420Y311662D01*
X-38393Y311747D01*
X-38361Y311830D01*
X-38327Y311911D01*
X-38288Y311991D01*
X-38247Y312069D01*
X-38202Y312146D01*
X-38154Y312220D01*
X-38103Y312293D01*
X-38049Y312363D01*
X-37991Y312430D01*
X-37931Y312496D01*
X-37869Y312558D01*
X-37803Y312618D01*
X-37736Y312676D01*
X-37666Y312730D01*
X-37593Y312781D01*
X-37519Y312829D01*
X-37442Y312874D01*
X-37364Y312915D01*
X-37284Y312954D01*
X-37203Y312988D01*
X-37120Y313020D01*
X-37035Y313047D01*
X-36950Y313072D01*
X-36864Y313092D01*
X-36777Y313109D01*
X-36689Y313122D01*
X-36601Y313131D01*
X-36513Y313137D01*
X-36424Y313139D01*
X-35380Y313139D01*
X-35291Y313137D01*
X-35203Y313131D01*
X-35115Y313122D01*
X-35027Y313109D01*
X-34940Y313092D01*
X-34854Y313072D01*
X-34769Y313047D01*
X-34684Y313020D01*
X-34601Y312988D01*
X-34520Y312954D01*
X-34440Y312915D01*
X-34362Y312874D01*
X-34285Y312829D01*
X-34211Y312781D01*
X-34138Y312730D01*
X-34068Y312676D01*
X-34001Y312618D01*
X-33935Y312558D01*
X-33873Y312496D01*
X-33813Y312430D01*
X-33755Y312363D01*
X-33701Y312293D01*
X-33650Y312220D01*
X-33602Y312146D01*
X-33557Y312069D01*
X-33516Y311991D01*
X-33477Y311911D01*
X-33443Y311830D01*
X-33411Y311747D01*
X-33384Y311662D01*
X-33359Y311577D01*
X-33339Y311491D01*
X-33322Y311404D01*
X-33309Y311316D01*
X-33300Y311228D01*
X-33294Y311140D01*
X-33292Y311051D01*
X-33292Y307918D01*
X-29115Y307918D01*
X-29115Y313139D01*
X24194Y345662D02*
X33592Y345662D01*
X33592Y348273D01*
X33590Y348374D01*
X33584Y348475D01*
X33574Y348576D01*
X33561Y348676D01*
X33543Y348776D01*
X33522Y348875D01*
X33496Y348973D01*
X33467Y349070D01*
X33435Y349166D01*
X33398Y349260D01*
X33358Y349353D01*
X33314Y349445D01*
X33267Y349534D01*
X33216Y349622D01*
X33162Y349708D01*
X33105Y349791D01*
X33045Y349873D01*
X32981Y349951D01*
X32915Y350028D01*
X32845Y350101D01*
X32773Y350172D01*
X32698Y350240D01*
X32620Y350305D01*
X32540Y350367D01*
X32458Y350426D01*
X32373Y350482D01*
X32287Y350534D01*
X32198Y350583D01*
X32107Y350629D01*
X32015Y350670D01*
X31921Y350709D01*
X31826Y350743D01*
X31730Y350774D01*
X31632Y350801D01*
X31534Y350825D01*
X31434Y350844D01*
X31334Y350860D01*
X31234Y350872D01*
X31133Y350880D01*
X31032Y350884D01*
X30930Y350884D01*
X30829Y350880D01*
X30728Y350872D01*
X30628Y350860D01*
X30528Y350844D01*
X30428Y350825D01*
X30330Y350801D01*
X30232Y350774D01*
X30136Y350743D01*
X30041Y350709D01*
X29947Y350670D01*
X29855Y350629D01*
X29764Y350583D01*
X29676Y350534D01*
X29589Y350482D01*
X29504Y350426D01*
X29422Y350367D01*
X29342Y350305D01*
X29264Y350240D01*
X29189Y350172D01*
X29117Y350101D01*
X29047Y350028D01*
X28981Y349951D01*
X28917Y349873D01*
X28857Y349791D01*
X28800Y349708D01*
X28746Y349622D01*
X28695Y349534D01*
X28648Y349445D01*
X28604Y349353D01*
X28564Y349260D01*
X28527Y349166D01*
X28495Y349070D01*
X28466Y348973D01*
X28440Y348875D01*
X28419Y348776D01*
X28401Y348676D01*
X28388Y348576D01*
X28378Y348475D01*
X28372Y348374D01*
X28370Y348273D01*
X28370Y345662D01*
X28370Y348795D02*
X24194Y350883D01*
X31503Y354749D02*
X33592Y357360D01*
X24194Y357360D01*
X24194Y359970D02*
X24194Y354749D01*
X26282Y363893D02*
X33592Y365982D01*
X26282Y363893D02*
X26282Y369114D01*
X28370Y367548D02*
X24194Y367548D01*
X101981Y309150D02*
X111379Y309150D01*
X111379Y311760D01*
X111377Y311861D01*
X111371Y311962D01*
X111361Y312063D01*
X111348Y312163D01*
X111330Y312263D01*
X111309Y312362D01*
X111283Y312460D01*
X111254Y312557D01*
X111222Y312653D01*
X111185Y312747D01*
X111145Y312840D01*
X111101Y312932D01*
X111054Y313021D01*
X111003Y313109D01*
X110949Y313195D01*
X110892Y313278D01*
X110832Y313360D01*
X110768Y313438D01*
X110702Y313515D01*
X110632Y313588D01*
X110560Y313659D01*
X110485Y313727D01*
X110407Y313792D01*
X110327Y313854D01*
X110245Y313913D01*
X110160Y313969D01*
X110074Y314021D01*
X109985Y314070D01*
X109894Y314116D01*
X109802Y314157D01*
X109708Y314196D01*
X109613Y314230D01*
X109517Y314261D01*
X109419Y314288D01*
X109321Y314312D01*
X109221Y314331D01*
X109121Y314347D01*
X109021Y314359D01*
X108920Y314367D01*
X108819Y314371D01*
X108717Y314371D01*
X108616Y314367D01*
X108515Y314359D01*
X108415Y314347D01*
X108315Y314331D01*
X108215Y314312D01*
X108117Y314288D01*
X108019Y314261D01*
X107923Y314230D01*
X107828Y314196D01*
X107734Y314157D01*
X107642Y314116D01*
X107551Y314070D01*
X107463Y314021D01*
X107376Y313969D01*
X107291Y313913D01*
X107209Y313854D01*
X107129Y313792D01*
X107051Y313727D01*
X106976Y313659D01*
X106904Y313588D01*
X106834Y313515D01*
X106768Y313438D01*
X106704Y313360D01*
X106644Y313278D01*
X106587Y313195D01*
X106533Y313109D01*
X106482Y313021D01*
X106435Y312932D01*
X106391Y312840D01*
X106351Y312747D01*
X106314Y312653D01*
X106282Y312557D01*
X106253Y312460D01*
X106227Y312362D01*
X106206Y312263D01*
X106188Y312163D01*
X106175Y312063D01*
X106165Y311962D01*
X106159Y311861D01*
X106157Y311760D01*
X106158Y311760D02*
X106158Y309150D01*
X106158Y312282D02*
X101981Y314371D01*
X109291Y318237D02*
X111379Y320847D01*
X101981Y320847D01*
X101981Y318237D02*
X101981Y323458D01*
D10*
X-88741Y265906D02*
X-88741Y227806D01*
X-116681Y225266D02*
X-116781Y225268D01*
X-116880Y225274D01*
X-116980Y225284D01*
X-117078Y225297D01*
X-117177Y225315D01*
X-117274Y225336D01*
X-117370Y225361D01*
X-117466Y225390D01*
X-117560Y225423D01*
X-117653Y225459D01*
X-117744Y225499D01*
X-117834Y225543D01*
X-117922Y225590D01*
X-118008Y225640D01*
X-118092Y225694D01*
X-118174Y225751D01*
X-118253Y225811D01*
X-118331Y225875D01*
X-118405Y225941D01*
X-118477Y226010D01*
X-118546Y226082D01*
X-118612Y226156D01*
X-118676Y226234D01*
X-118736Y226313D01*
X-118793Y226395D01*
X-118847Y226479D01*
X-118897Y226565D01*
X-118944Y226653D01*
X-118988Y226743D01*
X-119028Y226834D01*
X-119064Y226927D01*
X-119097Y227021D01*
X-119126Y227117D01*
X-119151Y227213D01*
X-119172Y227310D01*
X-119190Y227409D01*
X-119203Y227507D01*
X-119213Y227607D01*
X-119219Y227706D01*
X-119221Y227806D01*
X-119221Y265906D02*
X-119219Y266006D01*
X-119213Y266105D01*
X-119203Y266205D01*
X-119190Y266303D01*
X-119172Y266402D01*
X-119151Y266499D01*
X-119126Y266595D01*
X-119097Y266691D01*
X-119064Y266785D01*
X-119028Y266878D01*
X-118988Y266969D01*
X-118944Y267059D01*
X-118897Y267147D01*
X-118847Y267233D01*
X-118793Y267317D01*
X-118736Y267399D01*
X-118676Y267478D01*
X-118612Y267556D01*
X-118546Y267630D01*
X-118477Y267702D01*
X-118405Y267771D01*
X-118331Y267837D01*
X-118253Y267901D01*
X-118174Y267961D01*
X-118092Y268018D01*
X-118008Y268072D01*
X-117922Y268122D01*
X-117834Y268169D01*
X-117744Y268213D01*
X-117653Y268253D01*
X-117560Y268289D01*
X-117466Y268322D01*
X-117370Y268351D01*
X-117274Y268376D01*
X-117177Y268397D01*
X-117078Y268415D01*
X-116980Y268428D01*
X-116880Y268438D01*
X-116781Y268444D01*
X-116681Y268446D01*
X-91281Y268446D02*
X-91181Y268444D01*
X-91082Y268438D01*
X-90982Y268428D01*
X-90884Y268415D01*
X-90785Y268397D01*
X-90688Y268376D01*
X-90592Y268351D01*
X-90496Y268322D01*
X-90402Y268289D01*
X-90309Y268253D01*
X-90218Y268213D01*
X-90128Y268169D01*
X-90040Y268122D01*
X-89954Y268072D01*
X-89870Y268018D01*
X-89788Y267961D01*
X-89709Y267901D01*
X-89631Y267837D01*
X-89557Y267771D01*
X-89485Y267702D01*
X-89416Y267630D01*
X-89350Y267556D01*
X-89286Y267478D01*
X-89226Y267399D01*
X-89169Y267317D01*
X-89115Y267233D01*
X-89065Y267147D01*
X-89018Y267059D01*
X-88974Y266969D01*
X-88934Y266878D01*
X-88898Y266785D01*
X-88865Y266691D01*
X-88836Y266595D01*
X-88811Y266499D01*
X-88790Y266402D01*
X-88772Y266303D01*
X-88759Y266205D01*
X-88749Y266105D01*
X-88743Y266006D01*
X-88741Y265906D01*
X-88741Y227806D02*
X-88743Y227706D01*
X-88749Y227607D01*
X-88759Y227507D01*
X-88772Y227409D01*
X-88790Y227310D01*
X-88811Y227213D01*
X-88836Y227117D01*
X-88865Y227021D01*
X-88898Y226927D01*
X-88934Y226834D01*
X-88974Y226743D01*
X-89018Y226653D01*
X-89065Y226565D01*
X-89115Y226479D01*
X-89169Y226395D01*
X-89226Y226313D01*
X-89286Y226234D01*
X-89350Y226156D01*
X-89416Y226082D01*
X-89485Y226010D01*
X-89557Y225941D01*
X-89631Y225875D01*
X-89709Y225811D01*
X-89788Y225751D01*
X-89870Y225694D01*
X-89954Y225640D01*
X-90040Y225590D01*
X-90128Y225543D01*
X-90218Y225499D01*
X-90309Y225459D01*
X-90402Y225423D01*
X-90496Y225390D01*
X-90592Y225361D01*
X-90688Y225336D01*
X-90785Y225315D01*
X-90884Y225297D01*
X-90982Y225284D01*
X-91082Y225274D01*
X-91181Y225268D01*
X-91281Y225266D01*
X-116681Y225266D01*
X-116681Y268446D02*
X-91281Y268446D01*
X-119221Y265906D02*
X-119221Y227806D01*
D13*
X-132080Y242411D02*
X-132180Y242409D01*
X-132279Y242403D01*
X-132379Y242393D01*
X-132477Y242380D01*
X-132576Y242362D01*
X-132673Y242341D01*
X-132769Y242316D01*
X-132865Y242287D01*
X-132959Y242254D01*
X-133052Y242218D01*
X-133143Y242178D01*
X-133233Y242134D01*
X-133321Y242087D01*
X-133407Y242037D01*
X-133491Y241983D01*
X-133573Y241926D01*
X-133652Y241866D01*
X-133730Y241802D01*
X-133804Y241736D01*
X-133876Y241667D01*
X-133945Y241595D01*
X-134011Y241521D01*
X-134075Y241443D01*
X-134135Y241364D01*
X-134192Y241282D01*
X-134246Y241198D01*
X-134296Y241112D01*
X-134343Y241024D01*
X-134387Y240934D01*
X-134427Y240843D01*
X-134463Y240750D01*
X-134496Y240656D01*
X-134525Y240560D01*
X-134550Y240464D01*
X-134571Y240367D01*
X-134589Y240268D01*
X-134602Y240170D01*
X-134612Y240070D01*
X-134618Y239971D01*
X-134620Y239871D01*
X-134618Y239730D01*
X-134613Y239589D01*
X-134603Y239448D01*
X-134590Y239307D01*
X-134574Y239167D01*
X-134553Y239027D01*
X-134529Y238888D01*
X-134501Y238749D01*
X-134470Y238612D01*
X-134435Y238475D01*
X-134397Y238339D01*
X-134355Y238204D01*
X-134309Y238071D01*
X-134260Y237938D01*
X-134207Y237807D01*
X-134151Y237678D01*
X-134092Y237549D01*
X-134029Y237423D01*
X-133963Y237298D01*
X-133894Y237175D01*
X-133821Y237054D01*
X-133745Y236935D01*
X-133666Y236817D01*
X-133585Y236702D01*
X-133500Y236590D01*
X-133412Y236479D01*
X-133321Y236371D01*
X-133228Y236265D01*
X-133131Y236162D01*
X-133032Y236061D01*
X-125730Y236379D02*
X-125630Y236381D01*
X-125531Y236387D01*
X-125431Y236397D01*
X-125333Y236410D01*
X-125234Y236428D01*
X-125137Y236449D01*
X-125041Y236474D01*
X-124945Y236503D01*
X-124851Y236536D01*
X-124758Y236572D01*
X-124667Y236612D01*
X-124577Y236656D01*
X-124489Y236703D01*
X-124403Y236753D01*
X-124319Y236807D01*
X-124237Y236864D01*
X-124158Y236924D01*
X-124080Y236988D01*
X-124006Y237054D01*
X-123934Y237123D01*
X-123865Y237195D01*
X-123799Y237269D01*
X-123735Y237347D01*
X-123675Y237426D01*
X-123618Y237508D01*
X-123564Y237592D01*
X-123514Y237678D01*
X-123467Y237766D01*
X-123423Y237856D01*
X-123383Y237947D01*
X-123347Y238040D01*
X-123314Y238134D01*
X-123285Y238230D01*
X-123260Y238326D01*
X-123239Y238423D01*
X-123221Y238522D01*
X-123208Y238620D01*
X-123198Y238720D01*
X-123192Y238819D01*
X-123190Y238919D01*
X-123192Y239052D01*
X-123197Y239185D01*
X-123207Y239318D01*
X-123220Y239451D01*
X-123237Y239583D01*
X-123257Y239715D01*
X-123281Y239846D01*
X-123309Y239976D01*
X-123340Y240106D01*
X-123375Y240234D01*
X-123414Y240362D01*
X-123456Y240488D01*
X-123502Y240613D01*
X-123551Y240737D01*
X-123603Y240860D01*
X-123659Y240981D01*
X-123719Y241100D01*
X-123781Y241218D01*
X-123847Y241333D01*
X-123916Y241447D01*
X-123989Y241559D01*
X-124064Y241669D01*
X-124143Y241777D01*
X-127953Y237648D02*
X-127901Y237564D01*
X-127846Y237481D01*
X-127787Y237401D01*
X-127726Y237323D01*
X-127662Y237248D01*
X-127594Y237175D01*
X-127524Y237104D01*
X-127452Y237037D01*
X-127377Y236972D01*
X-127299Y236910D01*
X-127219Y236851D01*
X-127137Y236795D01*
X-127053Y236743D01*
X-126967Y236694D01*
X-126879Y236648D01*
X-126789Y236605D01*
X-126698Y236566D01*
X-126605Y236531D01*
X-126511Y236499D01*
X-126416Y236471D01*
X-126320Y236446D01*
X-126223Y236426D01*
X-126125Y236408D01*
X-126027Y236395D01*
X-125928Y236386D01*
X-125829Y236380D01*
X-125730Y236378D01*
X-129857Y241142D02*
X-129909Y241226D01*
X-129964Y241309D01*
X-130023Y241389D01*
X-130084Y241467D01*
X-130148Y241542D01*
X-130216Y241615D01*
X-130286Y241686D01*
X-130358Y241753D01*
X-130433Y241818D01*
X-130511Y241880D01*
X-130591Y241939D01*
X-130673Y241995D01*
X-130757Y242047D01*
X-130843Y242096D01*
X-130931Y242142D01*
X-131021Y242185D01*
X-131112Y242224D01*
X-131205Y242259D01*
X-131299Y242291D01*
X-131394Y242319D01*
X-131490Y242344D01*
X-131587Y242364D01*
X-131685Y242382D01*
X-131783Y242395D01*
X-131882Y242404D01*
X-131981Y242410D01*
X-132080Y242412D01*
X-129858Y241141D02*
X-127953Y237649D01*
X-132080Y249703D02*
X-123190Y249703D01*
X-132080Y249703D02*
X-132180Y249701D01*
X-132279Y249695D01*
X-132379Y249685D01*
X-132477Y249672D01*
X-132576Y249654D01*
X-132673Y249633D01*
X-132769Y249608D01*
X-132865Y249579D01*
X-132959Y249546D01*
X-133052Y249510D01*
X-133143Y249470D01*
X-133233Y249426D01*
X-133321Y249379D01*
X-133407Y249329D01*
X-133491Y249275D01*
X-133573Y249218D01*
X-133652Y249158D01*
X-133730Y249094D01*
X-133804Y249028D01*
X-133876Y248959D01*
X-133945Y248887D01*
X-134011Y248813D01*
X-134075Y248735D01*
X-134135Y248656D01*
X-134192Y248574D01*
X-134246Y248490D01*
X-134296Y248404D01*
X-134343Y248316D01*
X-134387Y248226D01*
X-134427Y248135D01*
X-134463Y248042D01*
X-134496Y247948D01*
X-134525Y247852D01*
X-134550Y247756D01*
X-134571Y247659D01*
X-134589Y247560D01*
X-134602Y247462D01*
X-134612Y247362D01*
X-134618Y247263D01*
X-134620Y247163D01*
X-134620Y245893D01*
X-125730Y255111D02*
X-123190Y258286D01*
X-134620Y258286D01*
X-134620Y255111D02*
X-134620Y261461D01*
D10*
X116046Y265906D02*
X116046Y227806D01*
X88106Y225266D02*
X88006Y225268D01*
X87907Y225274D01*
X87807Y225284D01*
X87709Y225297D01*
X87610Y225315D01*
X87513Y225336D01*
X87417Y225361D01*
X87321Y225390D01*
X87227Y225423D01*
X87134Y225459D01*
X87043Y225499D01*
X86953Y225543D01*
X86865Y225590D01*
X86779Y225640D01*
X86695Y225694D01*
X86613Y225751D01*
X86534Y225811D01*
X86456Y225875D01*
X86382Y225941D01*
X86310Y226010D01*
X86241Y226082D01*
X86175Y226156D01*
X86111Y226234D01*
X86051Y226313D01*
X85994Y226395D01*
X85940Y226479D01*
X85890Y226565D01*
X85843Y226653D01*
X85799Y226743D01*
X85759Y226834D01*
X85723Y226927D01*
X85690Y227021D01*
X85661Y227117D01*
X85636Y227213D01*
X85615Y227310D01*
X85597Y227409D01*
X85584Y227507D01*
X85574Y227607D01*
X85568Y227706D01*
X85566Y227806D01*
X85566Y265906D02*
X85568Y266006D01*
X85574Y266105D01*
X85584Y266205D01*
X85597Y266303D01*
X85615Y266402D01*
X85636Y266499D01*
X85661Y266595D01*
X85690Y266691D01*
X85723Y266785D01*
X85759Y266878D01*
X85799Y266969D01*
X85843Y267059D01*
X85890Y267147D01*
X85940Y267233D01*
X85994Y267317D01*
X86051Y267399D01*
X86111Y267478D01*
X86175Y267556D01*
X86241Y267630D01*
X86310Y267702D01*
X86382Y267771D01*
X86456Y267837D01*
X86534Y267901D01*
X86613Y267961D01*
X86695Y268018D01*
X86779Y268072D01*
X86865Y268122D01*
X86953Y268169D01*
X87043Y268213D01*
X87134Y268253D01*
X87227Y268289D01*
X87321Y268322D01*
X87417Y268351D01*
X87513Y268376D01*
X87610Y268397D01*
X87709Y268415D01*
X87807Y268428D01*
X87907Y268438D01*
X88006Y268444D01*
X88106Y268446D01*
X113506Y268446D02*
X113606Y268444D01*
X113705Y268438D01*
X113805Y268428D01*
X113903Y268415D01*
X114002Y268397D01*
X114099Y268376D01*
X114195Y268351D01*
X114291Y268322D01*
X114385Y268289D01*
X114478Y268253D01*
X114569Y268213D01*
X114659Y268169D01*
X114747Y268122D01*
X114833Y268072D01*
X114917Y268018D01*
X114999Y267961D01*
X115078Y267901D01*
X115156Y267837D01*
X115230Y267771D01*
X115302Y267702D01*
X115371Y267630D01*
X115437Y267556D01*
X115501Y267478D01*
X115561Y267399D01*
X115618Y267317D01*
X115672Y267233D01*
X115722Y267147D01*
X115769Y267059D01*
X115813Y266969D01*
X115853Y266878D01*
X115889Y266785D01*
X115922Y266691D01*
X115951Y266595D01*
X115976Y266499D01*
X115997Y266402D01*
X116015Y266303D01*
X116028Y266205D01*
X116038Y266105D01*
X116044Y266006D01*
X116046Y265906D01*
X116046Y227806D02*
X116044Y227706D01*
X116038Y227607D01*
X116028Y227507D01*
X116015Y227409D01*
X115997Y227310D01*
X115976Y227213D01*
X115951Y227117D01*
X115922Y227021D01*
X115889Y226927D01*
X115853Y226834D01*
X115813Y226743D01*
X115769Y226653D01*
X115722Y226565D01*
X115672Y226479D01*
X115618Y226395D01*
X115561Y226313D01*
X115501Y226234D01*
X115437Y226156D01*
X115371Y226082D01*
X115302Y226010D01*
X115230Y225941D01*
X115156Y225875D01*
X115078Y225811D01*
X114999Y225751D01*
X114917Y225694D01*
X114833Y225640D01*
X114747Y225590D01*
X114659Y225543D01*
X114569Y225499D01*
X114478Y225459D01*
X114385Y225423D01*
X114291Y225390D01*
X114195Y225361D01*
X114099Y225336D01*
X114002Y225315D01*
X113903Y225297D01*
X113805Y225284D01*
X113705Y225274D01*
X113606Y225268D01*
X113506Y225266D01*
X88106Y225266D01*
X88106Y268446D02*
X113506Y268446D01*
X85566Y265906D02*
X85566Y227806D01*
D13*
X121603Y234474D02*
X121605Y234574D01*
X121611Y234673D01*
X121621Y234773D01*
X121634Y234871D01*
X121652Y234970D01*
X121673Y235067D01*
X121698Y235163D01*
X121727Y235259D01*
X121760Y235353D01*
X121796Y235446D01*
X121836Y235537D01*
X121880Y235627D01*
X121927Y235715D01*
X121977Y235801D01*
X122031Y235885D01*
X122088Y235967D01*
X122148Y236046D01*
X122212Y236124D01*
X122278Y236198D01*
X122347Y236270D01*
X122419Y236339D01*
X122493Y236405D01*
X122571Y236469D01*
X122650Y236529D01*
X122732Y236586D01*
X122816Y236640D01*
X122902Y236690D01*
X122990Y236737D01*
X123080Y236781D01*
X123171Y236821D01*
X123264Y236857D01*
X123358Y236890D01*
X123454Y236919D01*
X123550Y236944D01*
X123647Y236965D01*
X123746Y236983D01*
X123844Y236996D01*
X123944Y237006D01*
X124043Y237012D01*
X124143Y237014D01*
X121602Y234474D02*
X121604Y234333D01*
X121609Y234192D01*
X121619Y234051D01*
X121632Y233910D01*
X121648Y233770D01*
X121669Y233630D01*
X121693Y233491D01*
X121721Y233352D01*
X121752Y233215D01*
X121787Y233078D01*
X121825Y232942D01*
X121867Y232807D01*
X121913Y232674D01*
X121962Y232541D01*
X122015Y232410D01*
X122071Y232281D01*
X122130Y232152D01*
X122193Y232026D01*
X122259Y231901D01*
X122328Y231778D01*
X122401Y231657D01*
X122477Y231538D01*
X122556Y231420D01*
X122637Y231305D01*
X122722Y231193D01*
X122810Y231082D01*
X122901Y230974D01*
X122994Y230868D01*
X123091Y230765D01*
X123190Y230664D01*
X130493Y230981D02*
X130593Y230983D01*
X130692Y230989D01*
X130792Y230999D01*
X130890Y231012D01*
X130989Y231030D01*
X131086Y231051D01*
X131182Y231076D01*
X131278Y231105D01*
X131372Y231138D01*
X131465Y231174D01*
X131556Y231214D01*
X131646Y231258D01*
X131734Y231305D01*
X131820Y231355D01*
X131904Y231409D01*
X131986Y231466D01*
X132065Y231526D01*
X132143Y231590D01*
X132217Y231656D01*
X132289Y231725D01*
X132358Y231797D01*
X132424Y231871D01*
X132488Y231949D01*
X132548Y232028D01*
X132605Y232110D01*
X132659Y232194D01*
X132709Y232280D01*
X132756Y232368D01*
X132800Y232458D01*
X132840Y232549D01*
X132876Y232642D01*
X132909Y232736D01*
X132938Y232832D01*
X132963Y232928D01*
X132984Y233025D01*
X133002Y233124D01*
X133015Y233222D01*
X133025Y233322D01*
X133031Y233421D01*
X133033Y233521D01*
X133031Y233654D01*
X133026Y233787D01*
X133016Y233920D01*
X133003Y234053D01*
X132986Y234185D01*
X132966Y234317D01*
X132942Y234448D01*
X132914Y234578D01*
X132883Y234708D01*
X132848Y234836D01*
X132809Y234964D01*
X132767Y235090D01*
X132721Y235215D01*
X132672Y235339D01*
X132620Y235462D01*
X132564Y235583D01*
X132504Y235702D01*
X132442Y235820D01*
X132376Y235935D01*
X132307Y236049D01*
X132234Y236161D01*
X132159Y236271D01*
X132080Y236379D01*
X128270Y232251D02*
X128322Y232167D01*
X128377Y232084D01*
X128436Y232004D01*
X128497Y231926D01*
X128561Y231851D01*
X128629Y231778D01*
X128699Y231707D01*
X128771Y231640D01*
X128846Y231575D01*
X128924Y231513D01*
X129004Y231454D01*
X129086Y231398D01*
X129170Y231346D01*
X129256Y231297D01*
X129344Y231251D01*
X129434Y231208D01*
X129525Y231169D01*
X129618Y231134D01*
X129712Y231102D01*
X129807Y231074D01*
X129903Y231049D01*
X130000Y231029D01*
X130098Y231011D01*
X130196Y230998D01*
X130295Y230989D01*
X130394Y230983D01*
X130493Y230981D01*
X126366Y235744D02*
X126314Y235828D01*
X126259Y235911D01*
X126200Y235991D01*
X126139Y236069D01*
X126075Y236144D01*
X126007Y236217D01*
X125937Y236288D01*
X125865Y236355D01*
X125790Y236420D01*
X125712Y236482D01*
X125632Y236541D01*
X125550Y236597D01*
X125466Y236649D01*
X125380Y236698D01*
X125292Y236744D01*
X125202Y236787D01*
X125111Y236826D01*
X125018Y236861D01*
X124924Y236893D01*
X124829Y236921D01*
X124733Y236946D01*
X124636Y236966D01*
X124538Y236984D01*
X124440Y236997D01*
X124341Y237006D01*
X124242Y237012D01*
X124143Y237014D01*
X126365Y235744D02*
X128270Y232251D01*
X124143Y244305D02*
X133033Y244305D01*
X124143Y244305D02*
X124043Y244303D01*
X123944Y244297D01*
X123844Y244287D01*
X123746Y244274D01*
X123647Y244256D01*
X123550Y244235D01*
X123454Y244210D01*
X123358Y244181D01*
X123264Y244148D01*
X123171Y244112D01*
X123080Y244072D01*
X122990Y244028D01*
X122902Y243981D01*
X122816Y243931D01*
X122732Y243877D01*
X122650Y243820D01*
X122571Y243760D01*
X122493Y243696D01*
X122419Y243630D01*
X122347Y243561D01*
X122278Y243489D01*
X122212Y243415D01*
X122148Y243337D01*
X122088Y243258D01*
X122031Y243176D01*
X121977Y243092D01*
X121927Y243006D01*
X121880Y242918D01*
X121836Y242828D01*
X121796Y242737D01*
X121760Y242644D01*
X121727Y242550D01*
X121698Y242454D01*
X121673Y242358D01*
X121652Y242261D01*
X121634Y242162D01*
X121621Y242064D01*
X121611Y241964D01*
X121605Y241865D01*
X121603Y241765D01*
X121603Y240495D01*
X133033Y253206D02*
X133031Y253310D01*
X133025Y253415D01*
X133016Y253519D01*
X133003Y253622D01*
X132985Y253725D01*
X132965Y253827D01*
X132940Y253929D01*
X132912Y254029D01*
X132880Y254129D01*
X132844Y254227D01*
X132805Y254324D01*
X132763Y254419D01*
X132717Y254513D01*
X132667Y254605D01*
X132615Y254695D01*
X132559Y254783D01*
X132499Y254869D01*
X132437Y254953D01*
X132372Y255034D01*
X132304Y255113D01*
X132232Y255190D01*
X132159Y255263D01*
X132082Y255335D01*
X132003Y255403D01*
X131922Y255468D01*
X131838Y255530D01*
X131752Y255590D01*
X131664Y255646D01*
X131574Y255698D01*
X131482Y255748D01*
X131388Y255794D01*
X131293Y255836D01*
X131196Y255875D01*
X131098Y255911D01*
X130998Y255943D01*
X130898Y255971D01*
X130796Y255996D01*
X130694Y256016D01*
X130591Y256034D01*
X130488Y256047D01*
X130384Y256056D01*
X130279Y256062D01*
X130175Y256064D01*
X133032Y253206D02*
X133030Y253088D01*
X133024Y252969D01*
X133015Y252851D01*
X133002Y252734D01*
X132984Y252617D01*
X132964Y252500D01*
X132939Y252384D01*
X132911Y252269D01*
X132878Y252156D01*
X132843Y252043D01*
X132803Y251931D01*
X132761Y251821D01*
X132714Y251712D01*
X132664Y251604D01*
X132611Y251499D01*
X132554Y251395D01*
X132494Y251293D01*
X132431Y251193D01*
X132364Y251095D01*
X132295Y250999D01*
X132222Y250906D01*
X132146Y250815D01*
X132068Y250726D01*
X131986Y250640D01*
X131902Y250557D01*
X131816Y250476D01*
X131726Y250399D01*
X131635Y250324D01*
X131541Y250252D01*
X131444Y250183D01*
X131346Y250118D01*
X131245Y250055D01*
X131142Y249996D01*
X131038Y249940D01*
X130932Y249888D01*
X130824Y249839D01*
X130715Y249794D01*
X130604Y249752D01*
X130492Y249714D01*
X127953Y255112D02*
X128028Y255188D01*
X128107Y255263D01*
X128188Y255334D01*
X128272Y255403D01*
X128358Y255468D01*
X128446Y255530D01*
X128536Y255590D01*
X128628Y255646D01*
X128723Y255699D01*
X128819Y255748D01*
X128917Y255794D01*
X129016Y255837D01*
X129117Y255876D01*
X129219Y255911D01*
X129322Y255943D01*
X129426Y255971D01*
X129531Y255996D01*
X129638Y256017D01*
X129744Y256034D01*
X129851Y256047D01*
X129959Y256056D01*
X130067Y256062D01*
X130175Y256064D01*
X127953Y255111D02*
X121603Y249714D01*
X121603Y256064D01*
D10*
X-28929Y449580D02*
X-33655Y449580D01*
X40005Y449580D02*
X40005Y444854D01*
X40005Y375920D02*
X35279Y375920D01*
X-33655Y375920D02*
X-33655Y380646D01*
X-33655Y444854D02*
X-33655Y449580D01*
X35279Y449580D02*
X40005Y449580D01*
X40005Y380646D02*
X40005Y375920D01*
X-28929Y375920D02*
X-33655Y375920D01*
D14*
X-25314Y365506D02*
X-25312Y365562D01*
X-25306Y365618D01*
X-25296Y365673D01*
X-25283Y365727D01*
X-25266Y365781D01*
X-25245Y365833D01*
X-25220Y365883D01*
X-25192Y365932D01*
X-25161Y365978D01*
X-25126Y366022D01*
X-25089Y366064D01*
X-25048Y366103D01*
X-25005Y366139D01*
X-24960Y366172D01*
X-24913Y366201D01*
X-24863Y366228D01*
X-24812Y366251D01*
X-24759Y366270D01*
X-24705Y366285D01*
X-24650Y366297D01*
X-24595Y366305D01*
X-24539Y366309D01*
X-24483Y366309D01*
X-24427Y366305D01*
X-24372Y366297D01*
X-24317Y366285D01*
X-24263Y366270D01*
X-24210Y366251D01*
X-24159Y366228D01*
X-24110Y366201D01*
X-24062Y366172D01*
X-24017Y366139D01*
X-23974Y366103D01*
X-23933Y366064D01*
X-23896Y366022D01*
X-23861Y365978D01*
X-23830Y365932D01*
X-23802Y365883D01*
X-23777Y365833D01*
X-23756Y365781D01*
X-23739Y365727D01*
X-23726Y365673D01*
X-23716Y365618D01*
X-23710Y365562D01*
X-23708Y365506D01*
X-23710Y365450D01*
X-23716Y365394D01*
X-23726Y365339D01*
X-23739Y365285D01*
X-23756Y365231D01*
X-23777Y365179D01*
X-23802Y365129D01*
X-23830Y365080D01*
X-23861Y365034D01*
X-23896Y364990D01*
X-23933Y364948D01*
X-23974Y364909D01*
X-24017Y364873D01*
X-24062Y364840D01*
X-24109Y364811D01*
X-24159Y364784D01*
X-24210Y364761D01*
X-24263Y364742D01*
X-24317Y364727D01*
X-24372Y364715D01*
X-24427Y364707D01*
X-24483Y364703D01*
X-24539Y364703D01*
X-24595Y364707D01*
X-24650Y364715D01*
X-24705Y364727D01*
X-24759Y364742D01*
X-24812Y364761D01*
X-24863Y364784D01*
X-24913Y364811D01*
X-24960Y364840D01*
X-25005Y364873D01*
X-25048Y364909D01*
X-25089Y364948D01*
X-25126Y364990D01*
X-25161Y365034D01*
X-25192Y365080D01*
X-25220Y365129D01*
X-25245Y365179D01*
X-25266Y365231D01*
X-25283Y365285D01*
X-25296Y365339D01*
X-25306Y365394D01*
X-25312Y365450D01*
X-25314Y365506D01*
D12*
X-30744Y454406D02*
X-30744Y463028D01*
X-30743Y463028D02*
X-30741Y463142D01*
X-30735Y463257D01*
X-30725Y463371D01*
X-30711Y463484D01*
X-30694Y463598D01*
X-30672Y463710D01*
X-30647Y463822D01*
X-30617Y463932D01*
X-30584Y464042D01*
X-30547Y464150D01*
X-30507Y464257D01*
X-30462Y464363D01*
X-30415Y464467D01*
X-30363Y464569D01*
X-30308Y464669D01*
X-30250Y464768D01*
X-30188Y464864D01*
X-30123Y464959D01*
X-30055Y465050D01*
X-29983Y465140D01*
X-29909Y465227D01*
X-29832Y465311D01*
X-29751Y465393D01*
X-29668Y465472D01*
X-29583Y465548D01*
X-29494Y465621D01*
X-29404Y465690D01*
X-29311Y465757D01*
X-29215Y465820D01*
X-29118Y465880D01*
X-29018Y465937D01*
X-28917Y465990D01*
X-28814Y466040D01*
X-28709Y466086D01*
X-28603Y466129D01*
X-28495Y466167D01*
X-28386Y466202D01*
X-28276Y466233D01*
X-28165Y466261D01*
X-28053Y466284D01*
X-27940Y466304D01*
X-27827Y466320D01*
X-27713Y466332D01*
X-27599Y466340D01*
X-27484Y466344D01*
X-27370Y466344D01*
X-27255Y466340D01*
X-27141Y466332D01*
X-27027Y466320D01*
X-26914Y466304D01*
X-26801Y466284D01*
X-26689Y466261D01*
X-26578Y466233D01*
X-26468Y466202D01*
X-26359Y466167D01*
X-26251Y466129D01*
X-26145Y466086D01*
X-26040Y466040D01*
X-25937Y465990D01*
X-25836Y465937D01*
X-25736Y465880D01*
X-25639Y465820D01*
X-25543Y465757D01*
X-25450Y465690D01*
X-25360Y465621D01*
X-25271Y465548D01*
X-25186Y465472D01*
X-25103Y465393D01*
X-25022Y465311D01*
X-24945Y465227D01*
X-24871Y465140D01*
X-24799Y465050D01*
X-24731Y464959D01*
X-24666Y464864D01*
X-24604Y464768D01*
X-24546Y464669D01*
X-24491Y464569D01*
X-24439Y464467D01*
X-24392Y464363D01*
X-24347Y464257D01*
X-24307Y464150D01*
X-24270Y464042D01*
X-24237Y463932D01*
X-24207Y463822D01*
X-24182Y463710D01*
X-24160Y463598D01*
X-24143Y463484D01*
X-24129Y463371D01*
X-24119Y463257D01*
X-24113Y463142D01*
X-24111Y463028D01*
X-24111Y454406D01*
X-18933Y457059D02*
X-15616Y454406D01*
X-15616Y466344D01*
X-12300Y466344D02*
X-18933Y466344D01*
D15*
X-42228Y440055D02*
X-42228Y404495D01*
X-42228Y440055D02*
X-62548Y440055D01*
X-62548Y404495D01*
X-42228Y404495D01*
D12*
X-65627Y422413D02*
X-75025Y416147D01*
X-75025Y422413D02*
X-65627Y416147D01*
X-67716Y425813D02*
X-65627Y428424D01*
X-75025Y428424D01*
X-75025Y431034D02*
X-75025Y425813D01*
X-121857Y324439D02*
X-121857Y322351D01*
X-121856Y322351D02*
X-121854Y322262D01*
X-121848Y322174D01*
X-121839Y322086D01*
X-121826Y321998D01*
X-121809Y321911D01*
X-121789Y321825D01*
X-121764Y321740D01*
X-121737Y321655D01*
X-121705Y321572D01*
X-121671Y321491D01*
X-121632Y321411D01*
X-121591Y321333D01*
X-121546Y321256D01*
X-121498Y321182D01*
X-121447Y321109D01*
X-121393Y321039D01*
X-121335Y320972D01*
X-121275Y320906D01*
X-121213Y320844D01*
X-121147Y320784D01*
X-121080Y320726D01*
X-121010Y320672D01*
X-120937Y320621D01*
X-120863Y320573D01*
X-120786Y320528D01*
X-120708Y320487D01*
X-120628Y320448D01*
X-120547Y320414D01*
X-120464Y320382D01*
X-120379Y320355D01*
X-120294Y320330D01*
X-120208Y320310D01*
X-120121Y320293D01*
X-120033Y320280D01*
X-119945Y320271D01*
X-119857Y320265D01*
X-119768Y320263D01*
X-119768Y320262D02*
X-114547Y320262D01*
X-114456Y320264D01*
X-114365Y320270D01*
X-114274Y320280D01*
X-114184Y320294D01*
X-114095Y320312D01*
X-114006Y320333D01*
X-113919Y320359D01*
X-113833Y320388D01*
X-113748Y320421D01*
X-113664Y320458D01*
X-113582Y320498D01*
X-113503Y320542D01*
X-113425Y320589D01*
X-113349Y320640D01*
X-113275Y320694D01*
X-113204Y320751D01*
X-113136Y320811D01*
X-113070Y320874D01*
X-113007Y320940D01*
X-112947Y321008D01*
X-112890Y321079D01*
X-112836Y321153D01*
X-112785Y321229D01*
X-112738Y321306D01*
X-112694Y321386D01*
X-112654Y321468D01*
X-112617Y321552D01*
X-112584Y321636D01*
X-112555Y321723D01*
X-112529Y321810D01*
X-112508Y321899D01*
X-112490Y321988D01*
X-112476Y322078D01*
X-112466Y322169D01*
X-112460Y322260D01*
X-112458Y322351D01*
X-112459Y322351D02*
X-112459Y324439D01*
X-112458Y330780D02*
X-112460Y330875D01*
X-112466Y330969D01*
X-112475Y331063D01*
X-112488Y331157D01*
X-112505Y331250D01*
X-112526Y331342D01*
X-112551Y331434D01*
X-112579Y331524D01*
X-112611Y331613D01*
X-112646Y331701D01*
X-112685Y331787D01*
X-112727Y331872D01*
X-112773Y331955D01*
X-112822Y332036D01*
X-112874Y332115D01*
X-112929Y332192D01*
X-112988Y332266D01*
X-113049Y332338D01*
X-113113Y332408D01*
X-113180Y332475D01*
X-113250Y332539D01*
X-113322Y332600D01*
X-113396Y332659D01*
X-113473Y332714D01*
X-113552Y332766D01*
X-113633Y332815D01*
X-113716Y332861D01*
X-113801Y332903D01*
X-113887Y332942D01*
X-113975Y332977D01*
X-114064Y333009D01*
X-114154Y333037D01*
X-114246Y333062D01*
X-114338Y333083D01*
X-114431Y333100D01*
X-114525Y333113D01*
X-114619Y333122D01*
X-114713Y333128D01*
X-114808Y333130D01*
X-112459Y330780D02*
X-112461Y330672D01*
X-112467Y330563D01*
X-112477Y330455D01*
X-112490Y330348D01*
X-112508Y330241D01*
X-112529Y330134D01*
X-112554Y330029D01*
X-112583Y329924D01*
X-112615Y329821D01*
X-112652Y329719D01*
X-112692Y329618D01*
X-112735Y329519D01*
X-112782Y329421D01*
X-112833Y329325D01*
X-112887Y329231D01*
X-112944Y329139D01*
X-113005Y329049D01*
X-113069Y328961D01*
X-113135Y328876D01*
X-113205Y328793D01*
X-113278Y328713D01*
X-113354Y328635D01*
X-113432Y328560D01*
X-113513Y328488D01*
X-113597Y328419D01*
X-113683Y328353D01*
X-113771Y328290D01*
X-113862Y328231D01*
X-113954Y328174D01*
X-114049Y328121D01*
X-114146Y328072D01*
X-114244Y328026D01*
X-114343Y327983D01*
X-114445Y327944D01*
X-114547Y327909D01*
X-116636Y332346D02*
X-116567Y332415D01*
X-116496Y332481D01*
X-116423Y332545D01*
X-116347Y332606D01*
X-116268Y332664D01*
X-116188Y332718D01*
X-116105Y332770D01*
X-116021Y332818D01*
X-115935Y332864D01*
X-115847Y332905D01*
X-115757Y332944D01*
X-115666Y332979D01*
X-115574Y333010D01*
X-115481Y333038D01*
X-115387Y333062D01*
X-115292Y333082D01*
X-115196Y333099D01*
X-115099Y333112D01*
X-115002Y333121D01*
X-114905Y333127D01*
X-114808Y333129D01*
X-116635Y332346D02*
X-121857Y327908D01*
X-121857Y333129D01*
X-114808Y342274D02*
X-114713Y342272D01*
X-114619Y342266D01*
X-114525Y342257D01*
X-114431Y342244D01*
X-114338Y342227D01*
X-114246Y342206D01*
X-114154Y342181D01*
X-114064Y342153D01*
X-113975Y342121D01*
X-113887Y342086D01*
X-113801Y342047D01*
X-113716Y342005D01*
X-113633Y341959D01*
X-113552Y341910D01*
X-113473Y341858D01*
X-113396Y341803D01*
X-113322Y341744D01*
X-113250Y341683D01*
X-113180Y341619D01*
X-113113Y341552D01*
X-113049Y341482D01*
X-112988Y341410D01*
X-112929Y341336D01*
X-112874Y341259D01*
X-112822Y341180D01*
X-112773Y341099D01*
X-112727Y341016D01*
X-112685Y340931D01*
X-112646Y340845D01*
X-112611Y340757D01*
X-112579Y340668D01*
X-112551Y340578D01*
X-112526Y340486D01*
X-112505Y340394D01*
X-112488Y340301D01*
X-112475Y340207D01*
X-112466Y340113D01*
X-112460Y340019D01*
X-112458Y339924D01*
X-112459Y339924D02*
X-112461Y339816D01*
X-112467Y339707D01*
X-112477Y339599D01*
X-112490Y339492D01*
X-112508Y339385D01*
X-112529Y339278D01*
X-112554Y339173D01*
X-112583Y339068D01*
X-112615Y338965D01*
X-112652Y338863D01*
X-112692Y338762D01*
X-112735Y338663D01*
X-112782Y338565D01*
X-112833Y338469D01*
X-112887Y338375D01*
X-112944Y338283D01*
X-113005Y338193D01*
X-113069Y338105D01*
X-113135Y338020D01*
X-113205Y337937D01*
X-113278Y337857D01*
X-113354Y337779D01*
X-113432Y337704D01*
X-113513Y337632D01*
X-113597Y337563D01*
X-113683Y337497D01*
X-113771Y337434D01*
X-113862Y337375D01*
X-113954Y337318D01*
X-114049Y337265D01*
X-114146Y337216D01*
X-114244Y337170D01*
X-114343Y337127D01*
X-114445Y337088D01*
X-114547Y337053D01*
X-116636Y341490D02*
X-116567Y341559D01*
X-116496Y341625D01*
X-116423Y341689D01*
X-116347Y341750D01*
X-116268Y341808D01*
X-116188Y341862D01*
X-116105Y341914D01*
X-116021Y341962D01*
X-115935Y342008D01*
X-115847Y342049D01*
X-115757Y342088D01*
X-115666Y342123D01*
X-115574Y342154D01*
X-115481Y342182D01*
X-115387Y342206D01*
X-115292Y342226D01*
X-115196Y342243D01*
X-115099Y342256D01*
X-115002Y342265D01*
X-114905Y342271D01*
X-114808Y342273D01*
X-116635Y341490D02*
X-121857Y337052D01*
X-121857Y342273D01*
X-92456Y298704D02*
X-92456Y289306D01*
X-92456Y298704D02*
X-95067Y298704D01*
X-95168Y298702D01*
X-95269Y298696D01*
X-95370Y298686D01*
X-95470Y298673D01*
X-95570Y298655D01*
X-95669Y298634D01*
X-95767Y298608D01*
X-95864Y298579D01*
X-95960Y298547D01*
X-96054Y298510D01*
X-96147Y298470D01*
X-96239Y298426D01*
X-96328Y298379D01*
X-96416Y298328D01*
X-96502Y298274D01*
X-96585Y298217D01*
X-96667Y298157D01*
X-96745Y298093D01*
X-96822Y298027D01*
X-96895Y297957D01*
X-96966Y297885D01*
X-97034Y297810D01*
X-97099Y297732D01*
X-97161Y297652D01*
X-97220Y297570D01*
X-97276Y297485D01*
X-97328Y297399D01*
X-97377Y297310D01*
X-97423Y297219D01*
X-97464Y297127D01*
X-97503Y297033D01*
X-97537Y296938D01*
X-97568Y296842D01*
X-97595Y296744D01*
X-97619Y296646D01*
X-97638Y296546D01*
X-97654Y296446D01*
X-97666Y296346D01*
X-97674Y296245D01*
X-97678Y296144D01*
X-97678Y296042D01*
X-97674Y295941D01*
X-97666Y295840D01*
X-97654Y295740D01*
X-97638Y295640D01*
X-97619Y295540D01*
X-97595Y295442D01*
X-97568Y295344D01*
X-97537Y295248D01*
X-97503Y295153D01*
X-97464Y295059D01*
X-97423Y294967D01*
X-97377Y294876D01*
X-97328Y294788D01*
X-97276Y294701D01*
X-97220Y294616D01*
X-97161Y294534D01*
X-97099Y294454D01*
X-97034Y294376D01*
X-96966Y294301D01*
X-96895Y294229D01*
X-96822Y294159D01*
X-96745Y294093D01*
X-96667Y294029D01*
X-96585Y293969D01*
X-96502Y293912D01*
X-96416Y293858D01*
X-96328Y293807D01*
X-96239Y293760D01*
X-96147Y293716D01*
X-96054Y293676D01*
X-95960Y293639D01*
X-95864Y293607D01*
X-95767Y293578D01*
X-95669Y293552D01*
X-95570Y293531D01*
X-95470Y293513D01*
X-95370Y293500D01*
X-95269Y293490D01*
X-95168Y293484D01*
X-95067Y293482D01*
X-95067Y293483D02*
X-92456Y293483D01*
X-95589Y293483D02*
X-97677Y289306D01*
X-101543Y296616D02*
X-104153Y298704D01*
X-104153Y289306D01*
X-101543Y289306D02*
X-106764Y289306D01*
X-110687Y294527D02*
X-113820Y294527D01*
X-113909Y294525D01*
X-113997Y294519D01*
X-114085Y294510D01*
X-114173Y294497D01*
X-114260Y294480D01*
X-114346Y294460D01*
X-114431Y294435D01*
X-114516Y294408D01*
X-114599Y294376D01*
X-114680Y294342D01*
X-114760Y294303D01*
X-114838Y294262D01*
X-114915Y294217D01*
X-114989Y294169D01*
X-115062Y294118D01*
X-115132Y294064D01*
X-115199Y294006D01*
X-115265Y293946D01*
X-115327Y293884D01*
X-115387Y293818D01*
X-115445Y293751D01*
X-115499Y293681D01*
X-115550Y293608D01*
X-115598Y293534D01*
X-115643Y293457D01*
X-115684Y293379D01*
X-115723Y293299D01*
X-115757Y293218D01*
X-115789Y293135D01*
X-115816Y293050D01*
X-115841Y292965D01*
X-115861Y292879D01*
X-115878Y292792D01*
X-115891Y292704D01*
X-115900Y292616D01*
X-115906Y292528D01*
X-115908Y292439D01*
X-115908Y291917D01*
X-115906Y291816D01*
X-115900Y291715D01*
X-115890Y291614D01*
X-115877Y291514D01*
X-115859Y291414D01*
X-115838Y291315D01*
X-115812Y291217D01*
X-115783Y291120D01*
X-115751Y291024D01*
X-115714Y290930D01*
X-115674Y290837D01*
X-115630Y290745D01*
X-115583Y290656D01*
X-115532Y290568D01*
X-115478Y290482D01*
X-115421Y290399D01*
X-115361Y290317D01*
X-115297Y290239D01*
X-115231Y290162D01*
X-115161Y290089D01*
X-115089Y290018D01*
X-115014Y289950D01*
X-114936Y289885D01*
X-114856Y289823D01*
X-114774Y289764D01*
X-114689Y289708D01*
X-114603Y289656D01*
X-114514Y289607D01*
X-114423Y289561D01*
X-114331Y289520D01*
X-114237Y289481D01*
X-114142Y289447D01*
X-114046Y289416D01*
X-113948Y289389D01*
X-113850Y289365D01*
X-113750Y289346D01*
X-113650Y289330D01*
X-113550Y289318D01*
X-113449Y289310D01*
X-113348Y289306D01*
X-113246Y289306D01*
X-113145Y289310D01*
X-113044Y289318D01*
X-112944Y289330D01*
X-112844Y289346D01*
X-112744Y289365D01*
X-112646Y289389D01*
X-112548Y289416D01*
X-112452Y289447D01*
X-112357Y289481D01*
X-112263Y289520D01*
X-112171Y289561D01*
X-112080Y289607D01*
X-111992Y289656D01*
X-111905Y289708D01*
X-111820Y289764D01*
X-111738Y289823D01*
X-111658Y289885D01*
X-111580Y289950D01*
X-111505Y290018D01*
X-111433Y290089D01*
X-111363Y290162D01*
X-111297Y290239D01*
X-111233Y290317D01*
X-111173Y290399D01*
X-111116Y290482D01*
X-111062Y290568D01*
X-111011Y290656D01*
X-110964Y290745D01*
X-110920Y290837D01*
X-110880Y290930D01*
X-110843Y291024D01*
X-110811Y291120D01*
X-110782Y291217D01*
X-110756Y291315D01*
X-110735Y291414D01*
X-110717Y291514D01*
X-110704Y291614D01*
X-110694Y291715D01*
X-110688Y291816D01*
X-110686Y291917D01*
X-110687Y291917D02*
X-110687Y294527D01*
X-110689Y294656D01*
X-110695Y294784D01*
X-110705Y294912D01*
X-110719Y295040D01*
X-110736Y295168D01*
X-110758Y295295D01*
X-110784Y295421D01*
X-110813Y295546D01*
X-110846Y295670D01*
X-110884Y295793D01*
X-110924Y295915D01*
X-110969Y296036D01*
X-111017Y296155D01*
X-111069Y296273D01*
X-111125Y296389D01*
X-111184Y296503D01*
X-111247Y296615D01*
X-111313Y296726D01*
X-111382Y296834D01*
X-111455Y296940D01*
X-111531Y297044D01*
X-111610Y297146D01*
X-111692Y297245D01*
X-111777Y297341D01*
X-111865Y297435D01*
X-111956Y297526D01*
X-112050Y297614D01*
X-112146Y297699D01*
X-112245Y297781D01*
X-112347Y297860D01*
X-112451Y297936D01*
X-112557Y298009D01*
X-112665Y298078D01*
X-112775Y298144D01*
X-112888Y298207D01*
X-113002Y298266D01*
X-113118Y298322D01*
X-113236Y298374D01*
X-113355Y298422D01*
X-113476Y298467D01*
X-113598Y298507D01*
X-113721Y298545D01*
X-113845Y298578D01*
X-113970Y298607D01*
X-114096Y298633D01*
X-114223Y298655D01*
X-114351Y298672D01*
X-114479Y298686D01*
X-114607Y298696D01*
X-114735Y298702D01*
X-114864Y298704D01*
D11*
X-44736Y240883D02*
X-33052Y240883D01*
X-33052Y244129D01*
X-33051Y244129D02*
X-33053Y244242D01*
X-33059Y244355D01*
X-33069Y244468D01*
X-33083Y244581D01*
X-33100Y244693D01*
X-33122Y244804D01*
X-33147Y244914D01*
X-33177Y245024D01*
X-33210Y245132D01*
X-33247Y245239D01*
X-33287Y245345D01*
X-33332Y245449D01*
X-33380Y245552D01*
X-33431Y245653D01*
X-33486Y245752D01*
X-33544Y245849D01*
X-33606Y245944D01*
X-33671Y246037D01*
X-33739Y246127D01*
X-33810Y246215D01*
X-33885Y246301D01*
X-33962Y246384D01*
X-34042Y246464D01*
X-34125Y246541D01*
X-34211Y246616D01*
X-34299Y246687D01*
X-34389Y246755D01*
X-34482Y246820D01*
X-34577Y246882D01*
X-34674Y246940D01*
X-34773Y246995D01*
X-34874Y247046D01*
X-34977Y247094D01*
X-35081Y247139D01*
X-35187Y247179D01*
X-35294Y247216D01*
X-35402Y247249D01*
X-35512Y247279D01*
X-35622Y247304D01*
X-35733Y247326D01*
X-35845Y247343D01*
X-35958Y247357D01*
X-36071Y247367D01*
X-36184Y247373D01*
X-36297Y247375D01*
X-36410Y247373D01*
X-36523Y247367D01*
X-36636Y247357D01*
X-36749Y247343D01*
X-36861Y247326D01*
X-36972Y247304D01*
X-37082Y247279D01*
X-37192Y247249D01*
X-37300Y247216D01*
X-37407Y247179D01*
X-37513Y247139D01*
X-37617Y247094D01*
X-37720Y247046D01*
X-37821Y246995D01*
X-37920Y246940D01*
X-38017Y246882D01*
X-38112Y246820D01*
X-38205Y246755D01*
X-38295Y246687D01*
X-38383Y246616D01*
X-38469Y246541D01*
X-38552Y246464D01*
X-38632Y246384D01*
X-38709Y246301D01*
X-38784Y246215D01*
X-38855Y246127D01*
X-38923Y246037D01*
X-38988Y245944D01*
X-39050Y245849D01*
X-39108Y245752D01*
X-39163Y245653D01*
X-39214Y245552D01*
X-39262Y245449D01*
X-39307Y245345D01*
X-39347Y245239D01*
X-39384Y245132D01*
X-39417Y245024D01*
X-39447Y244914D01*
X-39472Y244804D01*
X-39494Y244693D01*
X-39511Y244581D01*
X-39525Y244468D01*
X-39535Y244355D01*
X-39541Y244242D01*
X-39543Y244129D01*
X-39543Y240883D01*
X-39543Y244778D02*
X-44736Y247374D01*
X-35648Y252240D02*
X-33052Y255485D01*
X-44736Y255485D01*
X-44736Y252240D02*
X-44736Y258731D01*
X-39543Y266266D02*
X-39543Y270161D01*
X-39542Y266266D02*
X-39540Y266167D01*
X-39534Y266067D01*
X-39525Y265968D01*
X-39512Y265870D01*
X-39495Y265772D01*
X-39474Y265674D01*
X-39449Y265578D01*
X-39421Y265483D01*
X-39389Y265389D01*
X-39354Y265296D01*
X-39315Y265204D01*
X-39272Y265114D01*
X-39227Y265026D01*
X-39177Y264939D01*
X-39125Y264855D01*
X-39069Y264772D01*
X-39011Y264692D01*
X-38949Y264614D01*
X-38884Y264539D01*
X-38816Y264466D01*
X-38746Y264396D01*
X-38673Y264328D01*
X-38598Y264263D01*
X-38520Y264201D01*
X-38440Y264143D01*
X-38357Y264087D01*
X-38273Y264035D01*
X-38186Y263985D01*
X-38098Y263940D01*
X-38008Y263897D01*
X-37916Y263858D01*
X-37823Y263823D01*
X-37729Y263791D01*
X-37634Y263763D01*
X-37538Y263738D01*
X-37440Y263717D01*
X-37342Y263700D01*
X-37244Y263687D01*
X-37145Y263678D01*
X-37045Y263672D01*
X-36946Y263670D01*
X-36297Y263670D01*
X-36297Y263669D02*
X-36184Y263671D01*
X-36071Y263677D01*
X-35958Y263687D01*
X-35845Y263701D01*
X-35733Y263718D01*
X-35622Y263740D01*
X-35512Y263765D01*
X-35402Y263795D01*
X-35294Y263828D01*
X-35187Y263865D01*
X-35081Y263905D01*
X-34977Y263950D01*
X-34874Y263998D01*
X-34773Y264049D01*
X-34674Y264104D01*
X-34577Y264162D01*
X-34482Y264224D01*
X-34389Y264289D01*
X-34299Y264357D01*
X-34211Y264428D01*
X-34125Y264503D01*
X-34042Y264580D01*
X-33962Y264660D01*
X-33885Y264743D01*
X-33810Y264829D01*
X-33739Y264917D01*
X-33671Y265007D01*
X-33606Y265100D01*
X-33544Y265195D01*
X-33486Y265292D01*
X-33431Y265391D01*
X-33380Y265492D01*
X-33332Y265595D01*
X-33287Y265699D01*
X-33247Y265805D01*
X-33210Y265912D01*
X-33177Y266020D01*
X-33147Y266130D01*
X-33122Y266240D01*
X-33100Y266351D01*
X-33083Y266463D01*
X-33069Y266576D01*
X-33059Y266689D01*
X-33053Y266802D01*
X-33051Y266915D01*
X-33053Y267028D01*
X-33059Y267141D01*
X-33069Y267254D01*
X-33083Y267367D01*
X-33100Y267479D01*
X-33122Y267590D01*
X-33147Y267700D01*
X-33177Y267810D01*
X-33210Y267918D01*
X-33247Y268025D01*
X-33287Y268131D01*
X-33332Y268235D01*
X-33380Y268338D01*
X-33431Y268439D01*
X-33486Y268538D01*
X-33544Y268635D01*
X-33606Y268730D01*
X-33671Y268823D01*
X-33739Y268913D01*
X-33810Y269001D01*
X-33885Y269087D01*
X-33962Y269170D01*
X-34042Y269250D01*
X-34125Y269327D01*
X-34211Y269402D01*
X-34299Y269473D01*
X-34389Y269541D01*
X-34482Y269606D01*
X-34577Y269668D01*
X-34674Y269726D01*
X-34773Y269781D01*
X-34874Y269832D01*
X-34977Y269880D01*
X-35081Y269925D01*
X-35187Y269965D01*
X-35294Y270002D01*
X-35402Y270035D01*
X-35512Y270065D01*
X-35622Y270090D01*
X-35733Y270112D01*
X-35845Y270129D01*
X-35958Y270143D01*
X-36071Y270153D01*
X-36184Y270159D01*
X-36297Y270161D01*
X-39543Y270161D01*
X-39686Y270159D01*
X-39829Y270153D01*
X-39972Y270143D01*
X-40114Y270129D01*
X-40256Y270112D01*
X-40398Y270090D01*
X-40539Y270065D01*
X-40679Y270035D01*
X-40818Y270002D01*
X-40956Y269965D01*
X-41093Y269924D01*
X-41229Y269880D01*
X-41364Y269831D01*
X-41497Y269779D01*
X-41629Y269724D01*
X-41759Y269664D01*
X-41888Y269601D01*
X-42015Y269535D01*
X-42140Y269465D01*
X-42262Y269392D01*
X-42383Y269315D01*
X-42502Y269235D01*
X-42618Y269152D01*
X-42733Y269066D01*
X-42844Y268977D01*
X-42954Y268884D01*
X-43060Y268789D01*
X-43164Y268690D01*
X-43265Y268589D01*
X-43364Y268485D01*
X-43459Y268379D01*
X-43552Y268269D01*
X-43641Y268158D01*
X-43727Y268043D01*
X-43810Y267927D01*
X-43890Y267808D01*
X-43967Y267687D01*
X-44040Y267565D01*
X-44110Y267440D01*
X-44176Y267313D01*
X-44239Y267184D01*
X-44299Y267054D01*
X-44354Y266922D01*
X-44406Y266789D01*
X-44455Y266654D01*
X-44499Y266518D01*
X-44540Y266381D01*
X-44577Y266243D01*
X-44610Y266104D01*
X-44640Y265964D01*
X-44665Y265823D01*
X-44687Y265681D01*
X-44704Y265539D01*
X-44718Y265397D01*
X-44728Y265254D01*
X-44734Y265111D01*
X-44736Y264968D01*
X-64008Y240883D02*
X-75692Y240883D01*
X-64008Y240883D02*
X-64008Y244129D01*
X-64010Y244242D01*
X-64016Y244355D01*
X-64026Y244468D01*
X-64040Y244581D01*
X-64057Y244693D01*
X-64079Y244804D01*
X-64104Y244914D01*
X-64134Y245024D01*
X-64167Y245132D01*
X-64204Y245239D01*
X-64244Y245345D01*
X-64289Y245449D01*
X-64337Y245552D01*
X-64388Y245653D01*
X-64443Y245752D01*
X-64501Y245849D01*
X-64563Y245944D01*
X-64628Y246037D01*
X-64696Y246127D01*
X-64767Y246215D01*
X-64842Y246301D01*
X-64919Y246384D01*
X-64999Y246464D01*
X-65082Y246541D01*
X-65168Y246616D01*
X-65256Y246687D01*
X-65346Y246755D01*
X-65439Y246820D01*
X-65534Y246882D01*
X-65631Y246940D01*
X-65730Y246995D01*
X-65831Y247046D01*
X-65934Y247094D01*
X-66038Y247139D01*
X-66144Y247179D01*
X-66251Y247216D01*
X-66359Y247249D01*
X-66469Y247279D01*
X-66579Y247304D01*
X-66690Y247326D01*
X-66802Y247343D01*
X-66915Y247357D01*
X-67028Y247367D01*
X-67141Y247373D01*
X-67254Y247375D01*
X-67367Y247373D01*
X-67480Y247367D01*
X-67593Y247357D01*
X-67706Y247343D01*
X-67818Y247326D01*
X-67929Y247304D01*
X-68039Y247279D01*
X-68149Y247249D01*
X-68257Y247216D01*
X-68364Y247179D01*
X-68470Y247139D01*
X-68574Y247094D01*
X-68677Y247046D01*
X-68778Y246995D01*
X-68877Y246940D01*
X-68974Y246882D01*
X-69069Y246820D01*
X-69162Y246755D01*
X-69252Y246687D01*
X-69340Y246616D01*
X-69426Y246541D01*
X-69509Y246464D01*
X-69589Y246384D01*
X-69666Y246301D01*
X-69741Y246215D01*
X-69812Y246127D01*
X-69880Y246037D01*
X-69945Y245944D01*
X-70007Y245849D01*
X-70065Y245752D01*
X-70120Y245653D01*
X-70171Y245552D01*
X-70219Y245449D01*
X-70264Y245345D01*
X-70304Y245239D01*
X-70341Y245132D01*
X-70374Y245024D01*
X-70404Y244914D01*
X-70429Y244804D01*
X-70451Y244693D01*
X-70468Y244581D01*
X-70482Y244468D01*
X-70492Y244355D01*
X-70498Y244242D01*
X-70500Y244129D01*
X-70499Y244129D02*
X-70499Y240883D01*
X-70499Y244778D02*
X-75692Y247374D01*
X-66929Y258731D02*
X-66822Y258729D01*
X-66716Y258723D01*
X-66610Y258713D01*
X-66504Y258700D01*
X-66398Y258682D01*
X-66294Y258661D01*
X-66190Y258636D01*
X-66087Y258607D01*
X-65986Y258575D01*
X-65886Y258538D01*
X-65787Y258498D01*
X-65689Y258455D01*
X-65593Y258408D01*
X-65499Y258357D01*
X-65407Y258303D01*
X-65317Y258246D01*
X-65229Y258186D01*
X-65144Y258122D01*
X-65061Y258055D01*
X-64980Y257985D01*
X-64902Y257913D01*
X-64826Y257837D01*
X-64754Y257759D01*
X-64684Y257678D01*
X-64617Y257595D01*
X-64553Y257510D01*
X-64493Y257422D01*
X-64436Y257332D01*
X-64382Y257240D01*
X-64331Y257146D01*
X-64284Y257050D01*
X-64241Y256952D01*
X-64201Y256853D01*
X-64164Y256753D01*
X-64132Y256652D01*
X-64103Y256549D01*
X-64078Y256445D01*
X-64057Y256341D01*
X-64039Y256235D01*
X-64026Y256129D01*
X-64016Y256023D01*
X-64010Y255917D01*
X-64008Y255810D01*
X-64010Y255689D01*
X-64016Y255568D01*
X-64026Y255448D01*
X-64039Y255327D01*
X-64057Y255208D01*
X-64078Y255088D01*
X-64103Y254970D01*
X-64132Y254853D01*
X-64165Y254736D01*
X-64201Y254621D01*
X-64242Y254507D01*
X-64285Y254394D01*
X-64333Y254282D01*
X-64384Y254173D01*
X-64439Y254065D01*
X-64497Y253958D01*
X-64558Y253854D01*
X-64623Y253752D01*
X-64691Y253652D01*
X-64762Y253554D01*
X-64836Y253458D01*
X-64913Y253365D01*
X-64994Y253275D01*
X-65077Y253187D01*
X-65163Y253102D01*
X-65252Y253019D01*
X-65343Y252940D01*
X-65437Y252863D01*
X-65533Y252790D01*
X-65631Y252720D01*
X-65732Y252653D01*
X-65835Y252589D01*
X-65940Y252529D01*
X-66047Y252471D01*
X-66155Y252418D01*
X-66265Y252368D01*
X-66377Y252322D01*
X-66490Y252279D01*
X-66605Y252240D01*
X-69201Y257756D02*
X-69123Y257835D01*
X-69043Y257911D01*
X-68960Y257984D01*
X-68874Y258054D01*
X-68787Y258121D01*
X-68696Y258185D01*
X-68604Y258245D01*
X-68510Y258303D01*
X-68413Y258357D01*
X-68315Y258407D01*
X-68215Y258454D01*
X-68114Y258498D01*
X-68011Y258538D01*
X-67906Y258574D01*
X-67801Y258606D01*
X-67694Y258635D01*
X-67587Y258660D01*
X-67478Y258682D01*
X-67369Y258699D01*
X-67260Y258713D01*
X-67150Y258722D01*
X-67039Y258728D01*
X-66929Y258730D01*
X-69201Y257757D02*
X-75692Y252240D01*
X-75692Y258731D01*
X-69850Y263669D02*
X-69620Y263672D01*
X-69390Y263680D01*
X-69161Y263694D01*
X-68932Y263713D01*
X-68703Y263738D01*
X-68475Y263768D01*
X-68248Y263803D01*
X-68022Y263844D01*
X-67797Y263890D01*
X-67573Y263942D01*
X-67350Y263999D01*
X-67129Y264061D01*
X-66909Y264129D01*
X-66691Y264202D01*
X-66475Y264280D01*
X-66261Y264363D01*
X-66049Y264451D01*
X-65838Y264544D01*
X-65631Y264643D01*
X-65541Y264676D01*
X-65452Y264712D01*
X-65364Y264752D01*
X-65279Y264796D01*
X-65195Y264843D01*
X-65113Y264893D01*
X-65033Y264947D01*
X-64956Y265003D01*
X-64880Y265063D01*
X-64807Y265126D01*
X-64737Y265191D01*
X-64669Y265260D01*
X-64605Y265331D01*
X-64543Y265404D01*
X-64484Y265480D01*
X-64428Y265558D01*
X-64375Y265639D01*
X-64326Y265721D01*
X-64280Y265805D01*
X-64237Y265892D01*
X-64198Y265979D01*
X-64162Y266069D01*
X-64130Y266159D01*
X-64102Y266251D01*
X-64077Y266344D01*
X-64056Y266438D01*
X-64039Y266532D01*
X-64025Y266627D01*
X-64016Y266723D01*
X-64010Y266819D01*
X-64008Y266915D01*
X-64010Y267011D01*
X-64016Y267107D01*
X-64025Y267203D01*
X-64039Y267298D01*
X-64056Y267392D01*
X-64077Y267486D01*
X-64102Y267579D01*
X-64130Y267671D01*
X-64162Y267761D01*
X-64198Y267851D01*
X-64237Y267939D01*
X-64280Y268025D01*
X-64326Y268109D01*
X-64375Y268191D01*
X-64428Y268272D01*
X-64484Y268350D01*
X-64543Y268426D01*
X-64605Y268499D01*
X-64669Y268570D01*
X-64737Y268639D01*
X-64807Y268704D01*
X-64880Y268767D01*
X-64956Y268827D01*
X-65033Y268883D01*
X-65113Y268937D01*
X-65195Y268987D01*
X-65279Y269034D01*
X-65364Y269078D01*
X-65452Y269118D01*
X-65541Y269154D01*
X-65631Y269187D01*
X-65838Y269286D01*
X-66049Y269379D01*
X-66261Y269467D01*
X-66475Y269550D01*
X-66691Y269628D01*
X-66909Y269701D01*
X-67129Y269769D01*
X-67350Y269831D01*
X-67573Y269888D01*
X-67797Y269940D01*
X-68022Y269986D01*
X-68248Y270027D01*
X-68475Y270062D01*
X-68703Y270092D01*
X-68932Y270117D01*
X-69161Y270136D01*
X-69390Y270150D01*
X-69620Y270158D01*
X-69850Y270161D01*
X-69850Y263669D02*
X-70080Y263672D01*
X-70310Y263680D01*
X-70539Y263694D01*
X-70768Y263713D01*
X-70997Y263738D01*
X-71225Y263768D01*
X-71452Y263803D01*
X-71678Y263844D01*
X-71903Y263890D01*
X-72127Y263942D01*
X-72350Y263999D01*
X-72571Y264061D01*
X-72791Y264129D01*
X-73009Y264202D01*
X-73225Y264280D01*
X-73439Y264363D01*
X-73651Y264451D01*
X-73862Y264544D01*
X-74069Y264643D01*
X-74159Y264676D01*
X-74248Y264712D01*
X-74336Y264753D01*
X-74421Y264796D01*
X-74505Y264843D01*
X-74587Y264893D01*
X-74667Y264947D01*
X-74744Y265003D01*
X-74820Y265063D01*
X-74893Y265126D01*
X-74963Y265191D01*
X-75031Y265260D01*
X-75095Y265331D01*
X-75157Y265404D01*
X-75216Y265480D01*
X-75272Y265558D01*
X-75325Y265639D01*
X-75374Y265721D01*
X-75420Y265805D01*
X-75463Y265892D01*
X-75502Y265979D01*
X-75538Y266069D01*
X-75570Y266159D01*
X-75598Y266251D01*
X-75623Y266344D01*
X-75644Y266438D01*
X-75661Y266532D01*
X-75675Y266627D01*
X-75684Y266723D01*
X-75690Y266819D01*
X-75692Y266915D01*
X-74069Y269187D02*
X-73862Y269286D01*
X-73651Y269379D01*
X-73439Y269467D01*
X-73225Y269550D01*
X-73009Y269628D01*
X-72791Y269701D01*
X-72571Y269769D01*
X-72350Y269831D01*
X-72127Y269888D01*
X-71903Y269940D01*
X-71678Y269986D01*
X-71452Y270027D01*
X-71225Y270062D01*
X-70997Y270092D01*
X-70768Y270117D01*
X-70539Y270136D01*
X-70310Y270150D01*
X-70080Y270158D01*
X-69850Y270161D01*
X-74069Y269187D02*
X-74159Y269154D01*
X-74248Y269118D01*
X-74336Y269078D01*
X-74421Y269034D01*
X-74505Y268987D01*
X-74587Y268937D01*
X-74667Y268883D01*
X-74744Y268827D01*
X-74820Y268767D01*
X-74893Y268704D01*
X-74963Y268639D01*
X-75031Y268570D01*
X-75095Y268499D01*
X-75157Y268426D01*
X-75216Y268350D01*
X-75272Y268272D01*
X-75325Y268191D01*
X-75374Y268109D01*
X-75420Y268025D01*
X-75463Y267938D01*
X-75502Y267851D01*
X-75538Y267761D01*
X-75570Y267671D01*
X-75598Y267579D01*
X-75623Y267486D01*
X-75644Y267392D01*
X-75661Y267298D01*
X-75675Y267203D01*
X-75684Y267107D01*
X-75690Y267011D01*
X-75692Y266915D01*
X-73096Y264319D02*
X-66604Y269512D01*
X33846Y244058D02*
X45530Y244058D01*
X45530Y247304D01*
X45528Y247417D01*
X45522Y247530D01*
X45512Y247643D01*
X45498Y247756D01*
X45481Y247868D01*
X45459Y247979D01*
X45434Y248089D01*
X45404Y248199D01*
X45371Y248307D01*
X45334Y248414D01*
X45294Y248520D01*
X45249Y248624D01*
X45201Y248727D01*
X45150Y248828D01*
X45095Y248927D01*
X45037Y249024D01*
X44975Y249119D01*
X44910Y249212D01*
X44842Y249302D01*
X44771Y249390D01*
X44696Y249476D01*
X44619Y249559D01*
X44539Y249639D01*
X44456Y249716D01*
X44370Y249791D01*
X44282Y249862D01*
X44192Y249930D01*
X44099Y249995D01*
X44004Y250057D01*
X43907Y250115D01*
X43808Y250170D01*
X43707Y250221D01*
X43604Y250269D01*
X43500Y250314D01*
X43394Y250354D01*
X43287Y250391D01*
X43179Y250424D01*
X43069Y250454D01*
X42959Y250479D01*
X42848Y250501D01*
X42736Y250518D01*
X42623Y250532D01*
X42510Y250542D01*
X42397Y250548D01*
X42284Y250550D01*
X42171Y250548D01*
X42058Y250542D01*
X41945Y250532D01*
X41832Y250518D01*
X41720Y250501D01*
X41609Y250479D01*
X41499Y250454D01*
X41389Y250424D01*
X41281Y250391D01*
X41174Y250354D01*
X41068Y250314D01*
X40964Y250269D01*
X40861Y250221D01*
X40760Y250170D01*
X40661Y250115D01*
X40564Y250057D01*
X40469Y249995D01*
X40376Y249930D01*
X40286Y249862D01*
X40198Y249791D01*
X40112Y249716D01*
X40029Y249639D01*
X39949Y249559D01*
X39872Y249476D01*
X39797Y249390D01*
X39726Y249302D01*
X39658Y249212D01*
X39593Y249119D01*
X39531Y249024D01*
X39473Y248927D01*
X39418Y248828D01*
X39367Y248727D01*
X39319Y248624D01*
X39274Y248520D01*
X39234Y248414D01*
X39197Y248307D01*
X39164Y248199D01*
X39134Y248089D01*
X39109Y247979D01*
X39087Y247868D01*
X39070Y247756D01*
X39056Y247643D01*
X39046Y247530D01*
X39040Y247417D01*
X39038Y247304D01*
X39038Y244058D01*
X39038Y247953D02*
X33846Y250549D01*
X42609Y261906D02*
X42716Y261904D01*
X42822Y261898D01*
X42928Y261888D01*
X43034Y261875D01*
X43140Y261857D01*
X43244Y261836D01*
X43348Y261811D01*
X43451Y261782D01*
X43552Y261750D01*
X43652Y261713D01*
X43751Y261673D01*
X43849Y261630D01*
X43945Y261583D01*
X44039Y261532D01*
X44131Y261478D01*
X44221Y261421D01*
X44309Y261361D01*
X44394Y261297D01*
X44477Y261230D01*
X44558Y261160D01*
X44636Y261088D01*
X44712Y261012D01*
X44784Y260934D01*
X44854Y260853D01*
X44921Y260770D01*
X44985Y260685D01*
X45045Y260597D01*
X45102Y260507D01*
X45156Y260415D01*
X45207Y260321D01*
X45254Y260225D01*
X45297Y260127D01*
X45337Y260028D01*
X45374Y259928D01*
X45406Y259827D01*
X45435Y259724D01*
X45460Y259620D01*
X45481Y259516D01*
X45499Y259410D01*
X45512Y259304D01*
X45522Y259198D01*
X45528Y259092D01*
X45530Y258985D01*
X45528Y258864D01*
X45522Y258743D01*
X45512Y258623D01*
X45499Y258502D01*
X45481Y258383D01*
X45460Y258263D01*
X45435Y258145D01*
X45406Y258028D01*
X45373Y257911D01*
X45337Y257796D01*
X45296Y257682D01*
X45253Y257569D01*
X45205Y257457D01*
X45154Y257348D01*
X45099Y257240D01*
X45041Y257133D01*
X44980Y257029D01*
X44915Y256927D01*
X44847Y256827D01*
X44776Y256729D01*
X44702Y256633D01*
X44625Y256540D01*
X44544Y256450D01*
X44461Y256362D01*
X44375Y256277D01*
X44286Y256194D01*
X44195Y256115D01*
X44101Y256038D01*
X44005Y255965D01*
X43907Y255895D01*
X43806Y255828D01*
X43703Y255764D01*
X43598Y255704D01*
X43491Y255647D01*
X43383Y255593D01*
X43273Y255543D01*
X43161Y255497D01*
X43048Y255454D01*
X42933Y255415D01*
X40337Y260932D02*
X40414Y261011D01*
X40495Y261087D01*
X40578Y261160D01*
X40663Y261230D01*
X40751Y261297D01*
X40841Y261361D01*
X40933Y261421D01*
X41028Y261478D01*
X41124Y261532D01*
X41222Y261583D01*
X41322Y261630D01*
X41424Y261674D01*
X41527Y261714D01*
X41631Y261750D01*
X41737Y261782D01*
X41843Y261811D01*
X41951Y261836D01*
X42059Y261858D01*
X42169Y261875D01*
X42278Y261889D01*
X42388Y261898D01*
X42499Y261904D01*
X42609Y261906D01*
X40337Y260932D02*
X33846Y255415D01*
X33846Y261906D01*
X42933Y266845D02*
X45530Y270090D01*
X33846Y270090D01*
X33846Y266845D02*
X33846Y273336D01*
X64008Y243265D02*
X75692Y243265D01*
X75692Y246510D01*
X75690Y246623D01*
X75684Y246736D01*
X75674Y246849D01*
X75660Y246962D01*
X75643Y247074D01*
X75621Y247185D01*
X75596Y247295D01*
X75566Y247405D01*
X75533Y247513D01*
X75496Y247620D01*
X75456Y247726D01*
X75411Y247830D01*
X75363Y247933D01*
X75312Y248034D01*
X75257Y248133D01*
X75199Y248230D01*
X75137Y248325D01*
X75072Y248418D01*
X75004Y248508D01*
X74933Y248596D01*
X74858Y248682D01*
X74781Y248765D01*
X74701Y248845D01*
X74618Y248922D01*
X74532Y248997D01*
X74444Y249068D01*
X74354Y249136D01*
X74261Y249201D01*
X74166Y249263D01*
X74069Y249321D01*
X73970Y249376D01*
X73869Y249427D01*
X73766Y249475D01*
X73662Y249520D01*
X73556Y249560D01*
X73449Y249597D01*
X73341Y249630D01*
X73231Y249660D01*
X73121Y249685D01*
X73010Y249707D01*
X72898Y249724D01*
X72785Y249738D01*
X72672Y249748D01*
X72559Y249754D01*
X72446Y249756D01*
X72333Y249754D01*
X72220Y249748D01*
X72107Y249738D01*
X71994Y249724D01*
X71882Y249707D01*
X71771Y249685D01*
X71661Y249660D01*
X71551Y249630D01*
X71443Y249597D01*
X71336Y249560D01*
X71230Y249520D01*
X71126Y249475D01*
X71023Y249427D01*
X70922Y249376D01*
X70823Y249321D01*
X70726Y249263D01*
X70631Y249201D01*
X70538Y249136D01*
X70448Y249068D01*
X70360Y248997D01*
X70274Y248922D01*
X70191Y248845D01*
X70111Y248765D01*
X70034Y248682D01*
X69959Y248596D01*
X69888Y248508D01*
X69820Y248418D01*
X69755Y248325D01*
X69693Y248230D01*
X69635Y248133D01*
X69580Y248034D01*
X69529Y247933D01*
X69481Y247830D01*
X69436Y247726D01*
X69396Y247620D01*
X69359Y247513D01*
X69326Y247405D01*
X69296Y247295D01*
X69271Y247185D01*
X69249Y247074D01*
X69232Y246962D01*
X69218Y246849D01*
X69208Y246736D01*
X69202Y246623D01*
X69200Y246510D01*
X69201Y246510D02*
X69201Y243265D01*
X69201Y247159D02*
X64008Y249756D01*
X72771Y261112D02*
X72878Y261110D01*
X72984Y261104D01*
X73090Y261094D01*
X73196Y261081D01*
X73302Y261063D01*
X73406Y261042D01*
X73510Y261017D01*
X73613Y260988D01*
X73714Y260956D01*
X73814Y260919D01*
X73913Y260879D01*
X74011Y260836D01*
X74107Y260789D01*
X74201Y260738D01*
X74293Y260684D01*
X74383Y260627D01*
X74471Y260567D01*
X74556Y260503D01*
X74639Y260436D01*
X74720Y260366D01*
X74798Y260294D01*
X74874Y260218D01*
X74946Y260140D01*
X75016Y260059D01*
X75083Y259976D01*
X75147Y259891D01*
X75207Y259803D01*
X75264Y259713D01*
X75318Y259621D01*
X75369Y259527D01*
X75416Y259431D01*
X75459Y259333D01*
X75499Y259234D01*
X75536Y259134D01*
X75568Y259033D01*
X75597Y258930D01*
X75622Y258826D01*
X75643Y258722D01*
X75661Y258616D01*
X75674Y258510D01*
X75684Y258404D01*
X75690Y258298D01*
X75692Y258191D01*
X75690Y258070D01*
X75684Y257949D01*
X75674Y257829D01*
X75661Y257708D01*
X75643Y257589D01*
X75622Y257469D01*
X75597Y257351D01*
X75568Y257234D01*
X75535Y257117D01*
X75499Y257002D01*
X75458Y256888D01*
X75415Y256775D01*
X75367Y256663D01*
X75316Y256554D01*
X75261Y256446D01*
X75203Y256339D01*
X75142Y256235D01*
X75077Y256133D01*
X75009Y256033D01*
X74938Y255935D01*
X74864Y255839D01*
X74787Y255746D01*
X74706Y255656D01*
X74623Y255568D01*
X74537Y255483D01*
X74448Y255400D01*
X74357Y255321D01*
X74263Y255244D01*
X74167Y255171D01*
X74069Y255101D01*
X73968Y255034D01*
X73865Y254970D01*
X73760Y254910D01*
X73653Y254853D01*
X73545Y254799D01*
X73435Y254749D01*
X73323Y254703D01*
X73210Y254660D01*
X73095Y254621D01*
X70499Y260139D02*
X70576Y260218D01*
X70657Y260294D01*
X70740Y260367D01*
X70825Y260437D01*
X70913Y260504D01*
X71003Y260568D01*
X71095Y260628D01*
X71190Y260685D01*
X71286Y260739D01*
X71384Y260790D01*
X71484Y260837D01*
X71586Y260881D01*
X71689Y260921D01*
X71793Y260957D01*
X71899Y260989D01*
X72005Y261018D01*
X72113Y261043D01*
X72221Y261065D01*
X72331Y261082D01*
X72440Y261096D01*
X72550Y261105D01*
X72661Y261111D01*
X72771Y261113D01*
X70499Y260138D02*
X64008Y254621D01*
X64008Y261112D01*
X72771Y272542D02*
X72878Y272540D01*
X72984Y272534D01*
X73090Y272524D01*
X73196Y272511D01*
X73302Y272493D01*
X73406Y272472D01*
X73510Y272447D01*
X73613Y272418D01*
X73714Y272386D01*
X73814Y272349D01*
X73913Y272309D01*
X74011Y272266D01*
X74107Y272219D01*
X74201Y272168D01*
X74293Y272114D01*
X74383Y272057D01*
X74471Y271997D01*
X74556Y271933D01*
X74639Y271866D01*
X74720Y271796D01*
X74798Y271724D01*
X74874Y271648D01*
X74946Y271570D01*
X75016Y271489D01*
X75083Y271406D01*
X75147Y271321D01*
X75207Y271233D01*
X75264Y271143D01*
X75318Y271051D01*
X75369Y270957D01*
X75416Y270861D01*
X75459Y270763D01*
X75499Y270664D01*
X75536Y270564D01*
X75568Y270463D01*
X75597Y270360D01*
X75622Y270256D01*
X75643Y270152D01*
X75661Y270046D01*
X75674Y269940D01*
X75684Y269834D01*
X75690Y269728D01*
X75692Y269621D01*
X75690Y269500D01*
X75684Y269379D01*
X75674Y269259D01*
X75661Y269138D01*
X75643Y269019D01*
X75622Y268899D01*
X75597Y268781D01*
X75568Y268664D01*
X75535Y268547D01*
X75499Y268432D01*
X75458Y268318D01*
X75415Y268205D01*
X75367Y268093D01*
X75316Y267984D01*
X75261Y267876D01*
X75203Y267769D01*
X75142Y267665D01*
X75077Y267563D01*
X75009Y267463D01*
X74938Y267365D01*
X74864Y267269D01*
X74787Y267176D01*
X74706Y267086D01*
X74623Y266998D01*
X74537Y266913D01*
X74448Y266830D01*
X74357Y266751D01*
X74263Y266674D01*
X74167Y266601D01*
X74069Y266531D01*
X73968Y266464D01*
X73865Y266400D01*
X73760Y266340D01*
X73653Y266283D01*
X73545Y266229D01*
X73435Y266179D01*
X73323Y266133D01*
X73210Y266090D01*
X73095Y266051D01*
X70499Y271569D02*
X70576Y271648D01*
X70657Y271724D01*
X70740Y271797D01*
X70825Y271867D01*
X70913Y271934D01*
X71003Y271998D01*
X71095Y272058D01*
X71190Y272115D01*
X71286Y272169D01*
X71384Y272220D01*
X71484Y272267D01*
X71586Y272311D01*
X71689Y272351D01*
X71793Y272387D01*
X71899Y272419D01*
X72005Y272448D01*
X72113Y272473D01*
X72221Y272495D01*
X72331Y272512D01*
X72440Y272526D01*
X72550Y272535D01*
X72661Y272541D01*
X72771Y272543D01*
X70499Y271568D02*
X64008Y266051D01*
X64008Y272542D01*
M02*
