G04 EAGLE Gerber RS-274X export*
G75*
%MOMM*%
%FSLAX34Y34*%
%LPD*%
%INSolderpaste Bottom*%
%IPPOS*%
%AMOC8*
5,1,8,0,0,1.08239X$1,22.5*%
G01*
%ADD10R,1.100000X1.000000*%
%ADD11R,1.300000X1.500000*%
%ADD12R,1.000000X1.100000*%
%ADD13R,1.500000X1.300000*%
%ADD14R,2.540000X1.270000*%
%ADD15R,0.812800X0.254000*%
%ADD16R,0.254000X0.812800*%
%ADD17R,1.399997X0.400000*%

G36*
X-12047Y427849D02*
X-12047Y427849D01*
X-12045Y427848D01*
X-12002Y427868D01*
X-11958Y427886D01*
X-11958Y427888D01*
X-11956Y427889D01*
X-11923Y427974D01*
X-11923Y440198D01*
X-11924Y440200D01*
X-11923Y440202D01*
X-11943Y440245D01*
X-11961Y440289D01*
X-11963Y440289D01*
X-11964Y440291D01*
X-12049Y440324D01*
X-24273Y440324D01*
X-24275Y440323D01*
X-24277Y440324D01*
X-24320Y440304D01*
X-24364Y440286D01*
X-24364Y440284D01*
X-24366Y440283D01*
X-24399Y440198D01*
X-24399Y427974D01*
X-24398Y427972D01*
X-24399Y427970D01*
X-24379Y427927D01*
X-24361Y427883D01*
X-24359Y427883D01*
X-24358Y427881D01*
X-24273Y427848D01*
X-12049Y427848D01*
X-12047Y427849D01*
G37*
G36*
X2177Y427849D02*
X2177Y427849D01*
X2179Y427848D01*
X2222Y427868D01*
X2266Y427886D01*
X2266Y427888D01*
X2268Y427889D01*
X2301Y427974D01*
X2301Y440198D01*
X2300Y440200D01*
X2301Y440202D01*
X2281Y440245D01*
X2263Y440289D01*
X2261Y440289D01*
X2260Y440291D01*
X2175Y440324D01*
X-10049Y440324D01*
X-10051Y440323D01*
X-10053Y440324D01*
X-10096Y440304D01*
X-10140Y440286D01*
X-10140Y440284D01*
X-10142Y440283D01*
X-10175Y440198D01*
X-10175Y427974D01*
X-10174Y427972D01*
X-10175Y427970D01*
X-10155Y427927D01*
X-10137Y427883D01*
X-10135Y427883D01*
X-10134Y427881D01*
X-10049Y427848D01*
X2175Y427848D01*
X2177Y427849D01*
G37*
G36*
X30625Y427849D02*
X30625Y427849D01*
X30627Y427848D01*
X30670Y427868D01*
X30714Y427886D01*
X30714Y427888D01*
X30716Y427889D01*
X30749Y427974D01*
X30749Y440198D01*
X30748Y440200D01*
X30749Y440202D01*
X30729Y440245D01*
X30711Y440289D01*
X30709Y440289D01*
X30708Y440291D01*
X30623Y440324D01*
X18399Y440324D01*
X18397Y440323D01*
X18395Y440324D01*
X18352Y440304D01*
X18308Y440286D01*
X18308Y440284D01*
X18306Y440283D01*
X18273Y440198D01*
X18273Y427974D01*
X18274Y427972D01*
X18273Y427970D01*
X18293Y427927D01*
X18311Y427883D01*
X18313Y427883D01*
X18314Y427881D01*
X18399Y427848D01*
X30623Y427848D01*
X30625Y427849D01*
G37*
G36*
X16401Y427849D02*
X16401Y427849D01*
X16403Y427848D01*
X16446Y427868D01*
X16490Y427886D01*
X16490Y427888D01*
X16492Y427889D01*
X16525Y427974D01*
X16525Y440198D01*
X16524Y440200D01*
X16525Y440202D01*
X16505Y440245D01*
X16487Y440289D01*
X16485Y440289D01*
X16484Y440291D01*
X16399Y440324D01*
X4175Y440324D01*
X4173Y440323D01*
X4171Y440324D01*
X4128Y440304D01*
X4084Y440286D01*
X4084Y440284D01*
X4082Y440283D01*
X4049Y440198D01*
X4049Y427974D01*
X4050Y427972D01*
X4049Y427970D01*
X4069Y427927D01*
X4087Y427883D01*
X4089Y427883D01*
X4090Y427881D01*
X4175Y427848D01*
X16399Y427848D01*
X16401Y427849D01*
G37*
G36*
X30625Y413625D02*
X30625Y413625D01*
X30627Y413624D01*
X30670Y413644D01*
X30714Y413662D01*
X30714Y413664D01*
X30716Y413665D01*
X30749Y413750D01*
X30749Y425974D01*
X30748Y425976D01*
X30749Y425978D01*
X30729Y426021D01*
X30711Y426065D01*
X30709Y426065D01*
X30708Y426067D01*
X30623Y426100D01*
X18399Y426100D01*
X18397Y426099D01*
X18395Y426100D01*
X18352Y426080D01*
X18308Y426062D01*
X18308Y426060D01*
X18306Y426059D01*
X18273Y425974D01*
X18273Y413750D01*
X18274Y413748D01*
X18273Y413746D01*
X18293Y413703D01*
X18311Y413659D01*
X18313Y413659D01*
X18314Y413657D01*
X18399Y413624D01*
X30623Y413624D01*
X30625Y413625D01*
G37*
G36*
X2177Y413625D02*
X2177Y413625D01*
X2179Y413624D01*
X2222Y413644D01*
X2266Y413662D01*
X2266Y413664D01*
X2268Y413665D01*
X2301Y413750D01*
X2301Y425974D01*
X2300Y425976D01*
X2301Y425978D01*
X2281Y426021D01*
X2263Y426065D01*
X2261Y426065D01*
X2260Y426067D01*
X2175Y426100D01*
X-10049Y426100D01*
X-10051Y426099D01*
X-10053Y426100D01*
X-10096Y426080D01*
X-10140Y426062D01*
X-10140Y426060D01*
X-10142Y426059D01*
X-10175Y425974D01*
X-10175Y413750D01*
X-10174Y413748D01*
X-10175Y413746D01*
X-10155Y413703D01*
X-10137Y413659D01*
X-10135Y413659D01*
X-10134Y413657D01*
X-10049Y413624D01*
X2175Y413624D01*
X2177Y413625D01*
G37*
G36*
X-12047Y413625D02*
X-12047Y413625D01*
X-12045Y413624D01*
X-12002Y413644D01*
X-11958Y413662D01*
X-11958Y413664D01*
X-11956Y413665D01*
X-11923Y413750D01*
X-11923Y425974D01*
X-11924Y425976D01*
X-11923Y425978D01*
X-11943Y426021D01*
X-11961Y426065D01*
X-11963Y426065D01*
X-11964Y426067D01*
X-12049Y426100D01*
X-24273Y426100D01*
X-24275Y426099D01*
X-24277Y426100D01*
X-24320Y426080D01*
X-24364Y426062D01*
X-24364Y426060D01*
X-24366Y426059D01*
X-24399Y425974D01*
X-24399Y413750D01*
X-24398Y413748D01*
X-24399Y413746D01*
X-24379Y413703D01*
X-24361Y413659D01*
X-24359Y413659D01*
X-24358Y413657D01*
X-24273Y413624D01*
X-12049Y413624D01*
X-12047Y413625D01*
G37*
G36*
X16401Y413625D02*
X16401Y413625D01*
X16403Y413624D01*
X16446Y413644D01*
X16490Y413662D01*
X16490Y413664D01*
X16492Y413665D01*
X16525Y413750D01*
X16525Y425974D01*
X16524Y425976D01*
X16525Y425978D01*
X16505Y426021D01*
X16487Y426065D01*
X16485Y426065D01*
X16484Y426067D01*
X16399Y426100D01*
X4175Y426100D01*
X4173Y426099D01*
X4171Y426100D01*
X4128Y426080D01*
X4084Y426062D01*
X4084Y426060D01*
X4082Y426059D01*
X4049Y425974D01*
X4049Y413750D01*
X4050Y413748D01*
X4049Y413746D01*
X4069Y413703D01*
X4087Y413659D01*
X4089Y413659D01*
X4090Y413657D01*
X4175Y413624D01*
X16399Y413624D01*
X16401Y413625D01*
G37*
G36*
X16401Y399401D02*
X16401Y399401D01*
X16403Y399400D01*
X16446Y399420D01*
X16490Y399438D01*
X16490Y399440D01*
X16492Y399441D01*
X16525Y399526D01*
X16525Y411750D01*
X16524Y411752D01*
X16525Y411754D01*
X16505Y411797D01*
X16487Y411841D01*
X16485Y411841D01*
X16484Y411843D01*
X16399Y411876D01*
X4175Y411876D01*
X4173Y411875D01*
X4171Y411876D01*
X4128Y411856D01*
X4084Y411838D01*
X4084Y411836D01*
X4082Y411835D01*
X4049Y411750D01*
X4049Y399526D01*
X4050Y399524D01*
X4049Y399522D01*
X4069Y399479D01*
X4087Y399435D01*
X4089Y399435D01*
X4090Y399433D01*
X4175Y399400D01*
X16399Y399400D01*
X16401Y399401D01*
G37*
G36*
X2177Y399401D02*
X2177Y399401D01*
X2179Y399400D01*
X2222Y399420D01*
X2266Y399438D01*
X2266Y399440D01*
X2268Y399441D01*
X2301Y399526D01*
X2301Y411750D01*
X2300Y411752D01*
X2301Y411754D01*
X2281Y411797D01*
X2263Y411841D01*
X2261Y411841D01*
X2260Y411843D01*
X2175Y411876D01*
X-10049Y411876D01*
X-10051Y411875D01*
X-10053Y411876D01*
X-10096Y411856D01*
X-10140Y411838D01*
X-10140Y411836D01*
X-10142Y411835D01*
X-10175Y411750D01*
X-10175Y399526D01*
X-10174Y399524D01*
X-10175Y399522D01*
X-10155Y399479D01*
X-10137Y399435D01*
X-10135Y399435D01*
X-10134Y399433D01*
X-10049Y399400D01*
X2175Y399400D01*
X2177Y399401D01*
G37*
G36*
X30625Y399401D02*
X30625Y399401D01*
X30627Y399400D01*
X30670Y399420D01*
X30714Y399438D01*
X30714Y399440D01*
X30716Y399441D01*
X30749Y399526D01*
X30749Y411750D01*
X30748Y411752D01*
X30749Y411754D01*
X30729Y411797D01*
X30711Y411841D01*
X30709Y411841D01*
X30708Y411843D01*
X30623Y411876D01*
X18399Y411876D01*
X18397Y411875D01*
X18395Y411876D01*
X18352Y411856D01*
X18308Y411838D01*
X18308Y411836D01*
X18306Y411835D01*
X18273Y411750D01*
X18273Y399526D01*
X18274Y399524D01*
X18273Y399522D01*
X18293Y399479D01*
X18311Y399435D01*
X18313Y399435D01*
X18314Y399433D01*
X18399Y399400D01*
X30623Y399400D01*
X30625Y399401D01*
G37*
G36*
X-12047Y399401D02*
X-12047Y399401D01*
X-12045Y399400D01*
X-12002Y399420D01*
X-11958Y399438D01*
X-11958Y399440D01*
X-11956Y399441D01*
X-11923Y399526D01*
X-11923Y411750D01*
X-11924Y411752D01*
X-11923Y411754D01*
X-11943Y411797D01*
X-11961Y411841D01*
X-11963Y411841D01*
X-11964Y411843D01*
X-12049Y411876D01*
X-24273Y411876D01*
X-24275Y411875D01*
X-24277Y411876D01*
X-24320Y411856D01*
X-24364Y411838D01*
X-24364Y411836D01*
X-24366Y411835D01*
X-24399Y411750D01*
X-24399Y399526D01*
X-24398Y399524D01*
X-24399Y399522D01*
X-24379Y399479D01*
X-24361Y399435D01*
X-24359Y399435D01*
X-24358Y399433D01*
X-24273Y399400D01*
X-12049Y399400D01*
X-12047Y399401D01*
G37*
G36*
X30625Y385177D02*
X30625Y385177D01*
X30627Y385176D01*
X30670Y385196D01*
X30714Y385214D01*
X30714Y385216D01*
X30716Y385217D01*
X30749Y385302D01*
X30749Y397526D01*
X30748Y397528D01*
X30749Y397530D01*
X30729Y397573D01*
X30711Y397617D01*
X30709Y397617D01*
X30708Y397619D01*
X30623Y397652D01*
X18399Y397652D01*
X18397Y397651D01*
X18395Y397652D01*
X18352Y397632D01*
X18308Y397614D01*
X18308Y397612D01*
X18306Y397611D01*
X18273Y397526D01*
X18273Y385302D01*
X18274Y385300D01*
X18273Y385298D01*
X18293Y385255D01*
X18311Y385211D01*
X18313Y385211D01*
X18314Y385209D01*
X18399Y385176D01*
X30623Y385176D01*
X30625Y385177D01*
G37*
G36*
X16401Y385177D02*
X16401Y385177D01*
X16403Y385176D01*
X16446Y385196D01*
X16490Y385214D01*
X16490Y385216D01*
X16492Y385217D01*
X16525Y385302D01*
X16525Y397526D01*
X16524Y397528D01*
X16525Y397530D01*
X16505Y397573D01*
X16487Y397617D01*
X16485Y397617D01*
X16484Y397619D01*
X16399Y397652D01*
X4175Y397652D01*
X4173Y397651D01*
X4171Y397652D01*
X4128Y397632D01*
X4084Y397614D01*
X4084Y397612D01*
X4082Y397611D01*
X4049Y397526D01*
X4049Y385302D01*
X4050Y385300D01*
X4049Y385298D01*
X4069Y385255D01*
X4087Y385211D01*
X4089Y385211D01*
X4090Y385209D01*
X4175Y385176D01*
X16399Y385176D01*
X16401Y385177D01*
G37*
G36*
X2177Y385177D02*
X2177Y385177D01*
X2179Y385176D01*
X2222Y385196D01*
X2266Y385214D01*
X2266Y385216D01*
X2268Y385217D01*
X2301Y385302D01*
X2301Y397526D01*
X2300Y397528D01*
X2301Y397530D01*
X2281Y397573D01*
X2263Y397617D01*
X2261Y397617D01*
X2260Y397619D01*
X2175Y397652D01*
X-10049Y397652D01*
X-10051Y397651D01*
X-10053Y397652D01*
X-10096Y397632D01*
X-10140Y397614D01*
X-10140Y397612D01*
X-10142Y397611D01*
X-10175Y397526D01*
X-10175Y385302D01*
X-10174Y385300D01*
X-10175Y385298D01*
X-10155Y385255D01*
X-10137Y385211D01*
X-10135Y385211D01*
X-10134Y385209D01*
X-10049Y385176D01*
X2175Y385176D01*
X2177Y385177D01*
G37*
G36*
X-12047Y385177D02*
X-12047Y385177D01*
X-12045Y385176D01*
X-12002Y385196D01*
X-11958Y385214D01*
X-11958Y385216D01*
X-11956Y385217D01*
X-11923Y385302D01*
X-11923Y397526D01*
X-11924Y397528D01*
X-11923Y397530D01*
X-11943Y397573D01*
X-11961Y397617D01*
X-11963Y397617D01*
X-11964Y397619D01*
X-12049Y397652D01*
X-24273Y397652D01*
X-24275Y397651D01*
X-24277Y397652D01*
X-24320Y397632D01*
X-24364Y397614D01*
X-24364Y397612D01*
X-24366Y397611D01*
X-24399Y397526D01*
X-24399Y385302D01*
X-24398Y385300D01*
X-24399Y385298D01*
X-24379Y385255D01*
X-24361Y385211D01*
X-24359Y385211D01*
X-24358Y385209D01*
X-24273Y385176D01*
X-12049Y385176D01*
X-12047Y385177D01*
G37*
D10*
X-66444Y393700D03*
X-49444Y393700D03*
D11*
X-50031Y366713D03*
X-69031Y366713D03*
D12*
X-99219Y427600D03*
X-99219Y410600D03*
D10*
X-66444Y381000D03*
X-49444Y381000D03*
D11*
X-50031Y349250D03*
X-69031Y349250D03*
D12*
X50800Y422044D03*
X50800Y405044D03*
D13*
X65088Y408806D03*
X65088Y427806D03*
D12*
X106131Y435769D03*
X89131Y435769D03*
D10*
X-16669Y321700D03*
X-16669Y338700D03*
X10319Y321700D03*
X10319Y338700D03*
X94456Y374419D03*
X94456Y357419D03*
X37306Y321700D03*
X37306Y338700D03*
X-3175Y321700D03*
X-3175Y338700D03*
X-32544Y321700D03*
X-32544Y338700D03*
X23813Y321700D03*
X23813Y338700D03*
D12*
X-51031Y333375D03*
X-68031Y333375D03*
D14*
X-99219Y254794D03*
X-99219Y229394D03*
X97631Y254794D03*
X97631Y229394D03*
D15*
X-31369Y385243D03*
X-31369Y390244D03*
X-31369Y395246D03*
X-31369Y400247D03*
X-31369Y405248D03*
X-31369Y410249D03*
X-31369Y415251D03*
X-31369Y420252D03*
X-31369Y425253D03*
X-31369Y430254D03*
X-31369Y435256D03*
X-31369Y440257D03*
D16*
X-24332Y447294D03*
X-19331Y447294D03*
X-14329Y447294D03*
X-9328Y447294D03*
X-4327Y447294D03*
X674Y447294D03*
X5676Y447294D03*
X10677Y447294D03*
X15678Y447294D03*
X20679Y447294D03*
X25681Y447294D03*
X30682Y447294D03*
D15*
X37719Y440257D03*
X37719Y435256D03*
X37719Y430254D03*
X37719Y425253D03*
X37719Y420252D03*
X37719Y415251D03*
X37719Y410249D03*
X37719Y405248D03*
X37719Y400247D03*
X37719Y395246D03*
X37719Y390244D03*
X37719Y385243D03*
D16*
X30682Y378206D03*
X25681Y378206D03*
X20679Y378206D03*
X15678Y378206D03*
X10677Y378206D03*
X5676Y378206D03*
X674Y378206D03*
X-4327Y378206D03*
X-9328Y378206D03*
X-14329Y378206D03*
X-19331Y378206D03*
X-24332Y378206D03*
D17*
X-52388Y410275D03*
X-52388Y422275D03*
X-52388Y434275D03*
M02*
