G04 EAGLE Gerber RS-274X export*
G75*
%MOMM*%
%FSLAX34Y34*%
%LPD*%
%INSolderpaste Top*%
%IPPOS*%
%AMOC8*
5,1,8,0,0,1.08239X$1,22.5*%
G01*
%ADD10R,0.800000X0.800000*%
%ADD11R,0.800000X0.800000*%
%ADD12R,1.000000X1.100000*%
%ADD13R,1.500000X1.300000*%
%ADD14R,1.300000X1.500000*%
%ADD15R,2.500000X5.800000*%
%ADD16R,1.100000X1.000000*%
%ADD17R,1.260000X0.610000*%
%ADD18R,0.641000X1.006000*%
%ADD19C,0.641000*%
%ADD20R,3.200000X1.800000*%
%ADD21R,1.160000X0.810000*%
%ADD22R,0.926000X0.886000*%
%ADD23R,1.640000X1.360000*%
%ADD24R,0.190000X0.685000*%
%ADD25R,0.825000X0.190000*%
%ADD26R,1.090000X0.730000*%
%ADD27R,0.190000X0.860000*%
%ADD28R,0.860000X0.190000*%


D10*
G36*
X241825Y-15749D02*
X245825Y-22677D01*
X238897Y-26677D01*
X234897Y-19749D01*
X241825Y-15749D01*
G37*
G36*
X254815Y-8249D02*
X258815Y-15177D01*
X251887Y-19177D01*
X247887Y-12249D01*
X254815Y-8249D01*
G37*
G36*
X232300Y920D02*
X236300Y-6008D01*
X229372Y-10008D01*
X225372Y-3080D01*
X232300Y920D01*
G37*
G36*
X245290Y8420D02*
X249290Y1492D01*
X242362Y-2508D01*
X238362Y4420D01*
X245290Y8420D01*
G37*
G36*
X-244238Y-18708D02*
X-240238Y-11780D01*
X-233310Y-15780D01*
X-237310Y-22708D01*
X-244238Y-18708D01*
G37*
G36*
X-257228Y-11208D02*
X-253228Y-4280D01*
X-246300Y-8280D01*
X-250300Y-15208D01*
X-257228Y-11208D01*
G37*
G36*
X-233919Y-1245D02*
X-229919Y5683D01*
X-222991Y1683D01*
X-226991Y-5245D01*
X-233919Y-1245D01*
G37*
G36*
X-246909Y6255D02*
X-242909Y13183D01*
X-235981Y9183D01*
X-239981Y2255D01*
X-246909Y6255D01*
G37*
D11*
X-80525Y323056D03*
X-65525Y323056D03*
D12*
X60325Y112481D03*
X60325Y95481D03*
X-60325Y93894D03*
X-60325Y110894D03*
X29369Y92306D03*
X29369Y109306D03*
D13*
X3969Y109513D03*
X3969Y90513D03*
X76200Y113481D03*
X76200Y94481D03*
X65881Y263550D03*
X65881Y282550D03*
X-68263Y259581D03*
X-68263Y278581D03*
D14*
X-88925Y156369D03*
X-107925Y156369D03*
X84956Y156369D03*
X103956Y156369D03*
D15*
X230188Y155275D03*
X230188Y54275D03*
X-228600Y155275D03*
X-228600Y54275D03*
D16*
X-32775Y292100D03*
X-49775Y292100D03*
D11*
X96044Y402869D03*
X96044Y417869D03*
D17*
X-24181Y92894D03*
X-24181Y111894D03*
X-44081Y102394D03*
D18*
X44450Y85350D03*
D19*
X44450Y116025D02*
X44450Y119675D01*
D16*
X-26194Y410931D03*
X-26194Y393931D03*
D11*
X-80525Y310356D03*
X-65525Y310356D03*
X54413Y305594D03*
X69413Y305594D03*
D14*
G36*
X215542Y-22961D02*
X226800Y-16461D01*
X234300Y-29451D01*
X223042Y-35951D01*
X215542Y-22961D01*
G37*
G36*
X199088Y-32461D02*
X210346Y-25961D01*
X217846Y-38951D01*
X206588Y-45451D01*
X199088Y-32461D01*
G37*
G36*
X205223Y-4705D02*
X216481Y1795D01*
X223981Y-11195D01*
X212723Y-17695D01*
X205223Y-4705D01*
G37*
G36*
X188769Y-14205D02*
X200027Y-7705D01*
X207527Y-20695D01*
X196269Y-27195D01*
X188769Y-14205D01*
G37*
G36*
X-222248Y-31982D02*
X-233506Y-25482D01*
X-226006Y-12492D01*
X-214748Y-18992D01*
X-222248Y-31982D01*
G37*
G36*
X-205794Y-41483D02*
X-217052Y-34983D01*
X-209552Y-21993D01*
X-198294Y-28493D01*
X-205794Y-41483D01*
G37*
G36*
X-211136Y-14520D02*
X-222394Y-8020D01*
X-214894Y4970D01*
X-203636Y-1530D01*
X-211136Y-14520D01*
G37*
G36*
X-194681Y-24020D02*
X-205939Y-17520D01*
X-198439Y-4530D01*
X-187181Y-11030D01*
X-194681Y-24020D01*
G37*
D20*
X96838Y288350D03*
X96838Y232350D03*
X-99219Y287556D03*
X-99219Y231556D03*
D21*
X48213Y169763D03*
X34013Y180463D03*
X34013Y169763D03*
X48213Y180463D03*
X48213Y197363D03*
X34013Y208063D03*
X34013Y197363D03*
X48213Y208063D03*
X-51388Y208063D03*
X-37188Y197363D03*
X-37188Y208063D03*
X-51388Y197363D03*
X-51388Y180463D03*
X-37188Y169763D03*
X-37188Y180463D03*
X-51388Y169763D03*
D22*
X66313Y174713D03*
X66313Y203113D03*
X-69488Y174713D03*
X-69488Y203113D03*
D23*
X10413Y188913D03*
X10413Y207513D03*
X10413Y170313D03*
X-13588Y188913D03*
X-13588Y170313D03*
X-13588Y207513D03*
D24*
X-44788Y244138D03*
X-48788Y244138D03*
X-52788Y244138D03*
X-56788Y244138D03*
X-60788Y244138D03*
X-64788Y244138D03*
D25*
X-71913Y238213D03*
X-71913Y233513D03*
X-71913Y229613D03*
X-71913Y225513D03*
X-71813Y207113D03*
X-71813Y203113D03*
X-71813Y199013D03*
D26*
X57663Y224913D03*
X44363Y234613D03*
X57663Y234613D03*
X44363Y224913D03*
X57663Y143213D03*
X44363Y152913D03*
X57663Y152913D03*
X44363Y143213D03*
X-47538Y224913D03*
X-60838Y234613D03*
X-47538Y234613D03*
X-60838Y224913D03*
X-47538Y143213D03*
X-60838Y152913D03*
X-47538Y152913D03*
X-60838Y143213D03*
D24*
X41613Y244138D03*
X45613Y244138D03*
X49613Y244138D03*
X53613Y244138D03*
X57613Y244138D03*
X61613Y244138D03*
D25*
X68738Y238213D03*
X68738Y233513D03*
X68738Y229613D03*
X68738Y225513D03*
X68638Y207113D03*
X68638Y203113D03*
X68638Y199013D03*
D24*
X41613Y133688D03*
X45613Y133688D03*
X49613Y133688D03*
X53613Y133688D03*
X57613Y133688D03*
X61613Y133688D03*
D25*
X68738Y139613D03*
X68738Y144313D03*
X68738Y148213D03*
X68738Y152313D03*
X68638Y170713D03*
X68638Y174713D03*
X68638Y178813D03*
D24*
X-44788Y133688D03*
X-48788Y133688D03*
X-52788Y133688D03*
X-56788Y133688D03*
X-60788Y133688D03*
X-64788Y133688D03*
D25*
X-71913Y139613D03*
X-71913Y144313D03*
X-71913Y148213D03*
X-71913Y152313D03*
X-71813Y170713D03*
X-71813Y174713D03*
X-71813Y178813D03*
D27*
X-3588Y243263D03*
X-7588Y243263D03*
X-11588Y243263D03*
X-15588Y243263D03*
X-19588Y243263D03*
X-23588Y243263D03*
X-28088Y243263D03*
X-34288Y243263D03*
X413Y243263D03*
X4413Y243263D03*
X8413Y243263D03*
X12413Y243263D03*
X16413Y243263D03*
X20413Y243263D03*
X24913Y243263D03*
X31113Y243263D03*
X-5588Y134563D03*
X-9588Y134563D03*
X-16888Y134563D03*
X-20888Y134563D03*
X-28088Y134563D03*
X-34288Y134563D03*
X2413Y134563D03*
X9713Y134563D03*
X16913Y134563D03*
X20913Y134563D03*
X24913Y134563D03*
X31113Y134563D03*
X-1588Y134563D03*
D28*
X-70938Y214013D03*
X-70938Y192113D03*
X-70938Y185713D03*
X-70938Y163813D03*
X67763Y214013D03*
X67763Y192113D03*
X67763Y185713D03*
X67763Y163813D03*
D16*
X20406Y309563D03*
X3406Y309563D03*
X20406Y296863D03*
X3406Y296863D03*
X-76200Y110894D03*
X-76200Y93894D03*
X-92869Y94688D03*
X-92869Y111688D03*
D12*
X-109538Y110894D03*
X-109538Y93894D03*
M02*
