M48
;GenerationSoftware,Autodesk,EAGLE,9.6.2*%
;CreationDate,2021-04-18T22:45:27Z*%
FMAT,2
ICI,OFF
METRIC,TZ,000.000
T3C0.350
T2C1.020
T1C1.321
%
G90
M71
T1
X-2937Y-2515
X-2937Y2515
X3004Y-13766
X489Y-9411
X489Y9411
X3004Y13766
T2
X-22860Y17440
X-24130Y-15240
X-22860Y-17440
X-24130Y15240
T3
X-35481Y10036
X-33675Y-9257
X-44971Y8652
X-41910Y8731
X-36907Y-12142
X-45006Y-7620
X-38576Y7064
X-45738Y5380
X-46672Y4445
X-14764Y6350
X-13494Y5715
X-14764Y5080
X-13494Y4445
X-21590Y6350
X-23019Y5715
X-21590Y5080
X-23019Y4445
X-14764Y-6350
X-13494Y-5715
X-14764Y-5080
X-13494Y-4445
X-21590Y-6350
X-22860Y-5715
X-21590Y-5080
X-22860Y-4445
X-13811Y-2223
X-12700Y19685
X-15716Y-20479
X-8414Y794
X-16034Y-5398
X-17463Y-4763
X-16034Y-3969
X-17463Y-3175
X-18891Y-5398
X-20320Y-4763
X-18891Y-3969
X-20320Y-3175
X-17463Y3175
X-16034Y3969
X-17463Y4763
X-16034Y5398
X-20320Y3175
X-18891Y3969
X-20320Y4763
X-18891Y5398
X-27763Y476
X-26908Y3731
X-25241Y7302
X-22066Y2064
X-14446Y2064
X-15875Y1905
X-17463Y1905
X-18891Y1905
X-20479Y1905
X-20479Y635
X-18891Y635
X-17463Y635
X-15875Y635
X-20479Y-1905
X-18891Y-1905
X-17463Y-1905
X-15875Y-1905
X-15875Y-635
X-17463Y-635
X-18891Y-635
X-20479Y-635
X-14446Y635
X-14446Y-635
X-22066Y635
X-22066Y-635
X-22066Y-2064
X-22384Y-11646
X-13335Y-29051
X-22860Y-19526
X-13335Y-26511
X-13335Y-23971
X-13335Y-21431
X-20955Y-18574
X-17145Y-20479
X-20003Y-20479
X-14287Y-20479
X-22384Y-14503
X-10478Y-28099
X-1905Y-29051
X-10478Y-25559
X-10478Y-23019
X-10478Y-20479
X-1905Y-26194
X-4763Y-28099
X-2857Y-21431
X-4763Y-25559
X-4763Y-20479
X-7620Y-29051
X-7620Y-26511
X-12382Y21431
X-12382Y23971
X-12382Y26511
X-12382Y28892
X-9525Y20479
X-9525Y25559
X-9525Y28099
X-6667Y26511
X-6667Y28892
X-3810Y20479
X-3810Y23019
X-3810Y25559
X-3810Y28099
X-7620Y-20479
X-6667Y20479
X-42228Y4604
X-2857Y21749
X-26908Y-1016
X-25479Y-13097
X-26670Y-1925
X-26899Y55
X-27622Y-13097
X-25956Y2143
X-21250Y21603
X-26035Y476
X-13591Y23906
X-27679Y-6985
X-35401Y7302
X-35719Y5715
X-36433Y5080
X-36433Y6826
X-45344Y-6170
X-48657Y-3969
X-47714Y-3142
X-45868Y-5329
X-952Y26511
X-26829Y5334
X-15320Y26738
X-26194Y4524
X-17939Y19526
X-43021Y-12382
X-48895Y159
X-40481Y-12382
X-44448Y7622
X-41751Y-12382
X-44937Y6826
X-49847Y3016
X-37465Y2064
X-38477Y9013
X-33655Y-5874
X-43021Y7541
X-33496Y2223
X-49054Y-1581
X-44549Y-8702
X-37941Y-10478
X-25479Y-1746
M30